G04 #@! TF.GenerationSoftware,KiCad,Pcbnew,(7.0.0)*
G04 #@! TF.CreationDate,2023-06-23T19:03:52+10:00*
G04 #@! TF.ProjectId,RP2040_minimal,52503230-3430-45f6-9d69-6e696d616c2e,REV1*
G04 #@! TF.SameCoordinates,Original*
G04 #@! TF.FileFunction,Legend,Bot*
G04 #@! TF.FilePolarity,Positive*
%FSLAX46Y46*%
G04 Gerber Fmt 4.6, Leading zero omitted, Abs format (unit mm)*
G04 Created by KiCad (PCBNEW (7.0.0)) date 2023-06-23 19:03:52*
%MOMM*%
%LPD*%
G01*
G04 APERTURE LIST*
%ADD10C,0.150000*%
%ADD11C,0.120000*%
G04 APERTURE END LIST*
D10*
X157547415Y-108181869D02*
X157547415Y-108991393D01*
X157547415Y-108991393D02*
X157499796Y-109086631D01*
X157499796Y-109086631D02*
X157452177Y-109134250D01*
X157452177Y-109134250D02*
X157356939Y-109181869D01*
X157356939Y-109181869D02*
X157166463Y-109181869D01*
X157166463Y-109181869D02*
X157071225Y-109134250D01*
X157071225Y-109134250D02*
X157023606Y-109086631D01*
X157023606Y-109086631D02*
X156975987Y-108991393D01*
X156975987Y-108991393D02*
X156975987Y-108181869D01*
X156547415Y-108277108D02*
X156499796Y-108229489D01*
X156499796Y-108229489D02*
X156404558Y-108181869D01*
X156404558Y-108181869D02*
X156166463Y-108181869D01*
X156166463Y-108181869D02*
X156071225Y-108229489D01*
X156071225Y-108229489D02*
X156023606Y-108277108D01*
X156023606Y-108277108D02*
X155975987Y-108372346D01*
X155975987Y-108372346D02*
X155975987Y-108467584D01*
X155975987Y-108467584D02*
X156023606Y-108610441D01*
X156023606Y-108610441D02*
X156595034Y-109181869D01*
X156595034Y-109181869D02*
X155975987Y-109181869D01*
X151702177Y-117881869D02*
X152035510Y-117405679D01*
X152273605Y-117881869D02*
X152273605Y-116881869D01*
X152273605Y-116881869D02*
X151892653Y-116881869D01*
X151892653Y-116881869D02*
X151797415Y-116929489D01*
X151797415Y-116929489D02*
X151749796Y-116977108D01*
X151749796Y-116977108D02*
X151702177Y-117072346D01*
X151702177Y-117072346D02*
X151702177Y-117215203D01*
X151702177Y-117215203D02*
X151749796Y-117310441D01*
X151749796Y-117310441D02*
X151797415Y-117358060D01*
X151797415Y-117358060D02*
X151892653Y-117405679D01*
X151892653Y-117405679D02*
X152273605Y-117405679D01*
X151321224Y-116977108D02*
X151273605Y-116929489D01*
X151273605Y-116929489D02*
X151178367Y-116881869D01*
X151178367Y-116881869D02*
X150940272Y-116881869D01*
X150940272Y-116881869D02*
X150845034Y-116929489D01*
X150845034Y-116929489D02*
X150797415Y-116977108D01*
X150797415Y-116977108D02*
X150749796Y-117072346D01*
X150749796Y-117072346D02*
X150749796Y-117167584D01*
X150749796Y-117167584D02*
X150797415Y-117310441D01*
X150797415Y-117310441D02*
X151368843Y-117881869D01*
X151368843Y-117881869D02*
X150749796Y-117881869D01*
X159902177Y-118586631D02*
X159949796Y-118634250D01*
X159949796Y-118634250D02*
X160092653Y-118681869D01*
X160092653Y-118681869D02*
X160187891Y-118681869D01*
X160187891Y-118681869D02*
X160330748Y-118634250D01*
X160330748Y-118634250D02*
X160425986Y-118539012D01*
X160425986Y-118539012D02*
X160473605Y-118443774D01*
X160473605Y-118443774D02*
X160521224Y-118253298D01*
X160521224Y-118253298D02*
X160521224Y-118110441D01*
X160521224Y-118110441D02*
X160473605Y-117919965D01*
X160473605Y-117919965D02*
X160425986Y-117824727D01*
X160425986Y-117824727D02*
X160330748Y-117729489D01*
X160330748Y-117729489D02*
X160187891Y-117681869D01*
X160187891Y-117681869D02*
X160092653Y-117681869D01*
X160092653Y-117681869D02*
X159949796Y-117729489D01*
X159949796Y-117729489D02*
X159902177Y-117777108D01*
X158997415Y-117681869D02*
X159473605Y-117681869D01*
X159473605Y-117681869D02*
X159521224Y-118158060D01*
X159521224Y-118158060D02*
X159473605Y-118110441D01*
X159473605Y-118110441D02*
X159378367Y-118062822D01*
X159378367Y-118062822D02*
X159140272Y-118062822D01*
X159140272Y-118062822D02*
X159045034Y-118110441D01*
X159045034Y-118110441D02*
X158997415Y-118158060D01*
X158997415Y-118158060D02*
X158949796Y-118253298D01*
X158949796Y-118253298D02*
X158949796Y-118491393D01*
X158949796Y-118491393D02*
X158997415Y-118586631D01*
X158997415Y-118586631D02*
X159045034Y-118634250D01*
X159045034Y-118634250D02*
X159140272Y-118681869D01*
X159140272Y-118681869D02*
X159378367Y-118681869D01*
X159378367Y-118681869D02*
X159473605Y-118634250D01*
X159473605Y-118634250D02*
X159521224Y-118586631D01*
X154253857Y-96784142D02*
X154301476Y-96831761D01*
X154301476Y-96831761D02*
X154444333Y-96879380D01*
X154444333Y-96879380D02*
X154539571Y-96879380D01*
X154539571Y-96879380D02*
X154682428Y-96831761D01*
X154682428Y-96831761D02*
X154777666Y-96736523D01*
X154777666Y-96736523D02*
X154825285Y-96641285D01*
X154825285Y-96641285D02*
X154872904Y-96450809D01*
X154872904Y-96450809D02*
X154872904Y-96307952D01*
X154872904Y-96307952D02*
X154825285Y-96117476D01*
X154825285Y-96117476D02*
X154777666Y-96022238D01*
X154777666Y-96022238D02*
X154682428Y-95927000D01*
X154682428Y-95927000D02*
X154539571Y-95879380D01*
X154539571Y-95879380D02*
X154444333Y-95879380D01*
X154444333Y-95879380D02*
X154301476Y-95927000D01*
X154301476Y-95927000D02*
X154253857Y-95974619D01*
X153301476Y-96879380D02*
X153872904Y-96879380D01*
X153587190Y-96879380D02*
X153587190Y-95879380D01*
X153587190Y-95879380D02*
X153682428Y-96022238D01*
X153682428Y-96022238D02*
X153777666Y-96117476D01*
X153777666Y-96117476D02*
X153872904Y-96165095D01*
X152968142Y-95879380D02*
X152349095Y-95879380D01*
X152349095Y-95879380D02*
X152682428Y-96260333D01*
X152682428Y-96260333D02*
X152539571Y-96260333D01*
X152539571Y-96260333D02*
X152444333Y-96307952D01*
X152444333Y-96307952D02*
X152396714Y-96355571D01*
X152396714Y-96355571D02*
X152349095Y-96450809D01*
X152349095Y-96450809D02*
X152349095Y-96688904D01*
X152349095Y-96688904D02*
X152396714Y-96784142D01*
X152396714Y-96784142D02*
X152444333Y-96831761D01*
X152444333Y-96831761D02*
X152539571Y-96879380D01*
X152539571Y-96879380D02*
X152825285Y-96879380D01*
X152825285Y-96879380D02*
X152920523Y-96831761D01*
X152920523Y-96831761D02*
X152968142Y-96784142D01*
X164058142Y-108715333D02*
X164105761Y-108667714D01*
X164105761Y-108667714D02*
X164153380Y-108524857D01*
X164153380Y-108524857D02*
X164153380Y-108429619D01*
X164153380Y-108429619D02*
X164105761Y-108286762D01*
X164105761Y-108286762D02*
X164010523Y-108191524D01*
X164010523Y-108191524D02*
X163915285Y-108143905D01*
X163915285Y-108143905D02*
X163724809Y-108096286D01*
X163724809Y-108096286D02*
X163581952Y-108096286D01*
X163581952Y-108096286D02*
X163391476Y-108143905D01*
X163391476Y-108143905D02*
X163296238Y-108191524D01*
X163296238Y-108191524D02*
X163201000Y-108286762D01*
X163201000Y-108286762D02*
X163153380Y-108429619D01*
X163153380Y-108429619D02*
X163153380Y-108524857D01*
X163153380Y-108524857D02*
X163201000Y-108667714D01*
X163201000Y-108667714D02*
X163248619Y-108715333D01*
X163581952Y-109286762D02*
X163534333Y-109191524D01*
X163534333Y-109191524D02*
X163486714Y-109143905D01*
X163486714Y-109143905D02*
X163391476Y-109096286D01*
X163391476Y-109096286D02*
X163343857Y-109096286D01*
X163343857Y-109096286D02*
X163248619Y-109143905D01*
X163248619Y-109143905D02*
X163201000Y-109191524D01*
X163201000Y-109191524D02*
X163153380Y-109286762D01*
X163153380Y-109286762D02*
X163153380Y-109477238D01*
X163153380Y-109477238D02*
X163201000Y-109572476D01*
X163201000Y-109572476D02*
X163248619Y-109620095D01*
X163248619Y-109620095D02*
X163343857Y-109667714D01*
X163343857Y-109667714D02*
X163391476Y-109667714D01*
X163391476Y-109667714D02*
X163486714Y-109620095D01*
X163486714Y-109620095D02*
X163534333Y-109572476D01*
X163534333Y-109572476D02*
X163581952Y-109477238D01*
X163581952Y-109477238D02*
X163581952Y-109286762D01*
X163581952Y-109286762D02*
X163629571Y-109191524D01*
X163629571Y-109191524D02*
X163677190Y-109143905D01*
X163677190Y-109143905D02*
X163772428Y-109096286D01*
X163772428Y-109096286D02*
X163962904Y-109096286D01*
X163962904Y-109096286D02*
X164058142Y-109143905D01*
X164058142Y-109143905D02*
X164105761Y-109191524D01*
X164105761Y-109191524D02*
X164153380Y-109286762D01*
X164153380Y-109286762D02*
X164153380Y-109477238D01*
X164153380Y-109477238D02*
X164105761Y-109572476D01*
X164105761Y-109572476D02*
X164058142Y-109620095D01*
X164058142Y-109620095D02*
X163962904Y-109667714D01*
X163962904Y-109667714D02*
X163772428Y-109667714D01*
X163772428Y-109667714D02*
X163677190Y-109620095D01*
X163677190Y-109620095D02*
X163629571Y-109572476D01*
X163629571Y-109572476D02*
X163581952Y-109477238D01*
X165358142Y-108739142D02*
X165405761Y-108691523D01*
X165405761Y-108691523D02*
X165453380Y-108548666D01*
X165453380Y-108548666D02*
X165453380Y-108453428D01*
X165453380Y-108453428D02*
X165405761Y-108310571D01*
X165405761Y-108310571D02*
X165310523Y-108215333D01*
X165310523Y-108215333D02*
X165215285Y-108167714D01*
X165215285Y-108167714D02*
X165024809Y-108120095D01*
X165024809Y-108120095D02*
X164881952Y-108120095D01*
X164881952Y-108120095D02*
X164691476Y-108167714D01*
X164691476Y-108167714D02*
X164596238Y-108215333D01*
X164596238Y-108215333D02*
X164501000Y-108310571D01*
X164501000Y-108310571D02*
X164453380Y-108453428D01*
X164453380Y-108453428D02*
X164453380Y-108548666D01*
X164453380Y-108548666D02*
X164501000Y-108691523D01*
X164501000Y-108691523D02*
X164548619Y-108739142D01*
X165453380Y-109691523D02*
X165453380Y-109120095D01*
X165453380Y-109405809D02*
X164453380Y-109405809D01*
X164453380Y-109405809D02*
X164596238Y-109310571D01*
X164596238Y-109310571D02*
X164691476Y-109215333D01*
X164691476Y-109215333D02*
X164739095Y-109120095D01*
X164453380Y-110310571D02*
X164453380Y-110405809D01*
X164453380Y-110405809D02*
X164501000Y-110501047D01*
X164501000Y-110501047D02*
X164548619Y-110548666D01*
X164548619Y-110548666D02*
X164643857Y-110596285D01*
X164643857Y-110596285D02*
X164834333Y-110643904D01*
X164834333Y-110643904D02*
X165072428Y-110643904D01*
X165072428Y-110643904D02*
X165262904Y-110596285D01*
X165262904Y-110596285D02*
X165358142Y-110548666D01*
X165358142Y-110548666D02*
X165405761Y-110501047D01*
X165405761Y-110501047D02*
X165453380Y-110405809D01*
X165453380Y-110405809D02*
X165453380Y-110310571D01*
X165453380Y-110310571D02*
X165405761Y-110215333D01*
X165405761Y-110215333D02*
X165358142Y-110167714D01*
X165358142Y-110167714D02*
X165262904Y-110120095D01*
X165262904Y-110120095D02*
X165072428Y-110072476D01*
X165072428Y-110072476D02*
X164834333Y-110072476D01*
X164834333Y-110072476D02*
X164643857Y-110120095D01*
X164643857Y-110120095D02*
X164548619Y-110167714D01*
X164548619Y-110167714D02*
X164501000Y-110215333D01*
X164501000Y-110215333D02*
X164453380Y-110310571D01*
X161532666Y-89426142D02*
X161580285Y-89473761D01*
X161580285Y-89473761D02*
X161723142Y-89521380D01*
X161723142Y-89521380D02*
X161818380Y-89521380D01*
X161818380Y-89521380D02*
X161961237Y-89473761D01*
X161961237Y-89473761D02*
X162056475Y-89378523D01*
X162056475Y-89378523D02*
X162104094Y-89283285D01*
X162104094Y-89283285D02*
X162151713Y-89092809D01*
X162151713Y-89092809D02*
X162151713Y-88949952D01*
X162151713Y-88949952D02*
X162104094Y-88759476D01*
X162104094Y-88759476D02*
X162056475Y-88664238D01*
X162056475Y-88664238D02*
X161961237Y-88569000D01*
X161961237Y-88569000D02*
X161818380Y-88521380D01*
X161818380Y-88521380D02*
X161723142Y-88521380D01*
X161723142Y-88521380D02*
X161580285Y-88569000D01*
X161580285Y-88569000D02*
X161532666Y-88616619D01*
X161199332Y-88521380D02*
X160580285Y-88521380D01*
X160580285Y-88521380D02*
X160913618Y-88902333D01*
X160913618Y-88902333D02*
X160770761Y-88902333D01*
X160770761Y-88902333D02*
X160675523Y-88949952D01*
X160675523Y-88949952D02*
X160627904Y-88997571D01*
X160627904Y-88997571D02*
X160580285Y-89092809D01*
X160580285Y-89092809D02*
X160580285Y-89330904D01*
X160580285Y-89330904D02*
X160627904Y-89426142D01*
X160627904Y-89426142D02*
X160675523Y-89473761D01*
X160675523Y-89473761D02*
X160770761Y-89521380D01*
X160770761Y-89521380D02*
X161056475Y-89521380D01*
X161056475Y-89521380D02*
X161151713Y-89473761D01*
X161151713Y-89473761D02*
X161199332Y-89426142D01*
X156402177Y-117881869D02*
X156735510Y-117405679D01*
X156973605Y-117881869D02*
X156973605Y-116881869D01*
X156973605Y-116881869D02*
X156592653Y-116881869D01*
X156592653Y-116881869D02*
X156497415Y-116929489D01*
X156497415Y-116929489D02*
X156449796Y-116977108D01*
X156449796Y-116977108D02*
X156402177Y-117072346D01*
X156402177Y-117072346D02*
X156402177Y-117215203D01*
X156402177Y-117215203D02*
X156449796Y-117310441D01*
X156449796Y-117310441D02*
X156497415Y-117358060D01*
X156497415Y-117358060D02*
X156592653Y-117405679D01*
X156592653Y-117405679D02*
X156973605Y-117405679D01*
X155449796Y-117881869D02*
X156021224Y-117881869D01*
X155735510Y-117881869D02*
X155735510Y-116881869D01*
X155735510Y-116881869D02*
X155830748Y-117024727D01*
X155830748Y-117024727D02*
X155925986Y-117119965D01*
X155925986Y-117119965D02*
X156021224Y-117167584D01*
X160168142Y-108715333D02*
X160215761Y-108667714D01*
X160215761Y-108667714D02*
X160263380Y-108524857D01*
X160263380Y-108524857D02*
X160263380Y-108429619D01*
X160263380Y-108429619D02*
X160215761Y-108286762D01*
X160215761Y-108286762D02*
X160120523Y-108191524D01*
X160120523Y-108191524D02*
X160025285Y-108143905D01*
X160025285Y-108143905D02*
X159834809Y-108096286D01*
X159834809Y-108096286D02*
X159691952Y-108096286D01*
X159691952Y-108096286D02*
X159501476Y-108143905D01*
X159501476Y-108143905D02*
X159406238Y-108191524D01*
X159406238Y-108191524D02*
X159311000Y-108286762D01*
X159311000Y-108286762D02*
X159263380Y-108429619D01*
X159263380Y-108429619D02*
X159263380Y-108524857D01*
X159263380Y-108524857D02*
X159311000Y-108667714D01*
X159311000Y-108667714D02*
X159358619Y-108715333D01*
X160263380Y-109191524D02*
X160263380Y-109382000D01*
X160263380Y-109382000D02*
X160215761Y-109477238D01*
X160215761Y-109477238D02*
X160168142Y-109524857D01*
X160168142Y-109524857D02*
X160025285Y-109620095D01*
X160025285Y-109620095D02*
X159834809Y-109667714D01*
X159834809Y-109667714D02*
X159453857Y-109667714D01*
X159453857Y-109667714D02*
X159358619Y-109620095D01*
X159358619Y-109620095D02*
X159311000Y-109572476D01*
X159311000Y-109572476D02*
X159263380Y-109477238D01*
X159263380Y-109477238D02*
X159263380Y-109286762D01*
X159263380Y-109286762D02*
X159311000Y-109191524D01*
X159311000Y-109191524D02*
X159358619Y-109143905D01*
X159358619Y-109143905D02*
X159453857Y-109096286D01*
X159453857Y-109096286D02*
X159691952Y-109096286D01*
X159691952Y-109096286D02*
X159787190Y-109143905D01*
X159787190Y-109143905D02*
X159834809Y-109191524D01*
X159834809Y-109191524D02*
X159882428Y-109286762D01*
X159882428Y-109286762D02*
X159882428Y-109477238D01*
X159882428Y-109477238D02*
X159834809Y-109572476D01*
X159834809Y-109572476D02*
X159787190Y-109620095D01*
X159787190Y-109620095D02*
X159691952Y-109667714D01*
X167223857Y-99124142D02*
X167271476Y-99171761D01*
X167271476Y-99171761D02*
X167414333Y-99219380D01*
X167414333Y-99219380D02*
X167509571Y-99219380D01*
X167509571Y-99219380D02*
X167652428Y-99171761D01*
X167652428Y-99171761D02*
X167747666Y-99076523D01*
X167747666Y-99076523D02*
X167795285Y-98981285D01*
X167795285Y-98981285D02*
X167842904Y-98790809D01*
X167842904Y-98790809D02*
X167842904Y-98647952D01*
X167842904Y-98647952D02*
X167795285Y-98457476D01*
X167795285Y-98457476D02*
X167747666Y-98362238D01*
X167747666Y-98362238D02*
X167652428Y-98267000D01*
X167652428Y-98267000D02*
X167509571Y-98219380D01*
X167509571Y-98219380D02*
X167414333Y-98219380D01*
X167414333Y-98219380D02*
X167271476Y-98267000D01*
X167271476Y-98267000D02*
X167223857Y-98314619D01*
X166271476Y-99219380D02*
X166842904Y-99219380D01*
X166557190Y-99219380D02*
X166557190Y-98219380D01*
X166557190Y-98219380D02*
X166652428Y-98362238D01*
X166652428Y-98362238D02*
X166747666Y-98457476D01*
X166747666Y-98457476D02*
X166842904Y-98505095D01*
X165890523Y-98314619D02*
X165842904Y-98267000D01*
X165842904Y-98267000D02*
X165747666Y-98219380D01*
X165747666Y-98219380D02*
X165509571Y-98219380D01*
X165509571Y-98219380D02*
X165414333Y-98267000D01*
X165414333Y-98267000D02*
X165366714Y-98314619D01*
X165366714Y-98314619D02*
X165319095Y-98409857D01*
X165319095Y-98409857D02*
X165319095Y-98505095D01*
X165319095Y-98505095D02*
X165366714Y-98647952D01*
X165366714Y-98647952D02*
X165938142Y-99219380D01*
X165938142Y-99219380D02*
X165319095Y-99219380D01*
X160619857Y-94254142D02*
X160667476Y-94301761D01*
X160667476Y-94301761D02*
X160810333Y-94349380D01*
X160810333Y-94349380D02*
X160905571Y-94349380D01*
X160905571Y-94349380D02*
X161048428Y-94301761D01*
X161048428Y-94301761D02*
X161143666Y-94206523D01*
X161143666Y-94206523D02*
X161191285Y-94111285D01*
X161191285Y-94111285D02*
X161238904Y-93920809D01*
X161238904Y-93920809D02*
X161238904Y-93777952D01*
X161238904Y-93777952D02*
X161191285Y-93587476D01*
X161191285Y-93587476D02*
X161143666Y-93492238D01*
X161143666Y-93492238D02*
X161048428Y-93397000D01*
X161048428Y-93397000D02*
X160905571Y-93349380D01*
X160905571Y-93349380D02*
X160810333Y-93349380D01*
X160810333Y-93349380D02*
X160667476Y-93397000D01*
X160667476Y-93397000D02*
X160619857Y-93444619D01*
X159667476Y-94349380D02*
X160238904Y-94349380D01*
X159953190Y-94349380D02*
X159953190Y-93349380D01*
X159953190Y-93349380D02*
X160048428Y-93492238D01*
X160048428Y-93492238D02*
X160143666Y-93587476D01*
X160143666Y-93587476D02*
X160238904Y-93635095D01*
X158810333Y-93682714D02*
X158810333Y-94349380D01*
X159048428Y-93301761D02*
X159286523Y-94016047D01*
X159286523Y-94016047D02*
X158667476Y-94016047D01*
X161553380Y-108715333D02*
X161077190Y-108382000D01*
X161553380Y-108143905D02*
X160553380Y-108143905D01*
X160553380Y-108143905D02*
X160553380Y-108524857D01*
X160553380Y-108524857D02*
X160601000Y-108620095D01*
X160601000Y-108620095D02*
X160648619Y-108667714D01*
X160648619Y-108667714D02*
X160743857Y-108715333D01*
X160743857Y-108715333D02*
X160886714Y-108715333D01*
X160886714Y-108715333D02*
X160981952Y-108667714D01*
X160981952Y-108667714D02*
X161029571Y-108620095D01*
X161029571Y-108620095D02*
X161077190Y-108524857D01*
X161077190Y-108524857D02*
X161077190Y-108143905D01*
X160553380Y-109048667D02*
X160553380Y-109667714D01*
X160553380Y-109667714D02*
X160934333Y-109334381D01*
X160934333Y-109334381D02*
X160934333Y-109477238D01*
X160934333Y-109477238D02*
X160981952Y-109572476D01*
X160981952Y-109572476D02*
X161029571Y-109620095D01*
X161029571Y-109620095D02*
X161124809Y-109667714D01*
X161124809Y-109667714D02*
X161362904Y-109667714D01*
X161362904Y-109667714D02*
X161458142Y-109620095D01*
X161458142Y-109620095D02*
X161505761Y-109572476D01*
X161505761Y-109572476D02*
X161553380Y-109477238D01*
X161553380Y-109477238D02*
X161553380Y-109191524D01*
X161553380Y-109191524D02*
X161505761Y-109096286D01*
X161505761Y-109096286D02*
X161458142Y-109048667D01*
X163162666Y-92554142D02*
X163210285Y-92601761D01*
X163210285Y-92601761D02*
X163353142Y-92649380D01*
X163353142Y-92649380D02*
X163448380Y-92649380D01*
X163448380Y-92649380D02*
X163591237Y-92601761D01*
X163591237Y-92601761D02*
X163686475Y-92506523D01*
X163686475Y-92506523D02*
X163734094Y-92411285D01*
X163734094Y-92411285D02*
X163781713Y-92220809D01*
X163781713Y-92220809D02*
X163781713Y-92077952D01*
X163781713Y-92077952D02*
X163734094Y-91887476D01*
X163734094Y-91887476D02*
X163686475Y-91792238D01*
X163686475Y-91792238D02*
X163591237Y-91697000D01*
X163591237Y-91697000D02*
X163448380Y-91649380D01*
X163448380Y-91649380D02*
X163353142Y-91649380D01*
X163353142Y-91649380D02*
X163210285Y-91697000D01*
X163210285Y-91697000D02*
X163162666Y-91744619D01*
X162829332Y-91649380D02*
X162162666Y-91649380D01*
X162162666Y-91649380D02*
X162591237Y-92649380D01*
X154873857Y-101632142D02*
X154921476Y-101679761D01*
X154921476Y-101679761D02*
X155064333Y-101727380D01*
X155064333Y-101727380D02*
X155159571Y-101727380D01*
X155159571Y-101727380D02*
X155302428Y-101679761D01*
X155302428Y-101679761D02*
X155397666Y-101584523D01*
X155397666Y-101584523D02*
X155445285Y-101489285D01*
X155445285Y-101489285D02*
X155492904Y-101298809D01*
X155492904Y-101298809D02*
X155492904Y-101155952D01*
X155492904Y-101155952D02*
X155445285Y-100965476D01*
X155445285Y-100965476D02*
X155397666Y-100870238D01*
X155397666Y-100870238D02*
X155302428Y-100775000D01*
X155302428Y-100775000D02*
X155159571Y-100727380D01*
X155159571Y-100727380D02*
X155064333Y-100727380D01*
X155064333Y-100727380D02*
X154921476Y-100775000D01*
X154921476Y-100775000D02*
X154873857Y-100822619D01*
X153921476Y-101727380D02*
X154492904Y-101727380D01*
X154207190Y-101727380D02*
X154207190Y-100727380D01*
X154207190Y-100727380D02*
X154302428Y-100870238D01*
X154302428Y-100870238D02*
X154397666Y-100965476D01*
X154397666Y-100965476D02*
X154492904Y-101013095D01*
X152969095Y-101727380D02*
X153540523Y-101727380D01*
X153254809Y-101727380D02*
X153254809Y-100727380D01*
X153254809Y-100727380D02*
X153350047Y-100870238D01*
X153350047Y-100870238D02*
X153445285Y-100965476D01*
X153445285Y-100965476D02*
X153540523Y-101013095D01*
X157147904Y-102849380D02*
X157147904Y-103658904D01*
X157147904Y-103658904D02*
X157100285Y-103754142D01*
X157100285Y-103754142D02*
X157052666Y-103801761D01*
X157052666Y-103801761D02*
X156957428Y-103849380D01*
X156957428Y-103849380D02*
X156766952Y-103849380D01*
X156766952Y-103849380D02*
X156671714Y-103801761D01*
X156671714Y-103801761D02*
X156624095Y-103754142D01*
X156624095Y-103754142D02*
X156576476Y-103658904D01*
X156576476Y-103658904D02*
X156576476Y-102849380D01*
X156195523Y-102849380D02*
X155576476Y-102849380D01*
X155576476Y-102849380D02*
X155909809Y-103230333D01*
X155909809Y-103230333D02*
X155766952Y-103230333D01*
X155766952Y-103230333D02*
X155671714Y-103277952D01*
X155671714Y-103277952D02*
X155624095Y-103325571D01*
X155624095Y-103325571D02*
X155576476Y-103420809D01*
X155576476Y-103420809D02*
X155576476Y-103658904D01*
X155576476Y-103658904D02*
X155624095Y-103754142D01*
X155624095Y-103754142D02*
X155671714Y-103801761D01*
X155671714Y-103801761D02*
X155766952Y-103849380D01*
X155766952Y-103849380D02*
X156052666Y-103849380D01*
X156052666Y-103849380D02*
X156147904Y-103801761D01*
X156147904Y-103801761D02*
X156195523Y-103754142D01*
X154462666Y-90254142D02*
X154510285Y-90301761D01*
X154510285Y-90301761D02*
X154653142Y-90349380D01*
X154653142Y-90349380D02*
X154748380Y-90349380D01*
X154748380Y-90349380D02*
X154891237Y-90301761D01*
X154891237Y-90301761D02*
X154986475Y-90206523D01*
X154986475Y-90206523D02*
X155034094Y-90111285D01*
X155034094Y-90111285D02*
X155081713Y-89920809D01*
X155081713Y-89920809D02*
X155081713Y-89777952D01*
X155081713Y-89777952D02*
X155034094Y-89587476D01*
X155034094Y-89587476D02*
X154986475Y-89492238D01*
X154986475Y-89492238D02*
X154891237Y-89397000D01*
X154891237Y-89397000D02*
X154748380Y-89349380D01*
X154748380Y-89349380D02*
X154653142Y-89349380D01*
X154653142Y-89349380D02*
X154510285Y-89397000D01*
X154510285Y-89397000D02*
X154462666Y-89444619D01*
X154081713Y-89444619D02*
X154034094Y-89397000D01*
X154034094Y-89397000D02*
X153938856Y-89349380D01*
X153938856Y-89349380D02*
X153700761Y-89349380D01*
X153700761Y-89349380D02*
X153605523Y-89397000D01*
X153605523Y-89397000D02*
X153557904Y-89444619D01*
X153557904Y-89444619D02*
X153510285Y-89539857D01*
X153510285Y-89539857D02*
X153510285Y-89635095D01*
X153510285Y-89635095D02*
X153557904Y-89777952D01*
X153557904Y-89777952D02*
X154129332Y-90349380D01*
X154129332Y-90349380D02*
X153510285Y-90349380D01*
X162853380Y-108715333D02*
X162377190Y-108382000D01*
X162853380Y-108143905D02*
X161853380Y-108143905D01*
X161853380Y-108143905D02*
X161853380Y-108524857D01*
X161853380Y-108524857D02*
X161901000Y-108620095D01*
X161901000Y-108620095D02*
X161948619Y-108667714D01*
X161948619Y-108667714D02*
X162043857Y-108715333D01*
X162043857Y-108715333D02*
X162186714Y-108715333D01*
X162186714Y-108715333D02*
X162281952Y-108667714D01*
X162281952Y-108667714D02*
X162329571Y-108620095D01*
X162329571Y-108620095D02*
X162377190Y-108524857D01*
X162377190Y-108524857D02*
X162377190Y-108143905D01*
X162186714Y-109572476D02*
X162853380Y-109572476D01*
X161805761Y-109334381D02*
X162520047Y-109096286D01*
X162520047Y-109096286D02*
X162520047Y-109715333D01*
X158858142Y-108715333D02*
X158905761Y-108667714D01*
X158905761Y-108667714D02*
X158953380Y-108524857D01*
X158953380Y-108524857D02*
X158953380Y-108429619D01*
X158953380Y-108429619D02*
X158905761Y-108286762D01*
X158905761Y-108286762D02*
X158810523Y-108191524D01*
X158810523Y-108191524D02*
X158715285Y-108143905D01*
X158715285Y-108143905D02*
X158524809Y-108096286D01*
X158524809Y-108096286D02*
X158381952Y-108096286D01*
X158381952Y-108096286D02*
X158191476Y-108143905D01*
X158191476Y-108143905D02*
X158096238Y-108191524D01*
X158096238Y-108191524D02*
X158001000Y-108286762D01*
X158001000Y-108286762D02*
X157953380Y-108429619D01*
X157953380Y-108429619D02*
X157953380Y-108524857D01*
X157953380Y-108524857D02*
X158001000Y-108667714D01*
X158001000Y-108667714D02*
X158048619Y-108715333D01*
X157953380Y-109572476D02*
X157953380Y-109382000D01*
X157953380Y-109382000D02*
X158001000Y-109286762D01*
X158001000Y-109286762D02*
X158048619Y-109239143D01*
X158048619Y-109239143D02*
X158191476Y-109143905D01*
X158191476Y-109143905D02*
X158381952Y-109096286D01*
X158381952Y-109096286D02*
X158762904Y-109096286D01*
X158762904Y-109096286D02*
X158858142Y-109143905D01*
X158858142Y-109143905D02*
X158905761Y-109191524D01*
X158905761Y-109191524D02*
X158953380Y-109286762D01*
X158953380Y-109286762D02*
X158953380Y-109477238D01*
X158953380Y-109477238D02*
X158905761Y-109572476D01*
X158905761Y-109572476D02*
X158858142Y-109620095D01*
X158858142Y-109620095D02*
X158762904Y-109667714D01*
X158762904Y-109667714D02*
X158524809Y-109667714D01*
X158524809Y-109667714D02*
X158429571Y-109620095D01*
X158429571Y-109620095D02*
X158381952Y-109572476D01*
X158381952Y-109572476D02*
X158334333Y-109477238D01*
X158334333Y-109477238D02*
X158334333Y-109286762D01*
X158334333Y-109286762D02*
X158381952Y-109191524D01*
X158381952Y-109191524D02*
X158429571Y-109143905D01*
X158429571Y-109143905D02*
X158524809Y-109096286D01*
X169087857Y-102956142D02*
X169135476Y-103003761D01*
X169135476Y-103003761D02*
X169278333Y-103051380D01*
X169278333Y-103051380D02*
X169373571Y-103051380D01*
X169373571Y-103051380D02*
X169516428Y-103003761D01*
X169516428Y-103003761D02*
X169611666Y-102908523D01*
X169611666Y-102908523D02*
X169659285Y-102813285D01*
X169659285Y-102813285D02*
X169706904Y-102622809D01*
X169706904Y-102622809D02*
X169706904Y-102479952D01*
X169706904Y-102479952D02*
X169659285Y-102289476D01*
X169659285Y-102289476D02*
X169611666Y-102194238D01*
X169611666Y-102194238D02*
X169516428Y-102099000D01*
X169516428Y-102099000D02*
X169373571Y-102051380D01*
X169373571Y-102051380D02*
X169278333Y-102051380D01*
X169278333Y-102051380D02*
X169135476Y-102099000D01*
X169135476Y-102099000D02*
X169087857Y-102146619D01*
X168135476Y-103051380D02*
X168706904Y-103051380D01*
X168421190Y-103051380D02*
X168421190Y-102051380D01*
X168421190Y-102051380D02*
X168516428Y-102194238D01*
X168516428Y-102194238D02*
X168611666Y-102289476D01*
X168611666Y-102289476D02*
X168706904Y-102337095D01*
X167230714Y-102051380D02*
X167706904Y-102051380D01*
X167706904Y-102051380D02*
X167754523Y-102527571D01*
X167754523Y-102527571D02*
X167706904Y-102479952D01*
X167706904Y-102479952D02*
X167611666Y-102432333D01*
X167611666Y-102432333D02*
X167373571Y-102432333D01*
X167373571Y-102432333D02*
X167278333Y-102479952D01*
X167278333Y-102479952D02*
X167230714Y-102527571D01*
X167230714Y-102527571D02*
X167183095Y-102622809D01*
X167183095Y-102622809D02*
X167183095Y-102860904D01*
X167183095Y-102860904D02*
X167230714Y-102956142D01*
X167230714Y-102956142D02*
X167278333Y-103003761D01*
X167278333Y-103003761D02*
X167373571Y-103051380D01*
X167373571Y-103051380D02*
X167611666Y-103051380D01*
X167611666Y-103051380D02*
X167706904Y-103003761D01*
X167706904Y-103003761D02*
X167754523Y-102956142D01*
X157562666Y-92049380D02*
X157895999Y-91573190D01*
X158134094Y-92049380D02*
X158134094Y-91049380D01*
X158134094Y-91049380D02*
X157753142Y-91049380D01*
X157753142Y-91049380D02*
X157657904Y-91097000D01*
X157657904Y-91097000D02*
X157610285Y-91144619D01*
X157610285Y-91144619D02*
X157562666Y-91239857D01*
X157562666Y-91239857D02*
X157562666Y-91382714D01*
X157562666Y-91382714D02*
X157610285Y-91477952D01*
X157610285Y-91477952D02*
X157657904Y-91525571D01*
X157657904Y-91525571D02*
X157753142Y-91573190D01*
X157753142Y-91573190D02*
X158134094Y-91573190D01*
X156657904Y-91049380D02*
X157134094Y-91049380D01*
X157134094Y-91049380D02*
X157181713Y-91525571D01*
X157181713Y-91525571D02*
X157134094Y-91477952D01*
X157134094Y-91477952D02*
X157038856Y-91430333D01*
X157038856Y-91430333D02*
X156800761Y-91430333D01*
X156800761Y-91430333D02*
X156705523Y-91477952D01*
X156705523Y-91477952D02*
X156657904Y-91525571D01*
X156657904Y-91525571D02*
X156610285Y-91620809D01*
X156610285Y-91620809D02*
X156610285Y-91858904D01*
X156610285Y-91858904D02*
X156657904Y-91954142D01*
X156657904Y-91954142D02*
X156705523Y-92001761D01*
X156705523Y-92001761D02*
X156800761Y-92049380D01*
X156800761Y-92049380D02*
X157038856Y-92049380D01*
X157038856Y-92049380D02*
X157134094Y-92001761D01*
X157134094Y-92001761D02*
X157181713Y-91954142D01*
X167762190Y-85573190D02*
X167762190Y-86049380D01*
X168095523Y-85049380D02*
X167762190Y-85573190D01*
X167762190Y-85573190D02*
X167428857Y-85049380D01*
X166571714Y-86049380D02*
X167143142Y-86049380D01*
X166857428Y-86049380D02*
X166857428Y-85049380D01*
X166857428Y-85049380D02*
X166952666Y-85192238D01*
X166952666Y-85192238D02*
X167047904Y-85287476D01*
X167047904Y-85287476D02*
X167143142Y-85335095D01*
X171416142Y-117889142D02*
X171463761Y-117841523D01*
X171463761Y-117841523D02*
X171511380Y-117698666D01*
X171511380Y-117698666D02*
X171511380Y-117603428D01*
X171511380Y-117603428D02*
X171463761Y-117460571D01*
X171463761Y-117460571D02*
X171368523Y-117365333D01*
X171368523Y-117365333D02*
X171273285Y-117317714D01*
X171273285Y-117317714D02*
X171082809Y-117270095D01*
X171082809Y-117270095D02*
X170939952Y-117270095D01*
X170939952Y-117270095D02*
X170749476Y-117317714D01*
X170749476Y-117317714D02*
X170654238Y-117365333D01*
X170654238Y-117365333D02*
X170559000Y-117460571D01*
X170559000Y-117460571D02*
X170511380Y-117603428D01*
X170511380Y-117603428D02*
X170511380Y-117698666D01*
X170511380Y-117698666D02*
X170559000Y-117841523D01*
X170559000Y-117841523D02*
X170606619Y-117889142D01*
X171511380Y-118841523D02*
X171511380Y-118270095D01*
X171511380Y-118555809D02*
X170511380Y-118555809D01*
X170511380Y-118555809D02*
X170654238Y-118460571D01*
X170654238Y-118460571D02*
X170749476Y-118365333D01*
X170749476Y-118365333D02*
X170797095Y-118270095D01*
X170511380Y-119174857D02*
X170511380Y-119841523D01*
X170511380Y-119841523D02*
X171511380Y-119412952D01*
D11*
X154060511Y-109814489D02*
X154060511Y-110074489D01*
X154060511Y-115004489D02*
X152385511Y-115004489D01*
X156785511Y-115264489D02*
X154060511Y-115264489D01*
X154060511Y-115264489D02*
X154060511Y-115004489D01*
X159510511Y-109814489D02*
X159510511Y-110074489D01*
X156785511Y-109814489D02*
X159510511Y-109814489D01*
X156785511Y-109814489D02*
X154060511Y-109814489D01*
X159510511Y-115264489D02*
X159510511Y-115004489D01*
X156785511Y-115264489D02*
X159510511Y-115264489D01*
X152875511Y-117607325D02*
X152875511Y-117391653D01*
X153595511Y-117607325D02*
X153595511Y-117391653D01*
X160028347Y-117344489D02*
X159812675Y-117344489D01*
X160028347Y-116624489D02*
X159812675Y-116624489D01*
X153718836Y-98042000D02*
X153503164Y-98042000D01*
X153718836Y-97322000D02*
X153503164Y-97322000D01*
X163456000Y-105259164D02*
X163456000Y-105474836D01*
X162736000Y-105259164D02*
X162736000Y-105474836D01*
X164456000Y-105259164D02*
X164456000Y-105474836D01*
X163736000Y-105259164D02*
X163736000Y-105474836D01*
X159473164Y-90242000D02*
X159688836Y-90242000D01*
X159473164Y-89522000D02*
X159688836Y-89522000D01*
X155095511Y-117391653D02*
X155095511Y-117607325D01*
X154375511Y-117391653D02*
X154375511Y-117607325D01*
X160456000Y-106259164D02*
X160456000Y-106474836D01*
X159736000Y-106259164D02*
X159736000Y-106474836D01*
X166473164Y-97322000D02*
X166688836Y-97322000D01*
X166473164Y-98042000D02*
X166688836Y-98042000D01*
X160117000Y-92504836D02*
X160117000Y-92289164D01*
X160837000Y-92504836D02*
X160837000Y-92289164D01*
X160736000Y-105474836D02*
X160736000Y-105259164D01*
X161456000Y-105474836D02*
X161456000Y-105259164D01*
X161236000Y-92504836D02*
X161236000Y-92289164D01*
X161956000Y-92504836D02*
X161956000Y-92289164D01*
X154338836Y-102890000D02*
X154123164Y-102890000D01*
X154338836Y-102170000D02*
X154123164Y-102170000D01*
X163056000Y-102492000D02*
X163706000Y-102492000D01*
X163706000Y-102492000D02*
X163706000Y-101842000D01*
X157136000Y-95272000D02*
X156486000Y-95272000D01*
X156486000Y-95272000D02*
X156486000Y-95922000D01*
X163056000Y-95272000D02*
X163706000Y-95272000D01*
X163706000Y-95272000D02*
X163706000Y-95922000D01*
X157136000Y-102492000D02*
X156486000Y-102492000D01*
X156718836Y-90242000D02*
X156503164Y-90242000D01*
X156718836Y-89522000D02*
X156503164Y-89522000D01*
X161736000Y-105474836D02*
X161736000Y-105259164D01*
X162456000Y-105474836D02*
X162456000Y-105259164D01*
X159456000Y-106259164D02*
X159456000Y-106474836D01*
X158736000Y-106259164D02*
X158736000Y-106474836D01*
X165322164Y-102424000D02*
X165537836Y-102424000D01*
X165322164Y-103144000D02*
X165537836Y-103144000D01*
X158436000Y-91874836D02*
X158436000Y-91659164D01*
X159156000Y-91874836D02*
X159156000Y-91659164D01*
X151237000Y-83216000D02*
X163837000Y-83216000D01*
X151237000Y-88316000D02*
X151237000Y-87066000D01*
X163837000Y-88316000D02*
X151237000Y-88316000D01*
X151237000Y-84466000D02*
X151237000Y-83216000D01*
X168759000Y-118793252D02*
X168759000Y-118270748D01*
X170229000Y-118793252D02*
X170229000Y-118270748D01*
M02*
