M48
; DRILL file {KiCad (7.0.0)} date Thu Jun 29 21:02:55 2023
; FORMAT={-:-/ absolute / metric / decimal}
; #@! TF.CreationDate,2023-06-29T21:02:55+10:00
; #@! TF.GenerationSoftware,Kicad,Pcbnew,(7.0.0)
; #@! TF.FileFunction,NonPlated,1,4,NPTH
FMAT,2
METRIC
; #@! TA.AperFunction,NonPlated,NPTH,ComponentDrill
T1C0.380
; #@! TA.AperFunction,NonPlated,NPTH,ComponentDrill
T2C1.000
%
G90
G05
T1
X179.07Y-85.09
X179.07Y-85.725
X179.07Y-86.36
X179.07Y-86.995
X179.07Y-87.63
X179.07Y-88.265
X179.07Y-88.9
X179.07Y-89.535
X179.07Y-90.17
X179.07Y-109.22
X179.07Y-109.855
X179.07Y-110.49
X179.07Y-111.125
X179.07Y-111.76
X179.07Y-112.395
X179.07Y-113.03
X179.07Y-113.665
X179.07Y-114.3
T2
X172.72Y-96.52
X172.72Y-99.06
T0
M30
