G04 #@! TF.GenerationSoftware,KiCad,Pcbnew,(7.0.0)*
G04 #@! TF.CreationDate,2023-06-29T20:34:44+10:00*
G04 #@! TF.ProjectId,RP2040_minimal,52503230-3430-45f6-9d69-6e696d616c2e,REV1*
G04 #@! TF.SameCoordinates,Original*
G04 #@! TF.FileFunction,Legend,Bot*
G04 #@! TF.FilePolarity,Positive*
%FSLAX46Y46*%
G04 Gerber Fmt 4.6, Leading zero omitted, Abs format (unit mm)*
G04 Created by KiCad (PCBNEW (7.0.0)) date 2023-06-29 20:34:44*
%MOMM*%
%LPD*%
G01*
G04 APERTURE LIST*
%ADD10C,0.120000*%
%ADD11C,0.380000*%
%ADD12R,1.700000X1.700000*%
%ADD13O,1.700000X1.700000*%
%ADD14C,1.000000*%
G04 APERTURE END LIST*
D10*
X148650000Y-77410000D02*
X148650000Y-123250000D01*
X146050000Y-80010000D02*
X146050000Y-77410000D01*
X146050000Y-77410000D02*
X148650000Y-77410000D01*
X143450000Y-123250000D02*
X148650000Y-123250000D01*
X143450000Y-80010000D02*
X146050000Y-80010000D01*
X143450000Y-80010000D02*
X143450000Y-123250000D01*
X143450000Y-78740000D02*
X143450000Y-77410000D01*
X143450000Y-77410000D02*
X144780000Y-77410000D01*
X176590000Y-77410000D02*
X176590000Y-123250000D01*
X173990000Y-80010000D02*
X173990000Y-77410000D01*
X173990000Y-77410000D02*
X176590000Y-77410000D01*
X171390000Y-123250000D02*
X176590000Y-123250000D01*
X171390000Y-80010000D02*
X173990000Y-80010000D01*
X171390000Y-80010000D02*
X171390000Y-123250000D01*
X171390000Y-78740000D02*
X171390000Y-77410000D01*
X171390000Y-77410000D02*
X172720000Y-77410000D01*
%LPC*%
D11*
X173990000Y-125730000D03*
X173355000Y-125730000D03*
X172720000Y-125730000D03*
X172085000Y-125730000D03*
X171450000Y-125730000D03*
X170815000Y-125730000D03*
X170180000Y-125730000D03*
X169545000Y-125730000D03*
X168910000Y-125730000D03*
X151130000Y-125730000D03*
X150495000Y-125730000D03*
X149860000Y-125730000D03*
X149225000Y-125730000D03*
X148590000Y-125730000D03*
X147955000Y-125730000D03*
X147320000Y-125730000D03*
X146685000Y-125730000D03*
X146050000Y-125730000D03*
D12*
X163829999Y-119379999D03*
D13*
X163829999Y-121919999D03*
D12*
X152399999Y-121919999D03*
D13*
X154939999Y-121919999D03*
X157479999Y-121919999D03*
D12*
X162559999Y-81239999D03*
D13*
X162559999Y-78699999D03*
X165099999Y-81239999D03*
X165099999Y-78699999D03*
X167639999Y-81239999D03*
X167639999Y-78699999D03*
D12*
X156209999Y-81279999D03*
D13*
X153669999Y-81279999D03*
X156209999Y-78739999D03*
X153669999Y-78739999D03*
D12*
X144779999Y-78739999D03*
D13*
X147319999Y-78739999D03*
X144779999Y-81279999D03*
X147319999Y-81279999D03*
X144779999Y-83819999D03*
X147319999Y-83819999D03*
X144779999Y-86359999D03*
X147319999Y-86359999D03*
X144779999Y-88899999D03*
X147319999Y-88899999D03*
X144779999Y-91439999D03*
X147319999Y-91439999D03*
X144779999Y-93979999D03*
X147319999Y-93979999D03*
X144779999Y-96519999D03*
X147319999Y-96519999D03*
X144779999Y-99059999D03*
X147319999Y-99059999D03*
X144779999Y-101599999D03*
X147319999Y-101599999D03*
X144779999Y-104139999D03*
X147319999Y-104139999D03*
X144779999Y-106679999D03*
X147319999Y-106679999D03*
X144779999Y-109219999D03*
X147319999Y-109219999D03*
X144779999Y-111759999D03*
X147319999Y-111759999D03*
X144779999Y-114299999D03*
X147319999Y-114299999D03*
X144779999Y-116839999D03*
X147319999Y-116839999D03*
X144779999Y-119379999D03*
X147319999Y-119379999D03*
X144779999Y-121919999D03*
X147319999Y-121919999D03*
D14*
X172720000Y-99060000D03*
X172720000Y-96520000D03*
D12*
X172719999Y-78739999D03*
D13*
X175259999Y-78739999D03*
X172719999Y-81279999D03*
X175259999Y-81279999D03*
X172719999Y-83819999D03*
X175259999Y-83819999D03*
X172719999Y-86359999D03*
X175259999Y-86359999D03*
X172719999Y-88899999D03*
X175259999Y-88899999D03*
X172719999Y-91439999D03*
X175259999Y-91439999D03*
X172719999Y-93979999D03*
X175259999Y-93979999D03*
X175259999Y-96519999D03*
X175259999Y-99059999D03*
X172719999Y-101599999D03*
X175259999Y-101599999D03*
X172719999Y-104139999D03*
X175259999Y-104139999D03*
X172719999Y-106679999D03*
X175259999Y-106679999D03*
X172719999Y-109219999D03*
X175259999Y-109219999D03*
X172719999Y-111759999D03*
X175259999Y-111759999D03*
X172719999Y-114299999D03*
X175259999Y-114299999D03*
X172719999Y-116839999D03*
X175259999Y-116839999D03*
X172719999Y-119379999D03*
X175259999Y-119379999D03*
X172719999Y-121919999D03*
X175259999Y-121919999D03*
M02*
