%TF.GenerationSoftware,KiCad,Pcbnew,(7.0.0)*%
%TF.CreationDate,2023-06-29T21:03:02+10:00*%
%TF.ProjectId,RP2040_minimal,52503230-3430-45f6-9d69-6e696d616c2e,REV1*%
%TF.SameCoordinates,Original*%
%TF.FileFunction,Drillmap*%
%TF.FilePolarity,Positive*%
%FSLAX45Y45*%
G04 Gerber Fmt 4.5, Leading zero omitted, Abs format (unit mm)*
G04 Created by KiCad (PCBNEW (7.0.0)) date 2023-06-29 21:03:02*
%MOMM*%
%LPD*%
G01*
G04 APERTURE LIST*
%ADD10C,0.200000*%
%ADD11C,0.050000*%
%ADD12C,0.038000*%
%ADD13C,0.100000*%
G04 APERTURE END LIST*
D10*
X17907000Y-11445000D02*
X17907000Y-12573000D01*
X17907000Y-9033000D02*
X17907000Y-10905000D01*
D11*
X18007000Y-9033000D02*
X18007000Y-10905000D01*
D10*
X17907000Y-12573000D02*
X14097000Y-12573000D01*
X17907000Y-7493000D02*
X17907000Y-8493000D01*
X14097000Y-7493000D02*
X17907000Y-7493000D01*
X14097000Y-12573000D02*
X14097000Y-7493000D01*
D11*
X18007000Y-7493000D02*
X18007000Y-8493000D01*
X18524000Y-7493000D02*
X18007000Y-7493000D01*
X18007000Y-11445000D02*
X18007000Y-12573000D01*
X18007000Y-9033000D02*
G75*
G03*
X17907000Y-9033000I-50000J0D01*
G01*
X18524000Y-12573000D02*
X18524000Y-7493000D01*
X18007000Y-11445000D02*
G75*
G03*
X17907000Y-11445000I-50000J0D01*
G01*
X18007000Y-12573000D02*
X18524000Y-12573000D01*
X17907000Y-10905000D02*
G75*
G03*
X18007000Y-10905000I50000J0D01*
G01*
X17907000Y-8493000D02*
G75*
G03*
X18007000Y-8493000I50000J0D01*
G01*
D10*
D12*
X17888000Y-8490000D02*
X17926000Y-8528000D01*
X17926000Y-8490000D02*
X17888000Y-8528000D01*
X17888000Y-8553500D02*
X17926000Y-8591500D01*
X17926000Y-8553500D02*
X17888000Y-8591500D01*
X17888000Y-8617000D02*
X17926000Y-8655000D01*
X17926000Y-8617000D02*
X17888000Y-8655000D01*
X17888000Y-8680500D02*
X17926000Y-8718500D01*
X17926000Y-8680500D02*
X17888000Y-8718500D01*
X17888000Y-8744000D02*
X17926000Y-8782000D01*
X17926000Y-8744000D02*
X17888000Y-8782000D01*
X17888000Y-8807500D02*
X17926000Y-8845500D01*
X17926000Y-8807500D02*
X17888000Y-8845500D01*
X17888000Y-8871000D02*
X17926000Y-8909000D01*
X17926000Y-8871000D02*
X17888000Y-8909000D01*
X17888000Y-8934500D02*
X17926000Y-8972500D01*
X17926000Y-8934500D02*
X17888000Y-8972500D01*
X17888000Y-8998000D02*
X17926000Y-9036000D01*
X17926000Y-8998000D02*
X17888000Y-9036000D01*
X17888000Y-10903000D02*
X17926000Y-10941000D01*
X17926000Y-10903000D02*
X17888000Y-10941000D01*
X17888000Y-10966500D02*
X17926000Y-11004500D01*
X17926000Y-10966500D02*
X17888000Y-11004500D01*
X17888000Y-11030000D02*
X17926000Y-11068000D01*
X17926000Y-11030000D02*
X17888000Y-11068000D01*
X17888000Y-11093500D02*
X17926000Y-11131500D01*
X17926000Y-11093500D02*
X17888000Y-11131500D01*
X17888000Y-11157000D02*
X17926000Y-11195000D01*
X17926000Y-11157000D02*
X17888000Y-11195000D01*
X17888000Y-11220500D02*
X17926000Y-11258500D01*
X17926000Y-11220500D02*
X17888000Y-11258500D01*
X17888000Y-11284000D02*
X17926000Y-11322000D01*
X17926000Y-11284000D02*
X17888000Y-11322000D01*
X17888000Y-11347500D02*
X17926000Y-11385500D01*
X17926000Y-11347500D02*
X17888000Y-11385500D01*
X17888000Y-11411000D02*
X17926000Y-11449000D01*
X17926000Y-11411000D02*
X17888000Y-11449000D01*
D13*
X17322000Y-9652000D02*
G75*
G03*
X17322000Y-9652000I-50000J0D01*
G01*
X17322000Y-9906000D02*
G75*
G03*
X17322000Y-9906000I-50000J0D01*
G01*
D10*
X14334619Y-12876476D02*
X14334619Y-12676476D01*
X14334619Y-12676476D02*
X14382238Y-12676476D01*
X14382238Y-12676476D02*
X14410809Y-12686000D01*
X14410809Y-12686000D02*
X14429857Y-12705048D01*
X14429857Y-12705048D02*
X14439381Y-12724095D01*
X14439381Y-12724095D02*
X14448905Y-12762190D01*
X14448905Y-12762190D02*
X14448905Y-12790762D01*
X14448905Y-12790762D02*
X14439381Y-12828857D01*
X14439381Y-12828857D02*
X14429857Y-12847905D01*
X14429857Y-12847905D02*
X14410809Y-12866952D01*
X14410809Y-12866952D02*
X14382238Y-12876476D01*
X14382238Y-12876476D02*
X14334619Y-12876476D01*
X14534619Y-12876476D02*
X14534619Y-12743143D01*
X14534619Y-12781238D02*
X14544143Y-12762190D01*
X14544143Y-12762190D02*
X14553667Y-12752667D01*
X14553667Y-12752667D02*
X14572714Y-12743143D01*
X14572714Y-12743143D02*
X14591762Y-12743143D01*
X14658428Y-12876476D02*
X14658428Y-12743143D01*
X14658428Y-12676476D02*
X14648905Y-12686000D01*
X14648905Y-12686000D02*
X14658428Y-12695524D01*
X14658428Y-12695524D02*
X14667952Y-12686000D01*
X14667952Y-12686000D02*
X14658428Y-12676476D01*
X14658428Y-12676476D02*
X14658428Y-12695524D01*
X14782238Y-12876476D02*
X14763190Y-12866952D01*
X14763190Y-12866952D02*
X14753667Y-12847905D01*
X14753667Y-12847905D02*
X14753667Y-12676476D01*
X14887000Y-12876476D02*
X14867952Y-12866952D01*
X14867952Y-12866952D02*
X14858428Y-12847905D01*
X14858428Y-12847905D02*
X14858428Y-12676476D01*
X15083190Y-12876476D02*
X15083190Y-12676476D01*
X15083190Y-12676476D02*
X15149857Y-12819333D01*
X15149857Y-12819333D02*
X15216524Y-12676476D01*
X15216524Y-12676476D02*
X15216524Y-12876476D01*
X15397476Y-12876476D02*
X15397476Y-12771714D01*
X15397476Y-12771714D02*
X15387952Y-12752667D01*
X15387952Y-12752667D02*
X15368905Y-12743143D01*
X15368905Y-12743143D02*
X15330809Y-12743143D01*
X15330809Y-12743143D02*
X15311762Y-12752667D01*
X15397476Y-12866952D02*
X15378428Y-12876476D01*
X15378428Y-12876476D02*
X15330809Y-12876476D01*
X15330809Y-12876476D02*
X15311762Y-12866952D01*
X15311762Y-12866952D02*
X15302238Y-12847905D01*
X15302238Y-12847905D02*
X15302238Y-12828857D01*
X15302238Y-12828857D02*
X15311762Y-12809809D01*
X15311762Y-12809809D02*
X15330809Y-12800286D01*
X15330809Y-12800286D02*
X15378428Y-12800286D01*
X15378428Y-12800286D02*
X15397476Y-12790762D01*
X15492714Y-12743143D02*
X15492714Y-12943143D01*
X15492714Y-12752667D02*
X15511762Y-12743143D01*
X15511762Y-12743143D02*
X15549857Y-12743143D01*
X15549857Y-12743143D02*
X15568905Y-12752667D01*
X15568905Y-12752667D02*
X15578428Y-12762190D01*
X15578428Y-12762190D02*
X15587952Y-12781238D01*
X15587952Y-12781238D02*
X15587952Y-12838381D01*
X15587952Y-12838381D02*
X15578428Y-12857428D01*
X15578428Y-12857428D02*
X15568905Y-12866952D01*
X15568905Y-12866952D02*
X15549857Y-12876476D01*
X15549857Y-12876476D02*
X15511762Y-12876476D01*
X15511762Y-12876476D02*
X15492714Y-12866952D01*
X15673667Y-12857428D02*
X15683190Y-12866952D01*
X15683190Y-12866952D02*
X15673667Y-12876476D01*
X15673667Y-12876476D02*
X15664143Y-12866952D01*
X15664143Y-12866952D02*
X15673667Y-12857428D01*
X15673667Y-12857428D02*
X15673667Y-12876476D01*
X15673667Y-12752667D02*
X15683190Y-12762190D01*
X15683190Y-12762190D02*
X15673667Y-12771714D01*
X15673667Y-12771714D02*
X15664143Y-12762190D01*
X15664143Y-12762190D02*
X15673667Y-12752667D01*
X15673667Y-12752667D02*
X15673667Y-12771714D01*
D12*
X14049000Y-13204000D02*
X14087000Y-13242000D01*
X14087000Y-13204000D02*
X14049000Y-13242000D01*
D10*
X14372714Y-13096476D02*
X14391762Y-13096476D01*
X14391762Y-13096476D02*
X14410809Y-13106000D01*
X14410809Y-13106000D02*
X14420333Y-13115524D01*
X14420333Y-13115524D02*
X14429857Y-13134571D01*
X14429857Y-13134571D02*
X14439381Y-13172667D01*
X14439381Y-13172667D02*
X14439381Y-13220286D01*
X14439381Y-13220286D02*
X14429857Y-13258381D01*
X14429857Y-13258381D02*
X14420333Y-13277428D01*
X14420333Y-13277428D02*
X14410809Y-13286952D01*
X14410809Y-13286952D02*
X14391762Y-13296476D01*
X14391762Y-13296476D02*
X14372714Y-13296476D01*
X14372714Y-13296476D02*
X14353667Y-13286952D01*
X14353667Y-13286952D02*
X14344143Y-13277428D01*
X14344143Y-13277428D02*
X14334619Y-13258381D01*
X14334619Y-13258381D02*
X14325095Y-13220286D01*
X14325095Y-13220286D02*
X14325095Y-13172667D01*
X14325095Y-13172667D02*
X14334619Y-13134571D01*
X14334619Y-13134571D02*
X14344143Y-13115524D01*
X14344143Y-13115524D02*
X14353667Y-13106000D01*
X14353667Y-13106000D02*
X14372714Y-13096476D01*
X14525095Y-13277428D02*
X14534619Y-13286952D01*
X14534619Y-13286952D02*
X14525095Y-13296476D01*
X14525095Y-13296476D02*
X14515571Y-13286952D01*
X14515571Y-13286952D02*
X14525095Y-13277428D01*
X14525095Y-13277428D02*
X14525095Y-13296476D01*
X14601286Y-13096476D02*
X14725095Y-13096476D01*
X14725095Y-13096476D02*
X14658428Y-13172667D01*
X14658428Y-13172667D02*
X14687000Y-13172667D01*
X14687000Y-13172667D02*
X14706048Y-13182190D01*
X14706048Y-13182190D02*
X14715571Y-13191714D01*
X14715571Y-13191714D02*
X14725095Y-13210762D01*
X14725095Y-13210762D02*
X14725095Y-13258381D01*
X14725095Y-13258381D02*
X14715571Y-13277428D01*
X14715571Y-13277428D02*
X14706048Y-13286952D01*
X14706048Y-13286952D02*
X14687000Y-13296476D01*
X14687000Y-13296476D02*
X14629857Y-13296476D01*
X14629857Y-13296476D02*
X14610809Y-13286952D01*
X14610809Y-13286952D02*
X14601286Y-13277428D01*
X14839381Y-13182190D02*
X14820333Y-13172667D01*
X14820333Y-13172667D02*
X14810809Y-13163143D01*
X14810809Y-13163143D02*
X14801286Y-13144095D01*
X14801286Y-13144095D02*
X14801286Y-13134571D01*
X14801286Y-13134571D02*
X14810809Y-13115524D01*
X14810809Y-13115524D02*
X14820333Y-13106000D01*
X14820333Y-13106000D02*
X14839381Y-13096476D01*
X14839381Y-13096476D02*
X14877476Y-13096476D01*
X14877476Y-13096476D02*
X14896524Y-13106000D01*
X14896524Y-13106000D02*
X14906048Y-13115524D01*
X14906048Y-13115524D02*
X14915571Y-13134571D01*
X14915571Y-13134571D02*
X14915571Y-13144095D01*
X14915571Y-13144095D02*
X14906048Y-13163143D01*
X14906048Y-13163143D02*
X14896524Y-13172667D01*
X14896524Y-13172667D02*
X14877476Y-13182190D01*
X14877476Y-13182190D02*
X14839381Y-13182190D01*
X14839381Y-13182190D02*
X14820333Y-13191714D01*
X14820333Y-13191714D02*
X14810809Y-13201238D01*
X14810809Y-13201238D02*
X14801286Y-13220286D01*
X14801286Y-13220286D02*
X14801286Y-13258381D01*
X14801286Y-13258381D02*
X14810809Y-13277428D01*
X14810809Y-13277428D02*
X14820333Y-13286952D01*
X14820333Y-13286952D02*
X14839381Y-13296476D01*
X14839381Y-13296476D02*
X14877476Y-13296476D01*
X14877476Y-13296476D02*
X14896524Y-13286952D01*
X14896524Y-13286952D02*
X14906048Y-13277428D01*
X14906048Y-13277428D02*
X14915571Y-13258381D01*
X14915571Y-13258381D02*
X14915571Y-13220286D01*
X14915571Y-13220286D02*
X14906048Y-13201238D01*
X14906048Y-13201238D02*
X14896524Y-13191714D01*
X14896524Y-13191714D02*
X14877476Y-13182190D01*
X15039381Y-13096476D02*
X15058429Y-13096476D01*
X15058429Y-13096476D02*
X15077476Y-13106000D01*
X15077476Y-13106000D02*
X15087000Y-13115524D01*
X15087000Y-13115524D02*
X15096524Y-13134571D01*
X15096524Y-13134571D02*
X15106048Y-13172667D01*
X15106048Y-13172667D02*
X15106048Y-13220286D01*
X15106048Y-13220286D02*
X15096524Y-13258381D01*
X15096524Y-13258381D02*
X15087000Y-13277428D01*
X15087000Y-13277428D02*
X15077476Y-13286952D01*
X15077476Y-13286952D02*
X15058429Y-13296476D01*
X15058429Y-13296476D02*
X15039381Y-13296476D01*
X15039381Y-13296476D02*
X15020333Y-13286952D01*
X15020333Y-13286952D02*
X15010809Y-13277428D01*
X15010809Y-13277428D02*
X15001286Y-13258381D01*
X15001286Y-13258381D02*
X14991762Y-13220286D01*
X14991762Y-13220286D02*
X14991762Y-13172667D01*
X14991762Y-13172667D02*
X15001286Y-13134571D01*
X15001286Y-13134571D02*
X15010809Y-13115524D01*
X15010809Y-13115524D02*
X15020333Y-13106000D01*
X15020333Y-13106000D02*
X15039381Y-13096476D01*
X15191762Y-13296476D02*
X15191762Y-13163143D01*
X15191762Y-13182190D02*
X15201286Y-13172667D01*
X15201286Y-13172667D02*
X15220333Y-13163143D01*
X15220333Y-13163143D02*
X15248905Y-13163143D01*
X15248905Y-13163143D02*
X15267952Y-13172667D01*
X15267952Y-13172667D02*
X15277476Y-13191714D01*
X15277476Y-13191714D02*
X15277476Y-13296476D01*
X15277476Y-13191714D02*
X15287000Y-13172667D01*
X15287000Y-13172667D02*
X15306048Y-13163143D01*
X15306048Y-13163143D02*
X15334619Y-13163143D01*
X15334619Y-13163143D02*
X15353667Y-13172667D01*
X15353667Y-13172667D02*
X15363190Y-13191714D01*
X15363190Y-13191714D02*
X15363190Y-13296476D01*
X15458429Y-13296476D02*
X15458429Y-13163143D01*
X15458429Y-13182190D02*
X15467952Y-13172667D01*
X15467952Y-13172667D02*
X15487000Y-13163143D01*
X15487000Y-13163143D02*
X15515571Y-13163143D01*
X15515571Y-13163143D02*
X15534619Y-13172667D01*
X15534619Y-13172667D02*
X15544143Y-13191714D01*
X15544143Y-13191714D02*
X15544143Y-13296476D01*
X15544143Y-13191714D02*
X15553667Y-13172667D01*
X15553667Y-13172667D02*
X15572714Y-13163143D01*
X15572714Y-13163143D02*
X15601286Y-13163143D01*
X15601286Y-13163143D02*
X15620333Y-13172667D01*
X15620333Y-13172667D02*
X15629857Y-13191714D01*
X15629857Y-13191714D02*
X15629857Y-13296476D01*
X15987952Y-13086952D02*
X15816524Y-13344095D01*
X16212714Y-13096476D02*
X16231762Y-13096476D01*
X16231762Y-13096476D02*
X16250810Y-13106000D01*
X16250810Y-13106000D02*
X16260333Y-13115524D01*
X16260333Y-13115524D02*
X16269857Y-13134571D01*
X16269857Y-13134571D02*
X16279381Y-13172667D01*
X16279381Y-13172667D02*
X16279381Y-13220286D01*
X16279381Y-13220286D02*
X16269857Y-13258381D01*
X16269857Y-13258381D02*
X16260333Y-13277428D01*
X16260333Y-13277428D02*
X16250810Y-13286952D01*
X16250810Y-13286952D02*
X16231762Y-13296476D01*
X16231762Y-13296476D02*
X16212714Y-13296476D01*
X16212714Y-13296476D02*
X16193667Y-13286952D01*
X16193667Y-13286952D02*
X16184143Y-13277428D01*
X16184143Y-13277428D02*
X16174619Y-13258381D01*
X16174619Y-13258381D02*
X16165095Y-13220286D01*
X16165095Y-13220286D02*
X16165095Y-13172667D01*
X16165095Y-13172667D02*
X16174619Y-13134571D01*
X16174619Y-13134571D02*
X16184143Y-13115524D01*
X16184143Y-13115524D02*
X16193667Y-13106000D01*
X16193667Y-13106000D02*
X16212714Y-13096476D01*
X16365095Y-13277428D02*
X16374619Y-13286952D01*
X16374619Y-13286952D02*
X16365095Y-13296476D01*
X16365095Y-13296476D02*
X16355571Y-13286952D01*
X16355571Y-13286952D02*
X16365095Y-13277428D01*
X16365095Y-13277428D02*
X16365095Y-13296476D01*
X16498429Y-13096476D02*
X16517476Y-13096476D01*
X16517476Y-13096476D02*
X16536524Y-13106000D01*
X16536524Y-13106000D02*
X16546048Y-13115524D01*
X16546048Y-13115524D02*
X16555571Y-13134571D01*
X16555571Y-13134571D02*
X16565095Y-13172667D01*
X16565095Y-13172667D02*
X16565095Y-13220286D01*
X16565095Y-13220286D02*
X16555571Y-13258381D01*
X16555571Y-13258381D02*
X16546048Y-13277428D01*
X16546048Y-13277428D02*
X16536524Y-13286952D01*
X16536524Y-13286952D02*
X16517476Y-13296476D01*
X16517476Y-13296476D02*
X16498429Y-13296476D01*
X16498429Y-13296476D02*
X16479381Y-13286952D01*
X16479381Y-13286952D02*
X16469857Y-13277428D01*
X16469857Y-13277428D02*
X16460333Y-13258381D01*
X16460333Y-13258381D02*
X16450810Y-13220286D01*
X16450810Y-13220286D02*
X16450810Y-13172667D01*
X16450810Y-13172667D02*
X16460333Y-13134571D01*
X16460333Y-13134571D02*
X16469857Y-13115524D01*
X16469857Y-13115524D02*
X16479381Y-13106000D01*
X16479381Y-13106000D02*
X16498429Y-13096476D01*
X16755571Y-13296476D02*
X16641286Y-13296476D01*
X16698429Y-13296476D02*
X16698429Y-13096476D01*
X16698429Y-13096476D02*
X16679381Y-13125048D01*
X16679381Y-13125048D02*
X16660333Y-13144095D01*
X16660333Y-13144095D02*
X16641286Y-13153619D01*
X16936524Y-13096476D02*
X16841286Y-13096476D01*
X16841286Y-13096476D02*
X16831762Y-13191714D01*
X16831762Y-13191714D02*
X16841286Y-13182190D01*
X16841286Y-13182190D02*
X16860333Y-13172667D01*
X16860333Y-13172667D02*
X16907953Y-13172667D01*
X16907953Y-13172667D02*
X16927000Y-13182190D01*
X16927000Y-13182190D02*
X16936524Y-13191714D01*
X16936524Y-13191714D02*
X16946048Y-13210762D01*
X16946048Y-13210762D02*
X16946048Y-13258381D01*
X16946048Y-13258381D02*
X16936524Y-13277428D01*
X16936524Y-13277428D02*
X16927000Y-13286952D01*
X16927000Y-13286952D02*
X16907953Y-13296476D01*
X16907953Y-13296476D02*
X16860333Y-13296476D01*
X16860333Y-13296476D02*
X16841286Y-13286952D01*
X16841286Y-13286952D02*
X16831762Y-13277428D01*
X17069857Y-13096476D02*
X17088905Y-13096476D01*
X17088905Y-13096476D02*
X17107953Y-13106000D01*
X17107953Y-13106000D02*
X17117476Y-13115524D01*
X17117476Y-13115524D02*
X17127000Y-13134571D01*
X17127000Y-13134571D02*
X17136524Y-13172667D01*
X17136524Y-13172667D02*
X17136524Y-13220286D01*
X17136524Y-13220286D02*
X17127000Y-13258381D01*
X17127000Y-13258381D02*
X17117476Y-13277428D01*
X17117476Y-13277428D02*
X17107953Y-13286952D01*
X17107953Y-13286952D02*
X17088905Y-13296476D01*
X17088905Y-13296476D02*
X17069857Y-13296476D01*
X17069857Y-13296476D02*
X17050810Y-13286952D01*
X17050810Y-13286952D02*
X17041286Y-13277428D01*
X17041286Y-13277428D02*
X17031762Y-13258381D01*
X17031762Y-13258381D02*
X17022238Y-13220286D01*
X17022238Y-13220286D02*
X17022238Y-13172667D01*
X17022238Y-13172667D02*
X17031762Y-13134571D01*
X17031762Y-13134571D02*
X17041286Y-13115524D01*
X17041286Y-13115524D02*
X17050810Y-13106000D01*
X17050810Y-13106000D02*
X17069857Y-13096476D01*
X17212714Y-13096476D02*
X17212714Y-13134571D01*
X17288905Y-13096476D02*
X17288905Y-13134571D01*
X17551762Y-13372667D02*
X17542238Y-13363143D01*
X17542238Y-13363143D02*
X17523191Y-13334571D01*
X17523191Y-13334571D02*
X17513667Y-13315524D01*
X17513667Y-13315524D02*
X17504143Y-13286952D01*
X17504143Y-13286952D02*
X17494619Y-13239333D01*
X17494619Y-13239333D02*
X17494619Y-13201238D01*
X17494619Y-13201238D02*
X17504143Y-13153619D01*
X17504143Y-13153619D02*
X17513667Y-13125048D01*
X17513667Y-13125048D02*
X17523191Y-13106000D01*
X17523191Y-13106000D02*
X17542238Y-13077428D01*
X17542238Y-13077428D02*
X17551762Y-13067905D01*
X17732714Y-13296476D02*
X17618429Y-13296476D01*
X17675572Y-13296476D02*
X17675572Y-13096476D01*
X17675572Y-13096476D02*
X17656524Y-13125048D01*
X17656524Y-13125048D02*
X17637476Y-13144095D01*
X17637476Y-13144095D02*
X17618429Y-13153619D01*
X17847000Y-13182190D02*
X17827953Y-13172667D01*
X17827953Y-13172667D02*
X17818429Y-13163143D01*
X17818429Y-13163143D02*
X17808905Y-13144095D01*
X17808905Y-13144095D02*
X17808905Y-13134571D01*
X17808905Y-13134571D02*
X17818429Y-13115524D01*
X17818429Y-13115524D02*
X17827953Y-13106000D01*
X17827953Y-13106000D02*
X17847000Y-13096476D01*
X17847000Y-13096476D02*
X17885095Y-13096476D01*
X17885095Y-13096476D02*
X17904143Y-13106000D01*
X17904143Y-13106000D02*
X17913667Y-13115524D01*
X17913667Y-13115524D02*
X17923191Y-13134571D01*
X17923191Y-13134571D02*
X17923191Y-13144095D01*
X17923191Y-13144095D02*
X17913667Y-13163143D01*
X17913667Y-13163143D02*
X17904143Y-13172667D01*
X17904143Y-13172667D02*
X17885095Y-13182190D01*
X17885095Y-13182190D02*
X17847000Y-13182190D01*
X17847000Y-13182190D02*
X17827953Y-13191714D01*
X17827953Y-13191714D02*
X17818429Y-13201238D01*
X17818429Y-13201238D02*
X17808905Y-13220286D01*
X17808905Y-13220286D02*
X17808905Y-13258381D01*
X17808905Y-13258381D02*
X17818429Y-13277428D01*
X17818429Y-13277428D02*
X17827953Y-13286952D01*
X17827953Y-13286952D02*
X17847000Y-13296476D01*
X17847000Y-13296476D02*
X17885095Y-13296476D01*
X17885095Y-13296476D02*
X17904143Y-13286952D01*
X17904143Y-13286952D02*
X17913667Y-13277428D01*
X17913667Y-13277428D02*
X17923191Y-13258381D01*
X17923191Y-13258381D02*
X17923191Y-13220286D01*
X17923191Y-13220286D02*
X17913667Y-13201238D01*
X17913667Y-13201238D02*
X17904143Y-13191714D01*
X17904143Y-13191714D02*
X17885095Y-13182190D01*
X18128905Y-13296476D02*
X18128905Y-13096476D01*
X18214619Y-13296476D02*
X18214619Y-13191714D01*
X18214619Y-13191714D02*
X18205095Y-13172667D01*
X18205095Y-13172667D02*
X18186048Y-13163143D01*
X18186048Y-13163143D02*
X18157476Y-13163143D01*
X18157476Y-13163143D02*
X18138429Y-13172667D01*
X18138429Y-13172667D02*
X18128905Y-13182190D01*
X18338429Y-13296476D02*
X18319381Y-13286952D01*
X18319381Y-13286952D02*
X18309857Y-13277428D01*
X18309857Y-13277428D02*
X18300334Y-13258381D01*
X18300334Y-13258381D02*
X18300334Y-13201238D01*
X18300334Y-13201238D02*
X18309857Y-13182190D01*
X18309857Y-13182190D02*
X18319381Y-13172667D01*
X18319381Y-13172667D02*
X18338429Y-13163143D01*
X18338429Y-13163143D02*
X18367000Y-13163143D01*
X18367000Y-13163143D02*
X18386048Y-13172667D01*
X18386048Y-13172667D02*
X18395572Y-13182190D01*
X18395572Y-13182190D02*
X18405095Y-13201238D01*
X18405095Y-13201238D02*
X18405095Y-13258381D01*
X18405095Y-13258381D02*
X18395572Y-13277428D01*
X18395572Y-13277428D02*
X18386048Y-13286952D01*
X18386048Y-13286952D02*
X18367000Y-13296476D01*
X18367000Y-13296476D02*
X18338429Y-13296476D01*
X18519381Y-13296476D02*
X18500334Y-13286952D01*
X18500334Y-13286952D02*
X18490810Y-13267905D01*
X18490810Y-13267905D02*
X18490810Y-13096476D01*
X18671762Y-13286952D02*
X18652715Y-13296476D01*
X18652715Y-13296476D02*
X18614619Y-13296476D01*
X18614619Y-13296476D02*
X18595572Y-13286952D01*
X18595572Y-13286952D02*
X18586048Y-13267905D01*
X18586048Y-13267905D02*
X18586048Y-13191714D01*
X18586048Y-13191714D02*
X18595572Y-13172667D01*
X18595572Y-13172667D02*
X18614619Y-13163143D01*
X18614619Y-13163143D02*
X18652715Y-13163143D01*
X18652715Y-13163143D02*
X18671762Y-13172667D01*
X18671762Y-13172667D02*
X18681286Y-13191714D01*
X18681286Y-13191714D02*
X18681286Y-13210762D01*
X18681286Y-13210762D02*
X18586048Y-13229809D01*
X18757476Y-13286952D02*
X18776524Y-13296476D01*
X18776524Y-13296476D02*
X18814619Y-13296476D01*
X18814619Y-13296476D02*
X18833667Y-13286952D01*
X18833667Y-13286952D02*
X18843191Y-13267905D01*
X18843191Y-13267905D02*
X18843191Y-13258381D01*
X18843191Y-13258381D02*
X18833667Y-13239333D01*
X18833667Y-13239333D02*
X18814619Y-13229809D01*
X18814619Y-13229809D02*
X18786048Y-13229809D01*
X18786048Y-13229809D02*
X18767000Y-13220286D01*
X18767000Y-13220286D02*
X18757476Y-13201238D01*
X18757476Y-13201238D02*
X18757476Y-13191714D01*
X18757476Y-13191714D02*
X18767000Y-13172667D01*
X18767000Y-13172667D02*
X18786048Y-13163143D01*
X18786048Y-13163143D02*
X18814619Y-13163143D01*
X18814619Y-13163143D02*
X18833667Y-13172667D01*
X18909857Y-13372667D02*
X18919381Y-13363143D01*
X18919381Y-13363143D02*
X18938429Y-13334571D01*
X18938429Y-13334571D02*
X18947953Y-13315524D01*
X18947953Y-13315524D02*
X18957476Y-13286952D01*
X18957476Y-13286952D02*
X18967000Y-13239333D01*
X18967000Y-13239333D02*
X18967000Y-13201238D01*
X18967000Y-13201238D02*
X18957476Y-13153619D01*
X18957476Y-13153619D02*
X18947953Y-13125048D01*
X18947953Y-13125048D02*
X18938429Y-13106000D01*
X18938429Y-13106000D02*
X18919381Y-13077428D01*
X18919381Y-13077428D02*
X18909857Y-13067905D01*
X19239381Y-13372667D02*
X19229857Y-13363143D01*
X19229857Y-13363143D02*
X19210810Y-13334571D01*
X19210810Y-13334571D02*
X19201286Y-13315524D01*
X19201286Y-13315524D02*
X19191762Y-13286952D01*
X19191762Y-13286952D02*
X19182238Y-13239333D01*
X19182238Y-13239333D02*
X19182238Y-13201238D01*
X19182238Y-13201238D02*
X19191762Y-13153619D01*
X19191762Y-13153619D02*
X19201286Y-13125048D01*
X19201286Y-13125048D02*
X19210810Y-13106000D01*
X19210810Y-13106000D02*
X19229857Y-13077428D01*
X19229857Y-13077428D02*
X19239381Y-13067905D01*
X19315572Y-13163143D02*
X19315572Y-13296476D01*
X19315572Y-13182190D02*
X19325095Y-13172667D01*
X19325095Y-13172667D02*
X19344143Y-13163143D01*
X19344143Y-13163143D02*
X19372715Y-13163143D01*
X19372715Y-13163143D02*
X19391762Y-13172667D01*
X19391762Y-13172667D02*
X19401286Y-13191714D01*
X19401286Y-13191714D02*
X19401286Y-13296476D01*
X19525095Y-13296476D02*
X19506048Y-13286952D01*
X19506048Y-13286952D02*
X19496524Y-13277428D01*
X19496524Y-13277428D02*
X19487000Y-13258381D01*
X19487000Y-13258381D02*
X19487000Y-13201238D01*
X19487000Y-13201238D02*
X19496524Y-13182190D01*
X19496524Y-13182190D02*
X19506048Y-13172667D01*
X19506048Y-13172667D02*
X19525095Y-13163143D01*
X19525095Y-13163143D02*
X19553667Y-13163143D01*
X19553667Y-13163143D02*
X19572715Y-13172667D01*
X19572715Y-13172667D02*
X19582238Y-13182190D01*
X19582238Y-13182190D02*
X19591762Y-13201238D01*
X19591762Y-13201238D02*
X19591762Y-13258381D01*
X19591762Y-13258381D02*
X19582238Y-13277428D01*
X19582238Y-13277428D02*
X19572715Y-13286952D01*
X19572715Y-13286952D02*
X19553667Y-13296476D01*
X19553667Y-13296476D02*
X19525095Y-13296476D01*
X19648905Y-13163143D02*
X19725095Y-13163143D01*
X19677476Y-13096476D02*
X19677476Y-13267905D01*
X19677476Y-13267905D02*
X19687000Y-13286952D01*
X19687000Y-13286952D02*
X19706048Y-13296476D01*
X19706048Y-13296476D02*
X19725095Y-13296476D01*
X19911762Y-13163143D02*
X19911762Y-13363143D01*
X19911762Y-13172667D02*
X19930810Y-13163143D01*
X19930810Y-13163143D02*
X19968905Y-13163143D01*
X19968905Y-13163143D02*
X19987953Y-13172667D01*
X19987953Y-13172667D02*
X19997476Y-13182190D01*
X19997476Y-13182190D02*
X20007000Y-13201238D01*
X20007000Y-13201238D02*
X20007000Y-13258381D01*
X20007000Y-13258381D02*
X19997476Y-13277428D01*
X19997476Y-13277428D02*
X19987953Y-13286952D01*
X19987953Y-13286952D02*
X19968905Y-13296476D01*
X19968905Y-13296476D02*
X19930810Y-13296476D01*
X19930810Y-13296476D02*
X19911762Y-13286952D01*
X20121286Y-13296476D02*
X20102238Y-13286952D01*
X20102238Y-13286952D02*
X20092715Y-13267905D01*
X20092715Y-13267905D02*
X20092715Y-13096476D01*
X20283191Y-13296476D02*
X20283191Y-13191714D01*
X20283191Y-13191714D02*
X20273667Y-13172667D01*
X20273667Y-13172667D02*
X20254619Y-13163143D01*
X20254619Y-13163143D02*
X20216524Y-13163143D01*
X20216524Y-13163143D02*
X20197476Y-13172667D01*
X20283191Y-13286952D02*
X20264143Y-13296476D01*
X20264143Y-13296476D02*
X20216524Y-13296476D01*
X20216524Y-13296476D02*
X20197476Y-13286952D01*
X20197476Y-13286952D02*
X20187953Y-13267905D01*
X20187953Y-13267905D02*
X20187953Y-13248857D01*
X20187953Y-13248857D02*
X20197476Y-13229809D01*
X20197476Y-13229809D02*
X20216524Y-13220286D01*
X20216524Y-13220286D02*
X20264143Y-13220286D01*
X20264143Y-13220286D02*
X20283191Y-13210762D01*
X20349857Y-13163143D02*
X20426048Y-13163143D01*
X20378429Y-13096476D02*
X20378429Y-13267905D01*
X20378429Y-13267905D02*
X20387953Y-13286952D01*
X20387953Y-13286952D02*
X20407000Y-13296476D01*
X20407000Y-13296476D02*
X20426048Y-13296476D01*
X20568905Y-13286952D02*
X20549857Y-13296476D01*
X20549857Y-13296476D02*
X20511762Y-13296476D01*
X20511762Y-13296476D02*
X20492715Y-13286952D01*
X20492715Y-13286952D02*
X20483191Y-13267905D01*
X20483191Y-13267905D02*
X20483191Y-13191714D01*
X20483191Y-13191714D02*
X20492715Y-13172667D01*
X20492715Y-13172667D02*
X20511762Y-13163143D01*
X20511762Y-13163143D02*
X20549857Y-13163143D01*
X20549857Y-13163143D02*
X20568905Y-13172667D01*
X20568905Y-13172667D02*
X20578429Y-13191714D01*
X20578429Y-13191714D02*
X20578429Y-13210762D01*
X20578429Y-13210762D02*
X20483191Y-13229809D01*
X20749857Y-13296476D02*
X20749857Y-13096476D01*
X20749857Y-13286952D02*
X20730810Y-13296476D01*
X20730810Y-13296476D02*
X20692715Y-13296476D01*
X20692715Y-13296476D02*
X20673667Y-13286952D01*
X20673667Y-13286952D02*
X20664143Y-13277428D01*
X20664143Y-13277428D02*
X20654619Y-13258381D01*
X20654619Y-13258381D02*
X20654619Y-13201238D01*
X20654619Y-13201238D02*
X20664143Y-13182190D01*
X20664143Y-13182190D02*
X20673667Y-13172667D01*
X20673667Y-13172667D02*
X20692715Y-13163143D01*
X20692715Y-13163143D02*
X20730810Y-13163143D01*
X20730810Y-13163143D02*
X20749857Y-13172667D01*
X20826048Y-13372667D02*
X20835572Y-13363143D01*
X20835572Y-13363143D02*
X20854619Y-13334571D01*
X20854619Y-13334571D02*
X20864143Y-13315524D01*
X20864143Y-13315524D02*
X20873667Y-13286952D01*
X20873667Y-13286952D02*
X20883191Y-13239333D01*
X20883191Y-13239333D02*
X20883191Y-13201238D01*
X20883191Y-13201238D02*
X20873667Y-13153619D01*
X20873667Y-13153619D02*
X20864143Y-13125048D01*
X20864143Y-13125048D02*
X20854619Y-13106000D01*
X20854619Y-13106000D02*
X20835572Y-13077428D01*
X20835572Y-13077428D02*
X20826048Y-13067905D01*
D13*
X14087000Y-13487000D02*
G75*
G03*
X14087000Y-13487000I-50000J0D01*
G01*
D10*
X14439381Y-13560476D02*
X14325095Y-13560476D01*
X14382238Y-13560476D02*
X14382238Y-13360476D01*
X14382238Y-13360476D02*
X14363190Y-13389048D01*
X14363190Y-13389048D02*
X14344143Y-13408095D01*
X14344143Y-13408095D02*
X14325095Y-13417619D01*
X14525095Y-13541428D02*
X14534619Y-13550952D01*
X14534619Y-13550952D02*
X14525095Y-13560476D01*
X14525095Y-13560476D02*
X14515571Y-13550952D01*
X14515571Y-13550952D02*
X14525095Y-13541428D01*
X14525095Y-13541428D02*
X14525095Y-13560476D01*
X14658428Y-13360476D02*
X14677476Y-13360476D01*
X14677476Y-13360476D02*
X14696524Y-13370000D01*
X14696524Y-13370000D02*
X14706048Y-13379524D01*
X14706048Y-13379524D02*
X14715571Y-13398571D01*
X14715571Y-13398571D02*
X14725095Y-13436667D01*
X14725095Y-13436667D02*
X14725095Y-13484286D01*
X14725095Y-13484286D02*
X14715571Y-13522381D01*
X14715571Y-13522381D02*
X14706048Y-13541428D01*
X14706048Y-13541428D02*
X14696524Y-13550952D01*
X14696524Y-13550952D02*
X14677476Y-13560476D01*
X14677476Y-13560476D02*
X14658428Y-13560476D01*
X14658428Y-13560476D02*
X14639381Y-13550952D01*
X14639381Y-13550952D02*
X14629857Y-13541428D01*
X14629857Y-13541428D02*
X14620333Y-13522381D01*
X14620333Y-13522381D02*
X14610809Y-13484286D01*
X14610809Y-13484286D02*
X14610809Y-13436667D01*
X14610809Y-13436667D02*
X14620333Y-13398571D01*
X14620333Y-13398571D02*
X14629857Y-13379524D01*
X14629857Y-13379524D02*
X14639381Y-13370000D01*
X14639381Y-13370000D02*
X14658428Y-13360476D01*
X14848905Y-13360476D02*
X14867952Y-13360476D01*
X14867952Y-13360476D02*
X14887000Y-13370000D01*
X14887000Y-13370000D02*
X14896524Y-13379524D01*
X14896524Y-13379524D02*
X14906048Y-13398571D01*
X14906048Y-13398571D02*
X14915571Y-13436667D01*
X14915571Y-13436667D02*
X14915571Y-13484286D01*
X14915571Y-13484286D02*
X14906048Y-13522381D01*
X14906048Y-13522381D02*
X14896524Y-13541428D01*
X14896524Y-13541428D02*
X14887000Y-13550952D01*
X14887000Y-13550952D02*
X14867952Y-13560476D01*
X14867952Y-13560476D02*
X14848905Y-13560476D01*
X14848905Y-13560476D02*
X14829857Y-13550952D01*
X14829857Y-13550952D02*
X14820333Y-13541428D01*
X14820333Y-13541428D02*
X14810809Y-13522381D01*
X14810809Y-13522381D02*
X14801286Y-13484286D01*
X14801286Y-13484286D02*
X14801286Y-13436667D01*
X14801286Y-13436667D02*
X14810809Y-13398571D01*
X14810809Y-13398571D02*
X14820333Y-13379524D01*
X14820333Y-13379524D02*
X14829857Y-13370000D01*
X14829857Y-13370000D02*
X14848905Y-13360476D01*
X15039381Y-13360476D02*
X15058429Y-13360476D01*
X15058429Y-13360476D02*
X15077476Y-13370000D01*
X15077476Y-13370000D02*
X15087000Y-13379524D01*
X15087000Y-13379524D02*
X15096524Y-13398571D01*
X15096524Y-13398571D02*
X15106048Y-13436667D01*
X15106048Y-13436667D02*
X15106048Y-13484286D01*
X15106048Y-13484286D02*
X15096524Y-13522381D01*
X15096524Y-13522381D02*
X15087000Y-13541428D01*
X15087000Y-13541428D02*
X15077476Y-13550952D01*
X15077476Y-13550952D02*
X15058429Y-13560476D01*
X15058429Y-13560476D02*
X15039381Y-13560476D01*
X15039381Y-13560476D02*
X15020333Y-13550952D01*
X15020333Y-13550952D02*
X15010809Y-13541428D01*
X15010809Y-13541428D02*
X15001286Y-13522381D01*
X15001286Y-13522381D02*
X14991762Y-13484286D01*
X14991762Y-13484286D02*
X14991762Y-13436667D01*
X14991762Y-13436667D02*
X15001286Y-13398571D01*
X15001286Y-13398571D02*
X15010809Y-13379524D01*
X15010809Y-13379524D02*
X15020333Y-13370000D01*
X15020333Y-13370000D02*
X15039381Y-13360476D01*
X15191762Y-13560476D02*
X15191762Y-13427143D01*
X15191762Y-13446190D02*
X15201286Y-13436667D01*
X15201286Y-13436667D02*
X15220333Y-13427143D01*
X15220333Y-13427143D02*
X15248905Y-13427143D01*
X15248905Y-13427143D02*
X15267952Y-13436667D01*
X15267952Y-13436667D02*
X15277476Y-13455714D01*
X15277476Y-13455714D02*
X15277476Y-13560476D01*
X15277476Y-13455714D02*
X15287000Y-13436667D01*
X15287000Y-13436667D02*
X15306048Y-13427143D01*
X15306048Y-13427143D02*
X15334619Y-13427143D01*
X15334619Y-13427143D02*
X15353667Y-13436667D01*
X15353667Y-13436667D02*
X15363190Y-13455714D01*
X15363190Y-13455714D02*
X15363190Y-13560476D01*
X15458429Y-13560476D02*
X15458429Y-13427143D01*
X15458429Y-13446190D02*
X15467952Y-13436667D01*
X15467952Y-13436667D02*
X15487000Y-13427143D01*
X15487000Y-13427143D02*
X15515571Y-13427143D01*
X15515571Y-13427143D02*
X15534619Y-13436667D01*
X15534619Y-13436667D02*
X15544143Y-13455714D01*
X15544143Y-13455714D02*
X15544143Y-13560476D01*
X15544143Y-13455714D02*
X15553667Y-13436667D01*
X15553667Y-13436667D02*
X15572714Y-13427143D01*
X15572714Y-13427143D02*
X15601286Y-13427143D01*
X15601286Y-13427143D02*
X15620333Y-13436667D01*
X15620333Y-13436667D02*
X15629857Y-13455714D01*
X15629857Y-13455714D02*
X15629857Y-13560476D01*
X15987952Y-13350952D02*
X15816524Y-13608095D01*
X16212714Y-13360476D02*
X16231762Y-13360476D01*
X16231762Y-13360476D02*
X16250810Y-13370000D01*
X16250810Y-13370000D02*
X16260333Y-13379524D01*
X16260333Y-13379524D02*
X16269857Y-13398571D01*
X16269857Y-13398571D02*
X16279381Y-13436667D01*
X16279381Y-13436667D02*
X16279381Y-13484286D01*
X16279381Y-13484286D02*
X16269857Y-13522381D01*
X16269857Y-13522381D02*
X16260333Y-13541428D01*
X16260333Y-13541428D02*
X16250810Y-13550952D01*
X16250810Y-13550952D02*
X16231762Y-13560476D01*
X16231762Y-13560476D02*
X16212714Y-13560476D01*
X16212714Y-13560476D02*
X16193667Y-13550952D01*
X16193667Y-13550952D02*
X16184143Y-13541428D01*
X16184143Y-13541428D02*
X16174619Y-13522381D01*
X16174619Y-13522381D02*
X16165095Y-13484286D01*
X16165095Y-13484286D02*
X16165095Y-13436667D01*
X16165095Y-13436667D02*
X16174619Y-13398571D01*
X16174619Y-13398571D02*
X16184143Y-13379524D01*
X16184143Y-13379524D02*
X16193667Y-13370000D01*
X16193667Y-13370000D02*
X16212714Y-13360476D01*
X16365095Y-13541428D02*
X16374619Y-13550952D01*
X16374619Y-13550952D02*
X16365095Y-13560476D01*
X16365095Y-13560476D02*
X16355571Y-13550952D01*
X16355571Y-13550952D02*
X16365095Y-13541428D01*
X16365095Y-13541428D02*
X16365095Y-13560476D01*
X16498429Y-13360476D02*
X16517476Y-13360476D01*
X16517476Y-13360476D02*
X16536524Y-13370000D01*
X16536524Y-13370000D02*
X16546048Y-13379524D01*
X16546048Y-13379524D02*
X16555571Y-13398571D01*
X16555571Y-13398571D02*
X16565095Y-13436667D01*
X16565095Y-13436667D02*
X16565095Y-13484286D01*
X16565095Y-13484286D02*
X16555571Y-13522381D01*
X16555571Y-13522381D02*
X16546048Y-13541428D01*
X16546048Y-13541428D02*
X16536524Y-13550952D01*
X16536524Y-13550952D02*
X16517476Y-13560476D01*
X16517476Y-13560476D02*
X16498429Y-13560476D01*
X16498429Y-13560476D02*
X16479381Y-13550952D01*
X16479381Y-13550952D02*
X16469857Y-13541428D01*
X16469857Y-13541428D02*
X16460333Y-13522381D01*
X16460333Y-13522381D02*
X16450810Y-13484286D01*
X16450810Y-13484286D02*
X16450810Y-13436667D01*
X16450810Y-13436667D02*
X16460333Y-13398571D01*
X16460333Y-13398571D02*
X16469857Y-13379524D01*
X16469857Y-13379524D02*
X16479381Y-13370000D01*
X16479381Y-13370000D02*
X16498429Y-13360476D01*
X16631762Y-13360476D02*
X16755571Y-13360476D01*
X16755571Y-13360476D02*
X16688905Y-13436667D01*
X16688905Y-13436667D02*
X16717476Y-13436667D01*
X16717476Y-13436667D02*
X16736524Y-13446190D01*
X16736524Y-13446190D02*
X16746048Y-13455714D01*
X16746048Y-13455714D02*
X16755571Y-13474762D01*
X16755571Y-13474762D02*
X16755571Y-13522381D01*
X16755571Y-13522381D02*
X16746048Y-13541428D01*
X16746048Y-13541428D02*
X16736524Y-13550952D01*
X16736524Y-13550952D02*
X16717476Y-13560476D01*
X16717476Y-13560476D02*
X16660333Y-13560476D01*
X16660333Y-13560476D02*
X16641286Y-13550952D01*
X16641286Y-13550952D02*
X16631762Y-13541428D01*
X16850810Y-13560476D02*
X16888905Y-13560476D01*
X16888905Y-13560476D02*
X16907953Y-13550952D01*
X16907953Y-13550952D02*
X16917476Y-13541428D01*
X16917476Y-13541428D02*
X16936524Y-13512857D01*
X16936524Y-13512857D02*
X16946048Y-13474762D01*
X16946048Y-13474762D02*
X16946048Y-13398571D01*
X16946048Y-13398571D02*
X16936524Y-13379524D01*
X16936524Y-13379524D02*
X16927000Y-13370000D01*
X16927000Y-13370000D02*
X16907953Y-13360476D01*
X16907953Y-13360476D02*
X16869857Y-13360476D01*
X16869857Y-13360476D02*
X16850810Y-13370000D01*
X16850810Y-13370000D02*
X16841286Y-13379524D01*
X16841286Y-13379524D02*
X16831762Y-13398571D01*
X16831762Y-13398571D02*
X16831762Y-13446190D01*
X16831762Y-13446190D02*
X16841286Y-13465238D01*
X16841286Y-13465238D02*
X16850810Y-13474762D01*
X16850810Y-13474762D02*
X16869857Y-13484286D01*
X16869857Y-13484286D02*
X16907953Y-13484286D01*
X16907953Y-13484286D02*
X16927000Y-13474762D01*
X16927000Y-13474762D02*
X16936524Y-13465238D01*
X16936524Y-13465238D02*
X16946048Y-13446190D01*
X17117476Y-13427143D02*
X17117476Y-13560476D01*
X17069857Y-13350952D02*
X17022238Y-13493809D01*
X17022238Y-13493809D02*
X17146048Y-13493809D01*
X17212714Y-13360476D02*
X17212714Y-13398571D01*
X17288905Y-13360476D02*
X17288905Y-13398571D01*
X17551762Y-13636667D02*
X17542238Y-13627143D01*
X17542238Y-13627143D02*
X17523191Y-13598571D01*
X17523191Y-13598571D02*
X17513667Y-13579524D01*
X17513667Y-13579524D02*
X17504143Y-13550952D01*
X17504143Y-13550952D02*
X17494619Y-13503333D01*
X17494619Y-13503333D02*
X17494619Y-13465238D01*
X17494619Y-13465238D02*
X17504143Y-13417619D01*
X17504143Y-13417619D02*
X17513667Y-13389048D01*
X17513667Y-13389048D02*
X17523191Y-13370000D01*
X17523191Y-13370000D02*
X17542238Y-13341428D01*
X17542238Y-13341428D02*
X17551762Y-13331905D01*
X17618429Y-13379524D02*
X17627953Y-13370000D01*
X17627953Y-13370000D02*
X17647000Y-13360476D01*
X17647000Y-13360476D02*
X17694619Y-13360476D01*
X17694619Y-13360476D02*
X17713667Y-13370000D01*
X17713667Y-13370000D02*
X17723191Y-13379524D01*
X17723191Y-13379524D02*
X17732714Y-13398571D01*
X17732714Y-13398571D02*
X17732714Y-13417619D01*
X17732714Y-13417619D02*
X17723191Y-13446190D01*
X17723191Y-13446190D02*
X17608905Y-13560476D01*
X17608905Y-13560476D02*
X17732714Y-13560476D01*
X17938429Y-13560476D02*
X17938429Y-13360476D01*
X18024143Y-13560476D02*
X18024143Y-13455714D01*
X18024143Y-13455714D02*
X18014619Y-13436667D01*
X18014619Y-13436667D02*
X17995572Y-13427143D01*
X17995572Y-13427143D02*
X17967000Y-13427143D01*
X17967000Y-13427143D02*
X17947953Y-13436667D01*
X17947953Y-13436667D02*
X17938429Y-13446190D01*
X18147953Y-13560476D02*
X18128905Y-13550952D01*
X18128905Y-13550952D02*
X18119381Y-13541428D01*
X18119381Y-13541428D02*
X18109857Y-13522381D01*
X18109857Y-13522381D02*
X18109857Y-13465238D01*
X18109857Y-13465238D02*
X18119381Y-13446190D01*
X18119381Y-13446190D02*
X18128905Y-13436667D01*
X18128905Y-13436667D02*
X18147953Y-13427143D01*
X18147953Y-13427143D02*
X18176524Y-13427143D01*
X18176524Y-13427143D02*
X18195572Y-13436667D01*
X18195572Y-13436667D02*
X18205095Y-13446190D01*
X18205095Y-13446190D02*
X18214619Y-13465238D01*
X18214619Y-13465238D02*
X18214619Y-13522381D01*
X18214619Y-13522381D02*
X18205095Y-13541428D01*
X18205095Y-13541428D02*
X18195572Y-13550952D01*
X18195572Y-13550952D02*
X18176524Y-13560476D01*
X18176524Y-13560476D02*
X18147953Y-13560476D01*
X18328905Y-13560476D02*
X18309857Y-13550952D01*
X18309857Y-13550952D02*
X18300334Y-13531905D01*
X18300334Y-13531905D02*
X18300334Y-13360476D01*
X18481286Y-13550952D02*
X18462238Y-13560476D01*
X18462238Y-13560476D02*
X18424143Y-13560476D01*
X18424143Y-13560476D02*
X18405095Y-13550952D01*
X18405095Y-13550952D02*
X18395572Y-13531905D01*
X18395572Y-13531905D02*
X18395572Y-13455714D01*
X18395572Y-13455714D02*
X18405095Y-13436667D01*
X18405095Y-13436667D02*
X18424143Y-13427143D01*
X18424143Y-13427143D02*
X18462238Y-13427143D01*
X18462238Y-13427143D02*
X18481286Y-13436667D01*
X18481286Y-13436667D02*
X18490810Y-13455714D01*
X18490810Y-13455714D02*
X18490810Y-13474762D01*
X18490810Y-13474762D02*
X18395572Y-13493809D01*
X18567000Y-13550952D02*
X18586048Y-13560476D01*
X18586048Y-13560476D02*
X18624143Y-13560476D01*
X18624143Y-13560476D02*
X18643191Y-13550952D01*
X18643191Y-13550952D02*
X18652715Y-13531905D01*
X18652715Y-13531905D02*
X18652715Y-13522381D01*
X18652715Y-13522381D02*
X18643191Y-13503333D01*
X18643191Y-13503333D02*
X18624143Y-13493809D01*
X18624143Y-13493809D02*
X18595572Y-13493809D01*
X18595572Y-13493809D02*
X18576524Y-13484286D01*
X18576524Y-13484286D02*
X18567000Y-13465238D01*
X18567000Y-13465238D02*
X18567000Y-13455714D01*
X18567000Y-13455714D02*
X18576524Y-13436667D01*
X18576524Y-13436667D02*
X18595572Y-13427143D01*
X18595572Y-13427143D02*
X18624143Y-13427143D01*
X18624143Y-13427143D02*
X18643191Y-13436667D01*
X18719381Y-13636667D02*
X18728905Y-13627143D01*
X18728905Y-13627143D02*
X18747953Y-13598571D01*
X18747953Y-13598571D02*
X18757476Y-13579524D01*
X18757476Y-13579524D02*
X18767000Y-13550952D01*
X18767000Y-13550952D02*
X18776524Y-13503333D01*
X18776524Y-13503333D02*
X18776524Y-13465238D01*
X18776524Y-13465238D02*
X18767000Y-13417619D01*
X18767000Y-13417619D02*
X18757476Y-13389048D01*
X18757476Y-13389048D02*
X18747953Y-13370000D01*
X18747953Y-13370000D02*
X18728905Y-13341428D01*
X18728905Y-13341428D02*
X18719381Y-13331905D01*
X19048905Y-13636667D02*
X19039381Y-13627143D01*
X19039381Y-13627143D02*
X19020334Y-13598571D01*
X19020334Y-13598571D02*
X19010810Y-13579524D01*
X19010810Y-13579524D02*
X19001286Y-13550952D01*
X19001286Y-13550952D02*
X18991762Y-13503333D01*
X18991762Y-13503333D02*
X18991762Y-13465238D01*
X18991762Y-13465238D02*
X19001286Y-13417619D01*
X19001286Y-13417619D02*
X19010810Y-13389048D01*
X19010810Y-13389048D02*
X19020334Y-13370000D01*
X19020334Y-13370000D02*
X19039381Y-13341428D01*
X19039381Y-13341428D02*
X19048905Y-13331905D01*
X19125095Y-13427143D02*
X19125095Y-13560476D01*
X19125095Y-13446190D02*
X19134619Y-13436667D01*
X19134619Y-13436667D02*
X19153667Y-13427143D01*
X19153667Y-13427143D02*
X19182238Y-13427143D01*
X19182238Y-13427143D02*
X19201286Y-13436667D01*
X19201286Y-13436667D02*
X19210810Y-13455714D01*
X19210810Y-13455714D02*
X19210810Y-13560476D01*
X19334619Y-13560476D02*
X19315572Y-13550952D01*
X19315572Y-13550952D02*
X19306048Y-13541428D01*
X19306048Y-13541428D02*
X19296524Y-13522381D01*
X19296524Y-13522381D02*
X19296524Y-13465238D01*
X19296524Y-13465238D02*
X19306048Y-13446190D01*
X19306048Y-13446190D02*
X19315572Y-13436667D01*
X19315572Y-13436667D02*
X19334619Y-13427143D01*
X19334619Y-13427143D02*
X19363191Y-13427143D01*
X19363191Y-13427143D02*
X19382238Y-13436667D01*
X19382238Y-13436667D02*
X19391762Y-13446190D01*
X19391762Y-13446190D02*
X19401286Y-13465238D01*
X19401286Y-13465238D02*
X19401286Y-13522381D01*
X19401286Y-13522381D02*
X19391762Y-13541428D01*
X19391762Y-13541428D02*
X19382238Y-13550952D01*
X19382238Y-13550952D02*
X19363191Y-13560476D01*
X19363191Y-13560476D02*
X19334619Y-13560476D01*
X19458429Y-13427143D02*
X19534619Y-13427143D01*
X19487000Y-13360476D02*
X19487000Y-13531905D01*
X19487000Y-13531905D02*
X19496524Y-13550952D01*
X19496524Y-13550952D02*
X19515572Y-13560476D01*
X19515572Y-13560476D02*
X19534619Y-13560476D01*
X19721286Y-13427143D02*
X19721286Y-13627143D01*
X19721286Y-13436667D02*
X19740334Y-13427143D01*
X19740334Y-13427143D02*
X19778429Y-13427143D01*
X19778429Y-13427143D02*
X19797476Y-13436667D01*
X19797476Y-13436667D02*
X19807000Y-13446190D01*
X19807000Y-13446190D02*
X19816524Y-13465238D01*
X19816524Y-13465238D02*
X19816524Y-13522381D01*
X19816524Y-13522381D02*
X19807000Y-13541428D01*
X19807000Y-13541428D02*
X19797476Y-13550952D01*
X19797476Y-13550952D02*
X19778429Y-13560476D01*
X19778429Y-13560476D02*
X19740334Y-13560476D01*
X19740334Y-13560476D02*
X19721286Y-13550952D01*
X19930810Y-13560476D02*
X19911762Y-13550952D01*
X19911762Y-13550952D02*
X19902238Y-13531905D01*
X19902238Y-13531905D02*
X19902238Y-13360476D01*
X20092715Y-13560476D02*
X20092715Y-13455714D01*
X20092715Y-13455714D02*
X20083191Y-13436667D01*
X20083191Y-13436667D02*
X20064143Y-13427143D01*
X20064143Y-13427143D02*
X20026048Y-13427143D01*
X20026048Y-13427143D02*
X20007000Y-13436667D01*
X20092715Y-13550952D02*
X20073667Y-13560476D01*
X20073667Y-13560476D02*
X20026048Y-13560476D01*
X20026048Y-13560476D02*
X20007000Y-13550952D01*
X20007000Y-13550952D02*
X19997476Y-13531905D01*
X19997476Y-13531905D02*
X19997476Y-13512857D01*
X19997476Y-13512857D02*
X20007000Y-13493809D01*
X20007000Y-13493809D02*
X20026048Y-13484286D01*
X20026048Y-13484286D02*
X20073667Y-13484286D01*
X20073667Y-13484286D02*
X20092715Y-13474762D01*
X20159381Y-13427143D02*
X20235572Y-13427143D01*
X20187953Y-13360476D02*
X20187953Y-13531905D01*
X20187953Y-13531905D02*
X20197476Y-13550952D01*
X20197476Y-13550952D02*
X20216524Y-13560476D01*
X20216524Y-13560476D02*
X20235572Y-13560476D01*
X20378429Y-13550952D02*
X20359381Y-13560476D01*
X20359381Y-13560476D02*
X20321286Y-13560476D01*
X20321286Y-13560476D02*
X20302238Y-13550952D01*
X20302238Y-13550952D02*
X20292715Y-13531905D01*
X20292715Y-13531905D02*
X20292715Y-13455714D01*
X20292715Y-13455714D02*
X20302238Y-13436667D01*
X20302238Y-13436667D02*
X20321286Y-13427143D01*
X20321286Y-13427143D02*
X20359381Y-13427143D01*
X20359381Y-13427143D02*
X20378429Y-13436667D01*
X20378429Y-13436667D02*
X20387953Y-13455714D01*
X20387953Y-13455714D02*
X20387953Y-13474762D01*
X20387953Y-13474762D02*
X20292715Y-13493809D01*
X20559381Y-13560476D02*
X20559381Y-13360476D01*
X20559381Y-13550952D02*
X20540334Y-13560476D01*
X20540334Y-13560476D02*
X20502238Y-13560476D01*
X20502238Y-13560476D02*
X20483191Y-13550952D01*
X20483191Y-13550952D02*
X20473667Y-13541428D01*
X20473667Y-13541428D02*
X20464143Y-13522381D01*
X20464143Y-13522381D02*
X20464143Y-13465238D01*
X20464143Y-13465238D02*
X20473667Y-13446190D01*
X20473667Y-13446190D02*
X20483191Y-13436667D01*
X20483191Y-13436667D02*
X20502238Y-13427143D01*
X20502238Y-13427143D02*
X20540334Y-13427143D01*
X20540334Y-13427143D02*
X20559381Y-13436667D01*
X20635572Y-13636667D02*
X20645096Y-13627143D01*
X20645096Y-13627143D02*
X20664143Y-13598571D01*
X20664143Y-13598571D02*
X20673667Y-13579524D01*
X20673667Y-13579524D02*
X20683191Y-13550952D01*
X20683191Y-13550952D02*
X20692715Y-13503333D01*
X20692715Y-13503333D02*
X20692715Y-13465238D01*
X20692715Y-13465238D02*
X20683191Y-13417619D01*
X20683191Y-13417619D02*
X20673667Y-13389048D01*
X20673667Y-13389048D02*
X20664143Y-13370000D01*
X20664143Y-13370000D02*
X20645096Y-13341428D01*
X20645096Y-13341428D02*
X20635572Y-13331905D01*
M02*
