G04 #@! TF.GenerationSoftware,KiCad,Pcbnew,(7.0.0)*
G04 #@! TF.CreationDate,2023-06-29T20:34:44+10:00*
G04 #@! TF.ProjectId,RP2040_minimal,52503230-3430-45f6-9d69-6e696d616c2e,REV1*
G04 #@! TF.SameCoordinates,Original*
G04 #@! TF.FileFunction,Paste,Top*
G04 #@! TF.FilePolarity,Positive*
%FSLAX46Y46*%
G04 Gerber Fmt 4.6, Leading zero omitted, Abs format (unit mm)*
G04 Created by KiCad (PCBNEW (7.0.0)) date 2023-06-29 20:34:44*
%MOMM*%
%LPD*%
G01*
G04 APERTURE LIST*
G04 Aperture macros list*
%AMRoundRect*
0 Rectangle with rounded corners*
0 $1 Rounding radius*
0 $2 $3 $4 $5 $6 $7 $8 $9 X,Y pos of 4 corners*
0 Add a 4 corners polygon primitive as box body*
4,1,4,$2,$3,$4,$5,$6,$7,$8,$9,$2,$3,0*
0 Add four circle primitives for the rounded corners*
1,1,$1+$1,$2,$3*
1,1,$1+$1,$4,$5*
1,1,$1+$1,$6,$7*
1,1,$1+$1,$8,$9*
0 Add four rect primitives between the rounded corners*
20,1,$1+$1,$2,$3,$4,$5,0*
20,1,$1+$1,$4,$5,$6,$7,0*
20,1,$1+$1,$6,$7,$8,$9,0*
20,1,$1+$1,$8,$9,$2,$3,0*%
%AMRotRect*
0 Rectangle, with rotation*
0 The origin of the aperture is its center*
0 $1 length*
0 $2 width*
0 $3 Rotation angle, in degrees counterclockwise*
0 Add horizontal line*
21,1,$1,$2,0,0,$3*%
G04 Aperture macros list end*
%ADD10RoundRect,0.140000X-0.140000X-0.170000X0.140000X-0.170000X0.140000X0.170000X-0.140000X0.170000X0*%
%ADD11RoundRect,0.250000X0.475000X-0.250000X0.475000X0.250000X-0.475000X0.250000X-0.475000X-0.250000X0*%
%ADD12RoundRect,0.135000X-0.185000X0.135000X-0.185000X-0.135000X0.185000X-0.135000X0.185000X0.135000X0*%
%ADD13RoundRect,0.140000X0.140000X0.170000X-0.140000X0.170000X-0.140000X-0.170000X0.140000X-0.170000X0*%
%ADD14RoundRect,0.140000X-0.170000X0.140000X-0.170000X-0.140000X0.170000X-0.140000X0.170000X0.140000X0*%
%ADD15RoundRect,0.135000X0.185000X-0.135000X0.185000X0.135000X-0.185000X0.135000X-0.185000X-0.135000X0*%
%ADD16RoundRect,0.150000X0.650000X0.150000X-0.650000X0.150000X-0.650000X-0.150000X0.650000X-0.150000X0*%
%ADD17RoundRect,0.140000X0.170000X-0.140000X0.170000X0.140000X-0.170000X0.140000X-0.170000X-0.140000X0*%
%ADD18RoundRect,0.250000X0.292217X0.292217X-0.292217X0.292217X-0.292217X-0.292217X0.292217X-0.292217X0*%
%ADD19RoundRect,0.050000X0.387500X0.050000X-0.387500X0.050000X-0.387500X-0.050000X0.387500X-0.050000X0*%
%ADD20RoundRect,0.050000X0.050000X0.387500X-0.050000X0.387500X-0.050000X-0.387500X0.050000X-0.387500X0*%
%ADD21R,4.760000X2.100000*%
%ADD22RotRect,1.200000X1.400000X45.000000*%
G04 APERTURE END LIST*
D10*
X160020000Y-118200000D03*
X160980000Y-118200000D03*
D11*
X170100000Y-122600000D03*
X170100000Y-120700000D03*
D12*
X160800000Y-128590000D03*
X160800000Y-129610000D03*
X163700000Y-128580000D03*
X163700000Y-129600000D03*
D13*
X154400000Y-104400000D03*
X155360000Y-104400000D03*
D14*
X156020000Y-107290000D03*
X156020000Y-106330000D03*
X157020000Y-107290000D03*
X157020000Y-106330000D03*
D10*
X165235000Y-99200000D03*
X166195000Y-99200000D03*
X160020000Y-117270000D03*
X160980000Y-117270000D03*
D15*
X167800000Y-118240000D03*
X167800000Y-117220000D03*
D16*
X167220000Y-115570000D03*
X167220000Y-114300000D03*
X167220000Y-113030000D03*
X167220000Y-111760000D03*
X160020000Y-111760000D03*
X160020000Y-113030000D03*
X160020000Y-114300000D03*
X160020000Y-115570000D03*
D13*
X161200000Y-91200000D03*
X160240000Y-91200000D03*
D12*
X166500000Y-117220000D03*
X166500000Y-118240000D03*
D14*
X160020000Y-108290000D03*
X160020000Y-107330000D03*
D13*
X154695000Y-99100000D03*
X153735000Y-99100000D03*
D17*
X159600000Y-94400000D03*
X159600000Y-93440000D03*
D15*
X159020000Y-106330000D03*
X159020000Y-107350000D03*
D17*
X158500000Y-94400000D03*
X158500000Y-93440000D03*
D10*
X164820000Y-103800000D03*
X165780000Y-103800000D03*
D18*
X160657500Y-101037500D03*
X160657500Y-99762500D03*
X159382500Y-101037500D03*
X159382500Y-99762500D03*
D19*
X163457500Y-103000000D03*
X163457500Y-102600000D03*
X163457500Y-102200000D03*
X163457500Y-101800000D03*
X163457500Y-101400000D03*
X163457500Y-101000000D03*
X163457500Y-100600000D03*
X163457500Y-100200000D03*
X163457500Y-99800000D03*
X163457500Y-99400000D03*
X163457500Y-99000000D03*
X163457500Y-98600000D03*
X163457500Y-98200000D03*
X163457500Y-97800000D03*
D20*
X162620000Y-96962500D03*
X162220000Y-96962500D03*
X161820000Y-96962500D03*
X161420000Y-96962500D03*
X161020000Y-96962500D03*
X160620000Y-96962500D03*
X160220000Y-96962500D03*
X159820000Y-96962500D03*
X159420000Y-96962500D03*
X159020000Y-96962500D03*
X158620000Y-96962500D03*
X158220000Y-96962500D03*
X157820000Y-96962500D03*
X157420000Y-96962500D03*
D19*
X156582500Y-97800000D03*
X156582500Y-98200000D03*
X156582500Y-98600000D03*
X156582500Y-99000000D03*
X156582500Y-99400000D03*
X156582500Y-99800000D03*
X156582500Y-100200000D03*
X156582500Y-100600000D03*
X156582500Y-101000000D03*
X156582500Y-101400000D03*
X156582500Y-101800000D03*
X156582500Y-102200000D03*
X156582500Y-102600000D03*
X156582500Y-103000000D03*
D20*
X157420000Y-103837500D03*
X157820000Y-103837500D03*
X158220000Y-103837500D03*
X158620000Y-103837500D03*
X159020000Y-103837500D03*
X159420000Y-103837500D03*
X159820000Y-103837500D03*
X160220000Y-103837500D03*
X160620000Y-103837500D03*
X161020000Y-103837500D03*
X161420000Y-103837500D03*
X161820000Y-103837500D03*
X162220000Y-103837500D03*
X162620000Y-103837500D03*
D10*
X162240000Y-91000000D03*
X163200000Y-91000000D03*
D15*
X158020000Y-107330000D03*
X158020000Y-106310000D03*
D14*
X161020000Y-107330000D03*
X161020000Y-108290000D03*
D13*
X155360000Y-103400000D03*
X154400000Y-103400000D03*
D15*
X161200000Y-93220000D03*
X161200000Y-92200000D03*
D21*
X164939999Y-85965999D03*
X155099999Y-85965999D03*
D11*
X149600000Y-79500000D03*
X149600000Y-81400000D03*
D22*
X158881141Y-87423222D03*
X160436776Y-88978857D03*
X161638857Y-87776776D03*
X160083222Y-86221141D03*
D17*
X154500000Y-128620000D03*
X154500000Y-129580000D03*
X157600000Y-129580000D03*
X157600000Y-128620000D03*
M02*
