M48
; DRILL file {KiCad (7.0.0)} date Fri Jun 23 19:04:03 2023
; FORMAT={-:-/ absolute / inch / decimal}
; #@! TF.CreationDate,2023-06-23T19:04:03+10:00
; #@! TF.GenerationSoftware,Kicad,Pcbnew,(7.0.0)
; #@! TF.FileFunction,Plated,2,4,Blind
FMAT,2
INCH
; #@! TA.AperFunction,Plated,Buried,ViaDrill
T1C0.0138
%
G90
G05
T1
X5.9128Y-3.3143
X5.9128Y-3.4442
X5.988Y-3.8457
X6.0124Y-4.0366
X6.0841Y-4.3549
X6.113Y-3.5387
X6.177Y-3.4442
X6.188Y-3.6241
X6.2199Y-3.3851
X6.2376Y-4.6069
X6.2554Y-3.4442
X6.2636Y-4.2394
X6.2855Y-3.6191
X6.303Y-4.2394
X6.318Y-3.5866
X6.333Y-3.5391
X6.362Y-3.5866
X6.4211Y-4.2001
X6.4605Y-4.2001
X6.5191Y-3.2985
X6.5191Y-3.4442
X6.573Y-4.0466
X6.618Y-3.8416
X6.675Y-4.5761
T0
M30
