%TF.GenerationSoftware,KiCad,Pcbnew,(7.0.0)*%
%TF.CreationDate,2023-06-29T21:03:02+10:00*%
%TF.ProjectId,RP2040_minimal,52503230-3430-45f6-9d69-6e696d616c2e,REV1*%
%TF.SameCoordinates,Original*%
%TF.FileFunction,Drillmap*%
%TF.FilePolarity,Positive*%
%FSLAX45Y45*%
G04 Gerber Fmt 4.5, Leading zero omitted, Abs format (unit mm)*
G04 Created by KiCad (PCBNEW (7.0.0)) date 2023-06-29 21:03:02*
%MOMM*%
%LPD*%
G01*
G04 APERTURE LIST*
%ADD10C,0.200000*%
%ADD11C,0.050000*%
%ADD12C,0.030000*%
%ADD13C,0.035000*%
%ADD14C,0.100000*%
G04 APERTURE END LIST*
D10*
X17907000Y-11445000D02*
X17907000Y-12573000D01*
X17907000Y-9033000D02*
X17907000Y-10905000D01*
D11*
X18007000Y-9033000D02*
X18007000Y-10905000D01*
D10*
X17907000Y-12573000D02*
X14097000Y-12573000D01*
X17907000Y-7493000D02*
X17907000Y-8493000D01*
X14097000Y-7493000D02*
X17907000Y-7493000D01*
X14097000Y-12573000D02*
X14097000Y-7493000D01*
D11*
X18007000Y-7493000D02*
X18007000Y-8493000D01*
X18524000Y-7493000D02*
X18007000Y-7493000D01*
X18007000Y-11445000D02*
X18007000Y-12573000D01*
X18007000Y-9033000D02*
G75*
G03*
X17907000Y-9033000I-50000J0D01*
G01*
X18524000Y-12573000D02*
X18524000Y-7493000D01*
X18007000Y-11445000D02*
G75*
G03*
X17907000Y-11445000I-50000J0D01*
G01*
X18007000Y-12573000D02*
X18524000Y-12573000D01*
X17907000Y-10905000D02*
G75*
G03*
X18007000Y-10905000I50000J0D01*
G01*
X17907000Y-8493000D02*
G75*
G03*
X18007000Y-8493000I50000J0D01*
G01*
D10*
D12*
X14945000Y-7845000D02*
X14975000Y-7875000D01*
X14975000Y-7845000D02*
X14945000Y-7875000D01*
X14945000Y-8235000D02*
X14975000Y-8265000D01*
X14975000Y-8235000D02*
X14945000Y-8265000D01*
X15082268Y-10345543D02*
X15112268Y-10375543D01*
X15112268Y-10345543D02*
X15082268Y-10375543D01*
X15137066Y-10294410D02*
X15167066Y-10324410D01*
X15167066Y-10294410D02*
X15137066Y-10324410D01*
X15172002Y-10217998D02*
X15202002Y-10247998D01*
X15202002Y-10217998D02*
X15172002Y-10247998D01*
X15205000Y-8367000D02*
X15235000Y-8397000D01*
X15235000Y-8367000D02*
X15205000Y-8397000D01*
X15205000Y-8745000D02*
X15235000Y-8775000D01*
X15235000Y-8745000D02*
X15205000Y-8775000D01*
X15225000Y-10165000D02*
X15255000Y-10195000D01*
X15255000Y-10165000D02*
X15225000Y-10195000D01*
X15285000Y-9895000D02*
X15315000Y-9925000D01*
X15315000Y-9895000D02*
X15285000Y-9925000D01*
X15345000Y-9125000D02*
X15375000Y-9155000D01*
X15375000Y-9125000D02*
X15345000Y-9155000D01*
X15355000Y-10345000D02*
X15385000Y-10375000D01*
X15385000Y-10345000D02*
X15355000Y-10375000D01*
X15355000Y-10425000D02*
X15385000Y-10455000D01*
X15385000Y-10425000D02*
X15355000Y-10455000D01*
X15545000Y-9125000D02*
X15575000Y-9155000D01*
X15575000Y-9125000D02*
X15545000Y-9155000D01*
X15587000Y-10785000D02*
X15617000Y-10815000D01*
X15617000Y-10785000D02*
X15587000Y-10815000D01*
X15687000Y-10785000D02*
X15717000Y-10815000D01*
X15717000Y-10785000D02*
X15687000Y-10815000D01*
X15733000Y-9129000D02*
X15763000Y-9159000D01*
X15763000Y-9129000D02*
X15733000Y-9159000D01*
X15763000Y-9803000D02*
X15793000Y-9833000D01*
X15793000Y-9803000D02*
X15763000Y-9833000D01*
X15784503Y-10859909D02*
X15814503Y-10889909D01*
X15814503Y-10859909D02*
X15784503Y-10889909D01*
X15787000Y-10785000D02*
X15817000Y-10815000D01*
X15817000Y-10785000D02*
X15787000Y-10815000D01*
X15835000Y-9255000D02*
X15865000Y-9285000D01*
X15865000Y-9255000D02*
X15835000Y-9285000D01*
X15850770Y-10938482D02*
X15880770Y-10968482D01*
X15880770Y-10938482D02*
X15850770Y-10968482D01*
X15886575Y-10872638D02*
X15916575Y-10902638D01*
X15916575Y-10872638D02*
X15886575Y-10902638D01*
X15905000Y-9495000D02*
X15935000Y-9525000D01*
X15935000Y-9495000D02*
X15905000Y-9525000D01*
X15915000Y-10235000D02*
X15945000Y-10265000D01*
X15945000Y-10235000D02*
X15915000Y-10265000D01*
X15925000Y-9815000D02*
X15955000Y-9845000D01*
X15955000Y-9815000D02*
X15925000Y-9845000D01*
X15935000Y-9105000D02*
X15965000Y-9135000D01*
X15965000Y-9105000D02*
X15935000Y-9135000D01*
X15945000Y-9255000D02*
X15975000Y-9285000D01*
X15975000Y-9255000D02*
X15945000Y-9285000D01*
X15985000Y-8425000D02*
X16015000Y-8455000D01*
X16015000Y-8425000D02*
X15985000Y-8455000D01*
X15987000Y-10885000D02*
X16017000Y-10915000D01*
X16017000Y-10885000D02*
X15987000Y-10915000D01*
X16005000Y-10505000D02*
X16035000Y-10535000D01*
X16035000Y-10505000D02*
X16005000Y-10535000D01*
X16155000Y-11712000D02*
X16185000Y-11742000D01*
X16185000Y-11712000D02*
X16155000Y-11742000D01*
X16155000Y-11805000D02*
X16185000Y-11835000D01*
X16185000Y-11805000D02*
X16155000Y-11835000D01*
X16285000Y-9325000D02*
X16315000Y-9355000D01*
X16315000Y-9325000D02*
X16285000Y-9355000D01*
X16375000Y-9085000D02*
X16405000Y-9115000D01*
X16405000Y-9085000D02*
X16375000Y-9115000D01*
X16385000Y-9665000D02*
X16415000Y-9695000D01*
X16415000Y-9665000D02*
X16385000Y-9695000D01*
X16443630Y-10257889D02*
X16473630Y-10287889D01*
X16473630Y-10257889D02*
X16443630Y-10287889D01*
X16459950Y-9665000D02*
X16489950Y-9695000D01*
X16489950Y-9665000D02*
X16459950Y-9695000D01*
X16518579Y-10257450D02*
X16548579Y-10287450D01*
X16548579Y-10257450D02*
X16518579Y-10287450D01*
X16559534Y-9566134D02*
X16589534Y-9596134D01*
X16589534Y-9566134D02*
X16559534Y-9596134D01*
X16585000Y-11165000D02*
X16615000Y-11195000D01*
X16615000Y-11165000D02*
X16585000Y-11195000D01*
X16622638Y-9606575D02*
X16652638Y-9636575D01*
X16652638Y-9606575D02*
X16622638Y-9636575D01*
X16635000Y-10255000D02*
X16665000Y-10285000D01*
X16665000Y-10255000D02*
X16635000Y-10285000D01*
X16635000Y-10365000D02*
X16665000Y-10395000D01*
X16665000Y-10365000D02*
X16635000Y-10395000D01*
X16675000Y-9905000D02*
X16705000Y-9935000D01*
X16705000Y-9905000D02*
X16675000Y-9935000D01*
X16685000Y-9065000D02*
X16715000Y-9095000D01*
X16715000Y-9065000D02*
X16685000Y-9095000D01*
X16706104Y-10278701D02*
X16736104Y-10308701D01*
X16736104Y-10278701D02*
X16706104Y-10308701D01*
X16760032Y-9487627D02*
X16790033Y-9517627D01*
X16790033Y-9487627D02*
X16760032Y-9517627D01*
X16765000Y-8425000D02*
X16795000Y-8455000D01*
X16795000Y-8425000D02*
X16765000Y-8455000D01*
X16765000Y-8745000D02*
X16795000Y-8775000D01*
X16795000Y-8745000D02*
X16765000Y-8775000D01*
X16785000Y-9725000D02*
X16815000Y-9755000D01*
X16815000Y-9725000D02*
X16785000Y-9755000D01*
X16825000Y-9525000D02*
X16855000Y-9555000D01*
X16855000Y-9525000D02*
X16825000Y-9555000D01*
X16847362Y-9766575D02*
X16877362Y-9796575D01*
X16877362Y-9766575D02*
X16847362Y-9796575D01*
X16995000Y-11965000D02*
X17025000Y-11995000D01*
X17025000Y-11965000D02*
X16995000Y-11995000D01*
D13*
X16119500Y-10900000D02*
G75*
G03*
X16119500Y-10900000I-17500J0D01*
G01*
X15874500Y-9895000D02*
X15874500Y-9930000D01*
X15857000Y-9912500D02*
X15892000Y-9912500D01*
X15874500Y-10022500D02*
X15874500Y-10057500D01*
X15857000Y-10040000D02*
X15892000Y-10040000D01*
X15874500Y-10150000D02*
X15874500Y-10185000D01*
X15857000Y-10167500D02*
X15892000Y-10167500D01*
X16002000Y-9895000D02*
X16002000Y-9930000D01*
X15984500Y-9912500D02*
X16019500Y-9912500D01*
X16002000Y-10022500D02*
X16002000Y-10057500D01*
X15984500Y-10040000D02*
X16019500Y-10040000D01*
X16002000Y-10150000D02*
X16002000Y-10185000D01*
X15984500Y-10167500D02*
X16019500Y-10167500D01*
X16129500Y-9895000D02*
X16129500Y-9930000D01*
X16112000Y-9912500D02*
X16147000Y-9912500D01*
X16129500Y-10022500D02*
X16129500Y-10057500D01*
X16112000Y-10040000D02*
X16147000Y-10040000D01*
X16129500Y-10150000D02*
X16129500Y-10185000D01*
X16112000Y-10167500D02*
X16147000Y-10167500D01*
D14*
X14513356Y-7909356D02*
X14513356Y-7838644D01*
X14442644Y-7838644D01*
X14442644Y-7909356D01*
X14513356Y-7909356D01*
X14513356Y-8163356D02*
X14513356Y-8092644D01*
X14442644Y-8092644D01*
X14442644Y-8163356D01*
X14513356Y-8163356D01*
X14513356Y-8417356D02*
X14513356Y-8346644D01*
X14442644Y-8346644D01*
X14442644Y-8417356D01*
X14513356Y-8417356D01*
X14513356Y-8671356D02*
X14513356Y-8600644D01*
X14442644Y-8600644D01*
X14442644Y-8671356D01*
X14513356Y-8671356D01*
X14513356Y-8925356D02*
X14513356Y-8854644D01*
X14442644Y-8854644D01*
X14442644Y-8925356D01*
X14513356Y-8925356D01*
X14513356Y-9179356D02*
X14513356Y-9108644D01*
X14442644Y-9108644D01*
X14442644Y-9179356D01*
X14513356Y-9179356D01*
X14513356Y-9433356D02*
X14513356Y-9362644D01*
X14442644Y-9362644D01*
X14442644Y-9433356D01*
X14513356Y-9433356D01*
X14513356Y-9687356D02*
X14513356Y-9616644D01*
X14442644Y-9616644D01*
X14442644Y-9687356D01*
X14513356Y-9687356D01*
X14513356Y-9941356D02*
X14513356Y-9870644D01*
X14442644Y-9870644D01*
X14442644Y-9941356D01*
X14513356Y-9941356D01*
X14513356Y-10195356D02*
X14513356Y-10124644D01*
X14442644Y-10124644D01*
X14442644Y-10195356D01*
X14513356Y-10195356D01*
X14513356Y-10449356D02*
X14513356Y-10378644D01*
X14442644Y-10378644D01*
X14442644Y-10449356D01*
X14513356Y-10449356D01*
X14513356Y-10703356D02*
X14513356Y-10632644D01*
X14442644Y-10632644D01*
X14442644Y-10703356D01*
X14513356Y-10703356D01*
X14513356Y-10957356D02*
X14513356Y-10886644D01*
X14442644Y-10886644D01*
X14442644Y-10957356D01*
X14513356Y-10957356D01*
X14513356Y-11211356D02*
X14513356Y-11140644D01*
X14442644Y-11140644D01*
X14442644Y-11211356D01*
X14513356Y-11211356D01*
X14513356Y-11465356D02*
X14513356Y-11394644D01*
X14442644Y-11394644D01*
X14442644Y-11465356D01*
X14513356Y-11465356D01*
X14513356Y-11719356D02*
X14513356Y-11648644D01*
X14442644Y-11648644D01*
X14442644Y-11719356D01*
X14513356Y-11719356D01*
X14513356Y-11973356D02*
X14513356Y-11902644D01*
X14442644Y-11902644D01*
X14442644Y-11973356D01*
X14513356Y-11973356D01*
X14513356Y-12227356D02*
X14513356Y-12156644D01*
X14442644Y-12156644D01*
X14442644Y-12227356D01*
X14513356Y-12227356D01*
X14767356Y-7909356D02*
X14767356Y-7838644D01*
X14696644Y-7838644D01*
X14696644Y-7909356D01*
X14767356Y-7909356D01*
X14767356Y-8163356D02*
X14767356Y-8092644D01*
X14696644Y-8092644D01*
X14696644Y-8163356D01*
X14767356Y-8163356D01*
X14767356Y-8417356D02*
X14767356Y-8346644D01*
X14696644Y-8346644D01*
X14696644Y-8417356D01*
X14767356Y-8417356D01*
X14767356Y-8671356D02*
X14767356Y-8600644D01*
X14696644Y-8600644D01*
X14696644Y-8671356D01*
X14767356Y-8671356D01*
X14767356Y-8925356D02*
X14767356Y-8854644D01*
X14696644Y-8854644D01*
X14696644Y-8925356D01*
X14767356Y-8925356D01*
X14767356Y-9179356D02*
X14767356Y-9108644D01*
X14696644Y-9108644D01*
X14696644Y-9179356D01*
X14767356Y-9179356D01*
X14767356Y-9433356D02*
X14767356Y-9362644D01*
X14696644Y-9362644D01*
X14696644Y-9433356D01*
X14767356Y-9433356D01*
X14767356Y-9687356D02*
X14767356Y-9616644D01*
X14696644Y-9616644D01*
X14696644Y-9687356D01*
X14767356Y-9687356D01*
X14767356Y-9941356D02*
X14767356Y-9870644D01*
X14696644Y-9870644D01*
X14696644Y-9941356D01*
X14767356Y-9941356D01*
X14767356Y-10195356D02*
X14767356Y-10124644D01*
X14696644Y-10124644D01*
X14696644Y-10195356D01*
X14767356Y-10195356D01*
X14767356Y-10449356D02*
X14767356Y-10378644D01*
X14696644Y-10378644D01*
X14696644Y-10449356D01*
X14767356Y-10449356D01*
X14767356Y-10703356D02*
X14767356Y-10632644D01*
X14696644Y-10632644D01*
X14696644Y-10703356D01*
X14767356Y-10703356D01*
X14767356Y-10957356D02*
X14767356Y-10886644D01*
X14696644Y-10886644D01*
X14696644Y-10957356D01*
X14767356Y-10957356D01*
X14767356Y-11211356D02*
X14767356Y-11140644D01*
X14696644Y-11140644D01*
X14696644Y-11211356D01*
X14767356Y-11211356D01*
X14767356Y-11465356D02*
X14767356Y-11394644D01*
X14696644Y-11394644D01*
X14696644Y-11465356D01*
X14767356Y-11465356D01*
X14767356Y-11719356D02*
X14767356Y-11648644D01*
X14696644Y-11648644D01*
X14696644Y-11719356D01*
X14767356Y-11719356D01*
X14767356Y-11973356D02*
X14767356Y-11902644D01*
X14696644Y-11902644D01*
X14696644Y-11973356D01*
X14767356Y-11973356D01*
X14767356Y-12227356D02*
X14767356Y-12156644D01*
X14696644Y-12156644D01*
X14696644Y-12227356D01*
X14767356Y-12227356D01*
X15275356Y-12227356D02*
X15275356Y-12156644D01*
X15204644Y-12156644D01*
X15204644Y-12227356D01*
X15275356Y-12227356D01*
X15402356Y-7909356D02*
X15402356Y-7838644D01*
X15331644Y-7838644D01*
X15331644Y-7909356D01*
X15402356Y-7909356D01*
X15402356Y-8163356D02*
X15402356Y-8092644D01*
X15331644Y-8092644D01*
X15331644Y-8163356D01*
X15402356Y-8163356D01*
X15529356Y-12227356D02*
X15529356Y-12156644D01*
X15458644Y-12156644D01*
X15458644Y-12227356D01*
X15529356Y-12227356D01*
X15656356Y-7909356D02*
X15656356Y-7838644D01*
X15585644Y-7838644D01*
X15585644Y-7909356D01*
X15656356Y-7909356D01*
X15656356Y-8163356D02*
X15656356Y-8092644D01*
X15585644Y-8092644D01*
X15585644Y-8163356D01*
X15656356Y-8163356D01*
X15783356Y-12227356D02*
X15783356Y-12156644D01*
X15712644Y-12156644D01*
X15712644Y-12227356D01*
X15783356Y-12227356D01*
X16291356Y-7905356D02*
X16291356Y-7834644D01*
X16220644Y-7834644D01*
X16220644Y-7905356D01*
X16291356Y-7905356D01*
X16291356Y-8159356D02*
X16291356Y-8088644D01*
X16220644Y-8088644D01*
X16220644Y-8159356D01*
X16291356Y-8159356D01*
X16418356Y-11973356D02*
X16418356Y-11902644D01*
X16347644Y-11902644D01*
X16347644Y-11973356D01*
X16418356Y-11973356D01*
X16418356Y-12227356D02*
X16418356Y-12156644D01*
X16347644Y-12156644D01*
X16347644Y-12227356D01*
X16418356Y-12227356D01*
X16545356Y-7905356D02*
X16545356Y-7834644D01*
X16474644Y-7834644D01*
X16474644Y-7905356D01*
X16545356Y-7905356D01*
X16545356Y-8159356D02*
X16545356Y-8088644D01*
X16474644Y-8088644D01*
X16474644Y-8159356D01*
X16545356Y-8159356D01*
X16799356Y-7905356D02*
X16799356Y-7834644D01*
X16728644Y-7834644D01*
X16728644Y-7905356D01*
X16799356Y-7905356D01*
X16799356Y-8159356D02*
X16799356Y-8088644D01*
X16728644Y-8088644D01*
X16728644Y-8159356D01*
X16799356Y-8159356D01*
X17307356Y-7909356D02*
X17307356Y-7838644D01*
X17236644Y-7838644D01*
X17236644Y-7909356D01*
X17307356Y-7909356D01*
X17307356Y-8163356D02*
X17307356Y-8092644D01*
X17236644Y-8092644D01*
X17236644Y-8163356D01*
X17307356Y-8163356D01*
X17307356Y-8417356D02*
X17307356Y-8346644D01*
X17236644Y-8346644D01*
X17236644Y-8417356D01*
X17307356Y-8417356D01*
X17307356Y-8671356D02*
X17307356Y-8600644D01*
X17236644Y-8600644D01*
X17236644Y-8671356D01*
X17307356Y-8671356D01*
X17307356Y-8925356D02*
X17307356Y-8854644D01*
X17236644Y-8854644D01*
X17236644Y-8925356D01*
X17307356Y-8925356D01*
X17307356Y-9179356D02*
X17307356Y-9108644D01*
X17236644Y-9108644D01*
X17236644Y-9179356D01*
X17307356Y-9179356D01*
X17307356Y-9433356D02*
X17307356Y-9362644D01*
X17236644Y-9362644D01*
X17236644Y-9433356D01*
X17307356Y-9433356D01*
X17307356Y-10195356D02*
X17307356Y-10124644D01*
X17236644Y-10124644D01*
X17236644Y-10195356D01*
X17307356Y-10195356D01*
X17307356Y-10449356D02*
X17307356Y-10378644D01*
X17236644Y-10378644D01*
X17236644Y-10449356D01*
X17307356Y-10449356D01*
X17307356Y-10703356D02*
X17307356Y-10632644D01*
X17236644Y-10632644D01*
X17236644Y-10703356D01*
X17307356Y-10703356D01*
X17307356Y-10957356D02*
X17307356Y-10886644D01*
X17236644Y-10886644D01*
X17236644Y-10957356D01*
X17307356Y-10957356D01*
X17307356Y-11211356D02*
X17307356Y-11140644D01*
X17236644Y-11140644D01*
X17236644Y-11211356D01*
X17307356Y-11211356D01*
X17307356Y-11465356D02*
X17307356Y-11394644D01*
X17236644Y-11394644D01*
X17236644Y-11465356D01*
X17307356Y-11465356D01*
X17307356Y-11719356D02*
X17307356Y-11648644D01*
X17236644Y-11648644D01*
X17236644Y-11719356D01*
X17307356Y-11719356D01*
X17307356Y-11973356D02*
X17307356Y-11902644D01*
X17236644Y-11902644D01*
X17236644Y-11973356D01*
X17307356Y-11973356D01*
X17307356Y-12227356D02*
X17307356Y-12156644D01*
X17236644Y-12156644D01*
X17236644Y-12227356D01*
X17307356Y-12227356D01*
X17561356Y-7909356D02*
X17561356Y-7838644D01*
X17490644Y-7838644D01*
X17490644Y-7909356D01*
X17561356Y-7909356D01*
X17561356Y-8163356D02*
X17561356Y-8092644D01*
X17490644Y-8092644D01*
X17490644Y-8163356D01*
X17561356Y-8163356D01*
X17561356Y-8417356D02*
X17561356Y-8346644D01*
X17490644Y-8346644D01*
X17490644Y-8417356D01*
X17561356Y-8417356D01*
X17561356Y-8671356D02*
X17561356Y-8600644D01*
X17490644Y-8600644D01*
X17490644Y-8671356D01*
X17561356Y-8671356D01*
X17561356Y-8925356D02*
X17561356Y-8854644D01*
X17490644Y-8854644D01*
X17490644Y-8925356D01*
X17561356Y-8925356D01*
X17561356Y-9179356D02*
X17561356Y-9108644D01*
X17490644Y-9108644D01*
X17490644Y-9179356D01*
X17561356Y-9179356D01*
X17561356Y-9433356D02*
X17561356Y-9362644D01*
X17490644Y-9362644D01*
X17490644Y-9433356D01*
X17561356Y-9433356D01*
X17561356Y-9687356D02*
X17561356Y-9616644D01*
X17490644Y-9616644D01*
X17490644Y-9687356D01*
X17561356Y-9687356D01*
X17561356Y-9941356D02*
X17561356Y-9870644D01*
X17490644Y-9870644D01*
X17490644Y-9941356D01*
X17561356Y-9941356D01*
X17561356Y-10195356D02*
X17561356Y-10124644D01*
X17490644Y-10124644D01*
X17490644Y-10195356D01*
X17561356Y-10195356D01*
X17561356Y-10449356D02*
X17561356Y-10378644D01*
X17490644Y-10378644D01*
X17490644Y-10449356D01*
X17561356Y-10449356D01*
X17561356Y-10703356D02*
X17561356Y-10632644D01*
X17490644Y-10632644D01*
X17490644Y-10703356D01*
X17561356Y-10703356D01*
X17561356Y-10957356D02*
X17561356Y-10886644D01*
X17490644Y-10886644D01*
X17490644Y-10957356D01*
X17561356Y-10957356D01*
X17561356Y-11211356D02*
X17561356Y-11140644D01*
X17490644Y-11140644D01*
X17490644Y-11211356D01*
X17561356Y-11211356D01*
X17561356Y-11465356D02*
X17561356Y-11394644D01*
X17490644Y-11394644D01*
X17490644Y-11465356D01*
X17561356Y-11465356D01*
X17561356Y-11719356D02*
X17561356Y-11648644D01*
X17490644Y-11648644D01*
X17490644Y-11719356D01*
X17561356Y-11719356D01*
X17561356Y-11973356D02*
X17561356Y-11902644D01*
X17490644Y-11902644D01*
X17490644Y-11973356D01*
X17561356Y-11973356D01*
X17561356Y-12227356D02*
X17561356Y-12156644D01*
X17490644Y-12156644D01*
X17490644Y-12227356D01*
X17561356Y-12227356D01*
D10*
X14334619Y-12876476D02*
X14334619Y-12676476D01*
X14334619Y-12676476D02*
X14382238Y-12676476D01*
X14382238Y-12676476D02*
X14410809Y-12686000D01*
X14410809Y-12686000D02*
X14429857Y-12705048D01*
X14429857Y-12705048D02*
X14439381Y-12724095D01*
X14439381Y-12724095D02*
X14448905Y-12762190D01*
X14448905Y-12762190D02*
X14448905Y-12790762D01*
X14448905Y-12790762D02*
X14439381Y-12828857D01*
X14439381Y-12828857D02*
X14429857Y-12847905D01*
X14429857Y-12847905D02*
X14410809Y-12866952D01*
X14410809Y-12866952D02*
X14382238Y-12876476D01*
X14382238Y-12876476D02*
X14334619Y-12876476D01*
X14534619Y-12876476D02*
X14534619Y-12743143D01*
X14534619Y-12781238D02*
X14544143Y-12762190D01*
X14544143Y-12762190D02*
X14553667Y-12752667D01*
X14553667Y-12752667D02*
X14572714Y-12743143D01*
X14572714Y-12743143D02*
X14591762Y-12743143D01*
X14658428Y-12876476D02*
X14658428Y-12743143D01*
X14658428Y-12676476D02*
X14648905Y-12686000D01*
X14648905Y-12686000D02*
X14658428Y-12695524D01*
X14658428Y-12695524D02*
X14667952Y-12686000D01*
X14667952Y-12686000D02*
X14658428Y-12676476D01*
X14658428Y-12676476D02*
X14658428Y-12695524D01*
X14782238Y-12876476D02*
X14763190Y-12866952D01*
X14763190Y-12866952D02*
X14753667Y-12847905D01*
X14753667Y-12847905D02*
X14753667Y-12676476D01*
X14887000Y-12876476D02*
X14867952Y-12866952D01*
X14867952Y-12866952D02*
X14858428Y-12847905D01*
X14858428Y-12847905D02*
X14858428Y-12676476D01*
X15083190Y-12876476D02*
X15083190Y-12676476D01*
X15083190Y-12676476D02*
X15149857Y-12819333D01*
X15149857Y-12819333D02*
X15216524Y-12676476D01*
X15216524Y-12676476D02*
X15216524Y-12876476D01*
X15397476Y-12876476D02*
X15397476Y-12771714D01*
X15397476Y-12771714D02*
X15387952Y-12752667D01*
X15387952Y-12752667D02*
X15368905Y-12743143D01*
X15368905Y-12743143D02*
X15330809Y-12743143D01*
X15330809Y-12743143D02*
X15311762Y-12752667D01*
X15397476Y-12866952D02*
X15378428Y-12876476D01*
X15378428Y-12876476D02*
X15330809Y-12876476D01*
X15330809Y-12876476D02*
X15311762Y-12866952D01*
X15311762Y-12866952D02*
X15302238Y-12847905D01*
X15302238Y-12847905D02*
X15302238Y-12828857D01*
X15302238Y-12828857D02*
X15311762Y-12809809D01*
X15311762Y-12809809D02*
X15330809Y-12800286D01*
X15330809Y-12800286D02*
X15378428Y-12800286D01*
X15378428Y-12800286D02*
X15397476Y-12790762D01*
X15492714Y-12743143D02*
X15492714Y-12943143D01*
X15492714Y-12752667D02*
X15511762Y-12743143D01*
X15511762Y-12743143D02*
X15549857Y-12743143D01*
X15549857Y-12743143D02*
X15568905Y-12752667D01*
X15568905Y-12752667D02*
X15578428Y-12762190D01*
X15578428Y-12762190D02*
X15587952Y-12781238D01*
X15587952Y-12781238D02*
X15587952Y-12838381D01*
X15587952Y-12838381D02*
X15578428Y-12857428D01*
X15578428Y-12857428D02*
X15568905Y-12866952D01*
X15568905Y-12866952D02*
X15549857Y-12876476D01*
X15549857Y-12876476D02*
X15511762Y-12876476D01*
X15511762Y-12876476D02*
X15492714Y-12866952D01*
X15673667Y-12857428D02*
X15683190Y-12866952D01*
X15683190Y-12866952D02*
X15673667Y-12876476D01*
X15673667Y-12876476D02*
X15664143Y-12866952D01*
X15664143Y-12866952D02*
X15673667Y-12857428D01*
X15673667Y-12857428D02*
X15673667Y-12876476D01*
X15673667Y-12752667D02*
X15683190Y-12762190D01*
X15683190Y-12762190D02*
X15673667Y-12771714D01*
X15673667Y-12771714D02*
X15664143Y-12762190D01*
X15664143Y-12762190D02*
X15673667Y-12752667D01*
X15673667Y-12752667D02*
X15673667Y-12771714D01*
D12*
X14057000Y-13208000D02*
X14087000Y-13238000D01*
X14087000Y-13208000D02*
X14057000Y-13238000D01*
D10*
X14372714Y-13096476D02*
X14391762Y-13096476D01*
X14391762Y-13096476D02*
X14410809Y-13106000D01*
X14410809Y-13106000D02*
X14420333Y-13115524D01*
X14420333Y-13115524D02*
X14429857Y-13134571D01*
X14429857Y-13134571D02*
X14439381Y-13172667D01*
X14439381Y-13172667D02*
X14439381Y-13220286D01*
X14439381Y-13220286D02*
X14429857Y-13258381D01*
X14429857Y-13258381D02*
X14420333Y-13277428D01*
X14420333Y-13277428D02*
X14410809Y-13286952D01*
X14410809Y-13286952D02*
X14391762Y-13296476D01*
X14391762Y-13296476D02*
X14372714Y-13296476D01*
X14372714Y-13296476D02*
X14353667Y-13286952D01*
X14353667Y-13286952D02*
X14344143Y-13277428D01*
X14344143Y-13277428D02*
X14334619Y-13258381D01*
X14334619Y-13258381D02*
X14325095Y-13220286D01*
X14325095Y-13220286D02*
X14325095Y-13172667D01*
X14325095Y-13172667D02*
X14334619Y-13134571D01*
X14334619Y-13134571D02*
X14344143Y-13115524D01*
X14344143Y-13115524D02*
X14353667Y-13106000D01*
X14353667Y-13106000D02*
X14372714Y-13096476D01*
X14525095Y-13277428D02*
X14534619Y-13286952D01*
X14534619Y-13286952D02*
X14525095Y-13296476D01*
X14525095Y-13296476D02*
X14515571Y-13286952D01*
X14515571Y-13286952D02*
X14525095Y-13277428D01*
X14525095Y-13277428D02*
X14525095Y-13296476D01*
X14601286Y-13096476D02*
X14725095Y-13096476D01*
X14725095Y-13096476D02*
X14658428Y-13172667D01*
X14658428Y-13172667D02*
X14687000Y-13172667D01*
X14687000Y-13172667D02*
X14706048Y-13182190D01*
X14706048Y-13182190D02*
X14715571Y-13191714D01*
X14715571Y-13191714D02*
X14725095Y-13210762D01*
X14725095Y-13210762D02*
X14725095Y-13258381D01*
X14725095Y-13258381D02*
X14715571Y-13277428D01*
X14715571Y-13277428D02*
X14706048Y-13286952D01*
X14706048Y-13286952D02*
X14687000Y-13296476D01*
X14687000Y-13296476D02*
X14629857Y-13296476D01*
X14629857Y-13296476D02*
X14610809Y-13286952D01*
X14610809Y-13286952D02*
X14601286Y-13277428D01*
X14848905Y-13096476D02*
X14867952Y-13096476D01*
X14867952Y-13096476D02*
X14887000Y-13106000D01*
X14887000Y-13106000D02*
X14896524Y-13115524D01*
X14896524Y-13115524D02*
X14906048Y-13134571D01*
X14906048Y-13134571D02*
X14915571Y-13172667D01*
X14915571Y-13172667D02*
X14915571Y-13220286D01*
X14915571Y-13220286D02*
X14906048Y-13258381D01*
X14906048Y-13258381D02*
X14896524Y-13277428D01*
X14896524Y-13277428D02*
X14887000Y-13286952D01*
X14887000Y-13286952D02*
X14867952Y-13296476D01*
X14867952Y-13296476D02*
X14848905Y-13296476D01*
X14848905Y-13296476D02*
X14829857Y-13286952D01*
X14829857Y-13286952D02*
X14820333Y-13277428D01*
X14820333Y-13277428D02*
X14810809Y-13258381D01*
X14810809Y-13258381D02*
X14801286Y-13220286D01*
X14801286Y-13220286D02*
X14801286Y-13172667D01*
X14801286Y-13172667D02*
X14810809Y-13134571D01*
X14810809Y-13134571D02*
X14820333Y-13115524D01*
X14820333Y-13115524D02*
X14829857Y-13106000D01*
X14829857Y-13106000D02*
X14848905Y-13096476D01*
X15039381Y-13096476D02*
X15058429Y-13096476D01*
X15058429Y-13096476D02*
X15077476Y-13106000D01*
X15077476Y-13106000D02*
X15087000Y-13115524D01*
X15087000Y-13115524D02*
X15096524Y-13134571D01*
X15096524Y-13134571D02*
X15106048Y-13172667D01*
X15106048Y-13172667D02*
X15106048Y-13220286D01*
X15106048Y-13220286D02*
X15096524Y-13258381D01*
X15096524Y-13258381D02*
X15087000Y-13277428D01*
X15087000Y-13277428D02*
X15077476Y-13286952D01*
X15077476Y-13286952D02*
X15058429Y-13296476D01*
X15058429Y-13296476D02*
X15039381Y-13296476D01*
X15039381Y-13296476D02*
X15020333Y-13286952D01*
X15020333Y-13286952D02*
X15010809Y-13277428D01*
X15010809Y-13277428D02*
X15001286Y-13258381D01*
X15001286Y-13258381D02*
X14991762Y-13220286D01*
X14991762Y-13220286D02*
X14991762Y-13172667D01*
X14991762Y-13172667D02*
X15001286Y-13134571D01*
X15001286Y-13134571D02*
X15010809Y-13115524D01*
X15010809Y-13115524D02*
X15020333Y-13106000D01*
X15020333Y-13106000D02*
X15039381Y-13096476D01*
X15191762Y-13296476D02*
X15191762Y-13163143D01*
X15191762Y-13182190D02*
X15201286Y-13172667D01*
X15201286Y-13172667D02*
X15220333Y-13163143D01*
X15220333Y-13163143D02*
X15248905Y-13163143D01*
X15248905Y-13163143D02*
X15267952Y-13172667D01*
X15267952Y-13172667D02*
X15277476Y-13191714D01*
X15277476Y-13191714D02*
X15277476Y-13296476D01*
X15277476Y-13191714D02*
X15287000Y-13172667D01*
X15287000Y-13172667D02*
X15306048Y-13163143D01*
X15306048Y-13163143D02*
X15334619Y-13163143D01*
X15334619Y-13163143D02*
X15353667Y-13172667D01*
X15353667Y-13172667D02*
X15363190Y-13191714D01*
X15363190Y-13191714D02*
X15363190Y-13296476D01*
X15458429Y-13296476D02*
X15458429Y-13163143D01*
X15458429Y-13182190D02*
X15467952Y-13172667D01*
X15467952Y-13172667D02*
X15487000Y-13163143D01*
X15487000Y-13163143D02*
X15515571Y-13163143D01*
X15515571Y-13163143D02*
X15534619Y-13172667D01*
X15534619Y-13172667D02*
X15544143Y-13191714D01*
X15544143Y-13191714D02*
X15544143Y-13296476D01*
X15544143Y-13191714D02*
X15553667Y-13172667D01*
X15553667Y-13172667D02*
X15572714Y-13163143D01*
X15572714Y-13163143D02*
X15601286Y-13163143D01*
X15601286Y-13163143D02*
X15620333Y-13172667D01*
X15620333Y-13172667D02*
X15629857Y-13191714D01*
X15629857Y-13191714D02*
X15629857Y-13296476D01*
X15987952Y-13086952D02*
X15816524Y-13344095D01*
X16212714Y-13096476D02*
X16231762Y-13096476D01*
X16231762Y-13096476D02*
X16250810Y-13106000D01*
X16250810Y-13106000D02*
X16260333Y-13115524D01*
X16260333Y-13115524D02*
X16269857Y-13134571D01*
X16269857Y-13134571D02*
X16279381Y-13172667D01*
X16279381Y-13172667D02*
X16279381Y-13220286D01*
X16279381Y-13220286D02*
X16269857Y-13258381D01*
X16269857Y-13258381D02*
X16260333Y-13277428D01*
X16260333Y-13277428D02*
X16250810Y-13286952D01*
X16250810Y-13286952D02*
X16231762Y-13296476D01*
X16231762Y-13296476D02*
X16212714Y-13296476D01*
X16212714Y-13296476D02*
X16193667Y-13286952D01*
X16193667Y-13286952D02*
X16184143Y-13277428D01*
X16184143Y-13277428D02*
X16174619Y-13258381D01*
X16174619Y-13258381D02*
X16165095Y-13220286D01*
X16165095Y-13220286D02*
X16165095Y-13172667D01*
X16165095Y-13172667D02*
X16174619Y-13134571D01*
X16174619Y-13134571D02*
X16184143Y-13115524D01*
X16184143Y-13115524D02*
X16193667Y-13106000D01*
X16193667Y-13106000D02*
X16212714Y-13096476D01*
X16365095Y-13277428D02*
X16374619Y-13286952D01*
X16374619Y-13286952D02*
X16365095Y-13296476D01*
X16365095Y-13296476D02*
X16355571Y-13286952D01*
X16355571Y-13286952D02*
X16365095Y-13277428D01*
X16365095Y-13277428D02*
X16365095Y-13296476D01*
X16498429Y-13096476D02*
X16517476Y-13096476D01*
X16517476Y-13096476D02*
X16536524Y-13106000D01*
X16536524Y-13106000D02*
X16546048Y-13115524D01*
X16546048Y-13115524D02*
X16555571Y-13134571D01*
X16555571Y-13134571D02*
X16565095Y-13172667D01*
X16565095Y-13172667D02*
X16565095Y-13220286D01*
X16565095Y-13220286D02*
X16555571Y-13258381D01*
X16555571Y-13258381D02*
X16546048Y-13277428D01*
X16546048Y-13277428D02*
X16536524Y-13286952D01*
X16536524Y-13286952D02*
X16517476Y-13296476D01*
X16517476Y-13296476D02*
X16498429Y-13296476D01*
X16498429Y-13296476D02*
X16479381Y-13286952D01*
X16479381Y-13286952D02*
X16469857Y-13277428D01*
X16469857Y-13277428D02*
X16460333Y-13258381D01*
X16460333Y-13258381D02*
X16450810Y-13220286D01*
X16450810Y-13220286D02*
X16450810Y-13172667D01*
X16450810Y-13172667D02*
X16460333Y-13134571D01*
X16460333Y-13134571D02*
X16469857Y-13115524D01*
X16469857Y-13115524D02*
X16479381Y-13106000D01*
X16479381Y-13106000D02*
X16498429Y-13096476D01*
X16755571Y-13296476D02*
X16641286Y-13296476D01*
X16698429Y-13296476D02*
X16698429Y-13096476D01*
X16698429Y-13096476D02*
X16679381Y-13125048D01*
X16679381Y-13125048D02*
X16660333Y-13144095D01*
X16660333Y-13144095D02*
X16641286Y-13153619D01*
X16946048Y-13296476D02*
X16831762Y-13296476D01*
X16888905Y-13296476D02*
X16888905Y-13096476D01*
X16888905Y-13096476D02*
X16869857Y-13125048D01*
X16869857Y-13125048D02*
X16850810Y-13144095D01*
X16850810Y-13144095D02*
X16831762Y-13153619D01*
X17060333Y-13182190D02*
X17041286Y-13172667D01*
X17041286Y-13172667D02*
X17031762Y-13163143D01*
X17031762Y-13163143D02*
X17022238Y-13144095D01*
X17022238Y-13144095D02*
X17022238Y-13134571D01*
X17022238Y-13134571D02*
X17031762Y-13115524D01*
X17031762Y-13115524D02*
X17041286Y-13106000D01*
X17041286Y-13106000D02*
X17060333Y-13096476D01*
X17060333Y-13096476D02*
X17098429Y-13096476D01*
X17098429Y-13096476D02*
X17117476Y-13106000D01*
X17117476Y-13106000D02*
X17127000Y-13115524D01*
X17127000Y-13115524D02*
X17136524Y-13134571D01*
X17136524Y-13134571D02*
X17136524Y-13144095D01*
X17136524Y-13144095D02*
X17127000Y-13163143D01*
X17127000Y-13163143D02*
X17117476Y-13172667D01*
X17117476Y-13172667D02*
X17098429Y-13182190D01*
X17098429Y-13182190D02*
X17060333Y-13182190D01*
X17060333Y-13182190D02*
X17041286Y-13191714D01*
X17041286Y-13191714D02*
X17031762Y-13201238D01*
X17031762Y-13201238D02*
X17022238Y-13220286D01*
X17022238Y-13220286D02*
X17022238Y-13258381D01*
X17022238Y-13258381D02*
X17031762Y-13277428D01*
X17031762Y-13277428D02*
X17041286Y-13286952D01*
X17041286Y-13286952D02*
X17060333Y-13296476D01*
X17060333Y-13296476D02*
X17098429Y-13296476D01*
X17098429Y-13296476D02*
X17117476Y-13286952D01*
X17117476Y-13286952D02*
X17127000Y-13277428D01*
X17127000Y-13277428D02*
X17136524Y-13258381D01*
X17136524Y-13258381D02*
X17136524Y-13220286D01*
X17136524Y-13220286D02*
X17127000Y-13201238D01*
X17127000Y-13201238D02*
X17117476Y-13191714D01*
X17117476Y-13191714D02*
X17098429Y-13182190D01*
X17212714Y-13096476D02*
X17212714Y-13134571D01*
X17288905Y-13096476D02*
X17288905Y-13134571D01*
X17551762Y-13372667D02*
X17542238Y-13363143D01*
X17542238Y-13363143D02*
X17523191Y-13334571D01*
X17523191Y-13334571D02*
X17513667Y-13315524D01*
X17513667Y-13315524D02*
X17504143Y-13286952D01*
X17504143Y-13286952D02*
X17494619Y-13239333D01*
X17494619Y-13239333D02*
X17494619Y-13201238D01*
X17494619Y-13201238D02*
X17504143Y-13153619D01*
X17504143Y-13153619D02*
X17513667Y-13125048D01*
X17513667Y-13125048D02*
X17523191Y-13106000D01*
X17523191Y-13106000D02*
X17542238Y-13077428D01*
X17542238Y-13077428D02*
X17551762Y-13067905D01*
X17723191Y-13096476D02*
X17627953Y-13096476D01*
X17627953Y-13096476D02*
X17618429Y-13191714D01*
X17618429Y-13191714D02*
X17627953Y-13182190D01*
X17627953Y-13182190D02*
X17647000Y-13172667D01*
X17647000Y-13172667D02*
X17694619Y-13172667D01*
X17694619Y-13172667D02*
X17713667Y-13182190D01*
X17713667Y-13182190D02*
X17723191Y-13191714D01*
X17723191Y-13191714D02*
X17732714Y-13210762D01*
X17732714Y-13210762D02*
X17732714Y-13258381D01*
X17732714Y-13258381D02*
X17723191Y-13277428D01*
X17723191Y-13277428D02*
X17713667Y-13286952D01*
X17713667Y-13286952D02*
X17694619Y-13296476D01*
X17694619Y-13296476D02*
X17647000Y-13296476D01*
X17647000Y-13296476D02*
X17627953Y-13286952D01*
X17627953Y-13286952D02*
X17618429Y-13277428D01*
X17799381Y-13096476D02*
X17923191Y-13096476D01*
X17923191Y-13096476D02*
X17856524Y-13172667D01*
X17856524Y-13172667D02*
X17885095Y-13172667D01*
X17885095Y-13172667D02*
X17904143Y-13182190D01*
X17904143Y-13182190D02*
X17913667Y-13191714D01*
X17913667Y-13191714D02*
X17923191Y-13210762D01*
X17923191Y-13210762D02*
X17923191Y-13258381D01*
X17923191Y-13258381D02*
X17913667Y-13277428D01*
X17913667Y-13277428D02*
X17904143Y-13286952D01*
X17904143Y-13286952D02*
X17885095Y-13296476D01*
X17885095Y-13296476D02*
X17827953Y-13296476D01*
X17827953Y-13296476D02*
X17808905Y-13286952D01*
X17808905Y-13286952D02*
X17799381Y-13277428D01*
X18128905Y-13296476D02*
X18128905Y-13096476D01*
X18214619Y-13296476D02*
X18214619Y-13191714D01*
X18214619Y-13191714D02*
X18205095Y-13172667D01*
X18205095Y-13172667D02*
X18186048Y-13163143D01*
X18186048Y-13163143D02*
X18157476Y-13163143D01*
X18157476Y-13163143D02*
X18138429Y-13172667D01*
X18138429Y-13172667D02*
X18128905Y-13182190D01*
X18338429Y-13296476D02*
X18319381Y-13286952D01*
X18319381Y-13286952D02*
X18309857Y-13277428D01*
X18309857Y-13277428D02*
X18300334Y-13258381D01*
X18300334Y-13258381D02*
X18300334Y-13201238D01*
X18300334Y-13201238D02*
X18309857Y-13182190D01*
X18309857Y-13182190D02*
X18319381Y-13172667D01*
X18319381Y-13172667D02*
X18338429Y-13163143D01*
X18338429Y-13163143D02*
X18367000Y-13163143D01*
X18367000Y-13163143D02*
X18386048Y-13172667D01*
X18386048Y-13172667D02*
X18395572Y-13182190D01*
X18395572Y-13182190D02*
X18405095Y-13201238D01*
X18405095Y-13201238D02*
X18405095Y-13258381D01*
X18405095Y-13258381D02*
X18395572Y-13277428D01*
X18395572Y-13277428D02*
X18386048Y-13286952D01*
X18386048Y-13286952D02*
X18367000Y-13296476D01*
X18367000Y-13296476D02*
X18338429Y-13296476D01*
X18519381Y-13296476D02*
X18500334Y-13286952D01*
X18500334Y-13286952D02*
X18490810Y-13267905D01*
X18490810Y-13267905D02*
X18490810Y-13096476D01*
X18671762Y-13286952D02*
X18652715Y-13296476D01*
X18652715Y-13296476D02*
X18614619Y-13296476D01*
X18614619Y-13296476D02*
X18595572Y-13286952D01*
X18595572Y-13286952D02*
X18586048Y-13267905D01*
X18586048Y-13267905D02*
X18586048Y-13191714D01*
X18586048Y-13191714D02*
X18595572Y-13172667D01*
X18595572Y-13172667D02*
X18614619Y-13163143D01*
X18614619Y-13163143D02*
X18652715Y-13163143D01*
X18652715Y-13163143D02*
X18671762Y-13172667D01*
X18671762Y-13172667D02*
X18681286Y-13191714D01*
X18681286Y-13191714D02*
X18681286Y-13210762D01*
X18681286Y-13210762D02*
X18586048Y-13229809D01*
X18757476Y-13286952D02*
X18776524Y-13296476D01*
X18776524Y-13296476D02*
X18814619Y-13296476D01*
X18814619Y-13296476D02*
X18833667Y-13286952D01*
X18833667Y-13286952D02*
X18843191Y-13267905D01*
X18843191Y-13267905D02*
X18843191Y-13258381D01*
X18843191Y-13258381D02*
X18833667Y-13239333D01*
X18833667Y-13239333D02*
X18814619Y-13229809D01*
X18814619Y-13229809D02*
X18786048Y-13229809D01*
X18786048Y-13229809D02*
X18767000Y-13220286D01*
X18767000Y-13220286D02*
X18757476Y-13201238D01*
X18757476Y-13201238D02*
X18757476Y-13191714D01*
X18757476Y-13191714D02*
X18767000Y-13172667D01*
X18767000Y-13172667D02*
X18786048Y-13163143D01*
X18786048Y-13163143D02*
X18814619Y-13163143D01*
X18814619Y-13163143D02*
X18833667Y-13172667D01*
X18909857Y-13372667D02*
X18919381Y-13363143D01*
X18919381Y-13363143D02*
X18938429Y-13334571D01*
X18938429Y-13334571D02*
X18947953Y-13315524D01*
X18947953Y-13315524D02*
X18957476Y-13286952D01*
X18957476Y-13286952D02*
X18967000Y-13239333D01*
X18967000Y-13239333D02*
X18967000Y-13201238D01*
X18967000Y-13201238D02*
X18957476Y-13153619D01*
X18957476Y-13153619D02*
X18947953Y-13125048D01*
X18947953Y-13125048D02*
X18938429Y-13106000D01*
X18938429Y-13106000D02*
X18919381Y-13077428D01*
X18919381Y-13077428D02*
X18909857Y-13067905D01*
D13*
X14087000Y-13487000D02*
G75*
G03*
X14087000Y-13487000I-17500J0D01*
G01*
D10*
X14372714Y-13360476D02*
X14391762Y-13360476D01*
X14391762Y-13360476D02*
X14410809Y-13370000D01*
X14410809Y-13370000D02*
X14420333Y-13379524D01*
X14420333Y-13379524D02*
X14429857Y-13398571D01*
X14429857Y-13398571D02*
X14439381Y-13436667D01*
X14439381Y-13436667D02*
X14439381Y-13484286D01*
X14439381Y-13484286D02*
X14429857Y-13522381D01*
X14429857Y-13522381D02*
X14420333Y-13541428D01*
X14420333Y-13541428D02*
X14410809Y-13550952D01*
X14410809Y-13550952D02*
X14391762Y-13560476D01*
X14391762Y-13560476D02*
X14372714Y-13560476D01*
X14372714Y-13560476D02*
X14353667Y-13550952D01*
X14353667Y-13550952D02*
X14344143Y-13541428D01*
X14344143Y-13541428D02*
X14334619Y-13522381D01*
X14334619Y-13522381D02*
X14325095Y-13484286D01*
X14325095Y-13484286D02*
X14325095Y-13436667D01*
X14325095Y-13436667D02*
X14334619Y-13398571D01*
X14334619Y-13398571D02*
X14344143Y-13379524D01*
X14344143Y-13379524D02*
X14353667Y-13370000D01*
X14353667Y-13370000D02*
X14372714Y-13360476D01*
X14525095Y-13541428D02*
X14534619Y-13550952D01*
X14534619Y-13550952D02*
X14525095Y-13560476D01*
X14525095Y-13560476D02*
X14515571Y-13550952D01*
X14515571Y-13550952D02*
X14525095Y-13541428D01*
X14525095Y-13541428D02*
X14525095Y-13560476D01*
X14601286Y-13360476D02*
X14725095Y-13360476D01*
X14725095Y-13360476D02*
X14658428Y-13436667D01*
X14658428Y-13436667D02*
X14687000Y-13436667D01*
X14687000Y-13436667D02*
X14706048Y-13446190D01*
X14706048Y-13446190D02*
X14715571Y-13455714D01*
X14715571Y-13455714D02*
X14725095Y-13474762D01*
X14725095Y-13474762D02*
X14725095Y-13522381D01*
X14725095Y-13522381D02*
X14715571Y-13541428D01*
X14715571Y-13541428D02*
X14706048Y-13550952D01*
X14706048Y-13550952D02*
X14687000Y-13560476D01*
X14687000Y-13560476D02*
X14629857Y-13560476D01*
X14629857Y-13560476D02*
X14610809Y-13550952D01*
X14610809Y-13550952D02*
X14601286Y-13541428D01*
X14906048Y-13360476D02*
X14810809Y-13360476D01*
X14810809Y-13360476D02*
X14801286Y-13455714D01*
X14801286Y-13455714D02*
X14810809Y-13446190D01*
X14810809Y-13446190D02*
X14829857Y-13436667D01*
X14829857Y-13436667D02*
X14877476Y-13436667D01*
X14877476Y-13436667D02*
X14896524Y-13446190D01*
X14896524Y-13446190D02*
X14906048Y-13455714D01*
X14906048Y-13455714D02*
X14915571Y-13474762D01*
X14915571Y-13474762D02*
X14915571Y-13522381D01*
X14915571Y-13522381D02*
X14906048Y-13541428D01*
X14906048Y-13541428D02*
X14896524Y-13550952D01*
X14896524Y-13550952D02*
X14877476Y-13560476D01*
X14877476Y-13560476D02*
X14829857Y-13560476D01*
X14829857Y-13560476D02*
X14810809Y-13550952D01*
X14810809Y-13550952D02*
X14801286Y-13541428D01*
X15039381Y-13360476D02*
X15058429Y-13360476D01*
X15058429Y-13360476D02*
X15077476Y-13370000D01*
X15077476Y-13370000D02*
X15087000Y-13379524D01*
X15087000Y-13379524D02*
X15096524Y-13398571D01*
X15096524Y-13398571D02*
X15106048Y-13436667D01*
X15106048Y-13436667D02*
X15106048Y-13484286D01*
X15106048Y-13484286D02*
X15096524Y-13522381D01*
X15096524Y-13522381D02*
X15087000Y-13541428D01*
X15087000Y-13541428D02*
X15077476Y-13550952D01*
X15077476Y-13550952D02*
X15058429Y-13560476D01*
X15058429Y-13560476D02*
X15039381Y-13560476D01*
X15039381Y-13560476D02*
X15020333Y-13550952D01*
X15020333Y-13550952D02*
X15010809Y-13541428D01*
X15010809Y-13541428D02*
X15001286Y-13522381D01*
X15001286Y-13522381D02*
X14991762Y-13484286D01*
X14991762Y-13484286D02*
X14991762Y-13436667D01*
X14991762Y-13436667D02*
X15001286Y-13398571D01*
X15001286Y-13398571D02*
X15010809Y-13379524D01*
X15010809Y-13379524D02*
X15020333Y-13370000D01*
X15020333Y-13370000D02*
X15039381Y-13360476D01*
X15191762Y-13560476D02*
X15191762Y-13427143D01*
X15191762Y-13446190D02*
X15201286Y-13436667D01*
X15201286Y-13436667D02*
X15220333Y-13427143D01*
X15220333Y-13427143D02*
X15248905Y-13427143D01*
X15248905Y-13427143D02*
X15267952Y-13436667D01*
X15267952Y-13436667D02*
X15277476Y-13455714D01*
X15277476Y-13455714D02*
X15277476Y-13560476D01*
X15277476Y-13455714D02*
X15287000Y-13436667D01*
X15287000Y-13436667D02*
X15306048Y-13427143D01*
X15306048Y-13427143D02*
X15334619Y-13427143D01*
X15334619Y-13427143D02*
X15353667Y-13436667D01*
X15353667Y-13436667D02*
X15363190Y-13455714D01*
X15363190Y-13455714D02*
X15363190Y-13560476D01*
X15458429Y-13560476D02*
X15458429Y-13427143D01*
X15458429Y-13446190D02*
X15467952Y-13436667D01*
X15467952Y-13436667D02*
X15487000Y-13427143D01*
X15487000Y-13427143D02*
X15515571Y-13427143D01*
X15515571Y-13427143D02*
X15534619Y-13436667D01*
X15534619Y-13436667D02*
X15544143Y-13455714D01*
X15544143Y-13455714D02*
X15544143Y-13560476D01*
X15544143Y-13455714D02*
X15553667Y-13436667D01*
X15553667Y-13436667D02*
X15572714Y-13427143D01*
X15572714Y-13427143D02*
X15601286Y-13427143D01*
X15601286Y-13427143D02*
X15620333Y-13436667D01*
X15620333Y-13436667D02*
X15629857Y-13455714D01*
X15629857Y-13455714D02*
X15629857Y-13560476D01*
X15987952Y-13350952D02*
X15816524Y-13608095D01*
X16212714Y-13360476D02*
X16231762Y-13360476D01*
X16231762Y-13360476D02*
X16250810Y-13370000D01*
X16250810Y-13370000D02*
X16260333Y-13379524D01*
X16260333Y-13379524D02*
X16269857Y-13398571D01*
X16269857Y-13398571D02*
X16279381Y-13436667D01*
X16279381Y-13436667D02*
X16279381Y-13484286D01*
X16279381Y-13484286D02*
X16269857Y-13522381D01*
X16269857Y-13522381D02*
X16260333Y-13541428D01*
X16260333Y-13541428D02*
X16250810Y-13550952D01*
X16250810Y-13550952D02*
X16231762Y-13560476D01*
X16231762Y-13560476D02*
X16212714Y-13560476D01*
X16212714Y-13560476D02*
X16193667Y-13550952D01*
X16193667Y-13550952D02*
X16184143Y-13541428D01*
X16184143Y-13541428D02*
X16174619Y-13522381D01*
X16174619Y-13522381D02*
X16165095Y-13484286D01*
X16165095Y-13484286D02*
X16165095Y-13436667D01*
X16165095Y-13436667D02*
X16174619Y-13398571D01*
X16174619Y-13398571D02*
X16184143Y-13379524D01*
X16184143Y-13379524D02*
X16193667Y-13370000D01*
X16193667Y-13370000D02*
X16212714Y-13360476D01*
X16365095Y-13541428D02*
X16374619Y-13550952D01*
X16374619Y-13550952D02*
X16365095Y-13560476D01*
X16365095Y-13560476D02*
X16355571Y-13550952D01*
X16355571Y-13550952D02*
X16365095Y-13541428D01*
X16365095Y-13541428D02*
X16365095Y-13560476D01*
X16498429Y-13360476D02*
X16517476Y-13360476D01*
X16517476Y-13360476D02*
X16536524Y-13370000D01*
X16536524Y-13370000D02*
X16546048Y-13379524D01*
X16546048Y-13379524D02*
X16555571Y-13398571D01*
X16555571Y-13398571D02*
X16565095Y-13436667D01*
X16565095Y-13436667D02*
X16565095Y-13484286D01*
X16565095Y-13484286D02*
X16555571Y-13522381D01*
X16555571Y-13522381D02*
X16546048Y-13541428D01*
X16546048Y-13541428D02*
X16536524Y-13550952D01*
X16536524Y-13550952D02*
X16517476Y-13560476D01*
X16517476Y-13560476D02*
X16498429Y-13560476D01*
X16498429Y-13560476D02*
X16479381Y-13550952D01*
X16479381Y-13550952D02*
X16469857Y-13541428D01*
X16469857Y-13541428D02*
X16460333Y-13522381D01*
X16460333Y-13522381D02*
X16450810Y-13484286D01*
X16450810Y-13484286D02*
X16450810Y-13436667D01*
X16450810Y-13436667D02*
X16460333Y-13398571D01*
X16460333Y-13398571D02*
X16469857Y-13379524D01*
X16469857Y-13379524D02*
X16479381Y-13370000D01*
X16479381Y-13370000D02*
X16498429Y-13360476D01*
X16755571Y-13560476D02*
X16641286Y-13560476D01*
X16698429Y-13560476D02*
X16698429Y-13360476D01*
X16698429Y-13360476D02*
X16679381Y-13389048D01*
X16679381Y-13389048D02*
X16660333Y-13408095D01*
X16660333Y-13408095D02*
X16641286Y-13417619D01*
X16822238Y-13360476D02*
X16946048Y-13360476D01*
X16946048Y-13360476D02*
X16879381Y-13436667D01*
X16879381Y-13436667D02*
X16907953Y-13436667D01*
X16907953Y-13436667D02*
X16927000Y-13446190D01*
X16927000Y-13446190D02*
X16936524Y-13455714D01*
X16936524Y-13455714D02*
X16946048Y-13474762D01*
X16946048Y-13474762D02*
X16946048Y-13522381D01*
X16946048Y-13522381D02*
X16936524Y-13541428D01*
X16936524Y-13541428D02*
X16927000Y-13550952D01*
X16927000Y-13550952D02*
X16907953Y-13560476D01*
X16907953Y-13560476D02*
X16850810Y-13560476D01*
X16850810Y-13560476D02*
X16831762Y-13550952D01*
X16831762Y-13550952D02*
X16822238Y-13541428D01*
X17060333Y-13446190D02*
X17041286Y-13436667D01*
X17041286Y-13436667D02*
X17031762Y-13427143D01*
X17031762Y-13427143D02*
X17022238Y-13408095D01*
X17022238Y-13408095D02*
X17022238Y-13398571D01*
X17022238Y-13398571D02*
X17031762Y-13379524D01*
X17031762Y-13379524D02*
X17041286Y-13370000D01*
X17041286Y-13370000D02*
X17060333Y-13360476D01*
X17060333Y-13360476D02*
X17098429Y-13360476D01*
X17098429Y-13360476D02*
X17117476Y-13370000D01*
X17117476Y-13370000D02*
X17127000Y-13379524D01*
X17127000Y-13379524D02*
X17136524Y-13398571D01*
X17136524Y-13398571D02*
X17136524Y-13408095D01*
X17136524Y-13408095D02*
X17127000Y-13427143D01*
X17127000Y-13427143D02*
X17117476Y-13436667D01*
X17117476Y-13436667D02*
X17098429Y-13446190D01*
X17098429Y-13446190D02*
X17060333Y-13446190D01*
X17060333Y-13446190D02*
X17041286Y-13455714D01*
X17041286Y-13455714D02*
X17031762Y-13465238D01*
X17031762Y-13465238D02*
X17022238Y-13484286D01*
X17022238Y-13484286D02*
X17022238Y-13522381D01*
X17022238Y-13522381D02*
X17031762Y-13541428D01*
X17031762Y-13541428D02*
X17041286Y-13550952D01*
X17041286Y-13550952D02*
X17060333Y-13560476D01*
X17060333Y-13560476D02*
X17098429Y-13560476D01*
X17098429Y-13560476D02*
X17117476Y-13550952D01*
X17117476Y-13550952D02*
X17127000Y-13541428D01*
X17127000Y-13541428D02*
X17136524Y-13522381D01*
X17136524Y-13522381D02*
X17136524Y-13484286D01*
X17136524Y-13484286D02*
X17127000Y-13465238D01*
X17127000Y-13465238D02*
X17117476Y-13455714D01*
X17117476Y-13455714D02*
X17098429Y-13446190D01*
X17212714Y-13360476D02*
X17212714Y-13398571D01*
X17288905Y-13360476D02*
X17288905Y-13398571D01*
X17551762Y-13636667D02*
X17542238Y-13627143D01*
X17542238Y-13627143D02*
X17523191Y-13598571D01*
X17523191Y-13598571D02*
X17513667Y-13579524D01*
X17513667Y-13579524D02*
X17504143Y-13550952D01*
X17504143Y-13550952D02*
X17494619Y-13503333D01*
X17494619Y-13503333D02*
X17494619Y-13465238D01*
X17494619Y-13465238D02*
X17504143Y-13417619D01*
X17504143Y-13417619D02*
X17513667Y-13389048D01*
X17513667Y-13389048D02*
X17523191Y-13370000D01*
X17523191Y-13370000D02*
X17542238Y-13341428D01*
X17542238Y-13341428D02*
X17551762Y-13331905D01*
X17732714Y-13560476D02*
X17618429Y-13560476D01*
X17675572Y-13560476D02*
X17675572Y-13360476D01*
X17675572Y-13360476D02*
X17656524Y-13389048D01*
X17656524Y-13389048D02*
X17637476Y-13408095D01*
X17637476Y-13408095D02*
X17618429Y-13417619D01*
X17938429Y-13560476D02*
X17938429Y-13360476D01*
X18024143Y-13560476D02*
X18024143Y-13455714D01*
X18024143Y-13455714D02*
X18014619Y-13436667D01*
X18014619Y-13436667D02*
X17995572Y-13427143D01*
X17995572Y-13427143D02*
X17967000Y-13427143D01*
X17967000Y-13427143D02*
X17947953Y-13436667D01*
X17947953Y-13436667D02*
X17938429Y-13446190D01*
X18147953Y-13560476D02*
X18128905Y-13550952D01*
X18128905Y-13550952D02*
X18119381Y-13541428D01*
X18119381Y-13541428D02*
X18109857Y-13522381D01*
X18109857Y-13522381D02*
X18109857Y-13465238D01*
X18109857Y-13465238D02*
X18119381Y-13446190D01*
X18119381Y-13446190D02*
X18128905Y-13436667D01*
X18128905Y-13436667D02*
X18147953Y-13427143D01*
X18147953Y-13427143D02*
X18176524Y-13427143D01*
X18176524Y-13427143D02*
X18195572Y-13436667D01*
X18195572Y-13436667D02*
X18205095Y-13446190D01*
X18205095Y-13446190D02*
X18214619Y-13465238D01*
X18214619Y-13465238D02*
X18214619Y-13522381D01*
X18214619Y-13522381D02*
X18205095Y-13541428D01*
X18205095Y-13541428D02*
X18195572Y-13550952D01*
X18195572Y-13550952D02*
X18176524Y-13560476D01*
X18176524Y-13560476D02*
X18147953Y-13560476D01*
X18328905Y-13560476D02*
X18309857Y-13550952D01*
X18309857Y-13550952D02*
X18300334Y-13531905D01*
X18300334Y-13531905D02*
X18300334Y-13360476D01*
X18481286Y-13550952D02*
X18462238Y-13560476D01*
X18462238Y-13560476D02*
X18424143Y-13560476D01*
X18424143Y-13560476D02*
X18405095Y-13550952D01*
X18405095Y-13550952D02*
X18395572Y-13531905D01*
X18395572Y-13531905D02*
X18395572Y-13455714D01*
X18395572Y-13455714D02*
X18405095Y-13436667D01*
X18405095Y-13436667D02*
X18424143Y-13427143D01*
X18424143Y-13427143D02*
X18462238Y-13427143D01*
X18462238Y-13427143D02*
X18481286Y-13436667D01*
X18481286Y-13436667D02*
X18490810Y-13455714D01*
X18490810Y-13455714D02*
X18490810Y-13474762D01*
X18490810Y-13474762D02*
X18395572Y-13493809D01*
X18557476Y-13636667D02*
X18567000Y-13627143D01*
X18567000Y-13627143D02*
X18586048Y-13598571D01*
X18586048Y-13598571D02*
X18595572Y-13579524D01*
X18595572Y-13579524D02*
X18605095Y-13550952D01*
X18605095Y-13550952D02*
X18614619Y-13503333D01*
X18614619Y-13503333D02*
X18614619Y-13465238D01*
X18614619Y-13465238D02*
X18605095Y-13417619D01*
X18605095Y-13417619D02*
X18595572Y-13389048D01*
X18595572Y-13389048D02*
X18586048Y-13370000D01*
X18586048Y-13370000D02*
X18567000Y-13341428D01*
X18567000Y-13341428D02*
X18557476Y-13331905D01*
D13*
X14069500Y-13733500D02*
X14069500Y-13768500D01*
X14052000Y-13751000D02*
X14087000Y-13751000D01*
D10*
X14372714Y-13624476D02*
X14391762Y-13624476D01*
X14391762Y-13624476D02*
X14410809Y-13634000D01*
X14410809Y-13634000D02*
X14420333Y-13643524D01*
X14420333Y-13643524D02*
X14429857Y-13662571D01*
X14429857Y-13662571D02*
X14439381Y-13700667D01*
X14439381Y-13700667D02*
X14439381Y-13748286D01*
X14439381Y-13748286D02*
X14429857Y-13786381D01*
X14429857Y-13786381D02*
X14420333Y-13805428D01*
X14420333Y-13805428D02*
X14410809Y-13814952D01*
X14410809Y-13814952D02*
X14391762Y-13824476D01*
X14391762Y-13824476D02*
X14372714Y-13824476D01*
X14372714Y-13824476D02*
X14353667Y-13814952D01*
X14353667Y-13814952D02*
X14344143Y-13805428D01*
X14344143Y-13805428D02*
X14334619Y-13786381D01*
X14334619Y-13786381D02*
X14325095Y-13748286D01*
X14325095Y-13748286D02*
X14325095Y-13700667D01*
X14325095Y-13700667D02*
X14334619Y-13662571D01*
X14334619Y-13662571D02*
X14344143Y-13643524D01*
X14344143Y-13643524D02*
X14353667Y-13634000D01*
X14353667Y-13634000D02*
X14372714Y-13624476D01*
X14525095Y-13805428D02*
X14534619Y-13814952D01*
X14534619Y-13814952D02*
X14525095Y-13824476D01*
X14525095Y-13824476D02*
X14515571Y-13814952D01*
X14515571Y-13814952D02*
X14525095Y-13805428D01*
X14525095Y-13805428D02*
X14525095Y-13824476D01*
X14601286Y-13624476D02*
X14725095Y-13624476D01*
X14725095Y-13624476D02*
X14658428Y-13700667D01*
X14658428Y-13700667D02*
X14687000Y-13700667D01*
X14687000Y-13700667D02*
X14706048Y-13710190D01*
X14706048Y-13710190D02*
X14715571Y-13719714D01*
X14715571Y-13719714D02*
X14725095Y-13738762D01*
X14725095Y-13738762D02*
X14725095Y-13786381D01*
X14725095Y-13786381D02*
X14715571Y-13805428D01*
X14715571Y-13805428D02*
X14706048Y-13814952D01*
X14706048Y-13814952D02*
X14687000Y-13824476D01*
X14687000Y-13824476D02*
X14629857Y-13824476D01*
X14629857Y-13824476D02*
X14610809Y-13814952D01*
X14610809Y-13814952D02*
X14601286Y-13805428D01*
X14906048Y-13624476D02*
X14810809Y-13624476D01*
X14810809Y-13624476D02*
X14801286Y-13719714D01*
X14801286Y-13719714D02*
X14810809Y-13710190D01*
X14810809Y-13710190D02*
X14829857Y-13700667D01*
X14829857Y-13700667D02*
X14877476Y-13700667D01*
X14877476Y-13700667D02*
X14896524Y-13710190D01*
X14896524Y-13710190D02*
X14906048Y-13719714D01*
X14906048Y-13719714D02*
X14915571Y-13738762D01*
X14915571Y-13738762D02*
X14915571Y-13786381D01*
X14915571Y-13786381D02*
X14906048Y-13805428D01*
X14906048Y-13805428D02*
X14896524Y-13814952D01*
X14896524Y-13814952D02*
X14877476Y-13824476D01*
X14877476Y-13824476D02*
X14829857Y-13824476D01*
X14829857Y-13824476D02*
X14810809Y-13814952D01*
X14810809Y-13814952D02*
X14801286Y-13805428D01*
X15039381Y-13624476D02*
X15058429Y-13624476D01*
X15058429Y-13624476D02*
X15077476Y-13634000D01*
X15077476Y-13634000D02*
X15087000Y-13643524D01*
X15087000Y-13643524D02*
X15096524Y-13662571D01*
X15096524Y-13662571D02*
X15106048Y-13700667D01*
X15106048Y-13700667D02*
X15106048Y-13748286D01*
X15106048Y-13748286D02*
X15096524Y-13786381D01*
X15096524Y-13786381D02*
X15087000Y-13805428D01*
X15087000Y-13805428D02*
X15077476Y-13814952D01*
X15077476Y-13814952D02*
X15058429Y-13824476D01*
X15058429Y-13824476D02*
X15039381Y-13824476D01*
X15039381Y-13824476D02*
X15020333Y-13814952D01*
X15020333Y-13814952D02*
X15010809Y-13805428D01*
X15010809Y-13805428D02*
X15001286Y-13786381D01*
X15001286Y-13786381D02*
X14991762Y-13748286D01*
X14991762Y-13748286D02*
X14991762Y-13700667D01*
X14991762Y-13700667D02*
X15001286Y-13662571D01*
X15001286Y-13662571D02*
X15010809Y-13643524D01*
X15010809Y-13643524D02*
X15020333Y-13634000D01*
X15020333Y-13634000D02*
X15039381Y-13624476D01*
X15191762Y-13824476D02*
X15191762Y-13691143D01*
X15191762Y-13710190D02*
X15201286Y-13700667D01*
X15201286Y-13700667D02*
X15220333Y-13691143D01*
X15220333Y-13691143D02*
X15248905Y-13691143D01*
X15248905Y-13691143D02*
X15267952Y-13700667D01*
X15267952Y-13700667D02*
X15277476Y-13719714D01*
X15277476Y-13719714D02*
X15277476Y-13824476D01*
X15277476Y-13719714D02*
X15287000Y-13700667D01*
X15287000Y-13700667D02*
X15306048Y-13691143D01*
X15306048Y-13691143D02*
X15334619Y-13691143D01*
X15334619Y-13691143D02*
X15353667Y-13700667D01*
X15353667Y-13700667D02*
X15363190Y-13719714D01*
X15363190Y-13719714D02*
X15363190Y-13824476D01*
X15458429Y-13824476D02*
X15458429Y-13691143D01*
X15458429Y-13710190D02*
X15467952Y-13700667D01*
X15467952Y-13700667D02*
X15487000Y-13691143D01*
X15487000Y-13691143D02*
X15515571Y-13691143D01*
X15515571Y-13691143D02*
X15534619Y-13700667D01*
X15534619Y-13700667D02*
X15544143Y-13719714D01*
X15544143Y-13719714D02*
X15544143Y-13824476D01*
X15544143Y-13719714D02*
X15553667Y-13700667D01*
X15553667Y-13700667D02*
X15572714Y-13691143D01*
X15572714Y-13691143D02*
X15601286Y-13691143D01*
X15601286Y-13691143D02*
X15620333Y-13700667D01*
X15620333Y-13700667D02*
X15629857Y-13719714D01*
X15629857Y-13719714D02*
X15629857Y-13824476D01*
X15987952Y-13614952D02*
X15816524Y-13872095D01*
X16212714Y-13624476D02*
X16231762Y-13624476D01*
X16231762Y-13624476D02*
X16250810Y-13634000D01*
X16250810Y-13634000D02*
X16260333Y-13643524D01*
X16260333Y-13643524D02*
X16269857Y-13662571D01*
X16269857Y-13662571D02*
X16279381Y-13700667D01*
X16279381Y-13700667D02*
X16279381Y-13748286D01*
X16279381Y-13748286D02*
X16269857Y-13786381D01*
X16269857Y-13786381D02*
X16260333Y-13805428D01*
X16260333Y-13805428D02*
X16250810Y-13814952D01*
X16250810Y-13814952D02*
X16231762Y-13824476D01*
X16231762Y-13824476D02*
X16212714Y-13824476D01*
X16212714Y-13824476D02*
X16193667Y-13814952D01*
X16193667Y-13814952D02*
X16184143Y-13805428D01*
X16184143Y-13805428D02*
X16174619Y-13786381D01*
X16174619Y-13786381D02*
X16165095Y-13748286D01*
X16165095Y-13748286D02*
X16165095Y-13700667D01*
X16165095Y-13700667D02*
X16174619Y-13662571D01*
X16174619Y-13662571D02*
X16184143Y-13643524D01*
X16184143Y-13643524D02*
X16193667Y-13634000D01*
X16193667Y-13634000D02*
X16212714Y-13624476D01*
X16365095Y-13805428D02*
X16374619Y-13814952D01*
X16374619Y-13814952D02*
X16365095Y-13824476D01*
X16365095Y-13824476D02*
X16355571Y-13814952D01*
X16355571Y-13814952D02*
X16365095Y-13805428D01*
X16365095Y-13805428D02*
X16365095Y-13824476D01*
X16498429Y-13624476D02*
X16517476Y-13624476D01*
X16517476Y-13624476D02*
X16536524Y-13634000D01*
X16536524Y-13634000D02*
X16546048Y-13643524D01*
X16546048Y-13643524D02*
X16555571Y-13662571D01*
X16555571Y-13662571D02*
X16565095Y-13700667D01*
X16565095Y-13700667D02*
X16565095Y-13748286D01*
X16565095Y-13748286D02*
X16555571Y-13786381D01*
X16555571Y-13786381D02*
X16546048Y-13805428D01*
X16546048Y-13805428D02*
X16536524Y-13814952D01*
X16536524Y-13814952D02*
X16517476Y-13824476D01*
X16517476Y-13824476D02*
X16498429Y-13824476D01*
X16498429Y-13824476D02*
X16479381Y-13814952D01*
X16479381Y-13814952D02*
X16469857Y-13805428D01*
X16469857Y-13805428D02*
X16460333Y-13786381D01*
X16460333Y-13786381D02*
X16450810Y-13748286D01*
X16450810Y-13748286D02*
X16450810Y-13700667D01*
X16450810Y-13700667D02*
X16460333Y-13662571D01*
X16460333Y-13662571D02*
X16469857Y-13643524D01*
X16469857Y-13643524D02*
X16479381Y-13634000D01*
X16479381Y-13634000D02*
X16498429Y-13624476D01*
X16755571Y-13824476D02*
X16641286Y-13824476D01*
X16698429Y-13824476D02*
X16698429Y-13624476D01*
X16698429Y-13624476D02*
X16679381Y-13653048D01*
X16679381Y-13653048D02*
X16660333Y-13672095D01*
X16660333Y-13672095D02*
X16641286Y-13681619D01*
X16822238Y-13624476D02*
X16946048Y-13624476D01*
X16946048Y-13624476D02*
X16879381Y-13700667D01*
X16879381Y-13700667D02*
X16907953Y-13700667D01*
X16907953Y-13700667D02*
X16927000Y-13710190D01*
X16927000Y-13710190D02*
X16936524Y-13719714D01*
X16936524Y-13719714D02*
X16946048Y-13738762D01*
X16946048Y-13738762D02*
X16946048Y-13786381D01*
X16946048Y-13786381D02*
X16936524Y-13805428D01*
X16936524Y-13805428D02*
X16927000Y-13814952D01*
X16927000Y-13814952D02*
X16907953Y-13824476D01*
X16907953Y-13824476D02*
X16850810Y-13824476D01*
X16850810Y-13824476D02*
X16831762Y-13814952D01*
X16831762Y-13814952D02*
X16822238Y-13805428D01*
X17060333Y-13710190D02*
X17041286Y-13700667D01*
X17041286Y-13700667D02*
X17031762Y-13691143D01*
X17031762Y-13691143D02*
X17022238Y-13672095D01*
X17022238Y-13672095D02*
X17022238Y-13662571D01*
X17022238Y-13662571D02*
X17031762Y-13643524D01*
X17031762Y-13643524D02*
X17041286Y-13634000D01*
X17041286Y-13634000D02*
X17060333Y-13624476D01*
X17060333Y-13624476D02*
X17098429Y-13624476D01*
X17098429Y-13624476D02*
X17117476Y-13634000D01*
X17117476Y-13634000D02*
X17127000Y-13643524D01*
X17127000Y-13643524D02*
X17136524Y-13662571D01*
X17136524Y-13662571D02*
X17136524Y-13672095D01*
X17136524Y-13672095D02*
X17127000Y-13691143D01*
X17127000Y-13691143D02*
X17117476Y-13700667D01*
X17117476Y-13700667D02*
X17098429Y-13710190D01*
X17098429Y-13710190D02*
X17060333Y-13710190D01*
X17060333Y-13710190D02*
X17041286Y-13719714D01*
X17041286Y-13719714D02*
X17031762Y-13729238D01*
X17031762Y-13729238D02*
X17022238Y-13748286D01*
X17022238Y-13748286D02*
X17022238Y-13786381D01*
X17022238Y-13786381D02*
X17031762Y-13805428D01*
X17031762Y-13805428D02*
X17041286Y-13814952D01*
X17041286Y-13814952D02*
X17060333Y-13824476D01*
X17060333Y-13824476D02*
X17098429Y-13824476D01*
X17098429Y-13824476D02*
X17117476Y-13814952D01*
X17117476Y-13814952D02*
X17127000Y-13805428D01*
X17127000Y-13805428D02*
X17136524Y-13786381D01*
X17136524Y-13786381D02*
X17136524Y-13748286D01*
X17136524Y-13748286D02*
X17127000Y-13729238D01*
X17127000Y-13729238D02*
X17117476Y-13719714D01*
X17117476Y-13719714D02*
X17098429Y-13710190D01*
X17212714Y-13624476D02*
X17212714Y-13662571D01*
X17288905Y-13624476D02*
X17288905Y-13662571D01*
X17551762Y-13900667D02*
X17542238Y-13891143D01*
X17542238Y-13891143D02*
X17523191Y-13862571D01*
X17523191Y-13862571D02*
X17513667Y-13843524D01*
X17513667Y-13843524D02*
X17504143Y-13814952D01*
X17504143Y-13814952D02*
X17494619Y-13767333D01*
X17494619Y-13767333D02*
X17494619Y-13729238D01*
X17494619Y-13729238D02*
X17504143Y-13681619D01*
X17504143Y-13681619D02*
X17513667Y-13653048D01*
X17513667Y-13653048D02*
X17523191Y-13634000D01*
X17523191Y-13634000D02*
X17542238Y-13605428D01*
X17542238Y-13605428D02*
X17551762Y-13595905D01*
X17637476Y-13824476D02*
X17675572Y-13824476D01*
X17675572Y-13824476D02*
X17694619Y-13814952D01*
X17694619Y-13814952D02*
X17704143Y-13805428D01*
X17704143Y-13805428D02*
X17723191Y-13776857D01*
X17723191Y-13776857D02*
X17732714Y-13738762D01*
X17732714Y-13738762D02*
X17732714Y-13662571D01*
X17732714Y-13662571D02*
X17723191Y-13643524D01*
X17723191Y-13643524D02*
X17713667Y-13634000D01*
X17713667Y-13634000D02*
X17694619Y-13624476D01*
X17694619Y-13624476D02*
X17656524Y-13624476D01*
X17656524Y-13624476D02*
X17637476Y-13634000D01*
X17637476Y-13634000D02*
X17627953Y-13643524D01*
X17627953Y-13643524D02*
X17618429Y-13662571D01*
X17618429Y-13662571D02*
X17618429Y-13710190D01*
X17618429Y-13710190D02*
X17627953Y-13729238D01*
X17627953Y-13729238D02*
X17637476Y-13738762D01*
X17637476Y-13738762D02*
X17656524Y-13748286D01*
X17656524Y-13748286D02*
X17694619Y-13748286D01*
X17694619Y-13748286D02*
X17713667Y-13738762D01*
X17713667Y-13738762D02*
X17723191Y-13729238D01*
X17723191Y-13729238D02*
X17732714Y-13710190D01*
X17938429Y-13824476D02*
X17938429Y-13624476D01*
X18024143Y-13824476D02*
X18024143Y-13719714D01*
X18024143Y-13719714D02*
X18014619Y-13700667D01*
X18014619Y-13700667D02*
X17995572Y-13691143D01*
X17995572Y-13691143D02*
X17967000Y-13691143D01*
X17967000Y-13691143D02*
X17947953Y-13700667D01*
X17947953Y-13700667D02*
X17938429Y-13710190D01*
X18147953Y-13824476D02*
X18128905Y-13814952D01*
X18128905Y-13814952D02*
X18119381Y-13805428D01*
X18119381Y-13805428D02*
X18109857Y-13786381D01*
X18109857Y-13786381D02*
X18109857Y-13729238D01*
X18109857Y-13729238D02*
X18119381Y-13710190D01*
X18119381Y-13710190D02*
X18128905Y-13700667D01*
X18128905Y-13700667D02*
X18147953Y-13691143D01*
X18147953Y-13691143D02*
X18176524Y-13691143D01*
X18176524Y-13691143D02*
X18195572Y-13700667D01*
X18195572Y-13700667D02*
X18205095Y-13710190D01*
X18205095Y-13710190D02*
X18214619Y-13729238D01*
X18214619Y-13729238D02*
X18214619Y-13786381D01*
X18214619Y-13786381D02*
X18205095Y-13805428D01*
X18205095Y-13805428D02*
X18195572Y-13814952D01*
X18195572Y-13814952D02*
X18176524Y-13824476D01*
X18176524Y-13824476D02*
X18147953Y-13824476D01*
X18328905Y-13824476D02*
X18309857Y-13814952D01*
X18309857Y-13814952D02*
X18300334Y-13795905D01*
X18300334Y-13795905D02*
X18300334Y-13624476D01*
X18481286Y-13814952D02*
X18462238Y-13824476D01*
X18462238Y-13824476D02*
X18424143Y-13824476D01*
X18424143Y-13824476D02*
X18405095Y-13814952D01*
X18405095Y-13814952D02*
X18395572Y-13795905D01*
X18395572Y-13795905D02*
X18395572Y-13719714D01*
X18395572Y-13719714D02*
X18405095Y-13700667D01*
X18405095Y-13700667D02*
X18424143Y-13691143D01*
X18424143Y-13691143D02*
X18462238Y-13691143D01*
X18462238Y-13691143D02*
X18481286Y-13700667D01*
X18481286Y-13700667D02*
X18490810Y-13719714D01*
X18490810Y-13719714D02*
X18490810Y-13738762D01*
X18490810Y-13738762D02*
X18395572Y-13757809D01*
X18567000Y-13814952D02*
X18586048Y-13824476D01*
X18586048Y-13824476D02*
X18624143Y-13824476D01*
X18624143Y-13824476D02*
X18643191Y-13814952D01*
X18643191Y-13814952D02*
X18652715Y-13795905D01*
X18652715Y-13795905D02*
X18652715Y-13786381D01*
X18652715Y-13786381D02*
X18643191Y-13767333D01*
X18643191Y-13767333D02*
X18624143Y-13757809D01*
X18624143Y-13757809D02*
X18595572Y-13757809D01*
X18595572Y-13757809D02*
X18576524Y-13748286D01*
X18576524Y-13748286D02*
X18567000Y-13729238D01*
X18567000Y-13729238D02*
X18567000Y-13719714D01*
X18567000Y-13719714D02*
X18576524Y-13700667D01*
X18576524Y-13700667D02*
X18595572Y-13691143D01*
X18595572Y-13691143D02*
X18624143Y-13691143D01*
X18624143Y-13691143D02*
X18643191Y-13700667D01*
X18719381Y-13900667D02*
X18728905Y-13891143D01*
X18728905Y-13891143D02*
X18747953Y-13862571D01*
X18747953Y-13862571D02*
X18757476Y-13843524D01*
X18757476Y-13843524D02*
X18767000Y-13814952D01*
X18767000Y-13814952D02*
X18776524Y-13767333D01*
X18776524Y-13767333D02*
X18776524Y-13729238D01*
X18776524Y-13729238D02*
X18767000Y-13681619D01*
X18767000Y-13681619D02*
X18757476Y-13653048D01*
X18757476Y-13653048D02*
X18747953Y-13634000D01*
X18747953Y-13634000D02*
X18728905Y-13605428D01*
X18728905Y-13605428D02*
X18719381Y-13595905D01*
D14*
X14072356Y-14050356D02*
X14072356Y-13979644D01*
X14001644Y-13979644D01*
X14001644Y-14050356D01*
X14072356Y-14050356D01*
D10*
X14439381Y-14088476D02*
X14325095Y-14088476D01*
X14382238Y-14088476D02*
X14382238Y-13888476D01*
X14382238Y-13888476D02*
X14363190Y-13917048D01*
X14363190Y-13917048D02*
X14344143Y-13936095D01*
X14344143Y-13936095D02*
X14325095Y-13945619D01*
X14525095Y-14069428D02*
X14534619Y-14078952D01*
X14534619Y-14078952D02*
X14525095Y-14088476D01*
X14525095Y-14088476D02*
X14515571Y-14078952D01*
X14515571Y-14078952D02*
X14525095Y-14069428D01*
X14525095Y-14069428D02*
X14525095Y-14088476D01*
X14658428Y-13888476D02*
X14677476Y-13888476D01*
X14677476Y-13888476D02*
X14696524Y-13898000D01*
X14696524Y-13898000D02*
X14706048Y-13907524D01*
X14706048Y-13907524D02*
X14715571Y-13926571D01*
X14715571Y-13926571D02*
X14725095Y-13964667D01*
X14725095Y-13964667D02*
X14725095Y-14012286D01*
X14725095Y-14012286D02*
X14715571Y-14050381D01*
X14715571Y-14050381D02*
X14706048Y-14069428D01*
X14706048Y-14069428D02*
X14696524Y-14078952D01*
X14696524Y-14078952D02*
X14677476Y-14088476D01*
X14677476Y-14088476D02*
X14658428Y-14088476D01*
X14658428Y-14088476D02*
X14639381Y-14078952D01*
X14639381Y-14078952D02*
X14629857Y-14069428D01*
X14629857Y-14069428D02*
X14620333Y-14050381D01*
X14620333Y-14050381D02*
X14610809Y-14012286D01*
X14610809Y-14012286D02*
X14610809Y-13964667D01*
X14610809Y-13964667D02*
X14620333Y-13926571D01*
X14620333Y-13926571D02*
X14629857Y-13907524D01*
X14629857Y-13907524D02*
X14639381Y-13898000D01*
X14639381Y-13898000D02*
X14658428Y-13888476D01*
X14848905Y-13888476D02*
X14867952Y-13888476D01*
X14867952Y-13888476D02*
X14887000Y-13898000D01*
X14887000Y-13898000D02*
X14896524Y-13907524D01*
X14896524Y-13907524D02*
X14906048Y-13926571D01*
X14906048Y-13926571D02*
X14915571Y-13964667D01*
X14915571Y-13964667D02*
X14915571Y-14012286D01*
X14915571Y-14012286D02*
X14906048Y-14050381D01*
X14906048Y-14050381D02*
X14896524Y-14069428D01*
X14896524Y-14069428D02*
X14887000Y-14078952D01*
X14887000Y-14078952D02*
X14867952Y-14088476D01*
X14867952Y-14088476D02*
X14848905Y-14088476D01*
X14848905Y-14088476D02*
X14829857Y-14078952D01*
X14829857Y-14078952D02*
X14820333Y-14069428D01*
X14820333Y-14069428D02*
X14810809Y-14050381D01*
X14810809Y-14050381D02*
X14801286Y-14012286D01*
X14801286Y-14012286D02*
X14801286Y-13964667D01*
X14801286Y-13964667D02*
X14810809Y-13926571D01*
X14810809Y-13926571D02*
X14820333Y-13907524D01*
X14820333Y-13907524D02*
X14829857Y-13898000D01*
X14829857Y-13898000D02*
X14848905Y-13888476D01*
X15039381Y-13888476D02*
X15058429Y-13888476D01*
X15058429Y-13888476D02*
X15077476Y-13898000D01*
X15077476Y-13898000D02*
X15087000Y-13907524D01*
X15087000Y-13907524D02*
X15096524Y-13926571D01*
X15096524Y-13926571D02*
X15106048Y-13964667D01*
X15106048Y-13964667D02*
X15106048Y-14012286D01*
X15106048Y-14012286D02*
X15096524Y-14050381D01*
X15096524Y-14050381D02*
X15087000Y-14069428D01*
X15087000Y-14069428D02*
X15077476Y-14078952D01*
X15077476Y-14078952D02*
X15058429Y-14088476D01*
X15058429Y-14088476D02*
X15039381Y-14088476D01*
X15039381Y-14088476D02*
X15020333Y-14078952D01*
X15020333Y-14078952D02*
X15010809Y-14069428D01*
X15010809Y-14069428D02*
X15001286Y-14050381D01*
X15001286Y-14050381D02*
X14991762Y-14012286D01*
X14991762Y-14012286D02*
X14991762Y-13964667D01*
X14991762Y-13964667D02*
X15001286Y-13926571D01*
X15001286Y-13926571D02*
X15010809Y-13907524D01*
X15010809Y-13907524D02*
X15020333Y-13898000D01*
X15020333Y-13898000D02*
X15039381Y-13888476D01*
X15191762Y-14088476D02*
X15191762Y-13955143D01*
X15191762Y-13974190D02*
X15201286Y-13964667D01*
X15201286Y-13964667D02*
X15220333Y-13955143D01*
X15220333Y-13955143D02*
X15248905Y-13955143D01*
X15248905Y-13955143D02*
X15267952Y-13964667D01*
X15267952Y-13964667D02*
X15277476Y-13983714D01*
X15277476Y-13983714D02*
X15277476Y-14088476D01*
X15277476Y-13983714D02*
X15287000Y-13964667D01*
X15287000Y-13964667D02*
X15306048Y-13955143D01*
X15306048Y-13955143D02*
X15334619Y-13955143D01*
X15334619Y-13955143D02*
X15353667Y-13964667D01*
X15353667Y-13964667D02*
X15363190Y-13983714D01*
X15363190Y-13983714D02*
X15363190Y-14088476D01*
X15458429Y-14088476D02*
X15458429Y-13955143D01*
X15458429Y-13974190D02*
X15467952Y-13964667D01*
X15467952Y-13964667D02*
X15487000Y-13955143D01*
X15487000Y-13955143D02*
X15515571Y-13955143D01*
X15515571Y-13955143D02*
X15534619Y-13964667D01*
X15534619Y-13964667D02*
X15544143Y-13983714D01*
X15544143Y-13983714D02*
X15544143Y-14088476D01*
X15544143Y-13983714D02*
X15553667Y-13964667D01*
X15553667Y-13964667D02*
X15572714Y-13955143D01*
X15572714Y-13955143D02*
X15601286Y-13955143D01*
X15601286Y-13955143D02*
X15620333Y-13964667D01*
X15620333Y-13964667D02*
X15629857Y-13983714D01*
X15629857Y-13983714D02*
X15629857Y-14088476D01*
X15987952Y-13878952D02*
X15816524Y-14136095D01*
X16212714Y-13888476D02*
X16231762Y-13888476D01*
X16231762Y-13888476D02*
X16250810Y-13898000D01*
X16250810Y-13898000D02*
X16260333Y-13907524D01*
X16260333Y-13907524D02*
X16269857Y-13926571D01*
X16269857Y-13926571D02*
X16279381Y-13964667D01*
X16279381Y-13964667D02*
X16279381Y-14012286D01*
X16279381Y-14012286D02*
X16269857Y-14050381D01*
X16269857Y-14050381D02*
X16260333Y-14069428D01*
X16260333Y-14069428D02*
X16250810Y-14078952D01*
X16250810Y-14078952D02*
X16231762Y-14088476D01*
X16231762Y-14088476D02*
X16212714Y-14088476D01*
X16212714Y-14088476D02*
X16193667Y-14078952D01*
X16193667Y-14078952D02*
X16184143Y-14069428D01*
X16184143Y-14069428D02*
X16174619Y-14050381D01*
X16174619Y-14050381D02*
X16165095Y-14012286D01*
X16165095Y-14012286D02*
X16165095Y-13964667D01*
X16165095Y-13964667D02*
X16174619Y-13926571D01*
X16174619Y-13926571D02*
X16184143Y-13907524D01*
X16184143Y-13907524D02*
X16193667Y-13898000D01*
X16193667Y-13898000D02*
X16212714Y-13888476D01*
X16365095Y-14069428D02*
X16374619Y-14078952D01*
X16374619Y-14078952D02*
X16365095Y-14088476D01*
X16365095Y-14088476D02*
X16355571Y-14078952D01*
X16355571Y-14078952D02*
X16365095Y-14069428D01*
X16365095Y-14069428D02*
X16365095Y-14088476D01*
X16498429Y-13888476D02*
X16517476Y-13888476D01*
X16517476Y-13888476D02*
X16536524Y-13898000D01*
X16536524Y-13898000D02*
X16546048Y-13907524D01*
X16546048Y-13907524D02*
X16555571Y-13926571D01*
X16555571Y-13926571D02*
X16565095Y-13964667D01*
X16565095Y-13964667D02*
X16565095Y-14012286D01*
X16565095Y-14012286D02*
X16555571Y-14050381D01*
X16555571Y-14050381D02*
X16546048Y-14069428D01*
X16546048Y-14069428D02*
X16536524Y-14078952D01*
X16536524Y-14078952D02*
X16517476Y-14088476D01*
X16517476Y-14088476D02*
X16498429Y-14088476D01*
X16498429Y-14088476D02*
X16479381Y-14078952D01*
X16479381Y-14078952D02*
X16469857Y-14069428D01*
X16469857Y-14069428D02*
X16460333Y-14050381D01*
X16460333Y-14050381D02*
X16450810Y-14012286D01*
X16450810Y-14012286D02*
X16450810Y-13964667D01*
X16450810Y-13964667D02*
X16460333Y-13926571D01*
X16460333Y-13926571D02*
X16469857Y-13907524D01*
X16469857Y-13907524D02*
X16479381Y-13898000D01*
X16479381Y-13898000D02*
X16498429Y-13888476D01*
X16631762Y-13888476D02*
X16755571Y-13888476D01*
X16755571Y-13888476D02*
X16688905Y-13964667D01*
X16688905Y-13964667D02*
X16717476Y-13964667D01*
X16717476Y-13964667D02*
X16736524Y-13974190D01*
X16736524Y-13974190D02*
X16746048Y-13983714D01*
X16746048Y-13983714D02*
X16755571Y-14002762D01*
X16755571Y-14002762D02*
X16755571Y-14050381D01*
X16755571Y-14050381D02*
X16746048Y-14069428D01*
X16746048Y-14069428D02*
X16736524Y-14078952D01*
X16736524Y-14078952D02*
X16717476Y-14088476D01*
X16717476Y-14088476D02*
X16660333Y-14088476D01*
X16660333Y-14088476D02*
X16641286Y-14078952D01*
X16641286Y-14078952D02*
X16631762Y-14069428D01*
X16850810Y-14088476D02*
X16888905Y-14088476D01*
X16888905Y-14088476D02*
X16907953Y-14078952D01*
X16907953Y-14078952D02*
X16917476Y-14069428D01*
X16917476Y-14069428D02*
X16936524Y-14040857D01*
X16936524Y-14040857D02*
X16946048Y-14002762D01*
X16946048Y-14002762D02*
X16946048Y-13926571D01*
X16946048Y-13926571D02*
X16936524Y-13907524D01*
X16936524Y-13907524D02*
X16927000Y-13898000D01*
X16927000Y-13898000D02*
X16907953Y-13888476D01*
X16907953Y-13888476D02*
X16869857Y-13888476D01*
X16869857Y-13888476D02*
X16850810Y-13898000D01*
X16850810Y-13898000D02*
X16841286Y-13907524D01*
X16841286Y-13907524D02*
X16831762Y-13926571D01*
X16831762Y-13926571D02*
X16831762Y-13974190D01*
X16831762Y-13974190D02*
X16841286Y-13993238D01*
X16841286Y-13993238D02*
X16850810Y-14002762D01*
X16850810Y-14002762D02*
X16869857Y-14012286D01*
X16869857Y-14012286D02*
X16907953Y-14012286D01*
X16907953Y-14012286D02*
X16927000Y-14002762D01*
X16927000Y-14002762D02*
X16936524Y-13993238D01*
X16936524Y-13993238D02*
X16946048Y-13974190D01*
X17117476Y-13955143D02*
X17117476Y-14088476D01*
X17069857Y-13878952D02*
X17022238Y-14021809D01*
X17022238Y-14021809D02*
X17146048Y-14021809D01*
X17212714Y-13888476D02*
X17212714Y-13926571D01*
X17288905Y-13888476D02*
X17288905Y-13926571D01*
X17551762Y-14164667D02*
X17542238Y-14155143D01*
X17542238Y-14155143D02*
X17523191Y-14126571D01*
X17523191Y-14126571D02*
X17513667Y-14107524D01*
X17513667Y-14107524D02*
X17504143Y-14078952D01*
X17504143Y-14078952D02*
X17494619Y-14031333D01*
X17494619Y-14031333D02*
X17494619Y-13993238D01*
X17494619Y-13993238D02*
X17504143Y-13945619D01*
X17504143Y-13945619D02*
X17513667Y-13917048D01*
X17513667Y-13917048D02*
X17523191Y-13898000D01*
X17523191Y-13898000D02*
X17542238Y-13869428D01*
X17542238Y-13869428D02*
X17551762Y-13859905D01*
X17656524Y-13974190D02*
X17637476Y-13964667D01*
X17637476Y-13964667D02*
X17627953Y-13955143D01*
X17627953Y-13955143D02*
X17618429Y-13936095D01*
X17618429Y-13936095D02*
X17618429Y-13926571D01*
X17618429Y-13926571D02*
X17627953Y-13907524D01*
X17627953Y-13907524D02*
X17637476Y-13898000D01*
X17637476Y-13898000D02*
X17656524Y-13888476D01*
X17656524Y-13888476D02*
X17694619Y-13888476D01*
X17694619Y-13888476D02*
X17713667Y-13898000D01*
X17713667Y-13898000D02*
X17723191Y-13907524D01*
X17723191Y-13907524D02*
X17732714Y-13926571D01*
X17732714Y-13926571D02*
X17732714Y-13936095D01*
X17732714Y-13936095D02*
X17723191Y-13955143D01*
X17723191Y-13955143D02*
X17713667Y-13964667D01*
X17713667Y-13964667D02*
X17694619Y-13974190D01*
X17694619Y-13974190D02*
X17656524Y-13974190D01*
X17656524Y-13974190D02*
X17637476Y-13983714D01*
X17637476Y-13983714D02*
X17627953Y-13993238D01*
X17627953Y-13993238D02*
X17618429Y-14012286D01*
X17618429Y-14012286D02*
X17618429Y-14050381D01*
X17618429Y-14050381D02*
X17627953Y-14069428D01*
X17627953Y-14069428D02*
X17637476Y-14078952D01*
X17637476Y-14078952D02*
X17656524Y-14088476D01*
X17656524Y-14088476D02*
X17694619Y-14088476D01*
X17694619Y-14088476D02*
X17713667Y-14078952D01*
X17713667Y-14078952D02*
X17723191Y-14069428D01*
X17723191Y-14069428D02*
X17732714Y-14050381D01*
X17732714Y-14050381D02*
X17732714Y-14012286D01*
X17732714Y-14012286D02*
X17723191Y-13993238D01*
X17723191Y-13993238D02*
X17713667Y-13983714D01*
X17713667Y-13983714D02*
X17694619Y-13974190D01*
X17913667Y-13888476D02*
X17818429Y-13888476D01*
X17818429Y-13888476D02*
X17808905Y-13983714D01*
X17808905Y-13983714D02*
X17818429Y-13974190D01*
X17818429Y-13974190D02*
X17837476Y-13964667D01*
X17837476Y-13964667D02*
X17885095Y-13964667D01*
X17885095Y-13964667D02*
X17904143Y-13974190D01*
X17904143Y-13974190D02*
X17913667Y-13983714D01*
X17913667Y-13983714D02*
X17923191Y-14002762D01*
X17923191Y-14002762D02*
X17923191Y-14050381D01*
X17923191Y-14050381D02*
X17913667Y-14069428D01*
X17913667Y-14069428D02*
X17904143Y-14078952D01*
X17904143Y-14078952D02*
X17885095Y-14088476D01*
X17885095Y-14088476D02*
X17837476Y-14088476D01*
X17837476Y-14088476D02*
X17818429Y-14078952D01*
X17818429Y-14078952D02*
X17808905Y-14069428D01*
X18128905Y-14088476D02*
X18128905Y-13888476D01*
X18214619Y-14088476D02*
X18214619Y-13983714D01*
X18214619Y-13983714D02*
X18205095Y-13964667D01*
X18205095Y-13964667D02*
X18186048Y-13955143D01*
X18186048Y-13955143D02*
X18157476Y-13955143D01*
X18157476Y-13955143D02*
X18138429Y-13964667D01*
X18138429Y-13964667D02*
X18128905Y-13974190D01*
X18338429Y-14088476D02*
X18319381Y-14078952D01*
X18319381Y-14078952D02*
X18309857Y-14069428D01*
X18309857Y-14069428D02*
X18300334Y-14050381D01*
X18300334Y-14050381D02*
X18300334Y-13993238D01*
X18300334Y-13993238D02*
X18309857Y-13974190D01*
X18309857Y-13974190D02*
X18319381Y-13964667D01*
X18319381Y-13964667D02*
X18338429Y-13955143D01*
X18338429Y-13955143D02*
X18367000Y-13955143D01*
X18367000Y-13955143D02*
X18386048Y-13964667D01*
X18386048Y-13964667D02*
X18395572Y-13974190D01*
X18395572Y-13974190D02*
X18405095Y-13993238D01*
X18405095Y-13993238D02*
X18405095Y-14050381D01*
X18405095Y-14050381D02*
X18395572Y-14069428D01*
X18395572Y-14069428D02*
X18386048Y-14078952D01*
X18386048Y-14078952D02*
X18367000Y-14088476D01*
X18367000Y-14088476D02*
X18338429Y-14088476D01*
X18519381Y-14088476D02*
X18500334Y-14078952D01*
X18500334Y-14078952D02*
X18490810Y-14059905D01*
X18490810Y-14059905D02*
X18490810Y-13888476D01*
X18671762Y-14078952D02*
X18652715Y-14088476D01*
X18652715Y-14088476D02*
X18614619Y-14088476D01*
X18614619Y-14088476D02*
X18595572Y-14078952D01*
X18595572Y-14078952D02*
X18586048Y-14059905D01*
X18586048Y-14059905D02*
X18586048Y-13983714D01*
X18586048Y-13983714D02*
X18595572Y-13964667D01*
X18595572Y-13964667D02*
X18614619Y-13955143D01*
X18614619Y-13955143D02*
X18652715Y-13955143D01*
X18652715Y-13955143D02*
X18671762Y-13964667D01*
X18671762Y-13964667D02*
X18681286Y-13983714D01*
X18681286Y-13983714D02*
X18681286Y-14002762D01*
X18681286Y-14002762D02*
X18586048Y-14021809D01*
X18757476Y-14078952D02*
X18776524Y-14088476D01*
X18776524Y-14088476D02*
X18814619Y-14088476D01*
X18814619Y-14088476D02*
X18833667Y-14078952D01*
X18833667Y-14078952D02*
X18843191Y-14059905D01*
X18843191Y-14059905D02*
X18843191Y-14050381D01*
X18843191Y-14050381D02*
X18833667Y-14031333D01*
X18833667Y-14031333D02*
X18814619Y-14021809D01*
X18814619Y-14021809D02*
X18786048Y-14021809D01*
X18786048Y-14021809D02*
X18767000Y-14012286D01*
X18767000Y-14012286D02*
X18757476Y-13993238D01*
X18757476Y-13993238D02*
X18757476Y-13983714D01*
X18757476Y-13983714D02*
X18767000Y-13964667D01*
X18767000Y-13964667D02*
X18786048Y-13955143D01*
X18786048Y-13955143D02*
X18814619Y-13955143D01*
X18814619Y-13955143D02*
X18833667Y-13964667D01*
X18909857Y-14164667D02*
X18919381Y-14155143D01*
X18919381Y-14155143D02*
X18938429Y-14126571D01*
X18938429Y-14126571D02*
X18947953Y-14107524D01*
X18947953Y-14107524D02*
X18957476Y-14078952D01*
X18957476Y-14078952D02*
X18967000Y-14031333D01*
X18967000Y-14031333D02*
X18967000Y-13993238D01*
X18967000Y-13993238D02*
X18957476Y-13945619D01*
X18957476Y-13945619D02*
X18947953Y-13917048D01*
X18947953Y-13917048D02*
X18938429Y-13898000D01*
X18938429Y-13898000D02*
X18919381Y-13869428D01*
X18919381Y-13869428D02*
X18909857Y-13859905D01*
M02*
