G04 #@! TF.GenerationSoftware,KiCad,Pcbnew,(7.0.0)*
G04 #@! TF.CreationDate,2023-06-29T21:02:47+10:00*
G04 #@! TF.ProjectId,RP2040_minimal,52503230-3430-45f6-9d69-6e696d616c2e,REV1*
G04 #@! TF.SameCoordinates,Original*
G04 #@! TF.FileFunction,Copper,L4,Bot*
G04 #@! TF.FilePolarity,Positive*
%FSLAX46Y46*%
G04 Gerber Fmt 4.6, Leading zero omitted, Abs format (unit mm)*
G04 Created by KiCad (PCBNEW (7.0.0)) date 2023-06-29 21:02:47*
%MOMM*%
%LPD*%
G01*
G04 APERTURE LIST*
G04 #@! TA.AperFunction,ComponentPad*
%ADD10R,1.700000X1.700000*%
G04 #@! TD*
G04 #@! TA.AperFunction,ComponentPad*
%ADD11O,1.700000X1.700000*%
G04 #@! TD*
G04 #@! TA.AperFunction,ComponentPad*
%ADD12C,0.600000*%
G04 #@! TD*
G04 #@! TA.AperFunction,ViaPad*
%ADD13C,0.600000*%
G04 #@! TD*
G04 #@! TA.AperFunction,Conductor*
%ADD14C,0.400000*%
G04 #@! TD*
G04 #@! TA.AperFunction,Conductor*
%ADD15C,0.150000*%
G04 #@! TD*
G04 #@! TA.AperFunction,Conductor*
%ADD16C,0.230000*%
G04 #@! TD*
G04 APERTURE END LIST*
D10*
X163829999Y-119379999D03*
D11*
X163829999Y-121919999D03*
D12*
X161295000Y-101675000D03*
X161295000Y-100400000D03*
X161295000Y-99125000D03*
X160020000Y-101675000D03*
X160020000Y-100400000D03*
X160020000Y-99125000D03*
X158745000Y-101675000D03*
X158745000Y-100400000D03*
X158745000Y-99125000D03*
D10*
X152399999Y-121919999D03*
D11*
X154939999Y-121919999D03*
X157479999Y-121919999D03*
D10*
X162559999Y-81239999D03*
D11*
X162559999Y-78699999D03*
X165099999Y-81239999D03*
X165099999Y-78699999D03*
X167639999Y-81239999D03*
X167639999Y-78699999D03*
D10*
X156209999Y-81279999D03*
D11*
X153669999Y-81279999D03*
X156209999Y-78739999D03*
X153669999Y-78739999D03*
D10*
X144779999Y-78739999D03*
D11*
X147319999Y-78739999D03*
X144779999Y-81279999D03*
X147319999Y-81279999D03*
X144779999Y-83819999D03*
X147319999Y-83819999D03*
X144779999Y-86359999D03*
X147319999Y-86359999D03*
X144779999Y-88899999D03*
X147319999Y-88899999D03*
X144779999Y-91439999D03*
X147319999Y-91439999D03*
X144779999Y-93979999D03*
X147319999Y-93979999D03*
X144779999Y-96519999D03*
X147319999Y-96519999D03*
X144779999Y-99059999D03*
X147319999Y-99059999D03*
X144779999Y-101599999D03*
X147319999Y-101599999D03*
X144779999Y-104139999D03*
X147319999Y-104139999D03*
X144779999Y-106679999D03*
X147319999Y-106679999D03*
X144779999Y-109219999D03*
X147319999Y-109219999D03*
X144779999Y-111759999D03*
X147319999Y-111759999D03*
X144779999Y-114299999D03*
X147319999Y-114299999D03*
X144779999Y-116839999D03*
X147319999Y-116839999D03*
X144779999Y-119379999D03*
X147319999Y-119379999D03*
X144779999Y-121919999D03*
X147319999Y-121919999D03*
D10*
X172719999Y-78739999D03*
D11*
X175259999Y-78739999D03*
X172719999Y-81279999D03*
X175259999Y-81279999D03*
X172719999Y-83819999D03*
X175259999Y-83819999D03*
X172719999Y-86359999D03*
X175259999Y-86359999D03*
X172719999Y-88899999D03*
X175259999Y-88899999D03*
X172719999Y-91439999D03*
X175259999Y-91439999D03*
X172719999Y-93979999D03*
X175259999Y-93979999D03*
X175259999Y-96519999D03*
X175259999Y-99059999D03*
X172719999Y-101599999D03*
X175259999Y-101599999D03*
X172719999Y-104139999D03*
X175259999Y-104139999D03*
X172719999Y-106679999D03*
X175259999Y-106679999D03*
X172719999Y-109219999D03*
X175259999Y-109219999D03*
X172719999Y-111759999D03*
X175259999Y-111759999D03*
X172719999Y-114299999D03*
X175259999Y-114299999D03*
X172719999Y-116839999D03*
X175259999Y-116839999D03*
X172719999Y-119379999D03*
X175259999Y-119379999D03*
X172719999Y-121919999D03*
X175259999Y-121919999D03*
D13*
X149600000Y-82500000D03*
X157780000Y-98180000D03*
X157995030Y-108749086D03*
X158657698Y-109534822D03*
X151870022Y-102329978D03*
X150972676Y-103605429D03*
X167211041Y-102937014D03*
X165335794Y-102724500D03*
X164749503Y-96800000D03*
X165745338Y-95811342D03*
X167750325Y-95026267D03*
X168623624Y-97815750D03*
X170100000Y-119800000D03*
X161700000Y-118200000D03*
X153700000Y-104400000D03*
X152200000Y-83820000D03*
X167800000Y-84400000D03*
X167800000Y-87600000D03*
X163900000Y-91000000D03*
X159600000Y-92700000D03*
X152200000Y-87600000D03*
X167000000Y-90800000D03*
X149600000Y-78600000D03*
X161700000Y-117270000D03*
X166500000Y-103800000D03*
X161020000Y-109000000D03*
X166900000Y-99200000D03*
X158500000Y-92700000D03*
X153000000Y-99100000D03*
X163000000Y-93400000D03*
X153700000Y-103600000D03*
X157020000Y-108000000D03*
X160020000Y-109000000D03*
X166000000Y-111800000D03*
X159500000Y-91200000D03*
X156020000Y-108000000D03*
X160000000Y-84400000D03*
X159200000Y-95100000D03*
X160200000Y-105200000D03*
X159300000Y-102500000D03*
X159400000Y-98300000D03*
X153600000Y-91400000D03*
X155600000Y-91400000D03*
X157480000Y-91440000D03*
X159015749Y-108876376D03*
X158020000Y-108000000D03*
X152400000Y-101800000D03*
X151520665Y-103094096D03*
X164586304Y-102728892D03*
X166500000Y-102700000D03*
X168000000Y-97400000D03*
X168400000Y-95400000D03*
X164000000Y-96800000D03*
X166376376Y-96215749D03*
D14*
X149600000Y-82500000D02*
X149600000Y-80000000D01*
X149600000Y-80000000D02*
X150400000Y-80000000D01*
X146040000Y-80000000D02*
X149600000Y-80000000D01*
X144780000Y-78740000D02*
X146040000Y-80000000D01*
X151300000Y-79100000D02*
X151300000Y-77800000D01*
X150400000Y-80000000D02*
X151300000Y-79100000D01*
X160860000Y-77000000D02*
X162560000Y-78700000D01*
X152100000Y-77000000D02*
X160860000Y-77000000D01*
X151300000Y-77800000D02*
X152100000Y-77000000D01*
D15*
X165100000Y-95700000D02*
X165100000Y-81240000D01*
X164000000Y-96800000D02*
X165100000Y-95700000D01*
X166400000Y-80000000D02*
X165100000Y-78700000D01*
X166376376Y-96215749D02*
X166400000Y-96192125D01*
X166400000Y-96192125D02*
X166400000Y-80000000D01*
X169400000Y-96000000D02*
X169400000Y-80460000D01*
X169400000Y-80460000D02*
X167640000Y-78700000D01*
X168000000Y-97400000D02*
X169400000Y-96000000D01*
X168400000Y-95400000D02*
X168400000Y-82000000D01*
X168400000Y-82000000D02*
X167640000Y-81240000D01*
D14*
X149600000Y-90000000D02*
X149600000Y-82500000D01*
X157780000Y-98180000D02*
X149600000Y-90000000D01*
D16*
X174180000Y-97600000D02*
X175260000Y-96520000D01*
X171431298Y-97600000D02*
X174180000Y-97600000D01*
X170110000Y-98921298D02*
X171431298Y-97600000D01*
X170110000Y-103621298D02*
X170110000Y-98921298D01*
X165731298Y-108000000D02*
X170110000Y-103621298D01*
X158020000Y-108000000D02*
X165731298Y-108000000D01*
X174180000Y-97980000D02*
X175260000Y-99060000D01*
X171588702Y-97980000D02*
X174180000Y-97980000D01*
X159015749Y-108876376D02*
X159512125Y-108380000D01*
X159512125Y-108380000D02*
X165888700Y-108380000D01*
X165888700Y-108380000D02*
X170490000Y-103778700D01*
X170490000Y-103778700D02*
X170490000Y-99078702D01*
X170490000Y-99078702D02*
X171588702Y-97980000D01*
D15*
X153670000Y-91330000D02*
X153670000Y-81280000D01*
X153600000Y-91400000D02*
X153670000Y-91330000D01*
X157480000Y-91440000D02*
X157480000Y-80010000D01*
X157480000Y-80010000D02*
X156210000Y-78740000D01*
X154800000Y-82600000D02*
X154800000Y-79870000D01*
X155600000Y-83400000D02*
X154800000Y-82600000D01*
X154800000Y-79870000D02*
X153670000Y-78740000D01*
X155600000Y-91400000D02*
X155600000Y-83400000D01*
X151400000Y-101200000D02*
X151400000Y-93000000D01*
X152400000Y-101800000D02*
X152000000Y-101800000D01*
X146080000Y-90200000D02*
X144780000Y-88900000D01*
X152000000Y-101800000D02*
X151400000Y-101200000D01*
X148600000Y-90200000D02*
X146080000Y-90200000D01*
X151400000Y-93000000D02*
X148600000Y-90200000D01*
X147600000Y-120800000D02*
X145900000Y-120800000D01*
X155700000Y-105900000D02*
X148800000Y-112800000D01*
X148800000Y-119600000D02*
X147600000Y-120800000D01*
X162200000Y-105900000D02*
X155700000Y-105900000D01*
X145900000Y-120800000D02*
X144780000Y-121920000D01*
X164586304Y-103513696D02*
X162200000Y-105900000D01*
X164586304Y-102728892D02*
X164586304Y-103513696D01*
X148800000Y-112800000D02*
X148800000Y-119600000D01*
X149400000Y-119840000D02*
X147320000Y-121920000D01*
X149400000Y-113024264D02*
X149400000Y-119840000D01*
X162600000Y-106600000D02*
X155824264Y-106600000D01*
X155824264Y-106600000D02*
X149400000Y-113024264D01*
X166500000Y-102700000D02*
X162600000Y-106600000D01*
X146140000Y-92800000D02*
X144780000Y-91440000D01*
X150800000Y-94800000D02*
X148800000Y-92800000D01*
X148800000Y-92800000D02*
X146140000Y-92800000D01*
X151520665Y-103094096D02*
X150800000Y-102373431D01*
X150800000Y-102373431D02*
X150800000Y-94800000D01*
D14*
X160200000Y-103400000D02*
X160200000Y-105200000D01*
X159300000Y-102500000D02*
X160200000Y-103400000D01*
X159400000Y-98300000D02*
X159400000Y-95300000D01*
X159400000Y-95300000D02*
X159200000Y-95100000D01*
M02*
