G04 #@! TF.GenerationSoftware,KiCad,Pcbnew,(7.0.0)*
G04 #@! TF.CreationDate,2023-06-23T19:03:52+10:00*
G04 #@! TF.ProjectId,RP2040_minimal,52503230-3430-45f6-9d69-6e696d616c2e,REV1*
G04 #@! TF.SameCoordinates,Original*
G04 #@! TF.FileFunction,Paste,Bot*
G04 #@! TF.FilePolarity,Positive*
%FSLAX46Y46*%
G04 Gerber Fmt 4.6, Leading zero omitted, Abs format (unit mm)*
G04 Created by KiCad (PCBNEW (7.0.0)) date 2023-06-23 19:03:52*
%MOMM*%
%LPD*%
G01*
G04 APERTURE LIST*
G04 Aperture macros list*
%AMRoundRect*
0 Rectangle with rounded corners*
0 $1 Rounding radius*
0 $2 $3 $4 $5 $6 $7 $8 $9 X,Y pos of 4 corners*
0 Add a 4 corners polygon primitive as box body*
4,1,4,$2,$3,$4,$5,$6,$7,$8,$9,$2,$3,0*
0 Add four circle primitives for the rounded corners*
1,1,$1+$1,$2,$3*
1,1,$1+$1,$4,$5*
1,1,$1+$1,$6,$7*
1,1,$1+$1,$8,$9*
0 Add four rect primitives between the rounded corners*
20,1,$1+$1,$2,$3,$4,$5,0*
20,1,$1+$1,$4,$5,$6,$7,0*
20,1,$1+$1,$6,$7,$8,$9,0*
20,1,$1+$1,$8,$9,$2,$3,0*%
G04 Aperture macros list end*
%ADD10RoundRect,0.150000X-0.650000X-0.150000X0.650000X-0.150000X0.650000X0.150000X-0.650000X0.150000X0*%
%ADD11RoundRect,0.140000X0.170000X-0.140000X0.170000X0.140000X-0.170000X0.140000X-0.170000X-0.140000X0*%
%ADD12RoundRect,0.140000X0.140000X0.170000X-0.140000X0.170000X-0.140000X-0.170000X0.140000X-0.170000X0*%
%ADD13RoundRect,0.140000X-0.170000X0.140000X-0.170000X-0.140000X0.170000X-0.140000X0.170000X0.140000X0*%
%ADD14RoundRect,0.140000X-0.140000X-0.170000X0.140000X-0.170000X0.140000X0.170000X-0.140000X0.170000X0*%
%ADD15RoundRect,0.250000X-0.292217X-0.292217X0.292217X-0.292217X0.292217X0.292217X-0.292217X0.292217X0*%
%ADD16RoundRect,0.050000X-0.387500X-0.050000X0.387500X-0.050000X0.387500X0.050000X-0.387500X0.050000X0*%
%ADD17RoundRect,0.050000X-0.050000X-0.387500X0.050000X-0.387500X0.050000X0.387500X-0.050000X0.387500X0*%
%ADD18R,5.600000X2.100000*%
%ADD19RoundRect,0.250000X0.475000X-0.250000X0.475000X0.250000X-0.475000X0.250000X-0.475000X-0.250000X0*%
G04 APERTURE END LIST*
D10*
X153185511Y-114444489D03*
X153185511Y-113174489D03*
X153185511Y-111904489D03*
X153185511Y-110634489D03*
X160385511Y-110634489D03*
X160385511Y-111904489D03*
X160385511Y-113174489D03*
X160385511Y-114444489D03*
D11*
X153235511Y-117979489D03*
X153235511Y-117019489D03*
D12*
X160400511Y-116984489D03*
X159440511Y-116984489D03*
X154091000Y-97682000D03*
X153131000Y-97682000D03*
D13*
X163096000Y-104887000D03*
X163096000Y-105847000D03*
X164096000Y-104887000D03*
X164096000Y-105847000D03*
D14*
X160061000Y-89882000D03*
X159101000Y-89882000D03*
D13*
X154735511Y-117019489D03*
X154735511Y-117979489D03*
X160096000Y-105887000D03*
X160096000Y-106847000D03*
D14*
X166101000Y-97682000D03*
X167061000Y-97682000D03*
D11*
X160477000Y-92877000D03*
X160477000Y-91917000D03*
X161096000Y-105847000D03*
X161096000Y-104887000D03*
X161596000Y-92877000D03*
X161596000Y-91917000D03*
D12*
X154711000Y-102530000D03*
X153751000Y-102530000D03*
D15*
X159458500Y-99519500D03*
X159458500Y-98244500D03*
X160733500Y-99519500D03*
X160733500Y-98244500D03*
D16*
X156658500Y-101482000D03*
X156658500Y-101082000D03*
X156658500Y-100682000D03*
X156658500Y-100282000D03*
X156658500Y-99882000D03*
X156658500Y-99482000D03*
X156658500Y-99082000D03*
X156658500Y-98682000D03*
X156658500Y-98282000D03*
X156658500Y-97882000D03*
X156658500Y-97482000D03*
X156658500Y-97082000D03*
X156658500Y-96682000D03*
X156658500Y-96282000D03*
D17*
X157496000Y-95444500D03*
X157896000Y-95444500D03*
X158296000Y-95444500D03*
X158696000Y-95444500D03*
X159096000Y-95444500D03*
X159496000Y-95444500D03*
X159896000Y-95444500D03*
X160296000Y-95444500D03*
X160696000Y-95444500D03*
X161096000Y-95444500D03*
X161496000Y-95444500D03*
X161896000Y-95444500D03*
X162296000Y-95444500D03*
X162696000Y-95444500D03*
D16*
X163533500Y-96282000D03*
X163533500Y-96682000D03*
X163533500Y-97082000D03*
X163533500Y-97482000D03*
X163533500Y-97882000D03*
X163533500Y-98282000D03*
X163533500Y-98682000D03*
X163533500Y-99082000D03*
X163533500Y-99482000D03*
X163533500Y-99882000D03*
X163533500Y-100282000D03*
X163533500Y-100682000D03*
X163533500Y-101082000D03*
X163533500Y-101482000D03*
D17*
X162696000Y-102319500D03*
X162296000Y-102319500D03*
X161896000Y-102319500D03*
X161496000Y-102319500D03*
X161096000Y-102319500D03*
X160696000Y-102319500D03*
X160296000Y-102319500D03*
X159896000Y-102319500D03*
X159496000Y-102319500D03*
X159096000Y-102319500D03*
X158696000Y-102319500D03*
X158296000Y-102319500D03*
X157896000Y-102319500D03*
X157496000Y-102319500D03*
D12*
X157091000Y-89882000D03*
X156131000Y-89882000D03*
D11*
X162096000Y-105847000D03*
X162096000Y-104887000D03*
D13*
X159096000Y-105887000D03*
X159096000Y-106847000D03*
D14*
X164950000Y-102784000D03*
X165910000Y-102784000D03*
D11*
X158796000Y-92247000D03*
X158796000Y-91287000D03*
D18*
X162436999Y-85765999D03*
X153436999Y-85765999D03*
D19*
X169494000Y-119482000D03*
X169494000Y-117582000D03*
M02*
