G04 #@! TF.GenerationSoftware,KiCad,Pcbnew,(7.0.0)*
G04 #@! TF.CreationDate,2023-06-29T21:02:47+10:00*
G04 #@! TF.ProjectId,RP2040_minimal,52503230-3430-45f6-9d69-6e696d616c2e,REV1*
G04 #@! TF.SameCoordinates,Original*
G04 #@! TF.FileFunction,Legend,Top*
G04 #@! TF.FilePolarity,Positive*
%FSLAX46Y46*%
G04 Gerber Fmt 4.6, Leading zero omitted, Abs format (unit mm)*
G04 Created by KiCad (PCBNEW (7.0.0)) date 2023-06-29 21:02:47*
%MOMM*%
%LPD*%
G01*
G04 APERTURE LIST*
G04 Aperture macros list*
%AMRoundRect*
0 Rectangle with rounded corners*
0 $1 Rounding radius*
0 $2 $3 $4 $5 $6 $7 $8 $9 X,Y pos of 4 corners*
0 Add a 4 corners polygon primitive as box body*
4,1,4,$2,$3,$4,$5,$6,$7,$8,$9,$2,$3,0*
0 Add four circle primitives for the rounded corners*
1,1,$1+$1,$2,$3*
1,1,$1+$1,$4,$5*
1,1,$1+$1,$6,$7*
1,1,$1+$1,$8,$9*
0 Add four rect primitives between the rounded corners*
20,1,$1+$1,$2,$3,$4,$5,0*
20,1,$1+$1,$4,$5,$6,$7,0*
20,1,$1+$1,$6,$7,$8,$9,0*
20,1,$1+$1,$8,$9,$2,$3,0*%
%AMRotRect*
0 Rectangle, with rotation*
0 The origin of the aperture is its center*
0 $1 length*
0 $2 width*
0 $3 Rotation angle, in degrees counterclockwise*
0 Add horizontal line*
21,1,$1,$2,0,0,$3*%
G04 Aperture macros list end*
%ADD10C,0.150000*%
%ADD11C,0.100000*%
%ADD12C,0.120000*%
%ADD13C,0.200000*%
%ADD14C,0.380000*%
%ADD15RoundRect,0.140000X-0.140000X-0.170000X0.140000X-0.170000X0.140000X0.170000X-0.140000X0.170000X0*%
%ADD16RoundRect,0.250000X0.475000X-0.250000X0.475000X0.250000X-0.475000X0.250000X-0.475000X-0.250000X0*%
%ADD17RoundRect,0.135000X0.185000X-0.135000X0.185000X0.135000X-0.185000X0.135000X-0.185000X-0.135000X0*%
%ADD18RoundRect,0.140000X0.140000X0.170000X-0.140000X0.170000X-0.140000X-0.170000X0.140000X-0.170000X0*%
%ADD19R,1.700000X1.700000*%
%ADD20O,1.700000X1.700000*%
%ADD21RoundRect,0.140000X-0.170000X0.140000X-0.170000X-0.140000X0.170000X-0.140000X0.170000X0.140000X0*%
%ADD22RoundRect,0.150000X0.650000X0.150000X-0.650000X0.150000X-0.650000X-0.150000X0.650000X-0.150000X0*%
%ADD23RoundRect,0.135000X-0.185000X0.135000X-0.185000X-0.135000X0.185000X-0.135000X0.185000X0.135000X0*%
%ADD24RoundRect,0.140000X0.170000X-0.140000X0.170000X0.140000X-0.170000X0.140000X-0.170000X-0.140000X0*%
%ADD25RoundRect,0.050000X0.387500X0.050000X-0.387500X0.050000X-0.387500X-0.050000X0.387500X-0.050000X0*%
%ADD26RoundRect,0.050000X0.050000X0.387500X-0.050000X0.387500X-0.050000X-0.387500X0.050000X-0.387500X0*%
%ADD27RoundRect,0.144000X1.456000X1.456000X-1.456000X1.456000X-1.456000X-1.456000X1.456000X-1.456000X0*%
%ADD28R,4.760000X2.100000*%
%ADD29RotRect,1.200000X1.400000X45.000000*%
%ADD30C,1.000000*%
G04 APERTURE END LIST*
D10*
X153561905Y-124681666D02*
X154038095Y-124681666D01*
X153466667Y-124967380D02*
X153800000Y-123967380D01*
X153800000Y-123967380D02*
X154133333Y-124967380D01*
X154466667Y-124967380D02*
X154466667Y-123967380D01*
X154466667Y-123967380D02*
X154704762Y-123967380D01*
X154704762Y-123967380D02*
X154847619Y-124015000D01*
X154847619Y-124015000D02*
X154942857Y-124110238D01*
X154942857Y-124110238D02*
X154990476Y-124205476D01*
X154990476Y-124205476D02*
X155038095Y-124395952D01*
X155038095Y-124395952D02*
X155038095Y-124538809D01*
X155038095Y-124538809D02*
X154990476Y-124729285D01*
X154990476Y-124729285D02*
X154942857Y-124824523D01*
X154942857Y-124824523D02*
X154847619Y-124919761D01*
X154847619Y-124919761D02*
X154704762Y-124967380D01*
X154704762Y-124967380D02*
X154466667Y-124967380D01*
X156038095Y-124872142D02*
X155990476Y-124919761D01*
X155990476Y-124919761D02*
X155847619Y-124967380D01*
X155847619Y-124967380D02*
X155752381Y-124967380D01*
X155752381Y-124967380D02*
X155609524Y-124919761D01*
X155609524Y-124919761D02*
X155514286Y-124824523D01*
X155514286Y-124824523D02*
X155466667Y-124729285D01*
X155466667Y-124729285D02*
X155419048Y-124538809D01*
X155419048Y-124538809D02*
X155419048Y-124395952D01*
X155419048Y-124395952D02*
X155466667Y-124205476D01*
X155466667Y-124205476D02*
X155514286Y-124110238D01*
X155514286Y-124110238D02*
X155609524Y-124015000D01*
X155609524Y-124015000D02*
X155752381Y-123967380D01*
X155752381Y-123967380D02*
X155847619Y-123967380D01*
X155847619Y-123967380D02*
X155990476Y-124015000D01*
X155990476Y-124015000D02*
X156038095Y-124062619D01*
X164000000Y-75815000D02*
X163904762Y-75767380D01*
X163904762Y-75767380D02*
X163761905Y-75767380D01*
X163761905Y-75767380D02*
X163619048Y-75815000D01*
X163619048Y-75815000D02*
X163523810Y-75910238D01*
X163523810Y-75910238D02*
X163476191Y-76005476D01*
X163476191Y-76005476D02*
X163428572Y-76195952D01*
X163428572Y-76195952D02*
X163428572Y-76338809D01*
X163428572Y-76338809D02*
X163476191Y-76529285D01*
X163476191Y-76529285D02*
X163523810Y-76624523D01*
X163523810Y-76624523D02*
X163619048Y-76719761D01*
X163619048Y-76719761D02*
X163761905Y-76767380D01*
X163761905Y-76767380D02*
X163857143Y-76767380D01*
X163857143Y-76767380D02*
X164000000Y-76719761D01*
X164000000Y-76719761D02*
X164047619Y-76672142D01*
X164047619Y-76672142D02*
X164047619Y-76338809D01*
X164047619Y-76338809D02*
X163857143Y-76338809D01*
X164476191Y-76767380D02*
X164476191Y-75767380D01*
X164476191Y-75767380D02*
X164857143Y-75767380D01*
X164857143Y-75767380D02*
X164952381Y-75815000D01*
X164952381Y-75815000D02*
X165000000Y-75862619D01*
X165000000Y-75862619D02*
X165047619Y-75957857D01*
X165047619Y-75957857D02*
X165047619Y-76100714D01*
X165047619Y-76100714D02*
X165000000Y-76195952D01*
X165000000Y-76195952D02*
X164952381Y-76243571D01*
X164952381Y-76243571D02*
X164857143Y-76291190D01*
X164857143Y-76291190D02*
X164476191Y-76291190D01*
X165476191Y-76767380D02*
X165476191Y-75767380D01*
X166142857Y-75767380D02*
X166333333Y-75767380D01*
X166333333Y-75767380D02*
X166428571Y-75815000D01*
X166428571Y-75815000D02*
X166523809Y-75910238D01*
X166523809Y-75910238D02*
X166571428Y-76100714D01*
X166571428Y-76100714D02*
X166571428Y-76434047D01*
X166571428Y-76434047D02*
X166523809Y-76624523D01*
X166523809Y-76624523D02*
X166428571Y-76719761D01*
X166428571Y-76719761D02*
X166333333Y-76767380D01*
X166333333Y-76767380D02*
X166142857Y-76767380D01*
X166142857Y-76767380D02*
X166047619Y-76719761D01*
X166047619Y-76719761D02*
X165952381Y-76624523D01*
X165952381Y-76624523D02*
X165904762Y-76434047D01*
X165904762Y-76434047D02*
X165904762Y-76100714D01*
X165904762Y-76100714D02*
X165952381Y-75910238D01*
X165952381Y-75910238D02*
X166047619Y-75815000D01*
X166047619Y-75815000D02*
X166142857Y-75767380D01*
X153642857Y-76719761D02*
X153785714Y-76767380D01*
X153785714Y-76767380D02*
X154023809Y-76767380D01*
X154023809Y-76767380D02*
X154119047Y-76719761D01*
X154119047Y-76719761D02*
X154166666Y-76672142D01*
X154166666Y-76672142D02*
X154214285Y-76576904D01*
X154214285Y-76576904D02*
X154214285Y-76481666D01*
X154214285Y-76481666D02*
X154166666Y-76386428D01*
X154166666Y-76386428D02*
X154119047Y-76338809D01*
X154119047Y-76338809D02*
X154023809Y-76291190D01*
X154023809Y-76291190D02*
X153833333Y-76243571D01*
X153833333Y-76243571D02*
X153738095Y-76195952D01*
X153738095Y-76195952D02*
X153690476Y-76148333D01*
X153690476Y-76148333D02*
X153642857Y-76053095D01*
X153642857Y-76053095D02*
X153642857Y-75957857D01*
X153642857Y-75957857D02*
X153690476Y-75862619D01*
X153690476Y-75862619D02*
X153738095Y-75815000D01*
X153738095Y-75815000D02*
X153833333Y-75767380D01*
X153833333Y-75767380D02*
X154071428Y-75767380D01*
X154071428Y-75767380D02*
X154214285Y-75815000D01*
X154547619Y-75767380D02*
X154785714Y-76767380D01*
X154785714Y-76767380D02*
X154976190Y-76053095D01*
X154976190Y-76053095D02*
X155166666Y-76767380D01*
X155166666Y-76767380D02*
X155404762Y-75767380D01*
X155785714Y-76767380D02*
X155785714Y-75767380D01*
X155785714Y-75767380D02*
X156023809Y-75767380D01*
X156023809Y-75767380D02*
X156166666Y-75815000D01*
X156166666Y-75815000D02*
X156261904Y-75910238D01*
X156261904Y-75910238D02*
X156309523Y-76005476D01*
X156309523Y-76005476D02*
X156357142Y-76195952D01*
X156357142Y-76195952D02*
X156357142Y-76338809D01*
X156357142Y-76338809D02*
X156309523Y-76529285D01*
X156309523Y-76529285D02*
X156261904Y-76624523D01*
X156261904Y-76624523D02*
X156166666Y-76719761D01*
X156166666Y-76719761D02*
X156023809Y-76767380D01*
X156023809Y-76767380D02*
X155785714Y-76767380D01*
D11*
X145349357Y-123731428D02*
X145349357Y-124288571D01*
X145349357Y-124288571D02*
X145006500Y-123988571D01*
X145006500Y-123988571D02*
X145006500Y-124117142D01*
X145006500Y-124117142D02*
X144963642Y-124202857D01*
X144963642Y-124202857D02*
X144920785Y-124245714D01*
X144920785Y-124245714D02*
X144835071Y-124288571D01*
X144835071Y-124288571D02*
X144620785Y-124288571D01*
X144620785Y-124288571D02*
X144535071Y-124245714D01*
X144535071Y-124245714D02*
X144492214Y-124202857D01*
X144492214Y-124202857D02*
X144449357Y-124117142D01*
X144449357Y-124117142D02*
X144449357Y-123859999D01*
X144449357Y-123859999D02*
X144492214Y-123774285D01*
X144492214Y-123774285D02*
X144535071Y-123731428D01*
X145349357Y-125102857D02*
X145349357Y-124674285D01*
X145349357Y-124674285D02*
X144920785Y-124631428D01*
X144920785Y-124631428D02*
X144963642Y-124674285D01*
X144963642Y-124674285D02*
X145006500Y-124760000D01*
X145006500Y-124760000D02*
X145006500Y-124974285D01*
X145006500Y-124974285D02*
X144963642Y-125060000D01*
X144963642Y-125060000D02*
X144920785Y-125102857D01*
X144920785Y-125102857D02*
X144835071Y-125145714D01*
X144835071Y-125145714D02*
X144620785Y-125145714D01*
X144620785Y-125145714D02*
X144535071Y-125102857D01*
X144535071Y-125102857D02*
X144492214Y-125060000D01*
X144492214Y-125060000D02*
X144449357Y-124974285D01*
X144449357Y-124974285D02*
X144449357Y-124760000D01*
X144449357Y-124760000D02*
X144492214Y-124674285D01*
X144492214Y-124674285D02*
X144535071Y-124631428D01*
X175743642Y-76342857D02*
X175786500Y-76385714D01*
X175786500Y-76385714D02*
X175829357Y-76471429D01*
X175829357Y-76471429D02*
X175829357Y-76685714D01*
X175829357Y-76685714D02*
X175786500Y-76771429D01*
X175786500Y-76771429D02*
X175743642Y-76814286D01*
X175743642Y-76814286D02*
X175657928Y-76857143D01*
X175657928Y-76857143D02*
X175572214Y-76857143D01*
X175572214Y-76857143D02*
X175443642Y-76814286D01*
X175443642Y-76814286D02*
X174929357Y-76300000D01*
X174929357Y-76300000D02*
X174929357Y-76857143D01*
X173289357Y-123731428D02*
X173289357Y-124288571D01*
X173289357Y-124288571D02*
X172946500Y-123988571D01*
X172946500Y-123988571D02*
X172946500Y-124117142D01*
X172946500Y-124117142D02*
X172903642Y-124202857D01*
X172903642Y-124202857D02*
X172860785Y-124245714D01*
X172860785Y-124245714D02*
X172775071Y-124288571D01*
X172775071Y-124288571D02*
X172560785Y-124288571D01*
X172560785Y-124288571D02*
X172475071Y-124245714D01*
X172475071Y-124245714D02*
X172432214Y-124202857D01*
X172432214Y-124202857D02*
X172389357Y-124117142D01*
X172389357Y-124117142D02*
X172389357Y-123859999D01*
X172389357Y-123859999D02*
X172432214Y-123774285D01*
X172432214Y-123774285D02*
X172475071Y-123731428D01*
X173289357Y-125102857D02*
X173289357Y-124674285D01*
X173289357Y-124674285D02*
X172860785Y-124631428D01*
X172860785Y-124631428D02*
X172903642Y-124674285D01*
X172903642Y-124674285D02*
X172946500Y-124760000D01*
X172946500Y-124760000D02*
X172946500Y-124974285D01*
X172946500Y-124974285D02*
X172903642Y-125060000D01*
X172903642Y-125060000D02*
X172860785Y-125102857D01*
X172860785Y-125102857D02*
X172775071Y-125145714D01*
X172775071Y-125145714D02*
X172560785Y-125145714D01*
X172560785Y-125145714D02*
X172475071Y-125102857D01*
X172475071Y-125102857D02*
X172432214Y-125060000D01*
X172432214Y-125060000D02*
X172389357Y-124974285D01*
X172389357Y-124974285D02*
X172389357Y-124760000D01*
X172389357Y-124760000D02*
X172432214Y-124674285D01*
X172432214Y-124674285D02*
X172475071Y-124631428D01*
X147889357Y-123731428D02*
X147889357Y-124288571D01*
X147889357Y-124288571D02*
X147546500Y-123988571D01*
X147546500Y-123988571D02*
X147546500Y-124117142D01*
X147546500Y-124117142D02*
X147503642Y-124202857D01*
X147503642Y-124202857D02*
X147460785Y-124245714D01*
X147460785Y-124245714D02*
X147375071Y-124288571D01*
X147375071Y-124288571D02*
X147160785Y-124288571D01*
X147160785Y-124288571D02*
X147075071Y-124245714D01*
X147075071Y-124245714D02*
X147032214Y-124202857D01*
X147032214Y-124202857D02*
X146989357Y-124117142D01*
X146989357Y-124117142D02*
X146989357Y-123859999D01*
X146989357Y-123859999D02*
X147032214Y-123774285D01*
X147032214Y-123774285D02*
X147075071Y-123731428D01*
X147889357Y-125060000D02*
X147889357Y-124888571D01*
X147889357Y-124888571D02*
X147846500Y-124802857D01*
X147846500Y-124802857D02*
X147803642Y-124760000D01*
X147803642Y-124760000D02*
X147675071Y-124674285D01*
X147675071Y-124674285D02*
X147503642Y-124631428D01*
X147503642Y-124631428D02*
X147160785Y-124631428D01*
X147160785Y-124631428D02*
X147075071Y-124674285D01*
X147075071Y-124674285D02*
X147032214Y-124717142D01*
X147032214Y-124717142D02*
X146989357Y-124802857D01*
X146989357Y-124802857D02*
X146989357Y-124974285D01*
X146989357Y-124974285D02*
X147032214Y-125060000D01*
X147032214Y-125060000D02*
X147075071Y-125102857D01*
X147075071Y-125102857D02*
X147160785Y-125145714D01*
X147160785Y-125145714D02*
X147375071Y-125145714D01*
X147375071Y-125145714D02*
X147460785Y-125102857D01*
X147460785Y-125102857D02*
X147503642Y-125060000D01*
X147503642Y-125060000D02*
X147546500Y-124974285D01*
X147546500Y-124974285D02*
X147546500Y-124802857D01*
X147546500Y-124802857D02*
X147503642Y-124717142D01*
X147503642Y-124717142D02*
X147460785Y-124674285D01*
X147460785Y-124674285D02*
X147375071Y-124631428D01*
X175829357Y-123731428D02*
X175829357Y-124288571D01*
X175829357Y-124288571D02*
X175486500Y-123988571D01*
X175486500Y-123988571D02*
X175486500Y-124117142D01*
X175486500Y-124117142D02*
X175443642Y-124202857D01*
X175443642Y-124202857D02*
X175400785Y-124245714D01*
X175400785Y-124245714D02*
X175315071Y-124288571D01*
X175315071Y-124288571D02*
X175100785Y-124288571D01*
X175100785Y-124288571D02*
X175015071Y-124245714D01*
X175015071Y-124245714D02*
X174972214Y-124202857D01*
X174972214Y-124202857D02*
X174929357Y-124117142D01*
X174929357Y-124117142D02*
X174929357Y-123859999D01*
X174929357Y-123859999D02*
X174972214Y-123774285D01*
X174972214Y-123774285D02*
X175015071Y-123731428D01*
X175829357Y-125060000D02*
X175829357Y-124888571D01*
X175829357Y-124888571D02*
X175786500Y-124802857D01*
X175786500Y-124802857D02*
X175743642Y-124760000D01*
X175743642Y-124760000D02*
X175615071Y-124674285D01*
X175615071Y-124674285D02*
X175443642Y-124631428D01*
X175443642Y-124631428D02*
X175100785Y-124631428D01*
X175100785Y-124631428D02*
X175015071Y-124674285D01*
X175015071Y-124674285D02*
X174972214Y-124717142D01*
X174972214Y-124717142D02*
X174929357Y-124802857D01*
X174929357Y-124802857D02*
X174929357Y-124974285D01*
X174929357Y-124974285D02*
X174972214Y-125060000D01*
X174972214Y-125060000D02*
X175015071Y-125102857D01*
X175015071Y-125102857D02*
X175100785Y-125145714D01*
X175100785Y-125145714D02*
X175315071Y-125145714D01*
X175315071Y-125145714D02*
X175400785Y-125102857D01*
X175400785Y-125102857D02*
X175443642Y-125060000D01*
X175443642Y-125060000D02*
X175486500Y-124974285D01*
X175486500Y-124974285D02*
X175486500Y-124802857D01*
X175486500Y-124802857D02*
X175443642Y-124717142D01*
X175443642Y-124717142D02*
X175400785Y-124674285D01*
X175400785Y-124674285D02*
X175315071Y-124631428D01*
D10*
X150167380Y-114295238D02*
X149691190Y-114628571D01*
X150167380Y-114866666D02*
X149167380Y-114866666D01*
X149167380Y-114866666D02*
X149167380Y-114485714D01*
X149167380Y-114485714D02*
X149215000Y-114390476D01*
X149215000Y-114390476D02*
X149262619Y-114342857D01*
X149262619Y-114342857D02*
X149357857Y-114295238D01*
X149357857Y-114295238D02*
X149500714Y-114295238D01*
X149500714Y-114295238D02*
X149595952Y-114342857D01*
X149595952Y-114342857D02*
X149643571Y-114390476D01*
X149643571Y-114390476D02*
X149691190Y-114485714D01*
X149691190Y-114485714D02*
X149691190Y-114866666D01*
X150167380Y-113866666D02*
X149167380Y-113866666D01*
X149167380Y-113866666D02*
X149167380Y-113485714D01*
X149167380Y-113485714D02*
X149215000Y-113390476D01*
X149215000Y-113390476D02*
X149262619Y-113342857D01*
X149262619Y-113342857D02*
X149357857Y-113295238D01*
X149357857Y-113295238D02*
X149500714Y-113295238D01*
X149500714Y-113295238D02*
X149595952Y-113342857D01*
X149595952Y-113342857D02*
X149643571Y-113390476D01*
X149643571Y-113390476D02*
X149691190Y-113485714D01*
X149691190Y-113485714D02*
X149691190Y-113866666D01*
X149262619Y-112914285D02*
X149215000Y-112866666D01*
X149215000Y-112866666D02*
X149167380Y-112771428D01*
X149167380Y-112771428D02*
X149167380Y-112533333D01*
X149167380Y-112533333D02*
X149215000Y-112438095D01*
X149215000Y-112438095D02*
X149262619Y-112390476D01*
X149262619Y-112390476D02*
X149357857Y-112342857D01*
X149357857Y-112342857D02*
X149453095Y-112342857D01*
X149453095Y-112342857D02*
X149595952Y-112390476D01*
X149595952Y-112390476D02*
X150167380Y-112961904D01*
X150167380Y-112961904D02*
X150167380Y-112342857D01*
X149167380Y-111723809D02*
X149167380Y-111628571D01*
X149167380Y-111628571D02*
X149215000Y-111533333D01*
X149215000Y-111533333D02*
X149262619Y-111485714D01*
X149262619Y-111485714D02*
X149357857Y-111438095D01*
X149357857Y-111438095D02*
X149548333Y-111390476D01*
X149548333Y-111390476D02*
X149786428Y-111390476D01*
X149786428Y-111390476D02*
X149976904Y-111438095D01*
X149976904Y-111438095D02*
X150072142Y-111485714D01*
X150072142Y-111485714D02*
X150119761Y-111533333D01*
X150119761Y-111533333D02*
X150167380Y-111628571D01*
X150167380Y-111628571D02*
X150167380Y-111723809D01*
X150167380Y-111723809D02*
X150119761Y-111819047D01*
X150119761Y-111819047D02*
X150072142Y-111866666D01*
X150072142Y-111866666D02*
X149976904Y-111914285D01*
X149976904Y-111914285D02*
X149786428Y-111961904D01*
X149786428Y-111961904D02*
X149548333Y-111961904D01*
X149548333Y-111961904D02*
X149357857Y-111914285D01*
X149357857Y-111914285D02*
X149262619Y-111866666D01*
X149262619Y-111866666D02*
X149215000Y-111819047D01*
X149215000Y-111819047D02*
X149167380Y-111723809D01*
X149500714Y-110533333D02*
X150167380Y-110533333D01*
X149119761Y-110771428D02*
X149834047Y-111009523D01*
X149834047Y-111009523D02*
X149834047Y-110390476D01*
X149167380Y-109819047D02*
X149167380Y-109723809D01*
X149167380Y-109723809D02*
X149215000Y-109628571D01*
X149215000Y-109628571D02*
X149262619Y-109580952D01*
X149262619Y-109580952D02*
X149357857Y-109533333D01*
X149357857Y-109533333D02*
X149548333Y-109485714D01*
X149548333Y-109485714D02*
X149786428Y-109485714D01*
X149786428Y-109485714D02*
X149976904Y-109533333D01*
X149976904Y-109533333D02*
X150072142Y-109580952D01*
X150072142Y-109580952D02*
X150119761Y-109628571D01*
X150119761Y-109628571D02*
X150167380Y-109723809D01*
X150167380Y-109723809D02*
X150167380Y-109819047D01*
X150167380Y-109819047D02*
X150119761Y-109914285D01*
X150119761Y-109914285D02*
X150072142Y-109961904D01*
X150072142Y-109961904D02*
X149976904Y-110009523D01*
X149976904Y-110009523D02*
X149786428Y-110057142D01*
X149786428Y-110057142D02*
X149548333Y-110057142D01*
X149548333Y-110057142D02*
X149357857Y-110009523D01*
X149357857Y-110009523D02*
X149262619Y-109961904D01*
X149262619Y-109961904D02*
X149215000Y-109914285D01*
X149215000Y-109914285D02*
X149167380Y-109819047D01*
D11*
X172389357Y-76857143D02*
X172389357Y-76342857D01*
X172389357Y-76600000D02*
X173289357Y-76600000D01*
X173289357Y-76600000D02*
X173160785Y-76514286D01*
X173160785Y-76514286D02*
X173075071Y-76428571D01*
X173075071Y-76428571D02*
X173032214Y-76342857D01*
D10*
X160258571Y-123967380D02*
X160258571Y-124776904D01*
X160258571Y-124776904D02*
X160306190Y-124872142D01*
X160306190Y-124872142D02*
X160353809Y-124919761D01*
X160353809Y-124919761D02*
X160449047Y-124967380D01*
X160449047Y-124967380D02*
X160639523Y-124967380D01*
X160639523Y-124967380D02*
X160734761Y-124919761D01*
X160734761Y-124919761D02*
X160782380Y-124872142D01*
X160782380Y-124872142D02*
X160829999Y-124776904D01*
X160829999Y-124776904D02*
X160829999Y-123967380D01*
X161258571Y-124919761D02*
X161401428Y-124967380D01*
X161401428Y-124967380D02*
X161639523Y-124967380D01*
X161639523Y-124967380D02*
X161734761Y-124919761D01*
X161734761Y-124919761D02*
X161782380Y-124872142D01*
X161782380Y-124872142D02*
X161829999Y-124776904D01*
X161829999Y-124776904D02*
X161829999Y-124681666D01*
X161829999Y-124681666D02*
X161782380Y-124586428D01*
X161782380Y-124586428D02*
X161734761Y-124538809D01*
X161734761Y-124538809D02*
X161639523Y-124491190D01*
X161639523Y-124491190D02*
X161449047Y-124443571D01*
X161449047Y-124443571D02*
X161353809Y-124395952D01*
X161353809Y-124395952D02*
X161306190Y-124348333D01*
X161306190Y-124348333D02*
X161258571Y-124253095D01*
X161258571Y-124253095D02*
X161258571Y-124157857D01*
X161258571Y-124157857D02*
X161306190Y-124062619D01*
X161306190Y-124062619D02*
X161353809Y-124015000D01*
X161353809Y-124015000D02*
X161449047Y-123967380D01*
X161449047Y-123967380D02*
X161687142Y-123967380D01*
X161687142Y-123967380D02*
X161829999Y-124015000D01*
X162591904Y-124443571D02*
X162734761Y-124491190D01*
X162734761Y-124491190D02*
X162782380Y-124538809D01*
X162782380Y-124538809D02*
X162829999Y-124634047D01*
X162829999Y-124634047D02*
X162829999Y-124776904D01*
X162829999Y-124776904D02*
X162782380Y-124872142D01*
X162782380Y-124872142D02*
X162734761Y-124919761D01*
X162734761Y-124919761D02*
X162639523Y-124967380D01*
X162639523Y-124967380D02*
X162258571Y-124967380D01*
X162258571Y-124967380D02*
X162258571Y-123967380D01*
X162258571Y-123967380D02*
X162591904Y-123967380D01*
X162591904Y-123967380D02*
X162687142Y-124015000D01*
X162687142Y-124015000D02*
X162734761Y-124062619D01*
X162734761Y-124062619D02*
X162782380Y-124157857D01*
X162782380Y-124157857D02*
X162782380Y-124253095D01*
X162782380Y-124253095D02*
X162734761Y-124348333D01*
X162734761Y-124348333D02*
X162687142Y-124395952D01*
X162687142Y-124395952D02*
X162591904Y-124443571D01*
X162591904Y-124443571D02*
X162258571Y-124443571D01*
X163020476Y-125062619D02*
X163782380Y-125062619D01*
X164353809Y-124443571D02*
X164496666Y-124491190D01*
X164496666Y-124491190D02*
X164544285Y-124538809D01*
X164544285Y-124538809D02*
X164591904Y-124634047D01*
X164591904Y-124634047D02*
X164591904Y-124776904D01*
X164591904Y-124776904D02*
X164544285Y-124872142D01*
X164544285Y-124872142D02*
X164496666Y-124919761D01*
X164496666Y-124919761D02*
X164401428Y-124967380D01*
X164401428Y-124967380D02*
X164020476Y-124967380D01*
X164020476Y-124967380D02*
X164020476Y-123967380D01*
X164020476Y-123967380D02*
X164353809Y-123967380D01*
X164353809Y-123967380D02*
X164449047Y-124015000D01*
X164449047Y-124015000D02*
X164496666Y-124062619D01*
X164496666Y-124062619D02*
X164544285Y-124157857D01*
X164544285Y-124157857D02*
X164544285Y-124253095D01*
X164544285Y-124253095D02*
X164496666Y-124348333D01*
X164496666Y-124348333D02*
X164449047Y-124395952D01*
X164449047Y-124395952D02*
X164353809Y-124443571D01*
X164353809Y-124443571D02*
X164020476Y-124443571D01*
X165210952Y-123967380D02*
X165401428Y-123967380D01*
X165401428Y-123967380D02*
X165496666Y-124015000D01*
X165496666Y-124015000D02*
X165591904Y-124110238D01*
X165591904Y-124110238D02*
X165639523Y-124300714D01*
X165639523Y-124300714D02*
X165639523Y-124634047D01*
X165639523Y-124634047D02*
X165591904Y-124824523D01*
X165591904Y-124824523D02*
X165496666Y-124919761D01*
X165496666Y-124919761D02*
X165401428Y-124967380D01*
X165401428Y-124967380D02*
X165210952Y-124967380D01*
X165210952Y-124967380D02*
X165115714Y-124919761D01*
X165115714Y-124919761D02*
X165020476Y-124824523D01*
X165020476Y-124824523D02*
X164972857Y-124634047D01*
X164972857Y-124634047D02*
X164972857Y-124300714D01*
X164972857Y-124300714D02*
X165020476Y-124110238D01*
X165020476Y-124110238D02*
X165115714Y-124015000D01*
X165115714Y-124015000D02*
X165210952Y-123967380D01*
X166258571Y-123967380D02*
X166449047Y-123967380D01*
X166449047Y-123967380D02*
X166544285Y-124015000D01*
X166544285Y-124015000D02*
X166639523Y-124110238D01*
X166639523Y-124110238D02*
X166687142Y-124300714D01*
X166687142Y-124300714D02*
X166687142Y-124634047D01*
X166687142Y-124634047D02*
X166639523Y-124824523D01*
X166639523Y-124824523D02*
X166544285Y-124919761D01*
X166544285Y-124919761D02*
X166449047Y-124967380D01*
X166449047Y-124967380D02*
X166258571Y-124967380D01*
X166258571Y-124967380D02*
X166163333Y-124919761D01*
X166163333Y-124919761D02*
X166068095Y-124824523D01*
X166068095Y-124824523D02*
X166020476Y-124634047D01*
X166020476Y-124634047D02*
X166020476Y-124300714D01*
X166020476Y-124300714D02*
X166068095Y-124110238D01*
X166068095Y-124110238D02*
X166163333Y-124015000D01*
X166163333Y-124015000D02*
X166258571Y-123967380D01*
X166972857Y-123967380D02*
X167544285Y-123967380D01*
X167258571Y-124967380D02*
X167258571Y-123967380D01*
X151596142Y-118482476D02*
X151643761Y-118530095D01*
X151643761Y-118530095D02*
X151691380Y-118672952D01*
X151691380Y-118672952D02*
X151691380Y-118768190D01*
X151691380Y-118768190D02*
X151643761Y-118911047D01*
X151643761Y-118911047D02*
X151548523Y-119006285D01*
X151548523Y-119006285D02*
X151453285Y-119053904D01*
X151453285Y-119053904D02*
X151262809Y-119101523D01*
X151262809Y-119101523D02*
X151119952Y-119101523D01*
X151119952Y-119101523D02*
X150929476Y-119053904D01*
X150929476Y-119053904D02*
X150834238Y-119006285D01*
X150834238Y-119006285D02*
X150739000Y-118911047D01*
X150739000Y-118911047D02*
X150691380Y-118768190D01*
X150691380Y-118768190D02*
X150691380Y-118672952D01*
X150691380Y-118672952D02*
X150739000Y-118530095D01*
X150739000Y-118530095D02*
X150786619Y-118482476D01*
X151643761Y-117672952D02*
X151691380Y-117768190D01*
X151691380Y-117768190D02*
X151691380Y-117958666D01*
X151691380Y-117958666D02*
X151643761Y-118053904D01*
X151643761Y-118053904D02*
X151548523Y-118101523D01*
X151548523Y-118101523D02*
X151167571Y-118101523D01*
X151167571Y-118101523D02*
X151072333Y-118053904D01*
X151072333Y-118053904D02*
X151024714Y-117958666D01*
X151024714Y-117958666D02*
X151024714Y-117768190D01*
X151024714Y-117768190D02*
X151072333Y-117672952D01*
X151072333Y-117672952D02*
X151167571Y-117625333D01*
X151167571Y-117625333D02*
X151262809Y-117625333D01*
X151262809Y-117625333D02*
X151358047Y-118101523D01*
X151024714Y-117339618D02*
X151024714Y-116958666D01*
X150691380Y-117196761D02*
X151548523Y-117196761D01*
X151548523Y-117196761D02*
X151643761Y-117149142D01*
X151643761Y-117149142D02*
X151691380Y-117053904D01*
X151691380Y-117053904D02*
X151691380Y-116958666D01*
X151024714Y-116196761D02*
X151691380Y-116196761D01*
X151024714Y-116625332D02*
X151548523Y-116625332D01*
X151548523Y-116625332D02*
X151643761Y-116577713D01*
X151643761Y-116577713D02*
X151691380Y-116482475D01*
X151691380Y-116482475D02*
X151691380Y-116339618D01*
X151691380Y-116339618D02*
X151643761Y-116244380D01*
X151643761Y-116244380D02*
X151596142Y-116196761D01*
X151643761Y-115768189D02*
X151691380Y-115672951D01*
X151691380Y-115672951D02*
X151691380Y-115482475D01*
X151691380Y-115482475D02*
X151643761Y-115387237D01*
X151643761Y-115387237D02*
X151548523Y-115339618D01*
X151548523Y-115339618D02*
X151500904Y-115339618D01*
X151500904Y-115339618D02*
X151405666Y-115387237D01*
X151405666Y-115387237D02*
X151358047Y-115482475D01*
X151358047Y-115482475D02*
X151358047Y-115625332D01*
X151358047Y-115625332D02*
X151310428Y-115720570D01*
X151310428Y-115720570D02*
X151215190Y-115768189D01*
X151215190Y-115768189D02*
X151167571Y-115768189D01*
X151167571Y-115768189D02*
X151072333Y-115720570D01*
X151072333Y-115720570D02*
X151024714Y-115625332D01*
X151024714Y-115625332D02*
X151024714Y-115482475D01*
X151024714Y-115482475D02*
X151072333Y-115387237D01*
X150643761Y-114196761D02*
X151929476Y-115053903D01*
X150691380Y-113863427D02*
X151500904Y-113863427D01*
X151500904Y-113863427D02*
X151596142Y-113815808D01*
X151596142Y-113815808D02*
X151643761Y-113768189D01*
X151643761Y-113768189D02*
X151691380Y-113672951D01*
X151691380Y-113672951D02*
X151691380Y-113482475D01*
X151691380Y-113482475D02*
X151643761Y-113387237D01*
X151643761Y-113387237D02*
X151596142Y-113339618D01*
X151596142Y-113339618D02*
X151500904Y-113291999D01*
X151500904Y-113291999D02*
X150691380Y-113291999D01*
X151691380Y-112815808D02*
X150691380Y-112815808D01*
X150691380Y-112815808D02*
X150691380Y-112434856D01*
X150691380Y-112434856D02*
X150739000Y-112339618D01*
X150739000Y-112339618D02*
X150786619Y-112291999D01*
X150786619Y-112291999D02*
X150881857Y-112244380D01*
X150881857Y-112244380D02*
X151024714Y-112244380D01*
X151024714Y-112244380D02*
X151119952Y-112291999D01*
X151119952Y-112291999D02*
X151167571Y-112339618D01*
X151167571Y-112339618D02*
X151215190Y-112434856D01*
X151215190Y-112434856D02*
X151215190Y-112815808D01*
X151596142Y-110644380D02*
X151643761Y-110691999D01*
X151643761Y-110691999D02*
X151691380Y-110834856D01*
X151691380Y-110834856D02*
X151691380Y-110930094D01*
X151691380Y-110930094D02*
X151643761Y-111072951D01*
X151643761Y-111072951D02*
X151548523Y-111168189D01*
X151548523Y-111168189D02*
X151453285Y-111215808D01*
X151453285Y-111215808D02*
X151262809Y-111263427D01*
X151262809Y-111263427D02*
X151119952Y-111263427D01*
X151119952Y-111263427D02*
X150929476Y-111215808D01*
X150929476Y-111215808D02*
X150834238Y-111168189D01*
X150834238Y-111168189D02*
X150739000Y-111072951D01*
X150739000Y-111072951D02*
X150691380Y-110930094D01*
X150691380Y-110930094D02*
X150691380Y-110834856D01*
X150691380Y-110834856D02*
X150739000Y-110691999D01*
X150739000Y-110691999D02*
X150786619Y-110644380D01*
X151691380Y-110215808D02*
X150691380Y-110215808D01*
X150691380Y-110215808D02*
X150691380Y-109834856D01*
X150691380Y-109834856D02*
X150739000Y-109739618D01*
X150739000Y-109739618D02*
X150786619Y-109691999D01*
X150786619Y-109691999D02*
X150881857Y-109644380D01*
X150881857Y-109644380D02*
X151024714Y-109644380D01*
X151024714Y-109644380D02*
X151119952Y-109691999D01*
X151119952Y-109691999D02*
X151167571Y-109739618D01*
X151167571Y-109739618D02*
X151215190Y-109834856D01*
X151215190Y-109834856D02*
X151215190Y-110215808D01*
X150691380Y-109215808D02*
X151500904Y-109215808D01*
X151500904Y-109215808D02*
X151596142Y-109168189D01*
X151596142Y-109168189D02*
X151643761Y-109120570D01*
X151643761Y-109120570D02*
X151691380Y-109025332D01*
X151691380Y-109025332D02*
X151691380Y-108834856D01*
X151691380Y-108834856D02*
X151643761Y-108739618D01*
X151643761Y-108739618D02*
X151596142Y-108691999D01*
X151596142Y-108691999D02*
X151500904Y-108644380D01*
X151500904Y-108644380D02*
X150691380Y-108644380D01*
X151691380Y-106996761D02*
X151215190Y-107330094D01*
X151691380Y-107568189D02*
X150691380Y-107568189D01*
X150691380Y-107568189D02*
X150691380Y-107187237D01*
X150691380Y-107187237D02*
X150739000Y-107091999D01*
X150739000Y-107091999D02*
X150786619Y-107044380D01*
X150786619Y-107044380D02*
X150881857Y-106996761D01*
X150881857Y-106996761D02*
X151024714Y-106996761D01*
X151024714Y-106996761D02*
X151119952Y-107044380D01*
X151119952Y-107044380D02*
X151167571Y-107091999D01*
X151167571Y-107091999D02*
X151215190Y-107187237D01*
X151215190Y-107187237D02*
X151215190Y-107568189D01*
X151167571Y-106568189D02*
X151167571Y-106234856D01*
X151691380Y-106091999D02*
X151691380Y-106568189D01*
X151691380Y-106568189D02*
X150691380Y-106568189D01*
X150691380Y-106568189D02*
X150691380Y-106091999D01*
X150691380Y-105806284D02*
X151691380Y-105472951D01*
X151691380Y-105472951D02*
X150691380Y-105139618D01*
X151691380Y-104282475D02*
X151691380Y-104853903D01*
X151691380Y-104568189D02*
X150691380Y-104568189D01*
X150691380Y-104568189D02*
X150834238Y-104663427D01*
X150834238Y-104663427D02*
X150929476Y-104758665D01*
X150929476Y-104758665D02*
X150977095Y-104853903D01*
D11*
X147833642Y-76342857D02*
X147876500Y-76385714D01*
X147876500Y-76385714D02*
X147919357Y-76471429D01*
X147919357Y-76471429D02*
X147919357Y-76685714D01*
X147919357Y-76685714D02*
X147876500Y-76771429D01*
X147876500Y-76771429D02*
X147833642Y-76814286D01*
X147833642Y-76814286D02*
X147747928Y-76857143D01*
X147747928Y-76857143D02*
X147662214Y-76857143D01*
X147662214Y-76857143D02*
X147533642Y-76814286D01*
X147533642Y-76814286D02*
X147019357Y-76300000D01*
X147019357Y-76300000D02*
X147019357Y-76857143D01*
X144449357Y-76857143D02*
X144449357Y-76342857D01*
X144449357Y-76600000D02*
X145349357Y-76600000D01*
X145349357Y-76600000D02*
X145220785Y-76514286D01*
X145220785Y-76514286D02*
X145135071Y-76428571D01*
X145135071Y-76428571D02*
X145092214Y-76342857D01*
D10*
X158433333Y-117672142D02*
X158385714Y-117719761D01*
X158385714Y-117719761D02*
X158242857Y-117767380D01*
X158242857Y-117767380D02*
X158147619Y-117767380D01*
X158147619Y-117767380D02*
X158004762Y-117719761D01*
X158004762Y-117719761D02*
X157909524Y-117624523D01*
X157909524Y-117624523D02*
X157861905Y-117529285D01*
X157861905Y-117529285D02*
X157814286Y-117338809D01*
X157814286Y-117338809D02*
X157814286Y-117195952D01*
X157814286Y-117195952D02*
X157861905Y-117005476D01*
X157861905Y-117005476D02*
X157909524Y-116910238D01*
X157909524Y-116910238D02*
X158004762Y-116815000D01*
X158004762Y-116815000D02*
X158147619Y-116767380D01*
X158147619Y-116767380D02*
X158242857Y-116767380D01*
X158242857Y-116767380D02*
X158385714Y-116815000D01*
X158385714Y-116815000D02*
X158433333Y-116862619D01*
X159290476Y-117100714D02*
X159290476Y-117767380D01*
X159052381Y-116719761D02*
X158814286Y-117434047D01*
X158814286Y-117434047D02*
X159433333Y-117434047D01*
X168772142Y-121766667D02*
X168819761Y-121814286D01*
X168819761Y-121814286D02*
X168867380Y-121957143D01*
X168867380Y-121957143D02*
X168867380Y-122052381D01*
X168867380Y-122052381D02*
X168819761Y-122195238D01*
X168819761Y-122195238D02*
X168724523Y-122290476D01*
X168724523Y-122290476D02*
X168629285Y-122338095D01*
X168629285Y-122338095D02*
X168438809Y-122385714D01*
X168438809Y-122385714D02*
X168295952Y-122385714D01*
X168295952Y-122385714D02*
X168105476Y-122338095D01*
X168105476Y-122338095D02*
X168010238Y-122290476D01*
X168010238Y-122290476D02*
X167915000Y-122195238D01*
X167915000Y-122195238D02*
X167867380Y-122052381D01*
X167867380Y-122052381D02*
X167867380Y-121957143D01*
X167867380Y-121957143D02*
X167915000Y-121814286D01*
X167915000Y-121814286D02*
X167962619Y-121766667D01*
X168867380Y-120814286D02*
X168867380Y-121385714D01*
X168867380Y-121100000D02*
X167867380Y-121100000D01*
X167867380Y-121100000D02*
X168010238Y-121195238D01*
X168010238Y-121195238D02*
X168105476Y-121290476D01*
X168105476Y-121290476D02*
X168153095Y-121385714D01*
X153557142Y-105872142D02*
X153509523Y-105919761D01*
X153509523Y-105919761D02*
X153366666Y-105967380D01*
X153366666Y-105967380D02*
X153271428Y-105967380D01*
X153271428Y-105967380D02*
X153128571Y-105919761D01*
X153128571Y-105919761D02*
X153033333Y-105824523D01*
X153033333Y-105824523D02*
X152985714Y-105729285D01*
X152985714Y-105729285D02*
X152938095Y-105538809D01*
X152938095Y-105538809D02*
X152938095Y-105395952D01*
X152938095Y-105395952D02*
X152985714Y-105205476D01*
X152985714Y-105205476D02*
X153033333Y-105110238D01*
X153033333Y-105110238D02*
X153128571Y-105015000D01*
X153128571Y-105015000D02*
X153271428Y-104967380D01*
X153271428Y-104967380D02*
X153366666Y-104967380D01*
X153366666Y-104967380D02*
X153509523Y-105015000D01*
X153509523Y-105015000D02*
X153557142Y-105062619D01*
X153938095Y-105062619D02*
X153985714Y-105015000D01*
X153985714Y-105015000D02*
X154080952Y-104967380D01*
X154080952Y-104967380D02*
X154319047Y-104967380D01*
X154319047Y-104967380D02*
X154414285Y-105015000D01*
X154414285Y-105015000D02*
X154461904Y-105062619D01*
X154461904Y-105062619D02*
X154509523Y-105157857D01*
X154509523Y-105157857D02*
X154509523Y-105253095D01*
X154509523Y-105253095D02*
X154461904Y-105395952D01*
X154461904Y-105395952D02*
X153890476Y-105967380D01*
X153890476Y-105967380D02*
X154509523Y-105967380D01*
X155128571Y-104967380D02*
X155223809Y-104967380D01*
X155223809Y-104967380D02*
X155319047Y-105015000D01*
X155319047Y-105015000D02*
X155366666Y-105062619D01*
X155366666Y-105062619D02*
X155414285Y-105157857D01*
X155414285Y-105157857D02*
X155461904Y-105348333D01*
X155461904Y-105348333D02*
X155461904Y-105586428D01*
X155461904Y-105586428D02*
X155414285Y-105776904D01*
X155414285Y-105776904D02*
X155366666Y-105872142D01*
X155366666Y-105872142D02*
X155319047Y-105919761D01*
X155319047Y-105919761D02*
X155223809Y-105967380D01*
X155223809Y-105967380D02*
X155128571Y-105967380D01*
X155128571Y-105967380D02*
X155033333Y-105919761D01*
X155033333Y-105919761D02*
X154985714Y-105872142D01*
X154985714Y-105872142D02*
X154938095Y-105776904D01*
X154938095Y-105776904D02*
X154890476Y-105586428D01*
X154890476Y-105586428D02*
X154890476Y-105348333D01*
X154890476Y-105348333D02*
X154938095Y-105157857D01*
X154938095Y-105157857D02*
X154985714Y-105062619D01*
X154985714Y-105062619D02*
X155033333Y-105015000D01*
X155033333Y-105015000D02*
X155128571Y-104967380D01*
X161066666Y-121767380D02*
X161066666Y-122481666D01*
X161066666Y-122481666D02*
X161019047Y-122624523D01*
X161019047Y-122624523D02*
X160923809Y-122719761D01*
X160923809Y-122719761D02*
X160780952Y-122767380D01*
X160780952Y-122767380D02*
X160685714Y-122767380D01*
X161495238Y-121862619D02*
X161542857Y-121815000D01*
X161542857Y-121815000D02*
X161638095Y-121767380D01*
X161638095Y-121767380D02*
X161876190Y-121767380D01*
X161876190Y-121767380D02*
X161971428Y-121815000D01*
X161971428Y-121815000D02*
X162019047Y-121862619D01*
X162019047Y-121862619D02*
X162066666Y-121957857D01*
X162066666Y-121957857D02*
X162066666Y-122053095D01*
X162066666Y-122053095D02*
X162019047Y-122195952D01*
X162019047Y-122195952D02*
X161447619Y-122767380D01*
X161447619Y-122767380D02*
X162066666Y-122767380D01*
X155302142Y-111467857D02*
X155349761Y-111515476D01*
X155349761Y-111515476D02*
X155397380Y-111658333D01*
X155397380Y-111658333D02*
X155397380Y-111753571D01*
X155397380Y-111753571D02*
X155349761Y-111896428D01*
X155349761Y-111896428D02*
X155254523Y-111991666D01*
X155254523Y-111991666D02*
X155159285Y-112039285D01*
X155159285Y-112039285D02*
X154968809Y-112086904D01*
X154968809Y-112086904D02*
X154825952Y-112086904D01*
X154825952Y-112086904D02*
X154635476Y-112039285D01*
X154635476Y-112039285D02*
X154540238Y-111991666D01*
X154540238Y-111991666D02*
X154445000Y-111896428D01*
X154445000Y-111896428D02*
X154397380Y-111753571D01*
X154397380Y-111753571D02*
X154397380Y-111658333D01*
X154397380Y-111658333D02*
X154445000Y-111515476D01*
X154445000Y-111515476D02*
X154492619Y-111467857D01*
X155397380Y-110515476D02*
X155397380Y-111086904D01*
X155397380Y-110801190D02*
X154397380Y-110801190D01*
X154397380Y-110801190D02*
X154540238Y-110896428D01*
X154540238Y-110896428D02*
X154635476Y-110991666D01*
X154635476Y-110991666D02*
X154683095Y-111086904D01*
X154397380Y-109896428D02*
X154397380Y-109801190D01*
X154397380Y-109801190D02*
X154445000Y-109705952D01*
X154445000Y-109705952D02*
X154492619Y-109658333D01*
X154492619Y-109658333D02*
X154587857Y-109610714D01*
X154587857Y-109610714D02*
X154778333Y-109563095D01*
X154778333Y-109563095D02*
X155016428Y-109563095D01*
X155016428Y-109563095D02*
X155206904Y-109610714D01*
X155206904Y-109610714D02*
X155302142Y-109658333D01*
X155302142Y-109658333D02*
X155349761Y-109705952D01*
X155349761Y-109705952D02*
X155397380Y-109801190D01*
X155397380Y-109801190D02*
X155397380Y-109896428D01*
X155397380Y-109896428D02*
X155349761Y-109991666D01*
X155349761Y-109991666D02*
X155302142Y-110039285D01*
X155302142Y-110039285D02*
X155206904Y-110086904D01*
X155206904Y-110086904D02*
X155016428Y-110134523D01*
X155016428Y-110134523D02*
X154778333Y-110134523D01*
X154778333Y-110134523D02*
X154587857Y-110086904D01*
X154587857Y-110086904D02*
X154492619Y-110039285D01*
X154492619Y-110039285D02*
X154445000Y-109991666D01*
X154445000Y-109991666D02*
X154397380Y-109896428D01*
X156599642Y-110491666D02*
X156647261Y-110539285D01*
X156647261Y-110539285D02*
X156694880Y-110682142D01*
X156694880Y-110682142D02*
X156694880Y-110777380D01*
X156694880Y-110777380D02*
X156647261Y-110920237D01*
X156647261Y-110920237D02*
X156552023Y-111015475D01*
X156552023Y-111015475D02*
X156456785Y-111063094D01*
X156456785Y-111063094D02*
X156266309Y-111110713D01*
X156266309Y-111110713D02*
X156123452Y-111110713D01*
X156123452Y-111110713D02*
X155932976Y-111063094D01*
X155932976Y-111063094D02*
X155837738Y-111015475D01*
X155837738Y-111015475D02*
X155742500Y-110920237D01*
X155742500Y-110920237D02*
X155694880Y-110777380D01*
X155694880Y-110777380D02*
X155694880Y-110682142D01*
X155694880Y-110682142D02*
X155742500Y-110539285D01*
X155742500Y-110539285D02*
X155790119Y-110491666D01*
X156123452Y-109920237D02*
X156075833Y-110015475D01*
X156075833Y-110015475D02*
X156028214Y-110063094D01*
X156028214Y-110063094D02*
X155932976Y-110110713D01*
X155932976Y-110110713D02*
X155885357Y-110110713D01*
X155885357Y-110110713D02*
X155790119Y-110063094D01*
X155790119Y-110063094D02*
X155742500Y-110015475D01*
X155742500Y-110015475D02*
X155694880Y-109920237D01*
X155694880Y-109920237D02*
X155694880Y-109729761D01*
X155694880Y-109729761D02*
X155742500Y-109634523D01*
X155742500Y-109634523D02*
X155790119Y-109586904D01*
X155790119Y-109586904D02*
X155885357Y-109539285D01*
X155885357Y-109539285D02*
X155932976Y-109539285D01*
X155932976Y-109539285D02*
X156028214Y-109586904D01*
X156028214Y-109586904D02*
X156075833Y-109634523D01*
X156075833Y-109634523D02*
X156123452Y-109729761D01*
X156123452Y-109729761D02*
X156123452Y-109920237D01*
X156123452Y-109920237D02*
X156171071Y-110015475D01*
X156171071Y-110015475D02*
X156218690Y-110063094D01*
X156218690Y-110063094D02*
X156313928Y-110110713D01*
X156313928Y-110110713D02*
X156504404Y-110110713D01*
X156504404Y-110110713D02*
X156599642Y-110063094D01*
X156599642Y-110063094D02*
X156647261Y-110015475D01*
X156647261Y-110015475D02*
X156694880Y-109920237D01*
X156694880Y-109920237D02*
X156694880Y-109729761D01*
X156694880Y-109729761D02*
X156647261Y-109634523D01*
X156647261Y-109634523D02*
X156599642Y-109586904D01*
X156599642Y-109586904D02*
X156504404Y-109539285D01*
X156504404Y-109539285D02*
X156313928Y-109539285D01*
X156313928Y-109539285D02*
X156218690Y-109586904D01*
X156218690Y-109586904D02*
X156171071Y-109634523D01*
X156171071Y-109634523D02*
X156123452Y-109729761D01*
X165072142Y-98302142D02*
X165024523Y-98349761D01*
X165024523Y-98349761D02*
X164881666Y-98397380D01*
X164881666Y-98397380D02*
X164786428Y-98397380D01*
X164786428Y-98397380D02*
X164643571Y-98349761D01*
X164643571Y-98349761D02*
X164548333Y-98254523D01*
X164548333Y-98254523D02*
X164500714Y-98159285D01*
X164500714Y-98159285D02*
X164453095Y-97968809D01*
X164453095Y-97968809D02*
X164453095Y-97825952D01*
X164453095Y-97825952D02*
X164500714Y-97635476D01*
X164500714Y-97635476D02*
X164548333Y-97540238D01*
X164548333Y-97540238D02*
X164643571Y-97445000D01*
X164643571Y-97445000D02*
X164786428Y-97397380D01*
X164786428Y-97397380D02*
X164881666Y-97397380D01*
X164881666Y-97397380D02*
X165024523Y-97445000D01*
X165024523Y-97445000D02*
X165072142Y-97492619D01*
X166024523Y-98397380D02*
X165453095Y-98397380D01*
X165738809Y-98397380D02*
X165738809Y-97397380D01*
X165738809Y-97397380D02*
X165643571Y-97540238D01*
X165643571Y-97540238D02*
X165548333Y-97635476D01*
X165548333Y-97635476D02*
X165453095Y-97683095D01*
X166357857Y-97397380D02*
X166976904Y-97397380D01*
X166976904Y-97397380D02*
X166643571Y-97778333D01*
X166643571Y-97778333D02*
X166786428Y-97778333D01*
X166786428Y-97778333D02*
X166881666Y-97825952D01*
X166881666Y-97825952D02*
X166929285Y-97873571D01*
X166929285Y-97873571D02*
X166976904Y-97968809D01*
X166976904Y-97968809D02*
X166976904Y-98206904D01*
X166976904Y-98206904D02*
X166929285Y-98302142D01*
X166929285Y-98302142D02*
X166881666Y-98349761D01*
X166881666Y-98349761D02*
X166786428Y-98397380D01*
X166786428Y-98397380D02*
X166500714Y-98397380D01*
X166500714Y-98397380D02*
X166405476Y-98349761D01*
X166405476Y-98349761D02*
X166357857Y-98302142D01*
X160233333Y-119672142D02*
X160185714Y-119719761D01*
X160185714Y-119719761D02*
X160042857Y-119767380D01*
X160042857Y-119767380D02*
X159947619Y-119767380D01*
X159947619Y-119767380D02*
X159804762Y-119719761D01*
X159804762Y-119719761D02*
X159709524Y-119624523D01*
X159709524Y-119624523D02*
X159661905Y-119529285D01*
X159661905Y-119529285D02*
X159614286Y-119338809D01*
X159614286Y-119338809D02*
X159614286Y-119195952D01*
X159614286Y-119195952D02*
X159661905Y-119005476D01*
X159661905Y-119005476D02*
X159709524Y-118910238D01*
X159709524Y-118910238D02*
X159804762Y-118815000D01*
X159804762Y-118815000D02*
X159947619Y-118767380D01*
X159947619Y-118767380D02*
X160042857Y-118767380D01*
X160042857Y-118767380D02*
X160185714Y-118815000D01*
X160185714Y-118815000D02*
X160233333Y-118862619D01*
X161138095Y-118767380D02*
X160661905Y-118767380D01*
X160661905Y-118767380D02*
X160614286Y-119243571D01*
X160614286Y-119243571D02*
X160661905Y-119195952D01*
X160661905Y-119195952D02*
X160757143Y-119148333D01*
X160757143Y-119148333D02*
X160995238Y-119148333D01*
X160995238Y-119148333D02*
X161090476Y-119195952D01*
X161090476Y-119195952D02*
X161138095Y-119243571D01*
X161138095Y-119243571D02*
X161185714Y-119338809D01*
X161185714Y-119338809D02*
X161185714Y-119576904D01*
X161185714Y-119576904D02*
X161138095Y-119672142D01*
X161138095Y-119672142D02*
X161090476Y-119719761D01*
X161090476Y-119719761D02*
X160995238Y-119767380D01*
X160995238Y-119767380D02*
X160757143Y-119767380D01*
X160757143Y-119767380D02*
X160661905Y-119719761D01*
X160661905Y-119719761D02*
X160614286Y-119672142D01*
X169467380Y-117866666D02*
X168991190Y-118199999D01*
X169467380Y-118438094D02*
X168467380Y-118438094D01*
X168467380Y-118438094D02*
X168467380Y-118057142D01*
X168467380Y-118057142D02*
X168515000Y-117961904D01*
X168515000Y-117961904D02*
X168562619Y-117914285D01*
X168562619Y-117914285D02*
X168657857Y-117866666D01*
X168657857Y-117866666D02*
X168800714Y-117866666D01*
X168800714Y-117866666D02*
X168895952Y-117914285D01*
X168895952Y-117914285D02*
X168943571Y-117961904D01*
X168943571Y-117961904D02*
X168991190Y-118057142D01*
X168991190Y-118057142D02*
X168991190Y-118438094D01*
X168562619Y-117485713D02*
X168515000Y-117438094D01*
X168515000Y-117438094D02*
X168467380Y-117342856D01*
X168467380Y-117342856D02*
X168467380Y-117104761D01*
X168467380Y-117104761D02*
X168515000Y-117009523D01*
X168515000Y-117009523D02*
X168562619Y-116961904D01*
X168562619Y-116961904D02*
X168657857Y-116914285D01*
X168657857Y-116914285D02*
X168753095Y-116914285D01*
X168753095Y-116914285D02*
X168895952Y-116961904D01*
X168895952Y-116961904D02*
X169467380Y-117533332D01*
X169467380Y-117533332D02*
X169467380Y-116914285D01*
X162858095Y-109567380D02*
X162858095Y-110376904D01*
X162858095Y-110376904D02*
X162905714Y-110472142D01*
X162905714Y-110472142D02*
X162953333Y-110519761D01*
X162953333Y-110519761D02*
X163048571Y-110567380D01*
X163048571Y-110567380D02*
X163239047Y-110567380D01*
X163239047Y-110567380D02*
X163334285Y-110519761D01*
X163334285Y-110519761D02*
X163381904Y-110472142D01*
X163381904Y-110472142D02*
X163429523Y-110376904D01*
X163429523Y-110376904D02*
X163429523Y-109567380D01*
X163858095Y-109662619D02*
X163905714Y-109615000D01*
X163905714Y-109615000D02*
X164000952Y-109567380D01*
X164000952Y-109567380D02*
X164239047Y-109567380D01*
X164239047Y-109567380D02*
X164334285Y-109615000D01*
X164334285Y-109615000D02*
X164381904Y-109662619D01*
X164381904Y-109662619D02*
X164429523Y-109757857D01*
X164429523Y-109757857D02*
X164429523Y-109853095D01*
X164429523Y-109853095D02*
X164381904Y-109995952D01*
X164381904Y-109995952D02*
X163810476Y-110567380D01*
X163810476Y-110567380D02*
X164429523Y-110567380D01*
X158933333Y-90572142D02*
X158885714Y-90619761D01*
X158885714Y-90619761D02*
X158742857Y-90667380D01*
X158742857Y-90667380D02*
X158647619Y-90667380D01*
X158647619Y-90667380D02*
X158504762Y-90619761D01*
X158504762Y-90619761D02*
X158409524Y-90524523D01*
X158409524Y-90524523D02*
X158361905Y-90429285D01*
X158361905Y-90429285D02*
X158314286Y-90238809D01*
X158314286Y-90238809D02*
X158314286Y-90095952D01*
X158314286Y-90095952D02*
X158361905Y-89905476D01*
X158361905Y-89905476D02*
X158409524Y-89810238D01*
X158409524Y-89810238D02*
X158504762Y-89715000D01*
X158504762Y-89715000D02*
X158647619Y-89667380D01*
X158647619Y-89667380D02*
X158742857Y-89667380D01*
X158742857Y-89667380D02*
X158885714Y-89715000D01*
X158885714Y-89715000D02*
X158933333Y-89762619D01*
X159266667Y-89667380D02*
X159885714Y-89667380D01*
X159885714Y-89667380D02*
X159552381Y-90048333D01*
X159552381Y-90048333D02*
X159695238Y-90048333D01*
X159695238Y-90048333D02*
X159790476Y-90095952D01*
X159790476Y-90095952D02*
X159838095Y-90143571D01*
X159838095Y-90143571D02*
X159885714Y-90238809D01*
X159885714Y-90238809D02*
X159885714Y-90476904D01*
X159885714Y-90476904D02*
X159838095Y-90572142D01*
X159838095Y-90572142D02*
X159790476Y-90619761D01*
X159790476Y-90619761D02*
X159695238Y-90667380D01*
X159695238Y-90667380D02*
X159409524Y-90667380D01*
X159409524Y-90667380D02*
X159314286Y-90619761D01*
X159314286Y-90619761D02*
X159266667Y-90572142D01*
X165867380Y-117566666D02*
X165391190Y-117899999D01*
X165867380Y-118138094D02*
X164867380Y-118138094D01*
X164867380Y-118138094D02*
X164867380Y-117757142D01*
X164867380Y-117757142D02*
X164915000Y-117661904D01*
X164915000Y-117661904D02*
X164962619Y-117614285D01*
X164962619Y-117614285D02*
X165057857Y-117566666D01*
X165057857Y-117566666D02*
X165200714Y-117566666D01*
X165200714Y-117566666D02*
X165295952Y-117614285D01*
X165295952Y-117614285D02*
X165343571Y-117661904D01*
X165343571Y-117661904D02*
X165391190Y-117757142D01*
X165391190Y-117757142D02*
X165391190Y-118138094D01*
X165867380Y-116614285D02*
X165867380Y-117185713D01*
X165867380Y-116899999D02*
X164867380Y-116899999D01*
X164867380Y-116899999D02*
X165010238Y-116995237D01*
X165010238Y-116995237D02*
X165105476Y-117090475D01*
X165105476Y-117090475D02*
X165153095Y-117185713D01*
X160492142Y-110491666D02*
X160539761Y-110539285D01*
X160539761Y-110539285D02*
X160587380Y-110682142D01*
X160587380Y-110682142D02*
X160587380Y-110777380D01*
X160587380Y-110777380D02*
X160539761Y-110920237D01*
X160539761Y-110920237D02*
X160444523Y-111015475D01*
X160444523Y-111015475D02*
X160349285Y-111063094D01*
X160349285Y-111063094D02*
X160158809Y-111110713D01*
X160158809Y-111110713D02*
X160015952Y-111110713D01*
X160015952Y-111110713D02*
X159825476Y-111063094D01*
X159825476Y-111063094D02*
X159730238Y-111015475D01*
X159730238Y-111015475D02*
X159635000Y-110920237D01*
X159635000Y-110920237D02*
X159587380Y-110777380D01*
X159587380Y-110777380D02*
X159587380Y-110682142D01*
X159587380Y-110682142D02*
X159635000Y-110539285D01*
X159635000Y-110539285D02*
X159682619Y-110491666D01*
X160587380Y-110015475D02*
X160587380Y-109824999D01*
X160587380Y-109824999D02*
X160539761Y-109729761D01*
X160539761Y-109729761D02*
X160492142Y-109682142D01*
X160492142Y-109682142D02*
X160349285Y-109586904D01*
X160349285Y-109586904D02*
X160158809Y-109539285D01*
X160158809Y-109539285D02*
X159777857Y-109539285D01*
X159777857Y-109539285D02*
X159682619Y-109586904D01*
X159682619Y-109586904D02*
X159635000Y-109634523D01*
X159635000Y-109634523D02*
X159587380Y-109729761D01*
X159587380Y-109729761D02*
X159587380Y-109920237D01*
X159587380Y-109920237D02*
X159635000Y-110015475D01*
X159635000Y-110015475D02*
X159682619Y-110063094D01*
X159682619Y-110063094D02*
X159777857Y-110110713D01*
X159777857Y-110110713D02*
X160015952Y-110110713D01*
X160015952Y-110110713D02*
X160111190Y-110063094D01*
X160111190Y-110063094D02*
X160158809Y-110015475D01*
X160158809Y-110015475D02*
X160206428Y-109920237D01*
X160206428Y-109920237D02*
X160206428Y-109729761D01*
X160206428Y-109729761D02*
X160158809Y-109634523D01*
X160158809Y-109634523D02*
X160111190Y-109586904D01*
X160111190Y-109586904D02*
X160015952Y-109539285D01*
X153572142Y-100542142D02*
X153524523Y-100589761D01*
X153524523Y-100589761D02*
X153381666Y-100637380D01*
X153381666Y-100637380D02*
X153286428Y-100637380D01*
X153286428Y-100637380D02*
X153143571Y-100589761D01*
X153143571Y-100589761D02*
X153048333Y-100494523D01*
X153048333Y-100494523D02*
X153000714Y-100399285D01*
X153000714Y-100399285D02*
X152953095Y-100208809D01*
X152953095Y-100208809D02*
X152953095Y-100065952D01*
X152953095Y-100065952D02*
X153000714Y-99875476D01*
X153000714Y-99875476D02*
X153048333Y-99780238D01*
X153048333Y-99780238D02*
X153143571Y-99685000D01*
X153143571Y-99685000D02*
X153286428Y-99637380D01*
X153286428Y-99637380D02*
X153381666Y-99637380D01*
X153381666Y-99637380D02*
X153524523Y-99685000D01*
X153524523Y-99685000D02*
X153572142Y-99732619D01*
X154524523Y-100637380D02*
X153953095Y-100637380D01*
X154238809Y-100637380D02*
X154238809Y-99637380D01*
X154238809Y-99637380D02*
X154143571Y-99780238D01*
X154143571Y-99780238D02*
X154048333Y-99875476D01*
X154048333Y-99875476D02*
X153953095Y-99923095D01*
X154905476Y-99732619D02*
X154953095Y-99685000D01*
X154953095Y-99685000D02*
X155048333Y-99637380D01*
X155048333Y-99637380D02*
X155286428Y-99637380D01*
X155286428Y-99637380D02*
X155381666Y-99685000D01*
X155381666Y-99685000D02*
X155429285Y-99732619D01*
X155429285Y-99732619D02*
X155476904Y-99827857D01*
X155476904Y-99827857D02*
X155476904Y-99923095D01*
X155476904Y-99923095D02*
X155429285Y-100065952D01*
X155429285Y-100065952D02*
X154857857Y-100637380D01*
X154857857Y-100637380D02*
X155476904Y-100637380D01*
X161072142Y-95642857D02*
X161119761Y-95690476D01*
X161119761Y-95690476D02*
X161167380Y-95833333D01*
X161167380Y-95833333D02*
X161167380Y-95928571D01*
X161167380Y-95928571D02*
X161119761Y-96071428D01*
X161119761Y-96071428D02*
X161024523Y-96166666D01*
X161024523Y-96166666D02*
X160929285Y-96214285D01*
X160929285Y-96214285D02*
X160738809Y-96261904D01*
X160738809Y-96261904D02*
X160595952Y-96261904D01*
X160595952Y-96261904D02*
X160405476Y-96214285D01*
X160405476Y-96214285D02*
X160310238Y-96166666D01*
X160310238Y-96166666D02*
X160215000Y-96071428D01*
X160215000Y-96071428D02*
X160167380Y-95928571D01*
X160167380Y-95928571D02*
X160167380Y-95833333D01*
X160167380Y-95833333D02*
X160215000Y-95690476D01*
X160215000Y-95690476D02*
X160262619Y-95642857D01*
X161167380Y-94690476D02*
X161167380Y-95261904D01*
X161167380Y-94976190D02*
X160167380Y-94976190D01*
X160167380Y-94976190D02*
X160310238Y-95071428D01*
X160310238Y-95071428D02*
X160405476Y-95166666D01*
X160405476Y-95166666D02*
X160453095Y-95261904D01*
X160500714Y-93833333D02*
X161167380Y-93833333D01*
X160119761Y-94071428D02*
X160834047Y-94309523D01*
X160834047Y-94309523D02*
X160834047Y-93690476D01*
X159289880Y-110766666D02*
X158813690Y-111099999D01*
X159289880Y-111338094D02*
X158289880Y-111338094D01*
X158289880Y-111338094D02*
X158289880Y-110957142D01*
X158289880Y-110957142D02*
X158337500Y-110861904D01*
X158337500Y-110861904D02*
X158385119Y-110814285D01*
X158385119Y-110814285D02*
X158480357Y-110766666D01*
X158480357Y-110766666D02*
X158623214Y-110766666D01*
X158623214Y-110766666D02*
X158718452Y-110814285D01*
X158718452Y-110814285D02*
X158766071Y-110861904D01*
X158766071Y-110861904D02*
X158813690Y-110957142D01*
X158813690Y-110957142D02*
X158813690Y-111338094D01*
X158289880Y-110433332D02*
X158289880Y-109814285D01*
X158289880Y-109814285D02*
X158670833Y-110147618D01*
X158670833Y-110147618D02*
X158670833Y-110004761D01*
X158670833Y-110004761D02*
X158718452Y-109909523D01*
X158718452Y-109909523D02*
X158766071Y-109861904D01*
X158766071Y-109861904D02*
X158861309Y-109814285D01*
X158861309Y-109814285D02*
X159099404Y-109814285D01*
X159099404Y-109814285D02*
X159194642Y-109861904D01*
X159194642Y-109861904D02*
X159242261Y-109909523D01*
X159242261Y-109909523D02*
X159289880Y-110004761D01*
X159289880Y-110004761D02*
X159289880Y-110290475D01*
X159289880Y-110290475D02*
X159242261Y-110385713D01*
X159242261Y-110385713D02*
X159194642Y-110433332D01*
X157872142Y-93971666D02*
X157919761Y-94019285D01*
X157919761Y-94019285D02*
X157967380Y-94162142D01*
X157967380Y-94162142D02*
X157967380Y-94257380D01*
X157967380Y-94257380D02*
X157919761Y-94400237D01*
X157919761Y-94400237D02*
X157824523Y-94495475D01*
X157824523Y-94495475D02*
X157729285Y-94543094D01*
X157729285Y-94543094D02*
X157538809Y-94590713D01*
X157538809Y-94590713D02*
X157395952Y-94590713D01*
X157395952Y-94590713D02*
X157205476Y-94543094D01*
X157205476Y-94543094D02*
X157110238Y-94495475D01*
X157110238Y-94495475D02*
X157015000Y-94400237D01*
X157015000Y-94400237D02*
X156967380Y-94257380D01*
X156967380Y-94257380D02*
X156967380Y-94162142D01*
X156967380Y-94162142D02*
X157015000Y-94019285D01*
X157015000Y-94019285D02*
X157062619Y-93971666D01*
X156967380Y-93638332D02*
X156967380Y-92971666D01*
X156967380Y-92971666D02*
X157967380Y-93400237D01*
X165557142Y-105372142D02*
X165509523Y-105419761D01*
X165509523Y-105419761D02*
X165366666Y-105467380D01*
X165366666Y-105467380D02*
X165271428Y-105467380D01*
X165271428Y-105467380D02*
X165128571Y-105419761D01*
X165128571Y-105419761D02*
X165033333Y-105324523D01*
X165033333Y-105324523D02*
X164985714Y-105229285D01*
X164985714Y-105229285D02*
X164938095Y-105038809D01*
X164938095Y-105038809D02*
X164938095Y-104895952D01*
X164938095Y-104895952D02*
X164985714Y-104705476D01*
X164985714Y-104705476D02*
X165033333Y-104610238D01*
X165033333Y-104610238D02*
X165128571Y-104515000D01*
X165128571Y-104515000D02*
X165271428Y-104467380D01*
X165271428Y-104467380D02*
X165366666Y-104467380D01*
X165366666Y-104467380D02*
X165509523Y-104515000D01*
X165509523Y-104515000D02*
X165557142Y-104562619D01*
X166509523Y-105467380D02*
X165938095Y-105467380D01*
X166223809Y-105467380D02*
X166223809Y-104467380D01*
X166223809Y-104467380D02*
X166128571Y-104610238D01*
X166128571Y-104610238D02*
X166033333Y-104705476D01*
X166033333Y-104705476D02*
X165938095Y-104753095D01*
X167461904Y-105467380D02*
X166890476Y-105467380D01*
X167176190Y-105467380D02*
X167176190Y-104467380D01*
X167176190Y-104467380D02*
X167080952Y-104610238D01*
X167080952Y-104610238D02*
X166985714Y-104705476D01*
X166985714Y-104705476D02*
X166890476Y-104753095D01*
X162138095Y-104867380D02*
X162138095Y-105676904D01*
X162138095Y-105676904D02*
X162185714Y-105772142D01*
X162185714Y-105772142D02*
X162233333Y-105819761D01*
X162233333Y-105819761D02*
X162328571Y-105867380D01*
X162328571Y-105867380D02*
X162519047Y-105867380D01*
X162519047Y-105867380D02*
X162614285Y-105819761D01*
X162614285Y-105819761D02*
X162661904Y-105772142D01*
X162661904Y-105772142D02*
X162709523Y-105676904D01*
X162709523Y-105676904D02*
X162709523Y-104867380D01*
X163090476Y-104867380D02*
X163709523Y-104867380D01*
X163709523Y-104867380D02*
X163376190Y-105248333D01*
X163376190Y-105248333D02*
X163519047Y-105248333D01*
X163519047Y-105248333D02*
X163614285Y-105295952D01*
X163614285Y-105295952D02*
X163661904Y-105343571D01*
X163661904Y-105343571D02*
X163709523Y-105438809D01*
X163709523Y-105438809D02*
X163709523Y-105676904D01*
X163709523Y-105676904D02*
X163661904Y-105772142D01*
X163661904Y-105772142D02*
X163614285Y-105819761D01*
X163614285Y-105819761D02*
X163519047Y-105867380D01*
X163519047Y-105867380D02*
X163233333Y-105867380D01*
X163233333Y-105867380D02*
X163138095Y-105819761D01*
X163138095Y-105819761D02*
X163090476Y-105772142D01*
X162633333Y-90272142D02*
X162585714Y-90319761D01*
X162585714Y-90319761D02*
X162442857Y-90367380D01*
X162442857Y-90367380D02*
X162347619Y-90367380D01*
X162347619Y-90367380D02*
X162204762Y-90319761D01*
X162204762Y-90319761D02*
X162109524Y-90224523D01*
X162109524Y-90224523D02*
X162061905Y-90129285D01*
X162061905Y-90129285D02*
X162014286Y-89938809D01*
X162014286Y-89938809D02*
X162014286Y-89795952D01*
X162014286Y-89795952D02*
X162061905Y-89605476D01*
X162061905Y-89605476D02*
X162109524Y-89510238D01*
X162109524Y-89510238D02*
X162204762Y-89415000D01*
X162204762Y-89415000D02*
X162347619Y-89367380D01*
X162347619Y-89367380D02*
X162442857Y-89367380D01*
X162442857Y-89367380D02*
X162585714Y-89415000D01*
X162585714Y-89415000D02*
X162633333Y-89462619D01*
X163014286Y-89462619D02*
X163061905Y-89415000D01*
X163061905Y-89415000D02*
X163157143Y-89367380D01*
X163157143Y-89367380D02*
X163395238Y-89367380D01*
X163395238Y-89367380D02*
X163490476Y-89415000D01*
X163490476Y-89415000D02*
X163538095Y-89462619D01*
X163538095Y-89462619D02*
X163585714Y-89557857D01*
X163585714Y-89557857D02*
X163585714Y-89653095D01*
X163585714Y-89653095D02*
X163538095Y-89795952D01*
X163538095Y-89795952D02*
X162966667Y-90367380D01*
X162966667Y-90367380D02*
X163585714Y-90367380D01*
X157992380Y-110585666D02*
X157516190Y-110918999D01*
X157992380Y-111157094D02*
X156992380Y-111157094D01*
X156992380Y-111157094D02*
X156992380Y-110776142D01*
X156992380Y-110776142D02*
X157040000Y-110680904D01*
X157040000Y-110680904D02*
X157087619Y-110633285D01*
X157087619Y-110633285D02*
X157182857Y-110585666D01*
X157182857Y-110585666D02*
X157325714Y-110585666D01*
X157325714Y-110585666D02*
X157420952Y-110633285D01*
X157420952Y-110633285D02*
X157468571Y-110680904D01*
X157468571Y-110680904D02*
X157516190Y-110776142D01*
X157516190Y-110776142D02*
X157516190Y-111157094D01*
X157325714Y-109728523D02*
X157992380Y-109728523D01*
X156944761Y-109966618D02*
X157659047Y-110204713D01*
X157659047Y-110204713D02*
X157659047Y-109585666D01*
X162472142Y-108166666D02*
X162519761Y-108214285D01*
X162519761Y-108214285D02*
X162567380Y-108357142D01*
X162567380Y-108357142D02*
X162567380Y-108452380D01*
X162567380Y-108452380D02*
X162519761Y-108595237D01*
X162519761Y-108595237D02*
X162424523Y-108690475D01*
X162424523Y-108690475D02*
X162329285Y-108738094D01*
X162329285Y-108738094D02*
X162138809Y-108785713D01*
X162138809Y-108785713D02*
X161995952Y-108785713D01*
X161995952Y-108785713D02*
X161805476Y-108738094D01*
X161805476Y-108738094D02*
X161710238Y-108690475D01*
X161710238Y-108690475D02*
X161615000Y-108595237D01*
X161615000Y-108595237D02*
X161567380Y-108452380D01*
X161567380Y-108452380D02*
X161567380Y-108357142D01*
X161567380Y-108357142D02*
X161615000Y-108214285D01*
X161615000Y-108214285D02*
X161662619Y-108166666D01*
X161567380Y-107309523D02*
X161567380Y-107499999D01*
X161567380Y-107499999D02*
X161615000Y-107595237D01*
X161615000Y-107595237D02*
X161662619Y-107642856D01*
X161662619Y-107642856D02*
X161805476Y-107738094D01*
X161805476Y-107738094D02*
X161995952Y-107785713D01*
X161995952Y-107785713D02*
X162376904Y-107785713D01*
X162376904Y-107785713D02*
X162472142Y-107738094D01*
X162472142Y-107738094D02*
X162519761Y-107690475D01*
X162519761Y-107690475D02*
X162567380Y-107595237D01*
X162567380Y-107595237D02*
X162567380Y-107404761D01*
X162567380Y-107404761D02*
X162519761Y-107309523D01*
X162519761Y-107309523D02*
X162472142Y-107261904D01*
X162472142Y-107261904D02*
X162376904Y-107214285D01*
X162376904Y-107214285D02*
X162138809Y-107214285D01*
X162138809Y-107214285D02*
X162043571Y-107261904D01*
X162043571Y-107261904D02*
X161995952Y-107309523D01*
X161995952Y-107309523D02*
X161948333Y-107404761D01*
X161948333Y-107404761D02*
X161948333Y-107595237D01*
X161948333Y-107595237D02*
X161995952Y-107690475D01*
X161995952Y-107690475D02*
X162043571Y-107738094D01*
X162043571Y-107738094D02*
X162138809Y-107785713D01*
X153557142Y-102672142D02*
X153509523Y-102719761D01*
X153509523Y-102719761D02*
X153366666Y-102767380D01*
X153366666Y-102767380D02*
X153271428Y-102767380D01*
X153271428Y-102767380D02*
X153128571Y-102719761D01*
X153128571Y-102719761D02*
X153033333Y-102624523D01*
X153033333Y-102624523D02*
X152985714Y-102529285D01*
X152985714Y-102529285D02*
X152938095Y-102338809D01*
X152938095Y-102338809D02*
X152938095Y-102195952D01*
X152938095Y-102195952D02*
X152985714Y-102005476D01*
X152985714Y-102005476D02*
X153033333Y-101910238D01*
X153033333Y-101910238D02*
X153128571Y-101815000D01*
X153128571Y-101815000D02*
X153271428Y-101767380D01*
X153271428Y-101767380D02*
X153366666Y-101767380D01*
X153366666Y-101767380D02*
X153509523Y-101815000D01*
X153509523Y-101815000D02*
X153557142Y-101862619D01*
X154509523Y-102767380D02*
X153938095Y-102767380D01*
X154223809Y-102767380D02*
X154223809Y-101767380D01*
X154223809Y-101767380D02*
X154128571Y-101910238D01*
X154128571Y-101910238D02*
X154033333Y-102005476D01*
X154033333Y-102005476D02*
X153938095Y-102053095D01*
X155414285Y-101767380D02*
X154938095Y-101767380D01*
X154938095Y-101767380D02*
X154890476Y-102243571D01*
X154890476Y-102243571D02*
X154938095Y-102195952D01*
X154938095Y-102195952D02*
X155033333Y-102148333D01*
X155033333Y-102148333D02*
X155271428Y-102148333D01*
X155271428Y-102148333D02*
X155366666Y-102195952D01*
X155366666Y-102195952D02*
X155414285Y-102243571D01*
X155414285Y-102243571D02*
X155461904Y-102338809D01*
X155461904Y-102338809D02*
X155461904Y-102576904D01*
X155461904Y-102576904D02*
X155414285Y-102672142D01*
X155414285Y-102672142D02*
X155366666Y-102719761D01*
X155366666Y-102719761D02*
X155271428Y-102767380D01*
X155271428Y-102767380D02*
X155033333Y-102767380D01*
X155033333Y-102767380D02*
X154938095Y-102719761D01*
X154938095Y-102719761D02*
X154890476Y-102672142D01*
X162667380Y-92966666D02*
X162191190Y-93299999D01*
X162667380Y-93538094D02*
X161667380Y-93538094D01*
X161667380Y-93538094D02*
X161667380Y-93157142D01*
X161667380Y-93157142D02*
X161715000Y-93061904D01*
X161715000Y-93061904D02*
X161762619Y-93014285D01*
X161762619Y-93014285D02*
X161857857Y-92966666D01*
X161857857Y-92966666D02*
X162000714Y-92966666D01*
X162000714Y-92966666D02*
X162095952Y-93014285D01*
X162095952Y-93014285D02*
X162143571Y-93061904D01*
X162143571Y-93061904D02*
X162191190Y-93157142D01*
X162191190Y-93157142D02*
X162191190Y-93538094D01*
X161667380Y-92061904D02*
X161667380Y-92538094D01*
X161667380Y-92538094D02*
X162143571Y-92585713D01*
X162143571Y-92585713D02*
X162095952Y-92538094D01*
X162095952Y-92538094D02*
X162048333Y-92442856D01*
X162048333Y-92442856D02*
X162048333Y-92204761D01*
X162048333Y-92204761D02*
X162095952Y-92109523D01*
X162095952Y-92109523D02*
X162143571Y-92061904D01*
X162143571Y-92061904D02*
X162238809Y-92014285D01*
X162238809Y-92014285D02*
X162476904Y-92014285D01*
X162476904Y-92014285D02*
X162572142Y-92061904D01*
X162572142Y-92061904D02*
X162619761Y-92109523D01*
X162619761Y-92109523D02*
X162667380Y-92204761D01*
X162667380Y-92204761D02*
X162667380Y-92442856D01*
X162667380Y-92442856D02*
X162619761Y-92538094D01*
X162619761Y-92538094D02*
X162572142Y-92585713D01*
X152723809Y-88791190D02*
X152723809Y-89267380D01*
X152390476Y-88267380D02*
X152723809Y-88791190D01*
X152723809Y-88791190D02*
X153057142Y-88267380D01*
X153914285Y-89267380D02*
X153342857Y-89267380D01*
X153628571Y-89267380D02*
X153628571Y-88267380D01*
X153628571Y-88267380D02*
X153533333Y-88410238D01*
X153533333Y-88410238D02*
X153438095Y-88505476D01*
X153438095Y-88505476D02*
X153342857Y-88553095D01*
X151572142Y-81142857D02*
X151619761Y-81190476D01*
X151619761Y-81190476D02*
X151667380Y-81333333D01*
X151667380Y-81333333D02*
X151667380Y-81428571D01*
X151667380Y-81428571D02*
X151619761Y-81571428D01*
X151619761Y-81571428D02*
X151524523Y-81666666D01*
X151524523Y-81666666D02*
X151429285Y-81714285D01*
X151429285Y-81714285D02*
X151238809Y-81761904D01*
X151238809Y-81761904D02*
X151095952Y-81761904D01*
X151095952Y-81761904D02*
X150905476Y-81714285D01*
X150905476Y-81714285D02*
X150810238Y-81666666D01*
X150810238Y-81666666D02*
X150715000Y-81571428D01*
X150715000Y-81571428D02*
X150667380Y-81428571D01*
X150667380Y-81428571D02*
X150667380Y-81333333D01*
X150667380Y-81333333D02*
X150715000Y-81190476D01*
X150715000Y-81190476D02*
X150762619Y-81142857D01*
X151667380Y-80190476D02*
X151667380Y-80761904D01*
X151667380Y-80476190D02*
X150667380Y-80476190D01*
X150667380Y-80476190D02*
X150810238Y-80571428D01*
X150810238Y-80571428D02*
X150905476Y-80666666D01*
X150905476Y-80666666D02*
X150953095Y-80761904D01*
X150667380Y-79857142D02*
X150667380Y-79190476D01*
X150667380Y-79190476D02*
X151667380Y-79619047D01*
X149666666Y-121767380D02*
X149666666Y-122481666D01*
X149666666Y-122481666D02*
X149619047Y-122624523D01*
X149619047Y-122624523D02*
X149523809Y-122719761D01*
X149523809Y-122719761D02*
X149380952Y-122767380D01*
X149380952Y-122767380D02*
X149285714Y-122767380D01*
X150047619Y-121767380D02*
X150666666Y-121767380D01*
X150666666Y-121767380D02*
X150333333Y-122148333D01*
X150333333Y-122148333D02*
X150476190Y-122148333D01*
X150476190Y-122148333D02*
X150571428Y-122195952D01*
X150571428Y-122195952D02*
X150619047Y-122243571D01*
X150619047Y-122243571D02*
X150666666Y-122338809D01*
X150666666Y-122338809D02*
X150666666Y-122576904D01*
X150666666Y-122576904D02*
X150619047Y-122672142D01*
X150619047Y-122672142D02*
X150571428Y-122719761D01*
X150571428Y-122719761D02*
X150476190Y-122767380D01*
X150476190Y-122767380D02*
X150190476Y-122767380D01*
X150190476Y-122767380D02*
X150095238Y-122719761D01*
X150095238Y-122719761D02*
X150047619Y-122672142D01*
X159866666Y-81167380D02*
X159866666Y-81881666D01*
X159866666Y-81881666D02*
X159819047Y-82024523D01*
X159819047Y-82024523D02*
X159723809Y-82119761D01*
X159723809Y-82119761D02*
X159580952Y-82167380D01*
X159580952Y-82167380D02*
X159485714Y-82167380D01*
X160771428Y-81500714D02*
X160771428Y-82167380D01*
X160533333Y-81119761D02*
X160295238Y-81834047D01*
X160295238Y-81834047D02*
X160914285Y-81834047D01*
X158366666Y-77967380D02*
X158366666Y-78681666D01*
X158366666Y-78681666D02*
X158319047Y-78824523D01*
X158319047Y-78824523D02*
X158223809Y-78919761D01*
X158223809Y-78919761D02*
X158080952Y-78967380D01*
X158080952Y-78967380D02*
X157985714Y-78967380D01*
X159366666Y-78967380D02*
X158795238Y-78967380D01*
X159080952Y-78967380D02*
X159080952Y-77967380D01*
X159080952Y-77967380D02*
X158985714Y-78110238D01*
X158985714Y-78110238D02*
X158890476Y-78205476D01*
X158890476Y-78205476D02*
X158795238Y-78253095D01*
X158395259Y-85566257D02*
X158610758Y-85781756D01*
X158007361Y-85480057D02*
X158395259Y-85566257D01*
X158395259Y-85566257D02*
X158309059Y-85178358D01*
X158481459Y-85092159D02*
X158481459Y-85049059D01*
X158481459Y-85049059D02*
X158503008Y-84984409D01*
X158503008Y-84984409D02*
X158610758Y-84876660D01*
X158610758Y-84876660D02*
X158675408Y-84855110D01*
X158675408Y-84855110D02*
X158718508Y-84855110D01*
X158718508Y-84855110D02*
X158783157Y-84876660D01*
X158783157Y-84876660D02*
X158826257Y-84919759D01*
X158826257Y-84919759D02*
X158869357Y-85005959D01*
X158869357Y-85005959D02*
X158869357Y-85523157D01*
X158869357Y-85523157D02*
X159149506Y-85243008D01*
X150032619Y-76323809D02*
X149318333Y-76323809D01*
X149318333Y-76323809D02*
X149175476Y-76276190D01*
X149175476Y-76276190D02*
X149080238Y-76180952D01*
X149080238Y-76180952D02*
X149032619Y-76038095D01*
X149032619Y-76038095D02*
X149032619Y-75942857D01*
X149032619Y-76800000D02*
X150032619Y-76800000D01*
X150032619Y-76800000D02*
X150032619Y-77180952D01*
X150032619Y-77180952D02*
X149985000Y-77276190D01*
X149985000Y-77276190D02*
X149937380Y-77323809D01*
X149937380Y-77323809D02*
X149842142Y-77371428D01*
X149842142Y-77371428D02*
X149699285Y-77371428D01*
X149699285Y-77371428D02*
X149604047Y-77323809D01*
X149604047Y-77323809D02*
X149556428Y-77276190D01*
X149556428Y-77276190D02*
X149508809Y-77180952D01*
X149508809Y-77180952D02*
X149508809Y-76800000D01*
X149032619Y-78323809D02*
X149032619Y-77752381D01*
X149032619Y-78038095D02*
X150032619Y-78038095D01*
X150032619Y-78038095D02*
X149889761Y-77942857D01*
X149889761Y-77942857D02*
X149794523Y-77847619D01*
X149794523Y-77847619D02*
X149746904Y-77752381D01*
X178032619Y-76723809D02*
X177318333Y-76723809D01*
X177318333Y-76723809D02*
X177175476Y-76676190D01*
X177175476Y-76676190D02*
X177080238Y-76580952D01*
X177080238Y-76580952D02*
X177032619Y-76438095D01*
X177032619Y-76438095D02*
X177032619Y-76342857D01*
X177032619Y-77200000D02*
X178032619Y-77200000D01*
X178032619Y-77200000D02*
X178032619Y-77580952D01*
X178032619Y-77580952D02*
X177985000Y-77676190D01*
X177985000Y-77676190D02*
X177937380Y-77723809D01*
X177937380Y-77723809D02*
X177842142Y-77771428D01*
X177842142Y-77771428D02*
X177699285Y-77771428D01*
X177699285Y-77771428D02*
X177604047Y-77723809D01*
X177604047Y-77723809D02*
X177556428Y-77676190D01*
X177556428Y-77676190D02*
X177508809Y-77580952D01*
X177508809Y-77580952D02*
X177508809Y-77200000D01*
X177937380Y-78152381D02*
X177985000Y-78200000D01*
X177985000Y-78200000D02*
X178032619Y-78295238D01*
X178032619Y-78295238D02*
X178032619Y-78533333D01*
X178032619Y-78533333D02*
X177985000Y-78628571D01*
X177985000Y-78628571D02*
X177937380Y-78676190D01*
X177937380Y-78676190D02*
X177842142Y-78723809D01*
X177842142Y-78723809D02*
X177746904Y-78723809D01*
X177746904Y-78723809D02*
X177604047Y-78676190D01*
X177604047Y-78676190D02*
X177032619Y-78104762D01*
X177032619Y-78104762D02*
X177032619Y-78723809D01*
D12*
X160392164Y-118560000D02*
X160607836Y-118560000D01*
X160392164Y-117840000D02*
X160607836Y-117840000D01*
X170835000Y-121911252D02*
X170835000Y-121388748D01*
X169365000Y-121911252D02*
X169365000Y-121388748D01*
X182320000Y-98453641D02*
X182320000Y-98146359D01*
X183080000Y-98453641D02*
X183080000Y-98146359D01*
X182320000Y-94133641D02*
X182320000Y-93826359D01*
X183080000Y-94133641D02*
X183080000Y-93826359D01*
X154987836Y-104760000D02*
X154772164Y-104760000D01*
X154987836Y-104040000D02*
X154772164Y-104040000D01*
X162500000Y-118050000D02*
X163830000Y-118050000D01*
X162500000Y-119380000D02*
X162500000Y-118050000D01*
X162500000Y-120650000D02*
X162500000Y-123250000D01*
X162500000Y-120650000D02*
X165160000Y-120650000D01*
X162500000Y-123250000D02*
X165160000Y-123250000D01*
X165160000Y-120650000D02*
X165160000Y-123250000D01*
X155660000Y-106702164D02*
X155660000Y-106917836D01*
X156380000Y-106702164D02*
X156380000Y-106917836D01*
X156660000Y-106702164D02*
X156660000Y-106917836D01*
X157380000Y-106702164D02*
X157380000Y-106917836D01*
X165607164Y-98840000D02*
X165822836Y-98840000D01*
X165607164Y-99560000D02*
X165822836Y-99560000D01*
X160392164Y-116910000D02*
X160607836Y-116910000D01*
X160392164Y-117630000D02*
X160607836Y-117630000D01*
X167420000Y-117883641D02*
X167420000Y-117576359D01*
X168180000Y-117883641D02*
X168180000Y-117576359D01*
X166345000Y-116390000D02*
X166345000Y-116130000D01*
X166345000Y-116130000D02*
X168020000Y-116130000D01*
X166345000Y-110940000D02*
X166345000Y-111200000D01*
X163620000Y-116390000D02*
X166345000Y-116390000D01*
X163620000Y-116390000D02*
X160895000Y-116390000D01*
X163620000Y-110940000D02*
X166345000Y-110940000D01*
X163620000Y-110940000D02*
X160895000Y-110940000D01*
X160895000Y-116390000D02*
X160895000Y-116130000D01*
X160895000Y-110940000D02*
X160895000Y-111200000D01*
X160827836Y-91560000D02*
X160612164Y-91560000D01*
X160827836Y-90840000D02*
X160612164Y-90840000D01*
X166880000Y-117576359D02*
X166880000Y-117883641D01*
X166120000Y-117576359D02*
X166120000Y-117883641D01*
X159660000Y-107702164D02*
X159660000Y-107917836D01*
X160380000Y-107702164D02*
X160380000Y-107917836D01*
X154322836Y-99460000D02*
X154107164Y-99460000D01*
X154322836Y-98740000D02*
X154107164Y-98740000D01*
X159240000Y-94027836D02*
X159240000Y-93812164D01*
X159960000Y-94027836D02*
X159960000Y-93812164D01*
X159400000Y-106993641D02*
X159400000Y-106686359D01*
X158640000Y-106993641D02*
X158640000Y-106686359D01*
X158140000Y-94027836D02*
X158140000Y-93812164D01*
X158860000Y-94027836D02*
X158860000Y-93812164D01*
X165192164Y-103440000D02*
X165407836Y-103440000D01*
X165192164Y-104160000D02*
X165407836Y-104160000D01*
X163630000Y-96790000D02*
X163630000Y-97440000D01*
X162980000Y-104010000D02*
X163630000Y-104010000D01*
X162980000Y-96790000D02*
X163630000Y-96790000D01*
X157060000Y-104010000D02*
X156410000Y-104010000D01*
X157060000Y-96790000D02*
X156410000Y-96790000D01*
X156410000Y-104010000D02*
X156410000Y-103360000D01*
X156410000Y-96790000D02*
X156410000Y-97440000D01*
X162612164Y-90640000D02*
X162827836Y-90640000D01*
X162612164Y-91360000D02*
X162827836Y-91360000D01*
X157640000Y-106973641D02*
X157640000Y-106666359D01*
X158400000Y-106973641D02*
X158400000Y-106666359D01*
X161380000Y-107702164D02*
X161380000Y-107917836D01*
X160660000Y-107702164D02*
X160660000Y-107917836D01*
X154987836Y-103760000D02*
X154772164Y-103760000D01*
X154987836Y-103040000D02*
X154772164Y-103040000D01*
X160820000Y-92863641D02*
X160820000Y-92556359D01*
X161580000Y-92863641D02*
X161580000Y-92556359D01*
X166720000Y-88516000D02*
X166720000Y-87266000D01*
X166720000Y-84666000D02*
X166720000Y-83416000D01*
X166720000Y-83416000D02*
X154120000Y-83416000D01*
X154120000Y-88516000D02*
X166720000Y-88516000D01*
X150335000Y-80711252D02*
X150335000Y-80188748D01*
X148865000Y-80711252D02*
X148865000Y-80188748D01*
X151070000Y-123250000D02*
X151070000Y-121920000D01*
X152400000Y-123250000D02*
X151070000Y-123250000D01*
X153670000Y-123250000D02*
X158810000Y-123250000D01*
X153670000Y-123250000D02*
X153670000Y-120590000D01*
X158810000Y-123250000D02*
X158810000Y-120590000D01*
X153670000Y-120590000D02*
X158810000Y-120590000D01*
X161230000Y-82570000D02*
X161230000Y-81240000D01*
X162560000Y-82570000D02*
X161230000Y-82570000D01*
X163830000Y-82570000D02*
X168970000Y-82570000D01*
X163830000Y-82570000D02*
X163830000Y-79970000D01*
X168970000Y-82570000D02*
X168970000Y-77370000D01*
X161230000Y-79970000D02*
X161230000Y-77370000D01*
X163830000Y-79970000D02*
X161230000Y-79970000D01*
X161230000Y-77370000D02*
X168970000Y-77370000D01*
X157540000Y-82610000D02*
X156210000Y-82610000D01*
X157540000Y-81280000D02*
X157540000Y-82610000D01*
X157540000Y-80010000D02*
X157540000Y-77410000D01*
X157540000Y-80010000D02*
X154940000Y-80010000D01*
X157540000Y-77410000D02*
X152340000Y-77410000D01*
X154940000Y-82610000D02*
X152340000Y-82610000D01*
X154940000Y-80010000D02*
X154940000Y-82610000D01*
X152340000Y-82610000D02*
X152340000Y-77410000D01*
D13*
X158132613Y-88271751D02*
G75*
G03*
X158132613Y-88271751I-99999J0D01*
G01*
D12*
X183060000Y-105147164D02*
X183060000Y-105362836D01*
X182340000Y-105147164D02*
X182340000Y-105362836D01*
X182340000Y-101492164D02*
X182340000Y-101707836D01*
X183060000Y-101492164D02*
X183060000Y-101707836D01*
%LPC*%
D14*
X179070000Y-90170000D03*
X179070000Y-89535000D03*
X179070000Y-88900000D03*
X179070000Y-88265000D03*
X179070000Y-87630000D03*
X179070000Y-86995000D03*
X179070000Y-86360000D03*
X179070000Y-85725000D03*
X179070000Y-85090000D03*
X179070000Y-114300000D03*
X179070000Y-113665000D03*
X179070000Y-113030000D03*
X179070000Y-112395000D03*
X179070000Y-111760000D03*
X179070000Y-111125000D03*
X179070000Y-110490000D03*
X179070000Y-109855000D03*
X179070000Y-109220000D03*
D15*
X160020000Y-118200000D03*
X160980000Y-118200000D03*
D16*
X170100000Y-122600000D03*
X170100000Y-120700000D03*
D17*
X182700000Y-98810000D03*
X182700000Y-97790000D03*
X182700000Y-94490000D03*
X182700000Y-93470000D03*
D18*
X154400000Y-104400000D03*
X155360000Y-104400000D03*
D19*
X163829999Y-119379999D03*
D20*
X163829999Y-121919999D03*
D21*
X156020000Y-107290000D03*
X156020000Y-106330000D03*
X157020000Y-107290000D03*
X157020000Y-106330000D03*
D15*
X165235000Y-99200000D03*
X166195000Y-99200000D03*
X160020000Y-117270000D03*
X160980000Y-117270000D03*
D17*
X167800000Y-118240000D03*
X167800000Y-117220000D03*
D22*
X167220000Y-115570000D03*
X167220000Y-114300000D03*
X167220000Y-113030000D03*
X167220000Y-111760000D03*
X160020000Y-111760000D03*
X160020000Y-113030000D03*
X160020000Y-114300000D03*
X160020000Y-115570000D03*
D18*
X161200000Y-91200000D03*
X160240000Y-91200000D03*
D23*
X166500000Y-117220000D03*
X166500000Y-118240000D03*
D21*
X160020000Y-108290000D03*
X160020000Y-107330000D03*
D18*
X154695000Y-99100000D03*
X153735000Y-99100000D03*
D24*
X159600000Y-94400000D03*
X159600000Y-93440000D03*
D17*
X159020000Y-106330000D03*
X159020000Y-107350000D03*
D24*
X158500000Y-94400000D03*
X158500000Y-93440000D03*
D15*
X164820000Y-103800000D03*
X165780000Y-103800000D03*
D25*
X163457500Y-103000000D03*
X163457500Y-102600000D03*
X163457500Y-102200000D03*
X163457500Y-101800000D03*
X163457500Y-101400000D03*
X163457500Y-101000000D03*
X163457500Y-100600000D03*
X163457500Y-100200000D03*
X163457500Y-99800000D03*
X163457500Y-99400000D03*
X163457500Y-99000000D03*
X163457500Y-98600000D03*
X163457500Y-98200000D03*
X163457500Y-97800000D03*
D26*
X162620000Y-96962500D03*
X162220000Y-96962500D03*
X161820000Y-96962500D03*
X161420000Y-96962500D03*
X161020000Y-96962500D03*
X160620000Y-96962500D03*
X160220000Y-96962500D03*
X159820000Y-96962500D03*
X159420000Y-96962500D03*
X159020000Y-96962500D03*
X158620000Y-96962500D03*
X158220000Y-96962500D03*
X157820000Y-96962500D03*
X157420000Y-96962500D03*
D25*
X156582500Y-97800000D03*
X156582500Y-98200000D03*
X156582500Y-98600000D03*
X156582500Y-99000000D03*
X156582500Y-99400000D03*
X156582500Y-99800000D03*
X156582500Y-100200000D03*
X156582500Y-100600000D03*
X156582500Y-101000000D03*
X156582500Y-101400000D03*
X156582500Y-101800000D03*
X156582500Y-102200000D03*
X156582500Y-102600000D03*
X156582500Y-103000000D03*
D26*
X157420000Y-103837500D03*
X157820000Y-103837500D03*
X158220000Y-103837500D03*
X158620000Y-103837500D03*
X159020000Y-103837500D03*
X159420000Y-103837500D03*
X159820000Y-103837500D03*
X160220000Y-103837500D03*
X160620000Y-103837500D03*
X161020000Y-103837500D03*
X161420000Y-103837500D03*
X161820000Y-103837500D03*
X162220000Y-103837500D03*
X162620000Y-103837500D03*
D27*
X160020000Y-100400000D03*
D15*
X162240000Y-91000000D03*
X163200000Y-91000000D03*
D17*
X158020000Y-107330000D03*
X158020000Y-106310000D03*
D21*
X161020000Y-107330000D03*
X161020000Y-108290000D03*
D18*
X155360000Y-103400000D03*
X154400000Y-103400000D03*
D17*
X161200000Y-93220000D03*
X161200000Y-92200000D03*
D28*
X164939999Y-85965999D03*
X155099999Y-85965999D03*
D16*
X149600000Y-79500000D03*
X149600000Y-81400000D03*
D19*
X152399999Y-121919999D03*
D20*
X154939999Y-121919999D03*
X157479999Y-121919999D03*
D19*
X162559999Y-81239999D03*
D20*
X162559999Y-78699999D03*
X165099999Y-81239999D03*
X165099999Y-78699999D03*
X167639999Y-81239999D03*
X167639999Y-78699999D03*
D19*
X156209999Y-81279999D03*
D20*
X153669999Y-81279999D03*
X156209999Y-78739999D03*
X153669999Y-78739999D03*
D29*
X158881141Y-87423222D03*
X160436776Y-88978857D03*
X161638857Y-87776776D03*
X160083222Y-86221141D03*
D19*
X144779999Y-78739999D03*
D20*
X147319999Y-78739999D03*
X144779999Y-81279999D03*
X147319999Y-81279999D03*
X144779999Y-83819999D03*
X147319999Y-83819999D03*
X144779999Y-86359999D03*
X147319999Y-86359999D03*
X144779999Y-88899999D03*
X147319999Y-88899999D03*
X144779999Y-91439999D03*
X147319999Y-91439999D03*
X144779999Y-93979999D03*
X147319999Y-93979999D03*
X144779999Y-96519999D03*
X147319999Y-96519999D03*
X144779999Y-99059999D03*
X147319999Y-99059999D03*
X144779999Y-101599999D03*
X147319999Y-101599999D03*
X144779999Y-104139999D03*
X147319999Y-104139999D03*
X144779999Y-106679999D03*
X147319999Y-106679999D03*
X144779999Y-109219999D03*
X147319999Y-109219999D03*
X144779999Y-111759999D03*
X147319999Y-111759999D03*
X144779999Y-114299999D03*
X147319999Y-114299999D03*
X144779999Y-116839999D03*
X147319999Y-116839999D03*
X144779999Y-119379999D03*
X147319999Y-119379999D03*
X144779999Y-121919999D03*
X147319999Y-121919999D03*
D30*
X172720000Y-99060000D03*
X172720000Y-96520000D03*
D19*
X172719999Y-78739999D03*
D20*
X175259999Y-78739999D03*
X172719999Y-81279999D03*
X175259999Y-81279999D03*
X172719999Y-83819999D03*
X175259999Y-83819999D03*
X172719999Y-86359999D03*
X175259999Y-86359999D03*
X172719999Y-88899999D03*
X175259999Y-88899999D03*
X172719999Y-91439999D03*
X175259999Y-91439999D03*
X172719999Y-93979999D03*
X175259999Y-93979999D03*
X175259999Y-96519999D03*
X175259999Y-99059999D03*
X172719999Y-101599999D03*
X175259999Y-101599999D03*
X172719999Y-104139999D03*
X175259999Y-104139999D03*
X172719999Y-106679999D03*
X175259999Y-106679999D03*
X172719999Y-109219999D03*
X175259999Y-109219999D03*
X172719999Y-111759999D03*
X175259999Y-111759999D03*
X172719999Y-114299999D03*
X175259999Y-114299999D03*
X172719999Y-116839999D03*
X175259999Y-116839999D03*
X172719999Y-119379999D03*
X175259999Y-119379999D03*
X172719999Y-121919999D03*
X175259999Y-121919999D03*
D21*
X182700000Y-105735000D03*
X182700000Y-104775000D03*
X182700000Y-101120000D03*
X182700000Y-102080000D03*
M02*
