G04 #@! TF.GenerationSoftware,KiCad,Pcbnew,(7.0.0)*
G04 #@! TF.CreationDate,2023-06-29T21:02:46+10:00*
G04 #@! TF.ProjectId,RP2040_minimal,52503230-3430-45f6-9d69-6e696d616c2e,REV1*
G04 #@! TF.SameCoordinates,Original*
G04 #@! TF.FileFunction,Copper,L1,Top*
G04 #@! TF.FilePolarity,Positive*
%FSLAX46Y46*%
G04 Gerber Fmt 4.6, Leading zero omitted, Abs format (unit mm)*
G04 Created by KiCad (PCBNEW (7.0.0)) date 2023-06-29 21:02:46*
%MOMM*%
%LPD*%
G01*
G04 APERTURE LIST*
G04 Aperture macros list*
%AMRoundRect*
0 Rectangle with rounded corners*
0 $1 Rounding radius*
0 $2 $3 $4 $5 $6 $7 $8 $9 X,Y pos of 4 corners*
0 Add a 4 corners polygon primitive as box body*
4,1,4,$2,$3,$4,$5,$6,$7,$8,$9,$2,$3,0*
0 Add four circle primitives for the rounded corners*
1,1,$1+$1,$2,$3*
1,1,$1+$1,$4,$5*
1,1,$1+$1,$6,$7*
1,1,$1+$1,$8,$9*
0 Add four rect primitives between the rounded corners*
20,1,$1+$1,$2,$3,$4,$5,0*
20,1,$1+$1,$4,$5,$6,$7,0*
20,1,$1+$1,$6,$7,$8,$9,0*
20,1,$1+$1,$8,$9,$2,$3,0*%
%AMRotRect*
0 Rectangle, with rotation*
0 The origin of the aperture is its center*
0 $1 length*
0 $2 width*
0 $3 Rotation angle, in degrees counterclockwise*
0 Add horizontal line*
21,1,$1,$2,0,0,$3*%
G04 Aperture macros list end*
G04 #@! TA.AperFunction,SMDPad,CuDef*
%ADD10RoundRect,0.140000X-0.140000X-0.170000X0.140000X-0.170000X0.140000X0.170000X-0.140000X0.170000X0*%
G04 #@! TD*
G04 #@! TA.AperFunction,SMDPad,CuDef*
%ADD11RoundRect,0.250000X0.475000X-0.250000X0.475000X0.250000X-0.475000X0.250000X-0.475000X-0.250000X0*%
G04 #@! TD*
G04 #@! TA.AperFunction,SMDPad,CuDef*
%ADD12RoundRect,0.135000X0.185000X-0.135000X0.185000X0.135000X-0.185000X0.135000X-0.185000X-0.135000X0*%
G04 #@! TD*
G04 #@! TA.AperFunction,SMDPad,CuDef*
%ADD13RoundRect,0.140000X0.140000X0.170000X-0.140000X0.170000X-0.140000X-0.170000X0.140000X-0.170000X0*%
G04 #@! TD*
G04 #@! TA.AperFunction,ComponentPad*
%ADD14R,1.700000X1.700000*%
G04 #@! TD*
G04 #@! TA.AperFunction,ComponentPad*
%ADD15O,1.700000X1.700000*%
G04 #@! TD*
G04 #@! TA.AperFunction,SMDPad,CuDef*
%ADD16RoundRect,0.140000X-0.170000X0.140000X-0.170000X-0.140000X0.170000X-0.140000X0.170000X0.140000X0*%
G04 #@! TD*
G04 #@! TA.AperFunction,SMDPad,CuDef*
%ADD17RoundRect,0.150000X0.650000X0.150000X-0.650000X0.150000X-0.650000X-0.150000X0.650000X-0.150000X0*%
G04 #@! TD*
G04 #@! TA.AperFunction,SMDPad,CuDef*
%ADD18RoundRect,0.135000X-0.185000X0.135000X-0.185000X-0.135000X0.185000X-0.135000X0.185000X0.135000X0*%
G04 #@! TD*
G04 #@! TA.AperFunction,SMDPad,CuDef*
%ADD19RoundRect,0.140000X0.170000X-0.140000X0.170000X0.140000X-0.170000X0.140000X-0.170000X-0.140000X0*%
G04 #@! TD*
G04 #@! TA.AperFunction,SMDPad,CuDef*
%ADD20RoundRect,0.050000X0.387500X0.050000X-0.387500X0.050000X-0.387500X-0.050000X0.387500X-0.050000X0*%
G04 #@! TD*
G04 #@! TA.AperFunction,SMDPad,CuDef*
%ADD21RoundRect,0.050000X0.050000X0.387500X-0.050000X0.387500X-0.050000X-0.387500X0.050000X-0.387500X0*%
G04 #@! TD*
G04 #@! TA.AperFunction,ComponentPad*
%ADD22C,0.600000*%
G04 #@! TD*
G04 #@! TA.AperFunction,SMDPad,CuDef*
%ADD23RoundRect,0.144000X1.456000X1.456000X-1.456000X1.456000X-1.456000X-1.456000X1.456000X-1.456000X0*%
G04 #@! TD*
G04 #@! TA.AperFunction,SMDPad,CuDef*
%ADD24R,4.760000X2.100000*%
G04 #@! TD*
G04 #@! TA.AperFunction,SMDPad,CuDef*
%ADD25RotRect,1.200000X1.400000X45.000000*%
G04 #@! TD*
G04 #@! TA.AperFunction,ViaPad*
%ADD26C,0.600000*%
G04 #@! TD*
G04 #@! TA.AperFunction,Conductor*
%ADD27C,0.200000*%
G04 #@! TD*
G04 #@! TA.AperFunction,Conductor*
%ADD28C,0.150000*%
G04 #@! TD*
G04 #@! TA.AperFunction,Conductor*
%ADD29C,0.400000*%
G04 #@! TD*
G04 #@! TA.AperFunction,Conductor*
%ADD30C,0.230000*%
G04 #@! TD*
G04 APERTURE END LIST*
D10*
X160020000Y-118200000D03*
X160980000Y-118200000D03*
D11*
X170100000Y-122600000D03*
X170100000Y-120700000D03*
D12*
X182700000Y-98810000D03*
X182700000Y-97790000D03*
X182700000Y-94490000D03*
X182700000Y-93470000D03*
D13*
X154400000Y-104400000D03*
X155360000Y-104400000D03*
D14*
X163829999Y-119379999D03*
D15*
X163829999Y-121919999D03*
D16*
X156020000Y-107290000D03*
X156020000Y-106330000D03*
X157020000Y-107290000D03*
X157020000Y-106330000D03*
D10*
X165235000Y-99200000D03*
X166195000Y-99200000D03*
X160020000Y-117270000D03*
X160980000Y-117270000D03*
D12*
X167800000Y-118240000D03*
X167800000Y-117220000D03*
D17*
X167220000Y-115570000D03*
X167220000Y-114300000D03*
X167220000Y-113030000D03*
X167220000Y-111760000D03*
X160020000Y-111760000D03*
X160020000Y-113030000D03*
X160020000Y-114300000D03*
X160020000Y-115570000D03*
D13*
X161200000Y-91200000D03*
X160240000Y-91200000D03*
D18*
X166500000Y-117220000D03*
X166500000Y-118240000D03*
D16*
X160020000Y-108290000D03*
X160020000Y-107330000D03*
D13*
X154695000Y-99100000D03*
X153735000Y-99100000D03*
D19*
X159600000Y-94400000D03*
X159600000Y-93440000D03*
D12*
X159020000Y-106330000D03*
X159020000Y-107350000D03*
D19*
X158500000Y-94400000D03*
X158500000Y-93440000D03*
D10*
X164820000Y-103800000D03*
X165780000Y-103800000D03*
D20*
X163457500Y-103000000D03*
X163457500Y-102600000D03*
X163457500Y-102200000D03*
X163457500Y-101800000D03*
X163457500Y-101400000D03*
X163457500Y-101000000D03*
X163457500Y-100600000D03*
X163457500Y-100200000D03*
X163457500Y-99800000D03*
X163457500Y-99400000D03*
X163457500Y-99000000D03*
X163457500Y-98600000D03*
X163457500Y-98200000D03*
X163457500Y-97800000D03*
D21*
X162620000Y-96962500D03*
X162220000Y-96962500D03*
X161820000Y-96962500D03*
X161420000Y-96962500D03*
X161020000Y-96962500D03*
X160620000Y-96962500D03*
X160220000Y-96962500D03*
X159820000Y-96962500D03*
X159420000Y-96962500D03*
X159020000Y-96962500D03*
X158620000Y-96962500D03*
X158220000Y-96962500D03*
X157820000Y-96962500D03*
X157420000Y-96962500D03*
D20*
X156582500Y-97800000D03*
X156582500Y-98200000D03*
X156582500Y-98600000D03*
X156582500Y-99000000D03*
X156582500Y-99400000D03*
X156582500Y-99800000D03*
X156582500Y-100200000D03*
X156582500Y-100600000D03*
X156582500Y-101000000D03*
X156582500Y-101400000D03*
X156582500Y-101800000D03*
X156582500Y-102200000D03*
X156582500Y-102600000D03*
X156582500Y-103000000D03*
D21*
X157420000Y-103837500D03*
X157820000Y-103837500D03*
X158220000Y-103837500D03*
X158620000Y-103837500D03*
X159020000Y-103837500D03*
X159420000Y-103837500D03*
X159820000Y-103837500D03*
X160220000Y-103837500D03*
X160620000Y-103837500D03*
X161020000Y-103837500D03*
X161420000Y-103837500D03*
X161820000Y-103837500D03*
X162220000Y-103837500D03*
X162620000Y-103837500D03*
D22*
X161295000Y-101675000D03*
X161295000Y-100400000D03*
X161295000Y-99125000D03*
X160020000Y-101675000D03*
X160020000Y-100400000D03*
D23*
X160020000Y-100400000D03*
D22*
X160020000Y-99125000D03*
X158745000Y-101675000D03*
X158745000Y-100400000D03*
X158745000Y-99125000D03*
D10*
X162240000Y-91000000D03*
X163200000Y-91000000D03*
D12*
X158020000Y-107330000D03*
X158020000Y-106310000D03*
D16*
X161020000Y-107330000D03*
X161020000Y-108290000D03*
D13*
X155360000Y-103400000D03*
X154400000Y-103400000D03*
D12*
X161200000Y-93220000D03*
X161200000Y-92200000D03*
D24*
X164939999Y-85965999D03*
X155099999Y-85965999D03*
D11*
X149600000Y-79500000D03*
X149600000Y-81400000D03*
D14*
X152399999Y-121919999D03*
D15*
X154939999Y-121919999D03*
X157479999Y-121919999D03*
D14*
X162559999Y-81239999D03*
D15*
X162559999Y-78699999D03*
X165099999Y-81239999D03*
X165099999Y-78699999D03*
X167639999Y-81239999D03*
X167639999Y-78699999D03*
D14*
X156209999Y-81279999D03*
D15*
X153669999Y-81279999D03*
X156209999Y-78739999D03*
X153669999Y-78739999D03*
D25*
X158881141Y-87423222D03*
X160436776Y-88978857D03*
X161638857Y-87776776D03*
X160083222Y-86221141D03*
D14*
X144779999Y-78739999D03*
D15*
X147319999Y-78739999D03*
X144779999Y-81279999D03*
X147319999Y-81279999D03*
X144779999Y-83819999D03*
X147319999Y-83819999D03*
X144779999Y-86359999D03*
X147319999Y-86359999D03*
X144779999Y-88899999D03*
X147319999Y-88899999D03*
X144779999Y-91439999D03*
X147319999Y-91439999D03*
X144779999Y-93979999D03*
X147319999Y-93979999D03*
X144779999Y-96519999D03*
X147319999Y-96519999D03*
X144779999Y-99059999D03*
X147319999Y-99059999D03*
X144779999Y-101599999D03*
X147319999Y-101599999D03*
X144779999Y-104139999D03*
X147319999Y-104139999D03*
X144779999Y-106679999D03*
X147319999Y-106679999D03*
X144779999Y-109219999D03*
X147319999Y-109219999D03*
X144779999Y-111759999D03*
X147319999Y-111759999D03*
X144779999Y-114299999D03*
X147319999Y-114299999D03*
X144779999Y-116839999D03*
X147319999Y-116839999D03*
X144779999Y-119379999D03*
X147319999Y-119379999D03*
X144779999Y-121919999D03*
X147319999Y-121919999D03*
D14*
X172719999Y-78739999D03*
D15*
X175259999Y-78739999D03*
X172719999Y-81279999D03*
X175259999Y-81279999D03*
X172719999Y-83819999D03*
X175259999Y-83819999D03*
X172719999Y-86359999D03*
X175259999Y-86359999D03*
X172719999Y-88899999D03*
X175259999Y-88899999D03*
X172719999Y-91439999D03*
X175259999Y-91439999D03*
X172719999Y-93979999D03*
X175259999Y-93979999D03*
X175259999Y-96519999D03*
X175259999Y-99059999D03*
X172719999Y-101599999D03*
X175259999Y-101599999D03*
X172719999Y-104139999D03*
X175259999Y-104139999D03*
X172719999Y-106679999D03*
X175259999Y-106679999D03*
X172719999Y-109219999D03*
X175259999Y-109219999D03*
X172719999Y-111759999D03*
X175259999Y-111759999D03*
X172719999Y-114299999D03*
X175259999Y-114299999D03*
X172719999Y-116839999D03*
X175259999Y-116839999D03*
X172719999Y-119379999D03*
X175259999Y-119379999D03*
X172719999Y-121919999D03*
X175259999Y-121919999D03*
D16*
X182700000Y-105735000D03*
X182700000Y-104775000D03*
X182700000Y-101120000D03*
X182700000Y-102080000D03*
D26*
X149600000Y-82500000D03*
X157780000Y-98180000D03*
X157995030Y-108749086D03*
X158657698Y-109534822D03*
X151870022Y-102329978D03*
X150972676Y-103605429D03*
X167211041Y-102937014D03*
X165335794Y-102724500D03*
X164749503Y-96800000D03*
X165745338Y-95811342D03*
X167750325Y-95026267D03*
X168623624Y-97815750D03*
X170100000Y-119800000D03*
X161700000Y-118200000D03*
X153700000Y-104400000D03*
X152200000Y-83820000D03*
X167800000Y-84400000D03*
X167800000Y-87600000D03*
X163900000Y-91000000D03*
X159600000Y-92700000D03*
X152200000Y-87600000D03*
X167000000Y-90800000D03*
X149600000Y-78600000D03*
X161700000Y-117270000D03*
X166500000Y-103800000D03*
X161020000Y-109000000D03*
X166900000Y-99200000D03*
X158500000Y-92700000D03*
X153000000Y-99100000D03*
X163000000Y-93400000D03*
X153700000Y-103600000D03*
X157020000Y-108000000D03*
X160020000Y-109000000D03*
X166000000Y-111800000D03*
X159500000Y-91200000D03*
X156020000Y-108000000D03*
X160000000Y-84400000D03*
X159200000Y-95100000D03*
X160200000Y-105200000D03*
X159300000Y-102500000D03*
X159400000Y-98300000D03*
X153600000Y-91400000D03*
X155600000Y-91400000D03*
X157480000Y-91440000D03*
X159015749Y-108876376D03*
X158020000Y-108000000D03*
X152400000Y-101800000D03*
X151520665Y-103094096D03*
X164586304Y-102728892D03*
X166500000Y-102700000D03*
X168000000Y-97400000D03*
X168400000Y-95400000D03*
X164000000Y-96800000D03*
X166376376Y-96215749D03*
D27*
X160083223Y-87183223D02*
X160350000Y-87450000D01*
X160083223Y-86221142D02*
X160083223Y-87183223D01*
X160436777Y-88036777D02*
X160100000Y-87700000D01*
X160436777Y-88978858D02*
X160436777Y-88036777D01*
X157900000Y-87000000D02*
X157600000Y-87300000D01*
X162100000Y-87000000D02*
X162600000Y-87500000D01*
D28*
X161300000Y-89800000D02*
X162400000Y-88700000D01*
X161300000Y-90060000D02*
X161300000Y-89800000D01*
X162400000Y-88700000D02*
X162400000Y-88537919D01*
X162400000Y-88537919D02*
X161638858Y-87776777D01*
X162240000Y-91000000D02*
X161300000Y-90060000D01*
X158881142Y-88881142D02*
X158881142Y-87423223D01*
X161200000Y-91200000D02*
X158881142Y-88881142D01*
X163908173Y-98600000D02*
X163457500Y-98600000D01*
X164608173Y-97900000D02*
X163908173Y-98600000D01*
X168400000Y-95400000D02*
X165900000Y-97900000D01*
X165900000Y-97900000D02*
X164608173Y-97900000D01*
X163883909Y-98200000D02*
X163457500Y-98200000D01*
X164683909Y-97400000D02*
X163883909Y-98200000D01*
X166376376Y-96223624D02*
X165200000Y-97400000D01*
X166376376Y-96215749D02*
X166376376Y-96223624D01*
X165200000Y-97400000D02*
X164683909Y-97400000D01*
D29*
X154200000Y-103600000D02*
X154400000Y-103400000D01*
X153700000Y-103600000D02*
X154200000Y-103600000D01*
X156020000Y-107290000D02*
X156020000Y-108000000D01*
X157020000Y-107290000D02*
X157020000Y-108000000D01*
X165800000Y-103800000D02*
X166500000Y-103800000D01*
X163900000Y-91000000D02*
X163200000Y-91000000D01*
X160240000Y-91200000D02*
X159500000Y-91200000D01*
X149600000Y-81400000D02*
X149600000Y-82500000D01*
X158500000Y-93440000D02*
X158500000Y-92700000D01*
X166195000Y-99200000D02*
X166900000Y-99200000D01*
X149600000Y-79500000D02*
X149600000Y-78600000D01*
X170100000Y-120700000D02*
X170100000Y-119800000D01*
X160980000Y-118200000D02*
X161700000Y-118200000D01*
X160980000Y-117270000D02*
X161700000Y-117270000D01*
D27*
X167200000Y-111800000D02*
X166000000Y-111800000D01*
D29*
X161020000Y-108300008D02*
X161020000Y-109000000D01*
X160020000Y-108300000D02*
X160020000Y-109000000D01*
X157320000Y-103837500D02*
X156762500Y-103837500D01*
X154350000Y-104400000D02*
X153850000Y-104400000D01*
X153662500Y-99100000D02*
X153000000Y-99100000D01*
D30*
X159020000Y-108872125D02*
X159020000Y-107350000D01*
X159015749Y-108876376D02*
X159020000Y-108872125D01*
D28*
X159100000Y-114300000D02*
X160020000Y-114300000D01*
X158020000Y-113220000D02*
X159100000Y-114300000D01*
X158020000Y-110880000D02*
X158020000Y-113220000D01*
X162044000Y-109106000D02*
X161150000Y-110000000D01*
X162044000Y-107457500D02*
X162044000Y-109106000D01*
X161150000Y-110000000D02*
X158900000Y-110000000D01*
X160800000Y-104980000D02*
X160800000Y-106213500D01*
X160620000Y-104800000D02*
X160800000Y-104980000D01*
X160620000Y-103703500D02*
X160620000Y-104800000D01*
X160800000Y-106213500D02*
X162044000Y-107457500D01*
X158900000Y-110000000D02*
X158020000Y-110880000D01*
X158920000Y-113030000D02*
X160020000Y-113030000D01*
X158420000Y-112530000D02*
X158920000Y-113030000D01*
X158420000Y-111180000D02*
X158420000Y-112530000D01*
X159100000Y-110500000D02*
X158420000Y-111180000D01*
X162420000Y-109330000D02*
X161250000Y-110500000D01*
X161250000Y-110500000D02*
X159100000Y-110500000D01*
X161120000Y-105830000D02*
X162420000Y-107130000D01*
X161020000Y-104263909D02*
X161120000Y-104363909D01*
X161020000Y-103767500D02*
X161020000Y-104263909D01*
X161120000Y-104363909D02*
X161120000Y-105830000D01*
X162420000Y-107130000D02*
X162420000Y-109330000D01*
X160590000Y-111760000D02*
X160020000Y-111760000D01*
X162820000Y-109530000D02*
X160590000Y-111760000D01*
X161420000Y-105530000D02*
X162820000Y-106930000D01*
X162820000Y-106930000D02*
X162820000Y-109530000D01*
X161420000Y-103767500D02*
X161420000Y-105530000D01*
X167850000Y-114300000D02*
X167220000Y-114300000D01*
X168420000Y-113730000D02*
X167850000Y-114300000D01*
X162219000Y-105129000D02*
X168420000Y-111330000D01*
X168420000Y-111330000D02*
X168420000Y-113730000D01*
X162219000Y-103768500D02*
X162219000Y-105129000D01*
X165720000Y-113030000D02*
X167220000Y-113030000D01*
X164820000Y-108330000D02*
X164820000Y-112130000D01*
X164820000Y-112130000D02*
X165720000Y-113030000D01*
X161820000Y-105330000D02*
X164820000Y-108330000D01*
X161820000Y-103767500D02*
X161820000Y-105330000D01*
X153396963Y-101800000D02*
X156582500Y-101800000D01*
X152102867Y-103094096D02*
X153396963Y-101800000D01*
X151520665Y-103094096D02*
X152102867Y-103094096D01*
X166000000Y-102200000D02*
X163457500Y-102200000D01*
X166500000Y-102700000D02*
X166000000Y-102200000D01*
X152600000Y-101800000D02*
X153000000Y-101400000D01*
X152400000Y-101800000D02*
X152600000Y-101800000D01*
X153000000Y-101400000D02*
X156582500Y-101400000D01*
X145980000Y-100400000D02*
X144780000Y-101600000D01*
X151100000Y-100400000D02*
X145980000Y-100400000D01*
X151300000Y-100600000D02*
X151100000Y-100400000D01*
X156582500Y-100600000D02*
X151300000Y-100600000D01*
X151860000Y-100200000D02*
X148180000Y-96520000D01*
X156582500Y-100200000D02*
X151860000Y-100200000D01*
X148180000Y-96520000D02*
X147320000Y-96520000D01*
X147920000Y-101000000D02*
X156582500Y-101000000D01*
X147320000Y-101600000D02*
X147920000Y-101000000D01*
X146000000Y-95200000D02*
X144780000Y-93980000D01*
X152560140Y-99800000D02*
X147960140Y-95200000D01*
X156582500Y-99800000D02*
X152560140Y-99800000D01*
X147960140Y-95200000D02*
X146000000Y-95200000D01*
X147320000Y-89120000D02*
X147320000Y-88900000D01*
X155920000Y-97720000D02*
X147320000Y-89120000D01*
X155920000Y-97963909D02*
X155920000Y-97720000D01*
X156156091Y-98200000D02*
X155920000Y-97963909D01*
X156582500Y-98200000D02*
X156156091Y-98200000D01*
X147460000Y-86360000D02*
X147320000Y-86360000D01*
X156582500Y-97482500D02*
X148900000Y-89800000D01*
X148900000Y-89800000D02*
X148900000Y-87800000D01*
X148900000Y-87800000D02*
X147460000Y-86360000D01*
X156582500Y-97800000D02*
X156582500Y-97482500D01*
X150200000Y-84160000D02*
X147320000Y-81280000D01*
X157594264Y-96275000D02*
X157275000Y-96275000D01*
X157275000Y-96275000D02*
X150200000Y-89200000D01*
X157820000Y-96500736D02*
X157594264Y-96275000D01*
X157820000Y-96892500D02*
X157820000Y-96500736D01*
X150200000Y-89200000D02*
X150200000Y-84160000D01*
X149500000Y-86300000D02*
X148400000Y-85200000D01*
X149500000Y-89400000D02*
X149500000Y-86300000D01*
X156992500Y-96892500D02*
X149500000Y-89400000D01*
X157420000Y-96892500D02*
X156992500Y-96892500D01*
X148400000Y-85200000D02*
X146160000Y-85200000D01*
X146160000Y-85200000D02*
X144780000Y-83820000D01*
X157480000Y-94380000D02*
X157480000Y-91440000D01*
X159020000Y-95920000D02*
X157480000Y-94380000D01*
X159020000Y-96962500D02*
X159020000Y-95920000D01*
X158220000Y-96444264D02*
X153600000Y-91824264D01*
X153600000Y-91824264D02*
X153600000Y-91400000D01*
X158220000Y-96962500D02*
X158220000Y-96444264D01*
X155600000Y-93162132D02*
X155600000Y-91400000D01*
X158620000Y-96182132D02*
X155600000Y-93162132D01*
X158620000Y-96962500D02*
X158620000Y-96182132D01*
X168800000Y-92600000D02*
X170000000Y-91400000D01*
X165000000Y-92600000D02*
X168800000Y-92600000D01*
X170000000Y-84000000D02*
X172720000Y-81280000D01*
X161420000Y-96180000D02*
X165000000Y-92600000D01*
X161420000Y-96892500D02*
X161420000Y-96180000D01*
X170000000Y-91400000D02*
X170000000Y-84000000D01*
X173980000Y-85100000D02*
X175260000Y-83820000D01*
X172200000Y-85100000D02*
X173980000Y-85100000D01*
X171100000Y-92200000D02*
X171100000Y-86200000D01*
X162800000Y-96300000D02*
X165500000Y-93600000D01*
X165500000Y-93600000D02*
X169700000Y-93600000D01*
X171100000Y-86200000D02*
X172200000Y-85100000D01*
X162456091Y-96300000D02*
X162800000Y-96300000D01*
X162220000Y-96536091D02*
X162456091Y-96300000D01*
X162220000Y-96892500D02*
X162220000Y-96536091D01*
X169700000Y-93600000D02*
X171100000Y-92200000D01*
X171680000Y-83820000D02*
X172720000Y-83820000D01*
X170500000Y-91800000D02*
X170500000Y-85000000D01*
X170500000Y-85000000D02*
X171680000Y-83820000D01*
X161820000Y-96480000D02*
X165200000Y-93100000D01*
X169200000Y-93100000D02*
X170500000Y-91800000D01*
X161820000Y-96892500D02*
X161820000Y-96480000D01*
X165200000Y-93100000D02*
X169200000Y-93100000D01*
X163007500Y-96892500D02*
X165800000Y-94100000D01*
X165800000Y-94100000D02*
X170060000Y-94100000D01*
X162620000Y-96892500D02*
X163007500Y-96892500D01*
X170060000Y-94100000D02*
X172720000Y-91440000D01*
X172439720Y-113000000D02*
X173960000Y-113000000D01*
X173960000Y-113000000D02*
X175260000Y-114300000D01*
X171000000Y-109300000D02*
X171000000Y-111560280D01*
X169200000Y-104100000D02*
X169200000Y-107500000D01*
X166900000Y-101800000D02*
X169200000Y-104100000D01*
X169200000Y-107500000D02*
X171000000Y-109300000D01*
X163457500Y-101800000D02*
X166900000Y-101800000D01*
X171000000Y-111560280D02*
X172439720Y-113000000D01*
X171500000Y-110540000D02*
X172720000Y-111760000D01*
X171500000Y-109000000D02*
X171500000Y-110540000D01*
X169800000Y-107300000D02*
X171500000Y-109000000D01*
X169800000Y-103800000D02*
X169800000Y-107300000D01*
X163457500Y-101400000D02*
X167400000Y-101400000D01*
X167400000Y-101400000D02*
X169800000Y-103800000D01*
X174040000Y-108000000D02*
X175260000Y-109220000D01*
X171000000Y-106545000D02*
X172455000Y-108000000D01*
X172455000Y-108000000D02*
X174040000Y-108000000D01*
X171000000Y-103100000D02*
X171000000Y-106545000D01*
X168500000Y-100600000D02*
X171000000Y-103100000D01*
X163457500Y-100600000D02*
X168500000Y-100600000D01*
X164457412Y-102600000D02*
X163457500Y-102600000D01*
X164586304Y-102728892D02*
X164457412Y-102600000D01*
X152400000Y-103350000D02*
X152400000Y-121920000D01*
X153550000Y-102200000D02*
X152400000Y-103350000D01*
X156582500Y-102200000D02*
X153550000Y-102200000D01*
D27*
X157820000Y-103200000D02*
X157620000Y-103000000D01*
X157820000Y-104362500D02*
X157820000Y-103200000D01*
X156620000Y-105562500D02*
X157820000Y-104362500D01*
D28*
X173860000Y-100200000D02*
X175260000Y-101600000D01*
X169800000Y-100200000D02*
X173860000Y-100200000D01*
X169400000Y-99800000D02*
X169800000Y-100200000D01*
X163457500Y-99800000D02*
X169400000Y-99800000D01*
X171645000Y-102845000D02*
X171645000Y-105605000D01*
X169000000Y-100200000D02*
X171645000Y-102845000D01*
X171645000Y-105605000D02*
X172720000Y-106680000D01*
X163457500Y-100200000D02*
X169000000Y-100200000D01*
X170400000Y-106900000D02*
X172720000Y-109220000D01*
X170400000Y-103500000D02*
X170400000Y-106900000D01*
X167900000Y-101000000D02*
X170400000Y-103500000D01*
X163457500Y-101000000D02*
X167900000Y-101000000D01*
D29*
X159600000Y-92700000D02*
X159600000Y-93440000D01*
D27*
X161020000Y-96892500D02*
X161020000Y-95380000D01*
X161020000Y-95380000D02*
X163000000Y-93400000D01*
D28*
X160612132Y-95012132D02*
X162240000Y-93384264D01*
X162240000Y-93384264D02*
X162240000Y-91000000D01*
X160620000Y-96892500D02*
X160620000Y-95020000D01*
X160620000Y-95020000D02*
X160612132Y-95012132D01*
X160220000Y-96892500D02*
X160220000Y-94780000D01*
X161200000Y-93800000D02*
X161200000Y-93220000D01*
X160220000Y-94780000D02*
X161200000Y-93800000D01*
D27*
X159820000Y-97530000D02*
X159820000Y-94820000D01*
X159600000Y-104800000D02*
X159600000Y-105000000D01*
D29*
X163457500Y-103100000D02*
X163457500Y-103757500D01*
D27*
X160020000Y-117250000D02*
X160000000Y-117270000D01*
X159600000Y-105000000D02*
X159600000Y-104900000D01*
X163457500Y-103000000D02*
X162620000Y-103000000D01*
X159820000Y-104680000D02*
X159820000Y-103025000D01*
X159620000Y-103025000D02*
X159420000Y-103225000D01*
D29*
X156582500Y-103100000D02*
X156582500Y-103682500D01*
D27*
X156581250Y-99400000D02*
X157418750Y-99400000D01*
X159600000Y-94600000D02*
X159600000Y-94400000D01*
X154900000Y-99300000D02*
X154700000Y-99100000D01*
X160020000Y-106820000D02*
X160020000Y-107330000D01*
X156581250Y-103000000D02*
X157418750Y-103000000D01*
X160020000Y-97730000D02*
X159820000Y-97530000D01*
X163457500Y-99400000D02*
X162600000Y-99400000D01*
X163457500Y-99400000D02*
X165235000Y-99400000D01*
X154995000Y-99400000D02*
X154695000Y-99100000D01*
X159600000Y-106400000D02*
X160020000Y-106820000D01*
X159420000Y-103225000D02*
X159420000Y-104620000D01*
X159600000Y-105000000D02*
X159600000Y-106400000D01*
X159820000Y-94820000D02*
X159600000Y-94600000D01*
X159420000Y-104620000D02*
X159600000Y-104800000D01*
X159600000Y-104900000D02*
X159820000Y-104680000D01*
X156582500Y-99400000D02*
X154995000Y-99400000D01*
X159200000Y-95110000D02*
X159420000Y-95330000D01*
X160220000Y-105180000D02*
X160200000Y-105200000D01*
X160220000Y-103767500D02*
X160220000Y-105180000D01*
X158520000Y-94433300D02*
X158523300Y-94433300D01*
X160220000Y-105220000D02*
X160220000Y-106235025D01*
X159420000Y-95330000D02*
X159420000Y-96892500D01*
X158523300Y-94433300D02*
X159190000Y-95100000D01*
X158220000Y-103875500D02*
X158220000Y-103000000D01*
X158220000Y-104838000D02*
X157020000Y-106038000D01*
X159200000Y-95100000D02*
X159200000Y-95110000D01*
X161020000Y-107035025D02*
X161020000Y-107330000D01*
X157020000Y-106038000D02*
X157020000Y-106438000D01*
X160200000Y-105200000D02*
X160220000Y-105220000D01*
X160220000Y-106235025D02*
X161020000Y-107035025D01*
X159190000Y-95100000D02*
X159200000Y-95100000D01*
X158220000Y-103875500D02*
X158220000Y-104838000D01*
D28*
X165920000Y-119380000D02*
X163830000Y-119380000D01*
X166500000Y-118800000D02*
X165920000Y-119380000D01*
X166500000Y-118240000D02*
X166500000Y-118800000D01*
X167220000Y-116640000D02*
X167800000Y-117220000D01*
X168820000Y-111130000D02*
X168820000Y-114930000D01*
X167220000Y-115570000D02*
X167220000Y-116640000D01*
X167800000Y-117220000D02*
X166500000Y-117220000D01*
X168820000Y-114930000D02*
X168180000Y-115570000D01*
X162620000Y-104930000D02*
X168820000Y-111130000D01*
X168180000Y-115570000D02*
X167220000Y-115570000D01*
X162620000Y-103767500D02*
X162620000Y-104930000D01*
D30*
X158020000Y-108000000D02*
X158020000Y-107330000D01*
D28*
X155900000Y-98600000D02*
X148740000Y-91440000D01*
X148740000Y-91440000D02*
X147320000Y-91440000D01*
X156582500Y-98600000D02*
X155900000Y-98600000D01*
X156582500Y-99000000D02*
X155421188Y-99000000D01*
X150401188Y-93980000D02*
X147320000Y-93980000D01*
X155421188Y-99000000D02*
X150401188Y-93980000D01*
D30*
X159020000Y-103767500D02*
X159020000Y-106330000D01*
X158620000Y-103767500D02*
X158620000Y-105710000D01*
X158620000Y-105710000D02*
X158020000Y-106310000D01*
D28*
X153800000Y-102600000D02*
X152900000Y-103500000D01*
X152900000Y-103500000D02*
X152900000Y-119880000D01*
X152900000Y-119880000D02*
X154940000Y-121920000D01*
X156582500Y-102600000D02*
X153800000Y-102600000D01*
X164115500Y-99000000D02*
X163457500Y-99000000D01*
X167000000Y-98400000D02*
X164715500Y-98400000D01*
X168000000Y-97400000D02*
X167000000Y-98400000D01*
X164715500Y-98400000D02*
X164115500Y-99000000D01*
X164000000Y-96800000D02*
X163457500Y-97342500D01*
X163457500Y-97342500D02*
X163457500Y-97800000D01*
X161200000Y-92200000D02*
X161200000Y-91200000D01*
G04 #@! TA.AperFunction,Conductor*
G36*
X159783000Y-98009914D02*
G01*
X159810086Y-98037000D01*
X159820000Y-98074000D01*
X159820000Y-98200000D01*
X162146000Y-98200000D01*
X162183000Y-98209914D01*
X162210086Y-98237000D01*
X162220000Y-98274000D01*
X162220000Y-102526000D01*
X162210086Y-102563000D01*
X162183000Y-102590086D01*
X162146000Y-102600000D01*
X159420000Y-102600000D01*
X159420000Y-102609743D01*
X159420000Y-102726000D01*
X159410086Y-102763000D01*
X159383000Y-102790086D01*
X159346000Y-102800000D01*
X159020000Y-102800000D01*
X159020000Y-102809743D01*
X159020000Y-103126000D01*
X159010086Y-103163000D01*
X158983000Y-103190086D01*
X158946000Y-103200000D01*
X158136139Y-103200000D01*
X158089195Y-103183203D01*
X158063561Y-103140438D01*
X158060688Y-103126000D01*
X158055966Y-103102260D01*
X158032470Y-103067095D01*
X158020000Y-103025985D01*
X158020000Y-102274000D01*
X158029914Y-102237000D01*
X158057000Y-102209914D01*
X158094000Y-102200000D01*
X161610257Y-102200000D01*
X161620000Y-102200000D01*
X161620000Y-102157990D01*
X161628538Y-102123483D01*
X161646011Y-102103866D01*
X161645315Y-102103170D01*
X161645315Y-102103169D01*
X161723170Y-102025315D01*
X161767643Y-101924594D01*
X161770500Y-101899968D01*
X161770500Y-98900032D01*
X161767643Y-98875406D01*
X161723170Y-98774685D01*
X161645315Y-98696830D01*
X161639042Y-98694060D01*
X161549682Y-98654603D01*
X161549678Y-98654602D01*
X161544594Y-98652357D01*
X161539073Y-98651716D01*
X161539068Y-98651715D01*
X161522096Y-98649746D01*
X161522080Y-98649745D01*
X161519968Y-98649500D01*
X159094000Y-98649500D01*
X159057000Y-98639586D01*
X159029914Y-98612500D01*
X159020000Y-98575500D01*
X159020000Y-98074000D01*
X159029914Y-98037000D01*
X159057000Y-98009914D01*
X159094000Y-98000000D01*
X159746000Y-98000000D01*
X159783000Y-98009914D01*
G37*
G04 #@! TD.AperFunction*
G04 #@! TA.AperFunction,Conductor*
G36*
X162783000Y-97609914D02*
G01*
X162810086Y-97637000D01*
X162820000Y-97674000D01*
X162820000Y-103200000D01*
X160020000Y-103200000D01*
X159249500Y-103200000D01*
X159212500Y-103190086D01*
X159185414Y-103163000D01*
X159175500Y-103126000D01*
X159175500Y-103029500D01*
X159185414Y-102992500D01*
X159212500Y-102965414D01*
X159249500Y-102955500D01*
X159343571Y-102955500D01*
X159346000Y-102955500D01*
X159386246Y-102950202D01*
X159423246Y-102940288D01*
X159460750Y-102924753D01*
X159462175Y-102923659D01*
X159475239Y-102918064D01*
X159489069Y-102914004D01*
X159598049Y-102843967D01*
X159652573Y-102781041D01*
X159677759Y-102762187D01*
X159708500Y-102755500D01*
X162143571Y-102755500D01*
X162146000Y-102755500D01*
X162186246Y-102750202D01*
X162223246Y-102740288D01*
X162260750Y-102724753D01*
X162292955Y-102700041D01*
X162320041Y-102672955D01*
X162344753Y-102640750D01*
X162360288Y-102603246D01*
X162370202Y-102566246D01*
X162375500Y-102526000D01*
X162375500Y-98274000D01*
X162370202Y-98233754D01*
X162360288Y-98196754D01*
X162344753Y-98159250D01*
X162320041Y-98127045D01*
X162292955Y-98099959D01*
X162260750Y-98075247D01*
X162256274Y-98073393D01*
X162256269Y-98073390D01*
X162225477Y-98060636D01*
X162225475Y-98060635D01*
X162223246Y-98059712D01*
X162214290Y-98057312D01*
X162188584Y-98050424D01*
X162188577Y-98050422D01*
X162186246Y-98049798D01*
X162183849Y-98049482D01*
X162183842Y-98049481D01*
X162148408Y-98044817D01*
X162146000Y-98044500D01*
X162143571Y-98044500D01*
X160029356Y-98044500D01*
X159986253Y-98030651D01*
X159960918Y-97996492D01*
X159960288Y-97996754D01*
X159946609Y-97963730D01*
X159946607Y-97963728D01*
X159944753Y-97959250D01*
X159920041Y-97927045D01*
X159892955Y-97899959D01*
X159860750Y-97875247D01*
X159856274Y-97873393D01*
X159856269Y-97873390D01*
X159825477Y-97860636D01*
X159825475Y-97860635D01*
X159823246Y-97859712D01*
X159814290Y-97857312D01*
X159788584Y-97850424D01*
X159788577Y-97850422D01*
X159786246Y-97849798D01*
X159783849Y-97849482D01*
X159783842Y-97849481D01*
X159748408Y-97844817D01*
X159746000Y-97844500D01*
X159094000Y-97844500D01*
X159091592Y-97844816D01*
X159091591Y-97844817D01*
X159056157Y-97849481D01*
X159056147Y-97849482D01*
X159053754Y-97849798D01*
X159051425Y-97850421D01*
X159051415Y-97850424D01*
X159019086Y-97859087D01*
X159019083Y-97859087D01*
X159016754Y-97859712D01*
X159014529Y-97860633D01*
X159014522Y-97860636D01*
X158983730Y-97873390D01*
X158983722Y-97873394D01*
X158979250Y-97875247D01*
X158975405Y-97878196D01*
X158975402Y-97878199D01*
X158948964Y-97898486D01*
X158948959Y-97898489D01*
X158947045Y-97899959D01*
X158945341Y-97901662D01*
X158945333Y-97901670D01*
X158921670Y-97925333D01*
X158921662Y-97925341D01*
X158919959Y-97927045D01*
X158918489Y-97928959D01*
X158918486Y-97928964D01*
X158898199Y-97955402D01*
X158898196Y-97955405D01*
X158895247Y-97959250D01*
X158893394Y-97963722D01*
X158893390Y-97963730D01*
X158880636Y-97994522D01*
X158880633Y-97994529D01*
X158879712Y-97996754D01*
X158879087Y-97999083D01*
X158879087Y-97999086D01*
X158870424Y-98031415D01*
X158870421Y-98031425D01*
X158869798Y-98033754D01*
X158869482Y-98036147D01*
X158869481Y-98036157D01*
X158866463Y-98059087D01*
X158864500Y-98074000D01*
X158864500Y-98076429D01*
X158864500Y-98575500D01*
X158854586Y-98612500D01*
X158827500Y-98639586D01*
X158790500Y-98649500D01*
X158520032Y-98649500D01*
X158517920Y-98649745D01*
X158517903Y-98649746D01*
X158500931Y-98651715D01*
X158500924Y-98651716D01*
X158495406Y-98652357D01*
X158490323Y-98654601D01*
X158490317Y-98654603D01*
X158400957Y-98694060D01*
X158400954Y-98694061D01*
X158394685Y-98696830D01*
X158389839Y-98701675D01*
X158389836Y-98701678D01*
X158321678Y-98769836D01*
X158321675Y-98769839D01*
X158316830Y-98774685D01*
X158314061Y-98780954D01*
X158314060Y-98780957D01*
X158274603Y-98870317D01*
X158274601Y-98870323D01*
X158272357Y-98875406D01*
X158271716Y-98880924D01*
X158271715Y-98880931D01*
X158269746Y-98897903D01*
X158269745Y-98897920D01*
X158269500Y-98900032D01*
X158269500Y-101899968D01*
X158269745Y-101902080D01*
X158269746Y-101902096D01*
X158271715Y-101919068D01*
X158271716Y-101919073D01*
X158272357Y-101924594D01*
X158274602Y-101929679D01*
X158274604Y-101929685D01*
X158279428Y-101940609D01*
X158283499Y-101988549D01*
X158257233Y-102028859D01*
X158211734Y-102044500D01*
X158094000Y-102044500D01*
X158091592Y-102044816D01*
X158091591Y-102044817D01*
X158056157Y-102049481D01*
X158056147Y-102049482D01*
X158053754Y-102049798D01*
X158051425Y-102050421D01*
X158051415Y-102050424D01*
X158019086Y-102059087D01*
X158019083Y-102059087D01*
X158016754Y-102059712D01*
X158014529Y-102060633D01*
X158014522Y-102060636D01*
X157983730Y-102073390D01*
X157983722Y-102073394D01*
X157979250Y-102075247D01*
X157975405Y-102078196D01*
X157975402Y-102078199D01*
X157948964Y-102098486D01*
X157948959Y-102098489D01*
X157947045Y-102099959D01*
X157945341Y-102101662D01*
X157945333Y-102101670D01*
X157921670Y-102125333D01*
X157921662Y-102125341D01*
X157919959Y-102127045D01*
X157918489Y-102128959D01*
X157918486Y-102128964D01*
X157898199Y-102155402D01*
X157898196Y-102155405D01*
X157895247Y-102159250D01*
X157893394Y-102163722D01*
X157893390Y-102163730D01*
X157880636Y-102194522D01*
X157880633Y-102194529D01*
X157879712Y-102196754D01*
X157879087Y-102199083D01*
X157879087Y-102199086D01*
X157870424Y-102231415D01*
X157870421Y-102231425D01*
X157869798Y-102233754D01*
X157869482Y-102236147D01*
X157869481Y-102236157D01*
X157865060Y-102269748D01*
X157864500Y-102274000D01*
X157864500Y-103025985D01*
X157871195Y-103071122D01*
X157881325Y-103104520D01*
X157880585Y-103149787D01*
X157853615Y-103186151D01*
X157810512Y-103200000D01*
X157294000Y-103200000D01*
X157257000Y-103190086D01*
X157229914Y-103163000D01*
X157220000Y-103126000D01*
X157220000Y-97674000D01*
X157229914Y-97637000D01*
X157257000Y-97609914D01*
X157294000Y-97600000D01*
X162746000Y-97600000D01*
X162783000Y-97609914D01*
G37*
G04 #@! TD.AperFunction*
G04 #@! TA.AperFunction,Conductor*
G36*
X168225500Y-82985263D02*
G01*
X168261737Y-83021500D01*
X168275000Y-83071000D01*
X168275000Y-92017000D01*
X168261737Y-92066500D01*
X168225500Y-92102737D01*
X168176000Y-92116000D01*
X164800000Y-92116000D01*
X164793089Y-92123071D01*
X164793086Y-92123074D01*
X161229128Y-95770192D01*
X161196734Y-95792244D01*
X161158322Y-95800000D01*
X160994500Y-95800000D01*
X160945000Y-95786737D01*
X160908763Y-95750500D01*
X160895500Y-95701000D01*
X160895500Y-95159388D01*
X160903036Y-95121502D01*
X160924496Y-95089384D01*
X161133381Y-94880499D01*
X162408732Y-93605146D01*
X162423729Y-93592839D01*
X162438624Y-93582888D01*
X162460330Y-93550404D01*
X162481244Y-93519103D01*
X162499515Y-93491759D01*
X162515500Y-93411397D01*
X162515500Y-93411396D01*
X162518258Y-93397529D01*
X162518995Y-93393826D01*
X162520897Y-93384264D01*
X162517401Y-93366692D01*
X162515500Y-93347380D01*
X162515500Y-91545585D01*
X162531006Y-91492390D01*
X162564308Y-91463186D01*
X162563373Y-91461851D01*
X162570466Y-91456884D01*
X162578316Y-91453224D01*
X162584439Y-91447100D01*
X162591537Y-91442131D01*
X162593184Y-91444484D01*
X162628895Y-91425024D01*
X162684749Y-91429199D01*
X162729398Y-91463015D01*
X162740952Y-91478670D01*
X162751329Y-91489047D01*
X162846111Y-91559000D01*
X162859080Y-91565855D01*
X162971587Y-91605222D01*
X162983270Y-91607775D01*
X163004700Y-91609784D01*
X163009308Y-91610000D01*
X163036967Y-91610000D01*
X163047245Y-91607245D01*
X163050000Y-91596967D01*
X163050000Y-91596966D01*
X163350000Y-91596966D01*
X163352754Y-91607244D01*
X163363033Y-91609999D01*
X163390688Y-91609999D01*
X163395305Y-91609783D01*
X163416722Y-91607775D01*
X163428416Y-91605221D01*
X163540919Y-91565855D01*
X163553888Y-91559000D01*
X163648670Y-91489047D01*
X163659047Y-91478670D01*
X163729000Y-91383888D01*
X163735855Y-91370919D01*
X163775222Y-91258412D01*
X163777775Y-91246729D01*
X163779784Y-91225299D01*
X163780000Y-91220692D01*
X163780000Y-91163033D01*
X163777245Y-91152754D01*
X163766967Y-91150000D01*
X163363033Y-91150000D01*
X163352754Y-91152754D01*
X163350000Y-91163033D01*
X163350000Y-91596966D01*
X163050000Y-91596966D01*
X163050000Y-90836967D01*
X163350000Y-90836967D01*
X163352754Y-90847245D01*
X163363033Y-90850000D01*
X163766966Y-90850000D01*
X163777244Y-90847245D01*
X163779999Y-90836967D01*
X163779999Y-90779312D01*
X163779783Y-90774694D01*
X163777775Y-90753277D01*
X163775221Y-90741583D01*
X163735855Y-90629080D01*
X163729000Y-90616111D01*
X163659047Y-90521329D01*
X163648670Y-90510952D01*
X163553888Y-90440999D01*
X163540919Y-90434144D01*
X163428412Y-90394777D01*
X163416729Y-90392224D01*
X163395299Y-90390215D01*
X163390692Y-90390000D01*
X163363033Y-90390000D01*
X163352754Y-90392754D01*
X163350000Y-90403033D01*
X163350000Y-90836967D01*
X163050000Y-90836967D01*
X163050000Y-90403034D01*
X163047245Y-90392755D01*
X163036967Y-90390001D01*
X163009312Y-90390001D01*
X163004694Y-90390216D01*
X162983277Y-90392224D01*
X162971583Y-90394778D01*
X162859080Y-90434144D01*
X162846111Y-90440999D01*
X162751329Y-90510952D01*
X162740949Y-90521332D01*
X162729396Y-90536986D01*
X162684758Y-90570796D01*
X162628917Y-90574980D01*
X162593183Y-90555520D01*
X162591539Y-90557870D01*
X162584438Y-90552898D01*
X162578316Y-90546776D01*
X162570465Y-90543115D01*
X162476355Y-90499230D01*
X162476351Y-90499228D01*
X162469487Y-90496028D01*
X162461979Y-90495039D01*
X162461974Y-90495038D01*
X162423114Y-90489923D01*
X162419901Y-90489500D01*
X162416660Y-90489500D01*
X162160124Y-90489500D01*
X162122238Y-90481964D01*
X162090120Y-90460504D01*
X161629619Y-90000003D01*
X161603996Y-89955622D01*
X161603996Y-89904376D01*
X161629616Y-89859999D01*
X162568732Y-88920882D01*
X162583729Y-88908575D01*
X162598624Y-88898624D01*
X162659515Y-88807495D01*
X162675500Y-88727133D01*
X162675500Y-88727132D01*
X162680897Y-88700000D01*
X162677401Y-88682428D01*
X162675500Y-88663116D01*
X162675500Y-88574803D01*
X162677402Y-88555488D01*
X162678995Y-88547480D01*
X162680897Y-88537919D01*
X162659515Y-88430424D01*
X162613994Y-88362297D01*
X162617155Y-88360184D01*
X162617154Y-88360181D01*
X162613992Y-88362295D01*
X162598624Y-88339295D01*
X162583733Y-88329345D01*
X162568731Y-88317034D01*
X162540420Y-88288723D01*
X162514797Y-88244342D01*
X162514797Y-88193096D01*
X162540420Y-88148715D01*
X162540420Y-88148714D01*
X162713836Y-87975299D01*
X162746964Y-87925719D01*
X162762524Y-87847488D01*
X162746964Y-87769256D01*
X162713836Y-87719677D01*
X162340434Y-87346275D01*
X162313340Y-87295585D01*
X162316937Y-87259061D01*
X162280414Y-87262659D01*
X162229724Y-87235565D01*
X162029907Y-87035748D01*
X162359500Y-87035748D01*
X162371133Y-87094231D01*
X162382044Y-87110560D01*
X162398728Y-87165561D01*
X162393628Y-87182370D01*
X162410439Y-87177271D01*
X162465438Y-87193955D01*
X162481769Y-87204867D01*
X162540252Y-87216500D01*
X167334890Y-87216500D01*
X167339748Y-87216500D01*
X167398231Y-87204867D01*
X167464552Y-87160552D01*
X167508867Y-87094231D01*
X167520500Y-87035748D01*
X167520500Y-84896252D01*
X167508867Y-84837769D01*
X167464552Y-84771448D01*
X167456441Y-84766028D01*
X167406340Y-84732551D01*
X167406338Y-84732550D01*
X167398231Y-84727133D01*
X167388667Y-84725230D01*
X167388666Y-84725230D01*
X167344511Y-84716447D01*
X167344506Y-84716446D01*
X167339748Y-84715500D01*
X162540252Y-84715500D01*
X162535494Y-84716446D01*
X162535488Y-84716447D01*
X162491333Y-84725230D01*
X162491330Y-84725231D01*
X162481769Y-84727133D01*
X162473663Y-84732549D01*
X162473659Y-84732551D01*
X162423558Y-84766028D01*
X162423555Y-84766030D01*
X162415448Y-84771448D01*
X162410030Y-84779555D01*
X162410028Y-84779558D01*
X162376551Y-84829659D01*
X162376549Y-84829663D01*
X162371133Y-84837769D01*
X162369231Y-84847330D01*
X162369230Y-84847333D01*
X162360447Y-84891488D01*
X162360446Y-84891494D01*
X162359500Y-84896252D01*
X162359500Y-87035748D01*
X162029907Y-87035748D01*
X161699391Y-86705232D01*
X161695958Y-86701799D01*
X161646379Y-86668671D01*
X161636818Y-86666769D01*
X161636815Y-86666768D01*
X161577710Y-86655013D01*
X161568147Y-86653111D01*
X161558584Y-86655013D01*
X161499477Y-86666769D01*
X161499475Y-86666769D01*
X161489916Y-86668671D01*
X161481814Y-86674084D01*
X161481810Y-86674086D01*
X161444380Y-86699096D01*
X161444374Y-86699100D01*
X161440336Y-86701799D01*
X161436903Y-86705231D01*
X161436898Y-86705236D01*
X160567317Y-87574817D01*
X160567312Y-87574822D01*
X160563880Y-87578255D01*
X160561181Y-87582293D01*
X160561177Y-87582299D01*
X160536167Y-87619729D01*
X160536165Y-87619733D01*
X160530752Y-87627835D01*
X160515192Y-87706066D01*
X160517094Y-87715629D01*
X160528849Y-87774734D01*
X160528850Y-87774737D01*
X160530752Y-87784298D01*
X160563880Y-87833877D01*
X160565167Y-87835164D01*
X160580991Y-87863099D01*
X160586777Y-87896449D01*
X160586777Y-89029858D01*
X160573514Y-89079358D01*
X160537277Y-89115595D01*
X160487777Y-89128858D01*
X160385777Y-89128858D01*
X160336277Y-89115595D01*
X160300040Y-89079358D01*
X160286777Y-89029858D01*
X160286777Y-87780675D01*
X160284583Y-87771812D01*
X160275524Y-87772969D01*
X160212345Y-87797445D01*
X160199563Y-87804759D01*
X160187848Y-87814039D01*
X160183592Y-87817829D01*
X159325646Y-88675777D01*
X159274956Y-88702871D01*
X159217756Y-88697237D01*
X159173327Y-88660774D01*
X159156642Y-88605773D01*
X159156642Y-88462231D01*
X159164178Y-88424345D01*
X159185638Y-88392227D01*
X159429150Y-88148715D01*
X159956120Y-87621745D01*
X159989248Y-87572165D01*
X160004808Y-87493934D01*
X159989969Y-87419325D01*
X160233223Y-87419325D01*
X160235416Y-87428187D01*
X160244475Y-87427030D01*
X160307654Y-87402554D01*
X160320436Y-87395240D01*
X160332151Y-87385960D01*
X160336407Y-87382170D01*
X161244254Y-86474322D01*
X161248035Y-86470077D01*
X161257318Y-86458357D01*
X161264636Y-86445570D01*
X161289111Y-86382394D01*
X161290268Y-86373335D01*
X161281406Y-86371142D01*
X160246256Y-86371142D01*
X160235977Y-86373896D01*
X160233223Y-86384175D01*
X160233223Y-87419325D01*
X159989969Y-87419325D01*
X159989248Y-87415702D01*
X159956120Y-87366123D01*
X159954832Y-87364835D01*
X159939009Y-87336901D01*
X159933223Y-87303551D01*
X159933223Y-86384175D01*
X159930468Y-86373896D01*
X159920190Y-86371142D01*
X159000814Y-86371142D01*
X158967464Y-86365356D01*
X158939529Y-86349532D01*
X158938242Y-86348245D01*
X158888663Y-86315117D01*
X158879102Y-86313215D01*
X158879099Y-86313214D01*
X158819994Y-86301459D01*
X158810431Y-86299557D01*
X158800868Y-86301459D01*
X158741761Y-86313215D01*
X158741759Y-86313215D01*
X158732200Y-86315117D01*
X158724098Y-86320530D01*
X158724094Y-86320532D01*
X158686664Y-86345542D01*
X158686658Y-86345546D01*
X158682620Y-86348245D01*
X158679187Y-86351677D01*
X158679182Y-86351682D01*
X157827944Y-87202920D01*
X157781050Y-87229181D01*
X157779229Y-87229109D01*
X157774068Y-87272735D01*
X157773036Y-87274281D01*
X157771135Y-87283838D01*
X157771134Y-87283841D01*
X157767214Y-87303551D01*
X157757476Y-87352512D01*
X157759378Y-87362075D01*
X157771133Y-87421180D01*
X157771134Y-87421183D01*
X157773036Y-87430744D01*
X157806164Y-87480323D01*
X157809597Y-87483756D01*
X158576646Y-88250805D01*
X158598106Y-88282923D01*
X158605642Y-88320809D01*
X158605642Y-88844258D01*
X158603740Y-88863570D01*
X158600245Y-88881142D01*
X158605642Y-88908274D01*
X158605642Y-88908275D01*
X158621627Y-88988637D01*
X158682518Y-89079766D01*
X158690627Y-89085184D01*
X158697408Y-89089715D01*
X158712411Y-89102027D01*
X160043574Y-90433190D01*
X160068701Y-90475787D01*
X160070088Y-90525223D01*
X160047389Y-90569162D01*
X160006268Y-90596638D01*
X159899081Y-90634144D01*
X159886111Y-90640999D01*
X159791329Y-90710952D01*
X159780952Y-90721329D01*
X159710999Y-90816111D01*
X159704144Y-90829080D01*
X159664777Y-90941587D01*
X159662224Y-90953270D01*
X159660215Y-90974700D01*
X159660000Y-90979308D01*
X159660000Y-91036967D01*
X159662754Y-91047245D01*
X159673033Y-91050000D01*
X160291000Y-91050000D01*
X160340500Y-91063263D01*
X160376737Y-91099500D01*
X160390000Y-91149000D01*
X160390000Y-91796966D01*
X160392754Y-91807244D01*
X160403033Y-91809999D01*
X160430688Y-91809999D01*
X160435305Y-91809783D01*
X160456722Y-91807775D01*
X160468416Y-91805221D01*
X160580919Y-91765854D01*
X160590317Y-91760888D01*
X160650110Y-91750343D01*
X160704814Y-91776686D01*
X160733852Y-91830008D01*
X160726303Y-91890251D01*
X160685932Y-91976827D01*
X160684943Y-91984332D01*
X160684942Y-91984339D01*
X160680643Y-92017000D01*
X160679500Y-92025684D01*
X160679500Y-92374316D01*
X160679923Y-92377529D01*
X160684942Y-92415660D01*
X160684943Y-92415665D01*
X160685932Y-92423173D01*
X160689132Y-92430037D01*
X160689134Y-92430041D01*
X160718262Y-92492505D01*
X160735935Y-92530404D01*
X160819596Y-92614065D01*
X160832918Y-92620277D01*
X160874572Y-92656808D01*
X160890076Y-92710000D01*
X160874572Y-92763192D01*
X160832918Y-92799722D01*
X160829124Y-92801491D01*
X160827442Y-92802276D01*
X160827440Y-92802276D01*
X160819596Y-92805935D01*
X160813476Y-92812054D01*
X160813473Y-92812057D01*
X160742057Y-92883473D01*
X160742054Y-92883476D01*
X160735935Y-92889596D01*
X160732275Y-92897444D01*
X160732274Y-92897446D01*
X160689134Y-92989958D01*
X160689132Y-92989964D01*
X160685932Y-92996827D01*
X160684943Y-93004332D01*
X160684942Y-93004339D01*
X160679923Y-93042470D01*
X160679500Y-93045684D01*
X160679500Y-93394316D01*
X160679923Y-93397529D01*
X160684942Y-93435660D01*
X160684943Y-93435665D01*
X160685932Y-93443173D01*
X160689132Y-93450037D01*
X160689134Y-93450041D01*
X160721339Y-93519103D01*
X160735935Y-93550404D01*
X160819298Y-93633767D01*
X160819596Y-93634065D01*
X160819561Y-93634099D01*
X160851427Y-93674397D01*
X160856378Y-93730970D01*
X160829427Y-93780956D01*
X160279503Y-94330880D01*
X160228813Y-94357974D01*
X160171613Y-94352340D01*
X160127184Y-94315877D01*
X160110499Y-94260876D01*
X160110499Y-94223342D01*
X160110499Y-94220100D01*
X160103972Y-94170513D01*
X160070275Y-94098251D01*
X160061000Y-94056413D01*
X160061000Y-93957726D01*
X160068536Y-93919840D01*
X160085131Y-93895002D01*
X160084641Y-93894641D01*
X160159000Y-93793888D01*
X160165855Y-93780919D01*
X160205222Y-93668412D01*
X160207775Y-93656729D01*
X160209784Y-93635299D01*
X160210000Y-93630692D01*
X160210000Y-93603033D01*
X160207245Y-93592754D01*
X160196967Y-93590000D01*
X160061000Y-93590000D01*
X160061000Y-93290000D01*
X160196966Y-93290000D01*
X160207244Y-93287245D01*
X160209999Y-93276967D01*
X160209999Y-93249312D01*
X160209783Y-93244694D01*
X160207775Y-93223277D01*
X160205221Y-93211583D01*
X160165855Y-93099080D01*
X160159000Y-93086111D01*
X160084641Y-92985359D01*
X160085131Y-92984997D01*
X160068536Y-92960160D01*
X160061000Y-92922274D01*
X160061000Y-92409746D01*
X160061000Y-92400000D01*
X159082163Y-91420688D01*
X159660001Y-91420688D01*
X159660216Y-91425305D01*
X159662224Y-91446722D01*
X159664778Y-91458416D01*
X159704144Y-91570919D01*
X159710999Y-91583888D01*
X159780952Y-91678670D01*
X159791329Y-91689047D01*
X159886111Y-91759000D01*
X159899080Y-91765855D01*
X160011587Y-91805222D01*
X160023270Y-91807775D01*
X160044700Y-91809784D01*
X160049308Y-91810000D01*
X160076967Y-91810000D01*
X160087245Y-91807245D01*
X160090000Y-91796967D01*
X160090000Y-91363033D01*
X160087245Y-91352754D01*
X160076967Y-91350000D01*
X159673034Y-91350000D01*
X159662755Y-91352754D01*
X159660001Y-91363033D01*
X159660001Y-91420688D01*
X159082163Y-91420688D01*
X158302852Y-90640999D01*
X158006895Y-90344898D01*
X158006893Y-90344897D01*
X158000000Y-90338000D01*
X157990247Y-90338000D01*
X151864000Y-90338000D01*
X151814500Y-90324737D01*
X151778263Y-90288500D01*
X151765000Y-90239000D01*
X151765000Y-87035748D01*
X152519500Y-87035748D01*
X152531133Y-87094231D01*
X152575448Y-87160552D01*
X152641769Y-87204867D01*
X152700252Y-87216500D01*
X157494890Y-87216500D01*
X157499748Y-87216500D01*
X157558231Y-87204867D01*
X157624552Y-87160552D01*
X157625944Y-87162635D01*
X157658809Y-87144222D01*
X157660644Y-87144293D01*
X157666077Y-87098405D01*
X157668867Y-87094231D01*
X157680500Y-87035748D01*
X157680500Y-86068948D01*
X158876177Y-86068948D01*
X158885040Y-86071142D01*
X159920190Y-86071142D01*
X159930468Y-86068387D01*
X159933223Y-86058109D01*
X160233223Y-86058109D01*
X160235977Y-86068387D01*
X160246256Y-86071142D01*
X161191329Y-86071142D01*
X161199807Y-86068569D01*
X161195632Y-86060759D01*
X160243605Y-85108733D01*
X160235795Y-85104558D01*
X160233223Y-85113037D01*
X160233223Y-86058109D01*
X159933223Y-86058109D01*
X159933223Y-85022959D01*
X159931029Y-85014096D01*
X159921970Y-85015253D01*
X159858791Y-85039729D01*
X159846009Y-85047043D01*
X159834294Y-85056323D01*
X159830038Y-85060113D01*
X158922191Y-85967961D01*
X158918410Y-85972206D01*
X158909127Y-85983926D01*
X158901809Y-85996713D01*
X158877334Y-86059889D01*
X158876177Y-86068948D01*
X157680500Y-86068948D01*
X157680500Y-84896252D01*
X157668867Y-84837769D01*
X157624552Y-84771448D01*
X157616441Y-84766028D01*
X157566340Y-84732551D01*
X157566338Y-84732550D01*
X157558231Y-84727133D01*
X157548667Y-84725230D01*
X157548666Y-84725230D01*
X157504511Y-84716447D01*
X157504506Y-84716446D01*
X157499748Y-84715500D01*
X152700252Y-84715500D01*
X152695494Y-84716446D01*
X152695488Y-84716447D01*
X152651333Y-84725230D01*
X152651330Y-84725231D01*
X152641769Y-84727133D01*
X152633663Y-84732549D01*
X152633659Y-84732551D01*
X152583558Y-84766028D01*
X152583555Y-84766030D01*
X152575448Y-84771448D01*
X152570030Y-84779555D01*
X152570028Y-84779558D01*
X152536551Y-84829659D01*
X152536549Y-84829663D01*
X152531133Y-84837769D01*
X152529231Y-84847330D01*
X152529230Y-84847333D01*
X152520447Y-84891488D01*
X152520446Y-84891494D01*
X152519500Y-84896252D01*
X152519500Y-87035748D01*
X151765000Y-87035748D01*
X151765000Y-83071000D01*
X151778263Y-83021500D01*
X151814500Y-82985263D01*
X151864000Y-82972000D01*
X168176000Y-82972000D01*
X168225500Y-82985263D01*
G37*
G04 #@! TD.AperFunction*
G04 #@! TA.AperFunction,Conductor*
G36*
X163507971Y-102963746D02*
G01*
X163544228Y-102999985D01*
X163557500Y-103049499D01*
X163557500Y-103386966D01*
X163560254Y-103397244D01*
X163570533Y-103399999D01*
X163874639Y-103399999D01*
X163881758Y-103399483D01*
X163938637Y-103391196D01*
X163953158Y-103386709D01*
X164043820Y-103342388D01*
X164056987Y-103332987D01*
X164127987Y-103261987D01*
X164137386Y-103248822D01*
X164144833Y-103233589D01*
X164184077Y-103191444D01*
X164240136Y-103178270D01*
X164294043Y-103198522D01*
X164308679Y-103209753D01*
X164309479Y-103210084D01*
X164345669Y-103247652D01*
X164356865Y-103301310D01*
X164337797Y-103352701D01*
X164291001Y-103416107D01*
X164284144Y-103429080D01*
X164244777Y-103541587D01*
X164242224Y-103553270D01*
X164240215Y-103574700D01*
X164240000Y-103579308D01*
X164240000Y-103636967D01*
X164242754Y-103647245D01*
X164253033Y-103650000D01*
X164871000Y-103650000D01*
X164920500Y-103663263D01*
X164956737Y-103699500D01*
X164970000Y-103749000D01*
X164970000Y-104396966D01*
X164972754Y-104407244D01*
X164983033Y-104409999D01*
X165010688Y-104409999D01*
X165015305Y-104409783D01*
X165036722Y-104407775D01*
X165048416Y-104405221D01*
X165160919Y-104365855D01*
X165173888Y-104359000D01*
X165274641Y-104284641D01*
X165275203Y-104285402D01*
X165307154Y-104265819D01*
X165353237Y-104262189D01*
X165395944Y-104279878D01*
X165402101Y-104284351D01*
X165407609Y-104289859D01*
X165517825Y-104346017D01*
X165609265Y-104360500D01*
X165950734Y-104360499D01*
X166042175Y-104346017D01*
X166152391Y-104289859D01*
X166153596Y-104292225D01*
X166185967Y-104279497D01*
X166235590Y-104286334D01*
X166356291Y-104336330D01*
X166500000Y-104355250D01*
X166643709Y-104336330D01*
X166777625Y-104280861D01*
X166892621Y-104192621D01*
X166936071Y-104135995D01*
X166980290Y-104103403D01*
X167035078Y-104099401D01*
X167083561Y-104125221D01*
X168810120Y-105800999D01*
X168844451Y-105834320D01*
X168866679Y-105866793D01*
X168874500Y-105905360D01*
X168874500Y-107481466D01*
X168874123Y-107490094D01*
X168870736Y-107528807D01*
X168872977Y-107537170D01*
X168880795Y-107566349D01*
X168882664Y-107574778D01*
X168887907Y-107604515D01*
X168887908Y-107604519D01*
X168889412Y-107613045D01*
X168893741Y-107620544D01*
X168895739Y-107626031D01*
X168898204Y-107631317D01*
X168900446Y-107639684D01*
X168905414Y-107646779D01*
X168905415Y-107646781D01*
X168922732Y-107671512D01*
X168927371Y-107678793D01*
X168946806Y-107712455D01*
X168953443Y-107718024D01*
X168976570Y-107737430D01*
X168982938Y-107743264D01*
X170645504Y-109405831D01*
X170666964Y-109437949D01*
X170674500Y-109475835D01*
X170674500Y-111541746D01*
X170674123Y-111550374D01*
X170670736Y-111589087D01*
X170678684Y-111618753D01*
X170680795Y-111626629D01*
X170682664Y-111635058D01*
X170687907Y-111664795D01*
X170687908Y-111664799D01*
X170689412Y-111673325D01*
X170693741Y-111680824D01*
X170695739Y-111686311D01*
X170698204Y-111691597D01*
X170700446Y-111699964D01*
X170705414Y-111707059D01*
X170705415Y-111707061D01*
X170722732Y-111731792D01*
X170727371Y-111739073D01*
X170746806Y-111772735D01*
X170753443Y-111778304D01*
X170776570Y-111797710D01*
X170782938Y-111803544D01*
X172177696Y-113198302D01*
X172205006Y-113250114D01*
X172198257Y-113308294D01*
X172159810Y-113352477D01*
X172057850Y-113415608D01*
X172057836Y-113415617D01*
X172053959Y-113418019D01*
X172050584Y-113421095D01*
X172050577Y-113421101D01*
X171906612Y-113552343D01*
X171903236Y-113555421D01*
X171900485Y-113559063D01*
X171900483Y-113559066D01*
X171783082Y-113714529D01*
X171783075Y-113714538D01*
X171780327Y-113718179D01*
X171778291Y-113722266D01*
X171778287Y-113722274D01*
X171691460Y-113896648D01*
X171691458Y-113896652D01*
X171689418Y-113900750D01*
X171688167Y-113905144D01*
X171688164Y-113905154D01*
X171634853Y-114092521D01*
X171634851Y-114092529D01*
X171633603Y-114096917D01*
X171633181Y-114101462D01*
X171633181Y-114101467D01*
X171616041Y-114286436D01*
X171614785Y-114300000D01*
X171615207Y-114304554D01*
X171631604Y-114481518D01*
X171633603Y-114503083D01*
X171634852Y-114507472D01*
X171634853Y-114507478D01*
X171688164Y-114694845D01*
X171688166Y-114694851D01*
X171689418Y-114699250D01*
X171691459Y-114703350D01*
X171691460Y-114703351D01*
X171764730Y-114850499D01*
X171780327Y-114881821D01*
X171783079Y-114885465D01*
X171783082Y-114885470D01*
X171831947Y-114950177D01*
X171903236Y-115044579D01*
X172053959Y-115181981D01*
X172227363Y-115289348D01*
X172231630Y-115291001D01*
X172413274Y-115361370D01*
X172413275Y-115361370D01*
X172417544Y-115363024D01*
X172618024Y-115400500D01*
X172817393Y-115400500D01*
X172821976Y-115400500D01*
X173022456Y-115363024D01*
X173212637Y-115289348D01*
X173386041Y-115181981D01*
X173536764Y-115044579D01*
X173659673Y-114881821D01*
X173661713Y-114877723D01*
X173664123Y-114873832D01*
X173664853Y-114874284D01*
X173691398Y-114842744D01*
X173734450Y-114824771D01*
X173780952Y-114828510D01*
X173820578Y-114853131D01*
X174701684Y-115749170D01*
X174728510Y-115800937D01*
X174721547Y-115858824D01*
X174683212Y-115902754D01*
X174597855Y-115955605D01*
X174597842Y-115955614D01*
X174593959Y-115958019D01*
X174590584Y-115961095D01*
X174590577Y-115961101D01*
X174446612Y-116092343D01*
X174443236Y-116095421D01*
X174440485Y-116099063D01*
X174440483Y-116099066D01*
X174323082Y-116254529D01*
X174323075Y-116254538D01*
X174320327Y-116258179D01*
X174318291Y-116262266D01*
X174318287Y-116262274D01*
X174231460Y-116436648D01*
X174231458Y-116436652D01*
X174229418Y-116440750D01*
X174228167Y-116445144D01*
X174228164Y-116445154D01*
X174174853Y-116632521D01*
X174174851Y-116632529D01*
X174173603Y-116636917D01*
X174173181Y-116641462D01*
X174173181Y-116641467D01*
X174161556Y-116766924D01*
X174154785Y-116840000D01*
X174155207Y-116844554D01*
X174170684Y-117011587D01*
X174173603Y-117043083D01*
X174174852Y-117047472D01*
X174174853Y-117047478D01*
X174228164Y-117234845D01*
X174228166Y-117234851D01*
X174229418Y-117239250D01*
X174231459Y-117243350D01*
X174231460Y-117243351D01*
X174316287Y-117413709D01*
X174320327Y-117421821D01*
X174323079Y-117425465D01*
X174323082Y-117425470D01*
X174357264Y-117470734D01*
X174443236Y-117584579D01*
X174593959Y-117721981D01*
X174767363Y-117829348D01*
X174771630Y-117831001D01*
X174953274Y-117901370D01*
X174953275Y-117901370D01*
X174957544Y-117903024D01*
X175158024Y-117940500D01*
X175357393Y-117940500D01*
X175361976Y-117940500D01*
X175562456Y-117903024D01*
X175752637Y-117829348D01*
X175926041Y-117721981D01*
X176076764Y-117584579D01*
X176194287Y-117428952D01*
X176239214Y-117395663D01*
X176295012Y-117392025D01*
X176343880Y-117419200D01*
X177738220Y-118837173D01*
X177771589Y-118871107D01*
X177792622Y-118903019D01*
X177800000Y-118940520D01*
X177800000Y-124361000D01*
X177786737Y-124410500D01*
X177750500Y-124446737D01*
X177701000Y-124460000D01*
X161331008Y-124460000D01*
X161293122Y-124452464D01*
X161261004Y-124431004D01*
X158750000Y-121920000D01*
X162724785Y-121920000D01*
X162725207Y-121924554D01*
X162740000Y-122084205D01*
X162743603Y-122123083D01*
X162744852Y-122127472D01*
X162744853Y-122127478D01*
X162798164Y-122314845D01*
X162798166Y-122314851D01*
X162799418Y-122319250D01*
X162801459Y-122323350D01*
X162801460Y-122323351D01*
X162863151Y-122447245D01*
X162890327Y-122501821D01*
X162893079Y-122505465D01*
X162893082Y-122505470D01*
X162912852Y-122531649D01*
X163013236Y-122664579D01*
X163163959Y-122801981D01*
X163337363Y-122909348D01*
X163341630Y-122911001D01*
X163523274Y-122981370D01*
X163523275Y-122981370D01*
X163527544Y-122983024D01*
X163728024Y-123020500D01*
X163927393Y-123020500D01*
X163931976Y-123020500D01*
X164132456Y-122983024D01*
X164322637Y-122909348D01*
X164353711Y-122890108D01*
X169075000Y-122890108D01*
X169075351Y-122895988D01*
X169084856Y-122975141D01*
X169087943Y-122987351D01*
X169138594Y-123115794D01*
X169145172Y-123127493D01*
X169228340Y-123237165D01*
X169237834Y-123246659D01*
X169347506Y-123329827D01*
X169359205Y-123336405D01*
X169487648Y-123387056D01*
X169499858Y-123390143D01*
X169579011Y-123399648D01*
X169584892Y-123400000D01*
X169936967Y-123400000D01*
X169947245Y-123397245D01*
X169950000Y-123386967D01*
X170250000Y-123386967D01*
X170252754Y-123397245D01*
X170263033Y-123400000D01*
X170615108Y-123400000D01*
X170620988Y-123399648D01*
X170700141Y-123390143D01*
X170712351Y-123387056D01*
X170840794Y-123336405D01*
X170852493Y-123329827D01*
X170962165Y-123246659D01*
X170971659Y-123237165D01*
X171054827Y-123127493D01*
X171061405Y-123115794D01*
X171112056Y-122987351D01*
X171115143Y-122975141D01*
X171124648Y-122895988D01*
X171125000Y-122890108D01*
X171125000Y-122763033D01*
X171122245Y-122752754D01*
X171111967Y-122750000D01*
X170263033Y-122750000D01*
X170252754Y-122752754D01*
X170250000Y-122763033D01*
X170250000Y-123386967D01*
X169950000Y-123386967D01*
X169950000Y-122763033D01*
X169947245Y-122752754D01*
X169936967Y-122750000D01*
X169088033Y-122750000D01*
X169077754Y-122752754D01*
X169075000Y-122763033D01*
X169075000Y-122890108D01*
X164353711Y-122890108D01*
X164496041Y-122801981D01*
X164646764Y-122664579D01*
X164769673Y-122501821D01*
X164801966Y-122436967D01*
X169075000Y-122436967D01*
X169077754Y-122447245D01*
X169088033Y-122450000D01*
X169936967Y-122450000D01*
X169947245Y-122447245D01*
X169950000Y-122436967D01*
X170250000Y-122436967D01*
X170252754Y-122447245D01*
X170263033Y-122450000D01*
X171111967Y-122450000D01*
X171122245Y-122447245D01*
X171125000Y-122436967D01*
X171125000Y-122309892D01*
X171124648Y-122304011D01*
X171115143Y-122224858D01*
X171112056Y-122212648D01*
X171061405Y-122084205D01*
X171054827Y-122072506D01*
X170971659Y-121962834D01*
X170962165Y-121953340D01*
X170918200Y-121920000D01*
X171614785Y-121920000D01*
X171615207Y-121924554D01*
X171630000Y-122084205D01*
X171633603Y-122123083D01*
X171634852Y-122127472D01*
X171634853Y-122127478D01*
X171688164Y-122314845D01*
X171688166Y-122314851D01*
X171689418Y-122319250D01*
X171691459Y-122323350D01*
X171691460Y-122323351D01*
X171753151Y-122447245D01*
X171780327Y-122501821D01*
X171783079Y-122505465D01*
X171783082Y-122505470D01*
X171802852Y-122531649D01*
X171903236Y-122664579D01*
X172053959Y-122801981D01*
X172227363Y-122909348D01*
X172231630Y-122911001D01*
X172413274Y-122981370D01*
X172413275Y-122981370D01*
X172417544Y-122983024D01*
X172618024Y-123020500D01*
X172817393Y-123020500D01*
X172821976Y-123020500D01*
X173022456Y-122983024D01*
X173212637Y-122909348D01*
X173386041Y-122801981D01*
X173536764Y-122664579D01*
X173659673Y-122501821D01*
X173750582Y-122319250D01*
X173806397Y-122123083D01*
X173810042Y-122083749D01*
X174120247Y-122083749D01*
X174124316Y-122127666D01*
X174125988Y-122136612D01*
X174181809Y-122332803D01*
X174185105Y-122341309D01*
X174276018Y-122523889D01*
X174280823Y-122531649D01*
X174403736Y-122694411D01*
X174409883Y-122701154D01*
X174560619Y-122838569D01*
X174567889Y-122844059D01*
X174741315Y-122951439D01*
X174749472Y-122955501D01*
X174939669Y-123029184D01*
X174948442Y-123031679D01*
X175095661Y-123059199D01*
X175106775Y-123057997D01*
X175110000Y-123047294D01*
X175410000Y-123047294D01*
X175413224Y-123057997D01*
X175424338Y-123059199D01*
X175571557Y-123031679D01*
X175580330Y-123029184D01*
X175770527Y-122955501D01*
X175778684Y-122951439D01*
X175952110Y-122844059D01*
X175959380Y-122838569D01*
X176110116Y-122701154D01*
X176116263Y-122694411D01*
X176239176Y-122531649D01*
X176243981Y-122523889D01*
X176334894Y-122341309D01*
X176338190Y-122332803D01*
X176394011Y-122136612D01*
X176395683Y-122127666D01*
X176399752Y-122083749D01*
X176397742Y-122072994D01*
X176387217Y-122070000D01*
X175423033Y-122070000D01*
X175412754Y-122072754D01*
X175410000Y-122083033D01*
X175410000Y-123047294D01*
X175110000Y-123047294D01*
X175110000Y-122083033D01*
X175107245Y-122072754D01*
X175096967Y-122070000D01*
X174132783Y-122070000D01*
X174122257Y-122072994D01*
X174120247Y-122083749D01*
X173810042Y-122083749D01*
X173825215Y-121920000D01*
X173810042Y-121756250D01*
X174120247Y-121756250D01*
X174122257Y-121767005D01*
X174132783Y-121770000D01*
X175096967Y-121770000D01*
X175107245Y-121767245D01*
X175110000Y-121756967D01*
X175410000Y-121756967D01*
X175412754Y-121767245D01*
X175423033Y-121770000D01*
X176387217Y-121770000D01*
X176397742Y-121767005D01*
X176399752Y-121756250D01*
X176395683Y-121712333D01*
X176394011Y-121703387D01*
X176338190Y-121507196D01*
X176334894Y-121498690D01*
X176243981Y-121316110D01*
X176239176Y-121308350D01*
X176116263Y-121145588D01*
X176110116Y-121138845D01*
X175959380Y-121001430D01*
X175952110Y-120995940D01*
X175778684Y-120888560D01*
X175770527Y-120884498D01*
X175580330Y-120810815D01*
X175571557Y-120808320D01*
X175424338Y-120780800D01*
X175413224Y-120782002D01*
X175410000Y-120792706D01*
X175410000Y-121756967D01*
X175110000Y-121756967D01*
X175110000Y-120792706D01*
X175106775Y-120782002D01*
X175095661Y-120780800D01*
X174948442Y-120808320D01*
X174939669Y-120810815D01*
X174749472Y-120884498D01*
X174741315Y-120888560D01*
X174567889Y-120995940D01*
X174560619Y-121001430D01*
X174409883Y-121138845D01*
X174403736Y-121145588D01*
X174280823Y-121308350D01*
X174276018Y-121316110D01*
X174185105Y-121498690D01*
X174181809Y-121507196D01*
X174125988Y-121703387D01*
X174124316Y-121712333D01*
X174120247Y-121756250D01*
X173810042Y-121756250D01*
X173806397Y-121716917D01*
X173750582Y-121520750D01*
X173659673Y-121338179D01*
X173643007Y-121316110D01*
X173612486Y-121275693D01*
X173536764Y-121175421D01*
X173400633Y-121051321D01*
X173389422Y-121041101D01*
X173389420Y-121041100D01*
X173386041Y-121038019D01*
X173212637Y-120930652D01*
X173208374Y-120929000D01*
X173208369Y-120928998D01*
X173026725Y-120858629D01*
X173026717Y-120858626D01*
X173022456Y-120856976D01*
X172935157Y-120840657D01*
X172826482Y-120820342D01*
X172826478Y-120820341D01*
X172821976Y-120819500D01*
X172618024Y-120819500D01*
X172613522Y-120820341D01*
X172613517Y-120820342D01*
X172422047Y-120856134D01*
X172422044Y-120856134D01*
X172417544Y-120856976D01*
X172413285Y-120858625D01*
X172413274Y-120858629D01*
X172231630Y-120928998D01*
X172231621Y-120929002D01*
X172227363Y-120930652D01*
X172223477Y-120933057D01*
X172223473Y-120933060D01*
X172057847Y-121035611D01*
X172057842Y-121035614D01*
X172053959Y-121038019D01*
X172050584Y-121041095D01*
X172050577Y-121041101D01*
X171935961Y-121145588D01*
X171903236Y-121175421D01*
X171900485Y-121179063D01*
X171900483Y-121179066D01*
X171783082Y-121334529D01*
X171783075Y-121334538D01*
X171780327Y-121338179D01*
X171778291Y-121342266D01*
X171778287Y-121342274D01*
X171691460Y-121516648D01*
X171691458Y-121516652D01*
X171689418Y-121520750D01*
X171688167Y-121525144D01*
X171688164Y-121525154D01*
X171634853Y-121712521D01*
X171634851Y-121712529D01*
X171633603Y-121716917D01*
X171633181Y-121721462D01*
X171633181Y-121721467D01*
X171628684Y-121770000D01*
X171614785Y-121920000D01*
X170918200Y-121920000D01*
X170852493Y-121870172D01*
X170840794Y-121863594D01*
X170712351Y-121812943D01*
X170700141Y-121809856D01*
X170620988Y-121800351D01*
X170615108Y-121800000D01*
X170263033Y-121800000D01*
X170252754Y-121802754D01*
X170250000Y-121813033D01*
X170250000Y-122436967D01*
X169950000Y-122436967D01*
X169950000Y-121813033D01*
X169947245Y-121802754D01*
X169936967Y-121800000D01*
X169584892Y-121800000D01*
X169579011Y-121800351D01*
X169499858Y-121809856D01*
X169487648Y-121812943D01*
X169359205Y-121863594D01*
X169347506Y-121870172D01*
X169237834Y-121953340D01*
X169228340Y-121962834D01*
X169145172Y-122072506D01*
X169138594Y-122084205D01*
X169087943Y-122212648D01*
X169084856Y-122224858D01*
X169075351Y-122304011D01*
X169075000Y-122309892D01*
X169075000Y-122436967D01*
X164801966Y-122436967D01*
X164860582Y-122319250D01*
X164916397Y-122123083D01*
X164935215Y-121920000D01*
X164916397Y-121716917D01*
X164860582Y-121520750D01*
X164769673Y-121338179D01*
X164753007Y-121316110D01*
X164722486Y-121275693D01*
X164646764Y-121175421D01*
X164510633Y-121051321D01*
X164499422Y-121041101D01*
X164499420Y-121041100D01*
X164496041Y-121038019D01*
X164426954Y-120995242D01*
X169124500Y-120995242D01*
X169124501Y-120997872D01*
X169124782Y-121000487D01*
X169124783Y-121000503D01*
X169130246Y-121051321D01*
X169130247Y-121051325D01*
X169130909Y-121057483D01*
X169181204Y-121192331D01*
X169185444Y-121197995D01*
X169185447Y-121198000D01*
X169263207Y-121301873D01*
X169267454Y-121307546D01*
X169273126Y-121311792D01*
X169376999Y-121389552D01*
X169377001Y-121389553D01*
X169382669Y-121393796D01*
X169517517Y-121444091D01*
X169577127Y-121450500D01*
X170622872Y-121450499D01*
X170682483Y-121444091D01*
X170817331Y-121393796D01*
X170932546Y-121307546D01*
X171018796Y-121192331D01*
X171069091Y-121057483D01*
X171075500Y-120997873D01*
X171075499Y-120402128D01*
X171069091Y-120342517D01*
X171018796Y-120207669D01*
X171014553Y-120202001D01*
X171014552Y-120201999D01*
X170936792Y-120098126D01*
X170932546Y-120092454D01*
X170926873Y-120088207D01*
X170823000Y-120010447D01*
X170822995Y-120010444D01*
X170817331Y-120006204D01*
X170810697Y-120003729D01*
X170810696Y-120003729D01*
X170710802Y-119966471D01*
X170674021Y-119942314D01*
X170651342Y-119904604D01*
X170647246Y-119860793D01*
X170655250Y-119800000D01*
X170636330Y-119656291D01*
X170580861Y-119522375D01*
X170492621Y-119407379D01*
X170456940Y-119380000D01*
X171614785Y-119380000D01*
X171615207Y-119384554D01*
X171631532Y-119560741D01*
X171633603Y-119583083D01*
X171634852Y-119587472D01*
X171634853Y-119587478D01*
X171688164Y-119774845D01*
X171688166Y-119774851D01*
X171689418Y-119779250D01*
X171691459Y-119783350D01*
X171691460Y-119783351D01*
X171774758Y-119950638D01*
X171780327Y-119961821D01*
X171783079Y-119965465D01*
X171783082Y-119965470D01*
X171824023Y-120019684D01*
X171903236Y-120124579D01*
X172053959Y-120261981D01*
X172227363Y-120369348D01*
X172231630Y-120371001D01*
X172413274Y-120441370D01*
X172413275Y-120441370D01*
X172417544Y-120443024D01*
X172618024Y-120480500D01*
X172817393Y-120480500D01*
X172821976Y-120480500D01*
X173022456Y-120443024D01*
X173212637Y-120369348D01*
X173386041Y-120261981D01*
X173536764Y-120124579D01*
X173659673Y-119961821D01*
X173750582Y-119779250D01*
X173806397Y-119583083D01*
X173825215Y-119380000D01*
X174154785Y-119380000D01*
X174155207Y-119384554D01*
X174171532Y-119560741D01*
X174173603Y-119583083D01*
X174174852Y-119587472D01*
X174174853Y-119587478D01*
X174228164Y-119774845D01*
X174228166Y-119774851D01*
X174229418Y-119779250D01*
X174231459Y-119783350D01*
X174231460Y-119783351D01*
X174314758Y-119950638D01*
X174320327Y-119961821D01*
X174323079Y-119965465D01*
X174323082Y-119965470D01*
X174364023Y-120019684D01*
X174443236Y-120124579D01*
X174593959Y-120261981D01*
X174767363Y-120369348D01*
X174771630Y-120371001D01*
X174953274Y-120441370D01*
X174953275Y-120441370D01*
X174957544Y-120443024D01*
X175158024Y-120480500D01*
X175357393Y-120480500D01*
X175361976Y-120480500D01*
X175562456Y-120443024D01*
X175752637Y-120369348D01*
X175926041Y-120261981D01*
X176076764Y-120124579D01*
X176199673Y-119961821D01*
X176290582Y-119779250D01*
X176346397Y-119583083D01*
X176365215Y-119380000D01*
X176346397Y-119176917D01*
X176290582Y-118980750D01*
X176199673Y-118798179D01*
X176190311Y-118785782D01*
X176118336Y-118690471D01*
X176076764Y-118635421D01*
X175966227Y-118534654D01*
X175929422Y-118501101D01*
X175929420Y-118501100D01*
X175926041Y-118498019D01*
X175893103Y-118477625D01*
X175756526Y-118393060D01*
X175752637Y-118390652D01*
X175748374Y-118389000D01*
X175748369Y-118388998D01*
X175566725Y-118318629D01*
X175566717Y-118318626D01*
X175562456Y-118316976D01*
X175557952Y-118316134D01*
X175366482Y-118280342D01*
X175366478Y-118280341D01*
X175361976Y-118279500D01*
X175158024Y-118279500D01*
X175153522Y-118280341D01*
X175153517Y-118280342D01*
X174962047Y-118316134D01*
X174962044Y-118316134D01*
X174957544Y-118316976D01*
X174953285Y-118318625D01*
X174953274Y-118318629D01*
X174771630Y-118388998D01*
X174771621Y-118389002D01*
X174767363Y-118390652D01*
X174763477Y-118393057D01*
X174763473Y-118393060D01*
X174597847Y-118495611D01*
X174597842Y-118495614D01*
X174593959Y-118498019D01*
X174590584Y-118501095D01*
X174590577Y-118501101D01*
X174490185Y-118592621D01*
X174443236Y-118635421D01*
X174440485Y-118639063D01*
X174440483Y-118639066D01*
X174323082Y-118794529D01*
X174323075Y-118794538D01*
X174320327Y-118798179D01*
X174318291Y-118802266D01*
X174318287Y-118802274D01*
X174231460Y-118976648D01*
X174231458Y-118976652D01*
X174229418Y-118980750D01*
X174228167Y-118985144D01*
X174228164Y-118985154D01*
X174174853Y-119172521D01*
X174174851Y-119172529D01*
X174173603Y-119176917D01*
X174154785Y-119380000D01*
X173825215Y-119380000D01*
X173806397Y-119176917D01*
X173750582Y-118980750D01*
X173659673Y-118798179D01*
X173650311Y-118785782D01*
X173578336Y-118690471D01*
X173536764Y-118635421D01*
X173426227Y-118534654D01*
X173389422Y-118501101D01*
X173389420Y-118501100D01*
X173386041Y-118498019D01*
X173353103Y-118477625D01*
X173216526Y-118393060D01*
X173212637Y-118390652D01*
X173208374Y-118389000D01*
X173208369Y-118388998D01*
X173026725Y-118318629D01*
X173026717Y-118318626D01*
X173022456Y-118316976D01*
X173017952Y-118316134D01*
X172826482Y-118280342D01*
X172826478Y-118280341D01*
X172821976Y-118279500D01*
X172618024Y-118279500D01*
X172613522Y-118280341D01*
X172613517Y-118280342D01*
X172422047Y-118316134D01*
X172422044Y-118316134D01*
X172417544Y-118316976D01*
X172413285Y-118318625D01*
X172413274Y-118318629D01*
X172231630Y-118388998D01*
X172231621Y-118389002D01*
X172227363Y-118390652D01*
X172223477Y-118393057D01*
X172223473Y-118393060D01*
X172057847Y-118495611D01*
X172057842Y-118495614D01*
X172053959Y-118498019D01*
X172050584Y-118501095D01*
X172050577Y-118501101D01*
X171950185Y-118592621D01*
X171903236Y-118635421D01*
X171900485Y-118639063D01*
X171900483Y-118639066D01*
X171783082Y-118794529D01*
X171783075Y-118794538D01*
X171780327Y-118798179D01*
X171778291Y-118802266D01*
X171778287Y-118802274D01*
X171691460Y-118976648D01*
X171691458Y-118976652D01*
X171689418Y-118980750D01*
X171688167Y-118985144D01*
X171688164Y-118985154D01*
X171634853Y-119172521D01*
X171634851Y-119172529D01*
X171633603Y-119176917D01*
X171614785Y-119380000D01*
X170456940Y-119380000D01*
X170377625Y-119319139D01*
X170371626Y-119316654D01*
X170249702Y-119266152D01*
X170249699Y-119266151D01*
X170243709Y-119263670D01*
X170237278Y-119262823D01*
X170237277Y-119262823D01*
X170106433Y-119245597D01*
X170100000Y-119244750D01*
X170093567Y-119245597D01*
X169962722Y-119262823D01*
X169962719Y-119262823D01*
X169956291Y-119263670D01*
X169950302Y-119266150D01*
X169950297Y-119266152D01*
X169828373Y-119316654D01*
X169828369Y-119316656D01*
X169822375Y-119319139D01*
X169817231Y-119323086D01*
X169817226Y-119323089D01*
X169712527Y-119403428D01*
X169712523Y-119403431D01*
X169707379Y-119407379D01*
X169703431Y-119412523D01*
X169703428Y-119412527D01*
X169623089Y-119517226D01*
X169623086Y-119517231D01*
X169619139Y-119522375D01*
X169616656Y-119528369D01*
X169616654Y-119528373D01*
X169566152Y-119650297D01*
X169566150Y-119650302D01*
X169563670Y-119656291D01*
X169562823Y-119662719D01*
X169562823Y-119662722D01*
X169558020Y-119699204D01*
X169544750Y-119800000D01*
X169545597Y-119806432D01*
X169545597Y-119806434D01*
X169552753Y-119860791D01*
X169548657Y-119904605D01*
X169525978Y-119942315D01*
X169489197Y-119966471D01*
X169389303Y-120003729D01*
X169389299Y-120003731D01*
X169382669Y-120006204D01*
X169377006Y-120010442D01*
X169376999Y-120010447D01*
X169273126Y-120088207D01*
X169273122Y-120088210D01*
X169267454Y-120092454D01*
X169263210Y-120098122D01*
X169263207Y-120098126D01*
X169185447Y-120201999D01*
X169185442Y-120202006D01*
X169181204Y-120207669D01*
X169178731Y-120214299D01*
X169178729Y-120214303D01*
X169133072Y-120336715D01*
X169133070Y-120336722D01*
X169130909Y-120342517D01*
X169130247Y-120348670D01*
X169130247Y-120348672D01*
X169124782Y-120399499D01*
X169124781Y-120399509D01*
X169124500Y-120402127D01*
X169124500Y-120404771D01*
X169124500Y-120404772D01*
X169124500Y-120995224D01*
X169124500Y-120995242D01*
X164426954Y-120995242D01*
X164322637Y-120930652D01*
X164318374Y-120929000D01*
X164318369Y-120928998D01*
X164136725Y-120858629D01*
X164136717Y-120858626D01*
X164132456Y-120856976D01*
X164045157Y-120840657D01*
X163936482Y-120820342D01*
X163936478Y-120820341D01*
X163931976Y-120819500D01*
X163728024Y-120819500D01*
X163723522Y-120820341D01*
X163723517Y-120820342D01*
X163532047Y-120856134D01*
X163532044Y-120856134D01*
X163527544Y-120856976D01*
X163523285Y-120858625D01*
X163523274Y-120858629D01*
X163341630Y-120928998D01*
X163341621Y-120929002D01*
X163337363Y-120930652D01*
X163333477Y-120933057D01*
X163333473Y-120933060D01*
X163167847Y-121035611D01*
X163167842Y-121035614D01*
X163163959Y-121038019D01*
X163160584Y-121041095D01*
X163160577Y-121041101D01*
X163045961Y-121145588D01*
X163013236Y-121175421D01*
X163010485Y-121179063D01*
X163010483Y-121179066D01*
X162893082Y-121334529D01*
X162893075Y-121334538D01*
X162890327Y-121338179D01*
X162888291Y-121342266D01*
X162888287Y-121342274D01*
X162801460Y-121516648D01*
X162801458Y-121516652D01*
X162799418Y-121520750D01*
X162798167Y-121525144D01*
X162798164Y-121525154D01*
X162744853Y-121712521D01*
X162744851Y-121712529D01*
X162743603Y-121716917D01*
X162743181Y-121721462D01*
X162743181Y-121721467D01*
X162738684Y-121770000D01*
X162724785Y-121920000D01*
X158750000Y-121920000D01*
X158592024Y-121762024D01*
X158568012Y-121716457D01*
X158566397Y-121716917D01*
X158510582Y-121520750D01*
X158419673Y-121338179D01*
X158403007Y-121316110D01*
X158372486Y-121275693D01*
X158296764Y-121175421D01*
X158160633Y-121051321D01*
X158149422Y-121041101D01*
X158149420Y-121041100D01*
X158146041Y-121038019D01*
X157972637Y-120930652D01*
X157968374Y-120929000D01*
X157968369Y-120928998D01*
X157786725Y-120858629D01*
X157786717Y-120858626D01*
X157782456Y-120856976D01*
X157777955Y-120856134D01*
X157777953Y-120856134D01*
X157695159Y-120840657D01*
X157643347Y-120813347D01*
X155250688Y-118420688D01*
X159440001Y-118420688D01*
X159440216Y-118425305D01*
X159442224Y-118446722D01*
X159444778Y-118458416D01*
X159484144Y-118570919D01*
X159490999Y-118583888D01*
X159560952Y-118678670D01*
X159571329Y-118689047D01*
X159666111Y-118759000D01*
X159679080Y-118765855D01*
X159791587Y-118805222D01*
X159803270Y-118807775D01*
X159824700Y-118809784D01*
X159829308Y-118810000D01*
X159856967Y-118810000D01*
X159867245Y-118807245D01*
X159870000Y-118796967D01*
X159870000Y-118363033D01*
X159867245Y-118352754D01*
X159856967Y-118350000D01*
X159453034Y-118350000D01*
X159442755Y-118352754D01*
X159440001Y-118363033D01*
X159440001Y-118420688D01*
X155250688Y-118420688D01*
X154866967Y-118036967D01*
X159440000Y-118036967D01*
X159442754Y-118047245D01*
X159453033Y-118050000D01*
X159856967Y-118050000D01*
X159867245Y-118047245D01*
X159870000Y-118036967D01*
X159870000Y-117433033D01*
X159867245Y-117422754D01*
X159856967Y-117420000D01*
X159453034Y-117420000D01*
X159442755Y-117422754D01*
X159440001Y-117433033D01*
X159440001Y-117490688D01*
X159440216Y-117495305D01*
X159442224Y-117516722D01*
X159444778Y-117528416D01*
X159484144Y-117640919D01*
X159491001Y-117653891D01*
X159507474Y-117676212D01*
X159524604Y-117714175D01*
X159524604Y-117755824D01*
X159507475Y-117793787D01*
X159491000Y-117816109D01*
X159484144Y-117829081D01*
X159444777Y-117941587D01*
X159442224Y-117953270D01*
X159440215Y-117974700D01*
X159440000Y-117979308D01*
X159440000Y-118036967D01*
X154866967Y-118036967D01*
X153936967Y-117106967D01*
X159440000Y-117106967D01*
X159442754Y-117117245D01*
X159453033Y-117120000D01*
X159856967Y-117120000D01*
X159867245Y-117117245D01*
X159870000Y-117106967D01*
X159870000Y-116673034D01*
X159867245Y-116662755D01*
X159856967Y-116660001D01*
X159829312Y-116660001D01*
X159824694Y-116660216D01*
X159803277Y-116662224D01*
X159791583Y-116664778D01*
X159679080Y-116704144D01*
X159666111Y-116710999D01*
X159571329Y-116780952D01*
X159560952Y-116791329D01*
X159490999Y-116886111D01*
X159484144Y-116899080D01*
X159444777Y-117011587D01*
X159442224Y-117023270D01*
X159440215Y-117044700D01*
X159440000Y-117049308D01*
X159440000Y-117106967D01*
X153936967Y-117106967D01*
X153444996Y-116614996D01*
X153423536Y-116582878D01*
X153416000Y-116544992D01*
X153416000Y-115771888D01*
X158920001Y-115771888D01*
X158920216Y-115776504D01*
X158922288Y-115798608D01*
X158924839Y-115810288D01*
X158965203Y-115925642D01*
X158972061Y-115938617D01*
X159043798Y-116035817D01*
X159054182Y-116046201D01*
X159151382Y-116117938D01*
X159164357Y-116124796D01*
X159279709Y-116165159D01*
X159291392Y-116167711D01*
X159313500Y-116169784D01*
X159318108Y-116170000D01*
X159856967Y-116170000D01*
X159867245Y-116167245D01*
X159870000Y-116156967D01*
X159870000Y-115733033D01*
X159867245Y-115722754D01*
X159856967Y-115720000D01*
X158933034Y-115720000D01*
X158922755Y-115722754D01*
X158920001Y-115733033D01*
X158920001Y-115771888D01*
X153416000Y-115771888D01*
X153416000Y-106166967D01*
X155410000Y-106166967D01*
X155412754Y-106177245D01*
X155423033Y-106180000D01*
X155856967Y-106180000D01*
X155867245Y-106177245D01*
X155870000Y-106166967D01*
X155870000Y-105763034D01*
X155867245Y-105752755D01*
X155856967Y-105750001D01*
X155799312Y-105750001D01*
X155794694Y-105750216D01*
X155773277Y-105752224D01*
X155761583Y-105754778D01*
X155649080Y-105794144D01*
X155636111Y-105800999D01*
X155541329Y-105870952D01*
X155530952Y-105881329D01*
X155460999Y-105976111D01*
X155454144Y-105989080D01*
X155414777Y-106101587D01*
X155412224Y-106113270D01*
X155410215Y-106134700D01*
X155410000Y-106139308D01*
X155410000Y-106166967D01*
X153416000Y-106166967D01*
X153416000Y-105454585D01*
X153424732Y-105413933D01*
X153449386Y-105380451D01*
X153961943Y-104926803D01*
X154015049Y-104902733D01*
X154072497Y-104912730D01*
X154137825Y-104946017D01*
X154229265Y-104960500D01*
X154570734Y-104960499D01*
X154662175Y-104946017D01*
X154772391Y-104889859D01*
X154777903Y-104884346D01*
X154784051Y-104879880D01*
X154826759Y-104862189D01*
X154872844Y-104865817D01*
X154904797Y-104885402D01*
X154905359Y-104884641D01*
X155006111Y-104959000D01*
X155019080Y-104965855D01*
X155131587Y-105005222D01*
X155143270Y-105007775D01*
X155164700Y-105009784D01*
X155169308Y-105010000D01*
X155196967Y-105010000D01*
X155207245Y-105007245D01*
X155210000Y-104996967D01*
X155210000Y-104996966D01*
X155510000Y-104996966D01*
X155512754Y-105007244D01*
X155523033Y-105009999D01*
X155550688Y-105009999D01*
X155555305Y-105009783D01*
X155576722Y-105007775D01*
X155588416Y-105005221D01*
X155700919Y-104965855D01*
X155713888Y-104959000D01*
X155808670Y-104889047D01*
X155819047Y-104878670D01*
X155889000Y-104783888D01*
X155895855Y-104770919D01*
X155935222Y-104658412D01*
X155937775Y-104646729D01*
X155939784Y-104625299D01*
X155940000Y-104620692D01*
X155940000Y-104563033D01*
X155937245Y-104552754D01*
X155926967Y-104550000D01*
X155523033Y-104550000D01*
X155512754Y-104552754D01*
X155510000Y-104563033D01*
X155510000Y-104996966D01*
X155210000Y-104996966D01*
X155210000Y-104254639D01*
X157020001Y-104254639D01*
X157020516Y-104261758D01*
X157028803Y-104318637D01*
X157033290Y-104333158D01*
X157077611Y-104423820D01*
X157087012Y-104436987D01*
X157158012Y-104507987D01*
X157171179Y-104517388D01*
X157261845Y-104561712D01*
X157276355Y-104566196D01*
X157305900Y-104570500D01*
X157316873Y-104568940D01*
X157320000Y-104558304D01*
X157320000Y-103950533D01*
X157317245Y-103940254D01*
X157306967Y-103937500D01*
X157033034Y-103937500D01*
X157022755Y-103940254D01*
X157020001Y-103950533D01*
X157020001Y-104254639D01*
X155210000Y-104254639D01*
X155210000Y-103822190D01*
X155512234Y-103554691D01*
X155510000Y-103563033D01*
X155510000Y-104236967D01*
X155512754Y-104247245D01*
X155523033Y-104250000D01*
X155926966Y-104250000D01*
X155937244Y-104247245D01*
X155939999Y-104236967D01*
X155939999Y-104179312D01*
X155939783Y-104174694D01*
X155937775Y-104153277D01*
X155935221Y-104141583D01*
X155895855Y-104029080D01*
X155889000Y-104016111D01*
X155846694Y-103958789D01*
X155829564Y-103920825D01*
X155829564Y-103879175D01*
X155846694Y-103841211D01*
X155889000Y-103783888D01*
X155895855Y-103770919D01*
X155935222Y-103658412D01*
X155937775Y-103646729D01*
X155939784Y-103625299D01*
X155940000Y-103620692D01*
X155940000Y-103563033D01*
X155937245Y-103552754D01*
X155926967Y-103550000D01*
X155523033Y-103550000D01*
X155515148Y-103552112D01*
X155800000Y-103300000D01*
X155968431Y-103300000D01*
X155981434Y-103328698D01*
X155985474Y-103334745D01*
X155996179Y-103342388D01*
X156086845Y-103386712D01*
X156101355Y-103391196D01*
X156158243Y-103399484D01*
X156165359Y-103400000D01*
X156469467Y-103400000D01*
X156479745Y-103397245D01*
X156482500Y-103386967D01*
X156482500Y-103300000D01*
X156682500Y-103300000D01*
X156682500Y-103386966D01*
X156685254Y-103397244D01*
X156695533Y-103399999D01*
X156921000Y-103399999D01*
X156970500Y-103413262D01*
X157006737Y-103449499D01*
X157020000Y-103498999D01*
X157020000Y-103724467D01*
X157022754Y-103734745D01*
X157033033Y-103737500D01*
X157770500Y-103737500D01*
X157800000Y-103745404D01*
X157800000Y-103929596D01*
X157770500Y-103937500D01*
X157533033Y-103937500D01*
X157522754Y-103940254D01*
X157520000Y-103950533D01*
X157520000Y-104558305D01*
X157523126Y-104568939D01*
X157534099Y-104570499D01*
X157563640Y-104566196D01*
X157585504Y-104559441D01*
X157585790Y-104560368D01*
X157620000Y-104552452D01*
X157654211Y-104560369D01*
X157654498Y-104559442D01*
X157676355Y-104566196D01*
X157715273Y-104571866D01*
X157758526Y-104589261D01*
X157789023Y-104624523D01*
X157800000Y-104669832D01*
X157800000Y-104721310D01*
X157792464Y-104759196D01*
X157771003Y-104791314D01*
X156805116Y-105757199D01*
X156789267Y-105770070D01*
X156786199Y-105772074D01*
X156786192Y-105772079D01*
X156779331Y-105776563D01*
X156774294Y-105783033D01*
X156768258Y-105788591D01*
X156767258Y-105787505D01*
X156730006Y-105813637D01*
X156727825Y-105813983D01*
X156720889Y-105817516D01*
X156720886Y-105817518D01*
X156624549Y-105866604D01*
X156624544Y-105866606D01*
X156617609Y-105870141D01*
X156614487Y-105873262D01*
X156578945Y-105889032D01*
X156537538Y-105888876D01*
X156499817Y-105871799D01*
X156403888Y-105800999D01*
X156390919Y-105794144D01*
X156278412Y-105754777D01*
X156266729Y-105752224D01*
X156245299Y-105750215D01*
X156240692Y-105750000D01*
X156183033Y-105750000D01*
X156172754Y-105752754D01*
X156170000Y-105763033D01*
X156170000Y-106381000D01*
X156156737Y-106430500D01*
X156120500Y-106466737D01*
X156071000Y-106480000D01*
X155423034Y-106480000D01*
X155412755Y-106482754D01*
X155410001Y-106493033D01*
X155410001Y-106520688D01*
X155410216Y-106525305D01*
X155412224Y-106546722D01*
X155414778Y-106558416D01*
X155454144Y-106670919D01*
X155460999Y-106683888D01*
X155535359Y-106784641D01*
X155534598Y-106785202D01*
X155554182Y-106817160D01*
X155557809Y-106863239D01*
X155540122Y-106905942D01*
X155535642Y-106912107D01*
X155530141Y-106917609D01*
X155526609Y-106924540D01*
X155526606Y-106924545D01*
X155477519Y-107020884D01*
X155477517Y-107020887D01*
X155473983Y-107027825D01*
X155472764Y-107035518D01*
X155472764Y-107035520D01*
X155460109Y-107115419D01*
X155459500Y-107119265D01*
X155459500Y-107123156D01*
X155459500Y-107123157D01*
X155459500Y-107456839D01*
X155459500Y-107456851D01*
X155459501Y-107460734D01*
X155460109Y-107464576D01*
X155460110Y-107464582D01*
X155471606Y-107537170D01*
X155473983Y-107552175D01*
X155477516Y-107559110D01*
X155477518Y-107559114D01*
X155528089Y-107658364D01*
X155538803Y-107699422D01*
X155531344Y-107741193D01*
X155486151Y-107850300D01*
X155486150Y-107850303D01*
X155483670Y-107856291D01*
X155464750Y-108000000D01*
X155483670Y-108143709D01*
X155486151Y-108149699D01*
X155486152Y-108149702D01*
X155520312Y-108232173D01*
X155539139Y-108277625D01*
X155543088Y-108282771D01*
X155543089Y-108282773D01*
X155575875Y-108325500D01*
X155627379Y-108392621D01*
X155742375Y-108480861D01*
X155876291Y-108536330D01*
X156020000Y-108555250D01*
X156163709Y-108536330D01*
X156297625Y-108480861D01*
X156412621Y-108392621D01*
X156418444Y-108385031D01*
X156441458Y-108355041D01*
X156490230Y-108320890D01*
X156549770Y-108320890D01*
X156598542Y-108355041D01*
X156623424Y-108387468D01*
X156623428Y-108387472D01*
X156627379Y-108392621D01*
X156742375Y-108480861D01*
X156876291Y-108536330D01*
X157020000Y-108555250D01*
X157163709Y-108536330D01*
X157297625Y-108480861D01*
X157316230Y-108466584D01*
X157363573Y-108446972D01*
X157414382Y-108453658D01*
X157455039Y-108484853D01*
X157474652Y-108532198D01*
X157467966Y-108583006D01*
X157461181Y-108599386D01*
X157461180Y-108599389D01*
X157458700Y-108605377D01*
X157457853Y-108611805D01*
X157457853Y-108611808D01*
X157443437Y-108721306D01*
X157439780Y-108749086D01*
X157458700Y-108892795D01*
X157514169Y-109026711D01*
X157602409Y-109141707D01*
X157717405Y-109229947D01*
X157738887Y-109238845D01*
X157783315Y-109275306D01*
X157800000Y-109330308D01*
X157800000Y-110594292D01*
X157794030Y-110628151D01*
X157776839Y-110657927D01*
X157773438Y-110661979D01*
X157766806Y-110667545D01*
X157762477Y-110675042D01*
X157762475Y-110675045D01*
X157747370Y-110701206D01*
X157742734Y-110708483D01*
X157725414Y-110733219D01*
X157725411Y-110733223D01*
X157720446Y-110740316D01*
X157718205Y-110748678D01*
X157715737Y-110753971D01*
X157713739Y-110759459D01*
X157709412Y-110766955D01*
X157707909Y-110775475D01*
X157707906Y-110775485D01*
X157702662Y-110805224D01*
X157700795Y-110813649D01*
X157692976Y-110842830D01*
X157692975Y-110842834D01*
X157690736Y-110851193D01*
X157691490Y-110859814D01*
X157691490Y-110859819D01*
X157694123Y-110889905D01*
X157694500Y-110898534D01*
X157694500Y-113201466D01*
X157694123Y-113210094D01*
X157690736Y-113248807D01*
X157692977Y-113257170D01*
X157700795Y-113286349D01*
X157702664Y-113294778D01*
X157707907Y-113324515D01*
X157707908Y-113324519D01*
X157709412Y-113333045D01*
X157713741Y-113340544D01*
X157715739Y-113346031D01*
X157718204Y-113351317D01*
X157720446Y-113359684D01*
X157725414Y-113366779D01*
X157725415Y-113366781D01*
X157742732Y-113391512D01*
X157747371Y-113398793D01*
X157766806Y-113432455D01*
X157773443Y-113438024D01*
X157776838Y-113442070D01*
X157794029Y-113471846D01*
X157800000Y-113505707D01*
X157800000Y-113600000D01*
X157807233Y-113606933D01*
X159141217Y-114885611D01*
X159169192Y-114934891D01*
X159165556Y-114991442D01*
X159131500Y-115036735D01*
X159054179Y-115093801D01*
X159043798Y-115104182D01*
X158972061Y-115201382D01*
X158965203Y-115214357D01*
X158924840Y-115329709D01*
X158922288Y-115341392D01*
X158920215Y-115363500D01*
X158920000Y-115368108D01*
X158920000Y-115406967D01*
X158922754Y-115417245D01*
X158933033Y-115420000D01*
X159698720Y-115420000D01*
X160170000Y-115871741D01*
X160170000Y-116156966D01*
X160172754Y-116167244D01*
X160183033Y-116169999D01*
X160441374Y-116169999D01*
X160478290Y-116177139D01*
X160509880Y-116197530D01*
X160867034Y-116539877D01*
X160894878Y-116588596D01*
X160891767Y-116644624D01*
X160858701Y-116689960D01*
X160809176Y-116708938D01*
X160809266Y-116709501D01*
X160806611Y-116709921D01*
X160806608Y-116709921D01*
X160805439Y-116710107D01*
X160805427Y-116710108D01*
X160725518Y-116722764D01*
X160725514Y-116722765D01*
X160717825Y-116723983D01*
X160710889Y-116727516D01*
X160710886Y-116727518D01*
X160614545Y-116776606D01*
X160614540Y-116776609D01*
X160607609Y-116780141D01*
X160602107Y-116785642D01*
X160595942Y-116790122D01*
X160553239Y-116807809D01*
X160507160Y-116804182D01*
X160475202Y-116784598D01*
X160474641Y-116785359D01*
X160373888Y-116710999D01*
X160360919Y-116704144D01*
X160248412Y-116664777D01*
X160236729Y-116662224D01*
X160215299Y-116660215D01*
X160210692Y-116660000D01*
X160183033Y-116660000D01*
X160172754Y-116662754D01*
X160170000Y-116673033D01*
X160170000Y-118796966D01*
X160172754Y-118807244D01*
X160183033Y-118809999D01*
X160210688Y-118809999D01*
X160215305Y-118809783D01*
X160236722Y-118807775D01*
X160248416Y-118805221D01*
X160360919Y-118765855D01*
X160373888Y-118759000D01*
X160474641Y-118684641D01*
X160475203Y-118685402D01*
X160507154Y-118665819D01*
X160553237Y-118662189D01*
X160595944Y-118679878D01*
X160602101Y-118684351D01*
X160607609Y-118689859D01*
X160717825Y-118746017D01*
X160809265Y-118760500D01*
X161150734Y-118760499D01*
X161242175Y-118746017D01*
X161352391Y-118689859D01*
X161353596Y-118692225D01*
X161385967Y-118679497D01*
X161435590Y-118686334D01*
X161556291Y-118736330D01*
X161700000Y-118755250D01*
X161843709Y-118736330D01*
X161977625Y-118680861D01*
X162092621Y-118592621D01*
X162180861Y-118477625D01*
X162236330Y-118343709D01*
X162255250Y-118200000D01*
X162242394Y-118102354D01*
X162252991Y-118043229D01*
X162295823Y-118001112D01*
X162355121Y-117991513D01*
X162409053Y-118017965D01*
X162724284Y-118320127D01*
X162752665Y-118371253D01*
X162747462Y-118427128D01*
X162744034Y-118432260D01*
X162742133Y-118441812D01*
X162742132Y-118441817D01*
X162730447Y-118500562D01*
X162730446Y-118500568D01*
X162729500Y-118505326D01*
X162729500Y-120254674D01*
X162730446Y-120259432D01*
X162730447Y-120259437D01*
X162742131Y-120318177D01*
X162742132Y-120318180D01*
X162744034Y-120327740D01*
X162749449Y-120335845D01*
X162749450Y-120335846D01*
X162793737Y-120402128D01*
X162799399Y-120410601D01*
X162882260Y-120465966D01*
X162955326Y-120480500D01*
X164699816Y-120480500D01*
X164704674Y-120480500D01*
X164777740Y-120465966D01*
X164860601Y-120410601D01*
X164915966Y-120327740D01*
X164930500Y-120254674D01*
X164930500Y-119804500D01*
X164943763Y-119755000D01*
X164980000Y-119718763D01*
X165029500Y-119705500D01*
X165901466Y-119705500D01*
X165910095Y-119705877D01*
X165940177Y-119708509D01*
X165940177Y-119708508D01*
X165948807Y-119709264D01*
X165986354Y-119699202D01*
X165994777Y-119697335D01*
X166033045Y-119690588D01*
X166040548Y-119686255D01*
X166046027Y-119684261D01*
X166051311Y-119681796D01*
X166059684Y-119679554D01*
X166091533Y-119657251D01*
X166098779Y-119652635D01*
X166132455Y-119633194D01*
X166157442Y-119603414D01*
X166163254Y-119597070D01*
X166717065Y-119043259D01*
X166723425Y-119037433D01*
X166746559Y-119018022D01*
X166746558Y-119018022D01*
X166753194Y-119012455D01*
X166772635Y-118978779D01*
X166777251Y-118971533D01*
X166799554Y-118939684D01*
X166801796Y-118931311D01*
X166804261Y-118926027D01*
X166806255Y-118920548D01*
X166810588Y-118913045D01*
X166817335Y-118874777D01*
X166819204Y-118866348D01*
X166827022Y-118837173D01*
X166829264Y-118828807D01*
X166827198Y-118805193D01*
X166839633Y-118747856D01*
X166882341Y-118707625D01*
X166912102Y-118693076D01*
X167003076Y-118602102D01*
X167033334Y-118540207D01*
X167072353Y-118498197D01*
X167128116Y-118484860D01*
X167181921Y-118504673D01*
X167215719Y-118550988D01*
X167223617Y-118573559D01*
X167230470Y-118586525D01*
X167299528Y-118680094D01*
X167309905Y-118690471D01*
X167403474Y-118759529D01*
X167416443Y-118766384D01*
X167527527Y-118805253D01*
X167539210Y-118807806D01*
X167560309Y-118809784D01*
X167564917Y-118810000D01*
X167636967Y-118810000D01*
X167647245Y-118807245D01*
X167650000Y-118796967D01*
X167950000Y-118796967D01*
X167952754Y-118807245D01*
X167963033Y-118810000D01*
X168035083Y-118810000D01*
X168039690Y-118809784D01*
X168060789Y-118807806D01*
X168072472Y-118805253D01*
X168183556Y-118766384D01*
X168196525Y-118759529D01*
X168290094Y-118690471D01*
X168300471Y-118680094D01*
X168369529Y-118586525D01*
X168376384Y-118573556D01*
X168415253Y-118462472D01*
X168417806Y-118450789D01*
X168419784Y-118429690D01*
X168420000Y-118425083D01*
X168420000Y-118403033D01*
X168417245Y-118392754D01*
X168406967Y-118390000D01*
X167963033Y-118390000D01*
X167952754Y-118392754D01*
X167950000Y-118403033D01*
X167950000Y-118796967D01*
X167650000Y-118796967D01*
X167650000Y-118189000D01*
X167663263Y-118139500D01*
X167699500Y-118103263D01*
X167749000Y-118090000D01*
X168406967Y-118090000D01*
X168417245Y-118087245D01*
X168420000Y-118076967D01*
X168420000Y-118054917D01*
X168419784Y-118050309D01*
X168417806Y-118029210D01*
X168415253Y-118017527D01*
X168376384Y-117906443D01*
X168369529Y-117893474D01*
X168300471Y-117799905D01*
X168290092Y-117789526D01*
X168270778Y-117775271D01*
X168236967Y-117730632D01*
X168232783Y-117674791D01*
X168259565Y-117625613D01*
X168297277Y-117587901D01*
X168297277Y-117587900D01*
X168303076Y-117582102D01*
X168359582Y-117466518D01*
X168370500Y-117391582D01*
X168370500Y-117048418D01*
X168359582Y-116973482D01*
X168303076Y-116857898D01*
X168285178Y-116840000D01*
X171614785Y-116840000D01*
X171615207Y-116844554D01*
X171630684Y-117011587D01*
X171633603Y-117043083D01*
X171634852Y-117047472D01*
X171634853Y-117047478D01*
X171688164Y-117234845D01*
X171688166Y-117234851D01*
X171689418Y-117239250D01*
X171691459Y-117243350D01*
X171691460Y-117243351D01*
X171776287Y-117413709D01*
X171780327Y-117421821D01*
X171783079Y-117425465D01*
X171783082Y-117425470D01*
X171817264Y-117470734D01*
X171903236Y-117584579D01*
X172053959Y-117721981D01*
X172227363Y-117829348D01*
X172231630Y-117831001D01*
X172413274Y-117901370D01*
X172413275Y-117901370D01*
X172417544Y-117903024D01*
X172618024Y-117940500D01*
X172817393Y-117940500D01*
X172821976Y-117940500D01*
X173022456Y-117903024D01*
X173212637Y-117829348D01*
X173386041Y-117721981D01*
X173536764Y-117584579D01*
X173659673Y-117421821D01*
X173750582Y-117239250D01*
X173806397Y-117043083D01*
X173825215Y-116840000D01*
X173806397Y-116636917D01*
X173750582Y-116440750D01*
X173659673Y-116258179D01*
X173536764Y-116095421D01*
X173386041Y-115958019D01*
X173212637Y-115850652D01*
X173208374Y-115849000D01*
X173208369Y-115848998D01*
X173026725Y-115778629D01*
X173026717Y-115778626D01*
X173022456Y-115776976D01*
X173017952Y-115776134D01*
X172826482Y-115740342D01*
X172826478Y-115740341D01*
X172821976Y-115739500D01*
X172618024Y-115739500D01*
X172613522Y-115740341D01*
X172613517Y-115740342D01*
X172422047Y-115776134D01*
X172422044Y-115776134D01*
X172417544Y-115776976D01*
X172413285Y-115778625D01*
X172413274Y-115778629D01*
X172231630Y-115848998D01*
X172231621Y-115849002D01*
X172227363Y-115850652D01*
X172223477Y-115853057D01*
X172223473Y-115853060D01*
X172057847Y-115955611D01*
X172057842Y-115955614D01*
X172053959Y-115958019D01*
X172050584Y-115961095D01*
X172050577Y-115961101D01*
X171906612Y-116092343D01*
X171903236Y-116095421D01*
X171900485Y-116099063D01*
X171900483Y-116099066D01*
X171783082Y-116254529D01*
X171783075Y-116254538D01*
X171780327Y-116258179D01*
X171778291Y-116262266D01*
X171778287Y-116262274D01*
X171691460Y-116436648D01*
X171691458Y-116436652D01*
X171689418Y-116440750D01*
X171688167Y-116445144D01*
X171688164Y-116445154D01*
X171634853Y-116632521D01*
X171634851Y-116632529D01*
X171633603Y-116636917D01*
X171633181Y-116641462D01*
X171633181Y-116641467D01*
X171621556Y-116766924D01*
X171614785Y-116840000D01*
X168285178Y-116840000D01*
X168212102Y-116766924D01*
X168204738Y-116763324D01*
X168204737Y-116763323D01*
X168103426Y-116713795D01*
X168103425Y-116713794D01*
X168096518Y-116710418D01*
X168088909Y-116709309D01*
X168088908Y-116709309D01*
X168025120Y-116700015D01*
X168025113Y-116700014D01*
X168021582Y-116699500D01*
X168018004Y-116699500D01*
X167780834Y-116699500D01*
X167742948Y-116691964D01*
X167710830Y-116670504D01*
X167574496Y-116534170D01*
X167553036Y-116502052D01*
X167545500Y-116464166D01*
X167545500Y-116299000D01*
X167558763Y-116249500D01*
X167595000Y-116213263D01*
X167644500Y-116200000D01*
X167990248Y-116200000D01*
X168000000Y-116200000D01*
X168346219Y-115853780D01*
X168366715Y-115838054D01*
X168392455Y-115823194D01*
X168417442Y-115793414D01*
X168423254Y-115787070D01*
X169037065Y-115173259D01*
X169043425Y-115167433D01*
X169066559Y-115148022D01*
X169066558Y-115148022D01*
X169073194Y-115142455D01*
X169092635Y-115108779D01*
X169097251Y-115101533D01*
X169119554Y-115069684D01*
X169121796Y-115061311D01*
X169124261Y-115056027D01*
X169126255Y-115050548D01*
X169130588Y-115043045D01*
X169137335Y-115004777D01*
X169139204Y-114996348D01*
X169147022Y-114967173D01*
X169149264Y-114958807D01*
X169145877Y-114920091D01*
X169145500Y-114911463D01*
X169145500Y-111148534D01*
X169145877Y-111139905D01*
X169148509Y-111109822D01*
X169149264Y-111101193D01*
X169139204Y-111063652D01*
X169137335Y-111055220D01*
X169132092Y-111025487D01*
X169130588Y-111016955D01*
X169126254Y-111009450D01*
X169124258Y-111003964D01*
X169121795Y-110998682D01*
X169119554Y-110990316D01*
X169097260Y-110958477D01*
X169092633Y-110951215D01*
X169073194Y-110917545D01*
X169043418Y-110892559D01*
X169037060Y-110886734D01*
X162974496Y-104824170D01*
X162953036Y-104792052D01*
X162945500Y-104754166D01*
X162945500Y-104365893D01*
X162953936Y-104325904D01*
X162964576Y-104301805D01*
X162967585Y-104294991D01*
X162970500Y-104269865D01*
X162970500Y-104020688D01*
X164240001Y-104020688D01*
X164240216Y-104025305D01*
X164242224Y-104046722D01*
X164244778Y-104058416D01*
X164284144Y-104170919D01*
X164290999Y-104183888D01*
X164360952Y-104278670D01*
X164371329Y-104289047D01*
X164466111Y-104359000D01*
X164479080Y-104365855D01*
X164591587Y-104405222D01*
X164603270Y-104407775D01*
X164624700Y-104409784D01*
X164629308Y-104410000D01*
X164656967Y-104410000D01*
X164667245Y-104407245D01*
X164670000Y-104396967D01*
X164670000Y-103963033D01*
X164667245Y-103952754D01*
X164656967Y-103950000D01*
X164253034Y-103950000D01*
X164242755Y-103952754D01*
X164240001Y-103963033D01*
X164240001Y-104020688D01*
X162970500Y-104020688D01*
X162970499Y-103498999D01*
X162983762Y-103449500D01*
X163019999Y-103413264D01*
X163069499Y-103400000D01*
X163344467Y-103400000D01*
X163354745Y-103397245D01*
X163357500Y-103386967D01*
X163357500Y-103049500D01*
X163370755Y-103000014D01*
X163406971Y-102963780D01*
X163456451Y-102950500D01*
X163457450Y-102950499D01*
X163458452Y-102950499D01*
X163507971Y-102963746D01*
G37*
G04 #@! TD.AperFunction*
M02*
