M48
; DRILL file {KiCad (7.0.0)} date Fri Jun 23 19:04:03 2023
; FORMAT={-:-/ absolute / inch / decimal}
; #@! TF.CreationDate,2023-06-23T19:04:03+10:00
; #@! TF.GenerationSoftware,Kicad,Pcbnew,(7.0.0)
; #@! TF.FileFunction,Plated,1,4,PTH
FMAT,2
INCH
; #@! TA.AperFunction,Plated,PTH,ViaDrill
T1C0.0138
; #@! TA.AperFunction,Plated,PTH,ComponentDrill
T2C0.0138
; #@! TA.AperFunction,Plated,PTH,ComponentDrill
T3C0.0394
%
G90
G05
T1
X6.099Y-3.6226
X6.1218Y-3.6416
X6.1511Y-3.6486
X6.1819Y-3.6572
X6.2951Y-4.082
X6.3266Y-3.8103
X6.3306Y-3.9757
X6.3325Y-3.7096
X6.423Y-4.0406
X6.4696Y-3.6513
X6.499Y-3.6493
X6.5Y-3.94
X6.5Y-3.9695
X6.5332Y-4.1668
X6.5635Y-4.1671
X6.59Y-3.9406
X6.6191Y-3.9209
X6.64Y-3.9
X6.71Y-3.87
T2
X6.2528Y-3.8428
X6.2528Y-3.893
X6.2528Y-3.9432
X6.303Y-3.8428
X6.303Y-3.893
X6.303Y-3.9432
X6.3532Y-3.8428
X6.3532Y-3.893
X6.3532Y-3.9432
T3
X5.7Y-3.1
X5.7Y-3.2
X5.7Y-3.3
X5.7Y-3.4
X5.7Y-3.5
X5.7Y-3.6
X5.7Y-3.7
X5.7Y-3.8
X5.7Y-3.9
X5.7Y-4.0
X5.7Y-4.1
X5.7Y-4.2
X5.7Y-4.3
X5.7Y-4.4
X5.7Y-4.5
X5.7Y-4.6
X5.7Y-4.7
X5.7Y-4.8
X5.8Y-3.1
X5.8Y-3.2
X5.8Y-3.3
X5.8Y-3.4
X5.8Y-3.5
X5.8Y-3.6
X5.8Y-3.7
X5.8Y-3.8
X5.8Y-3.9
X5.8Y-4.0
X5.8Y-4.1
X5.8Y-4.2
X5.8Y-4.3
X5.8Y-4.4
X5.8Y-4.5
X5.8Y-4.6
X5.8Y-4.7
X5.8Y-4.8
X6.1Y-3.1
X6.1Y-3.2
X6.1Y-4.8
X6.2Y-3.1
X6.2Y-3.2
X6.2Y-4.8
X6.3Y-3.1
X6.3Y-3.2
X6.4Y-3.1
X6.4Y-3.2
X6.45Y-4.8
X6.5Y-3.1
X6.5Y-3.2
X6.55Y-4.8
X6.8Y-3.1
X6.8Y-3.2
X6.8Y-3.3
X6.8Y-3.4
X6.8Y-3.5
X6.8Y-3.6
X6.8Y-3.7
X6.8Y-4.0
X6.8Y-4.1
X6.8Y-4.2
X6.8Y-4.3
X6.8Y-4.4
X6.8Y-4.5
X6.8Y-4.6
X6.8Y-4.7
X6.8Y-4.8
X6.9Y-3.1
X6.9Y-3.2
X6.9Y-3.3
X6.9Y-3.4
X6.9Y-3.5
X6.9Y-3.6
X6.9Y-3.7
X6.9Y-3.8
X6.9Y-3.9
X6.9Y-4.0
X6.9Y-4.1
X6.9Y-4.2
X6.9Y-4.3
X6.9Y-4.4
X6.9Y-4.5
X6.9Y-4.6
X6.9Y-4.7
X6.9Y-4.8
T0
M30
