M48
; DRILL file {KiCad (7.0.0)} date Thu Jun 29 20:35:10 2023
; FORMAT={-:-/ absolute / metric / decimal}
; #@! TF.CreationDate,2023-06-29T20:35:10+10:00
; #@! TF.GenerationSoftware,Kicad,Pcbnew,(7.0.0)
; #@! TF.FileFunction,Plated,1,4,PTH
FMAT,2
METRIC
; #@! TA.AperFunction,Plated,PTH,ViaDrill
T1C0.300
; #@! TA.AperFunction,Plated,PTH,ViaDrill
T2C0.350
; #@! TA.AperFunction,Plated,PTH,ComponentDrill
T3C0.350
; #@! TA.AperFunction,Plated,PTH,ComponentDrill
T4C1.000
%
G90
G05
T1
X149.6Y-78.6
X149.6Y-82.5
X150.973Y-103.605
X151.521Y-103.094
X151.87Y-102.33
X152.2Y-83.82
X152.2Y-87.6
X152.4Y-101.8
X153.0Y-99.1
X153.6Y-91.4
X153.7Y-103.6
X153.7Y-104.4
X155.6Y-91.4
X156.02Y-108.0
X157.02Y-108.0
X157.48Y-91.44
X157.78Y-98.18
X157.995Y-108.749
X158.02Y-108.0
X158.5Y-92.7
X158.658Y-109.535
X159.016Y-108.876
X159.2Y-95.1
X159.3Y-102.5
X159.4Y-98.3
X159.5Y-91.2
X159.6Y-92.7
X160.0Y-84.4
X160.02Y-109.0
X160.2Y-105.2
X161.7Y-117.27
X161.7Y-118.2
X163.0Y-93.4
X163.9Y-91.0
X164.0Y-96.8
X164.586Y-102.729
X164.75Y-96.8
X165.336Y-102.724
X165.745Y-95.811
X166.0Y-111.8
X166.376Y-96.216
X166.5Y-102.7
X166.5Y-103.8
X166.9Y-99.2
X167.0Y-90.8
X167.211Y-102.937
X167.75Y-95.026
X167.8Y-84.4
X167.8Y-87.6
X168.0Y-97.4
X168.4Y-95.4
X168.624Y-97.816
X170.1Y-119.8
T2
X161.02Y-109.0
T3
X158.745Y-99.125
X158.745Y-100.4
X158.745Y-101.675
X160.02Y-99.125
X160.02Y-100.4
X160.02Y-101.675
X161.295Y-99.125
X161.295Y-100.4
X161.295Y-101.675
T4
X144.78Y-78.74
X144.78Y-81.28
X144.78Y-83.82
X144.78Y-86.36
X144.78Y-88.9
X144.78Y-91.44
X144.78Y-93.98
X144.78Y-96.52
X144.78Y-99.06
X144.78Y-101.6
X144.78Y-104.14
X144.78Y-106.68
X144.78Y-109.22
X144.78Y-111.76
X144.78Y-114.3
X144.78Y-116.84
X144.78Y-119.38
X144.78Y-121.92
X147.32Y-78.74
X147.32Y-81.28
X147.32Y-83.82
X147.32Y-86.36
X147.32Y-88.9
X147.32Y-91.44
X147.32Y-93.98
X147.32Y-96.52
X147.32Y-99.06
X147.32Y-101.6
X147.32Y-104.14
X147.32Y-106.68
X147.32Y-109.22
X147.32Y-111.76
X147.32Y-114.3
X147.32Y-116.84
X147.32Y-119.38
X147.32Y-121.92
X152.4Y-121.92
X153.67Y-78.74
X153.67Y-81.28
X154.94Y-121.92
X156.21Y-78.74
X156.21Y-81.28
X157.48Y-121.92
X162.56Y-78.7
X162.56Y-81.24
X163.83Y-119.38
X163.83Y-121.92
X165.1Y-78.7
X165.1Y-81.24
X167.64Y-78.7
X167.64Y-81.24
X172.72Y-78.74
X172.72Y-81.28
X172.72Y-83.82
X172.72Y-86.36
X172.72Y-88.9
X172.72Y-91.44
X172.72Y-93.98
X172.72Y-101.6
X172.72Y-104.14
X172.72Y-106.68
X172.72Y-109.22
X172.72Y-111.76
X172.72Y-114.3
X172.72Y-116.84
X172.72Y-119.38
X172.72Y-121.92
X175.26Y-78.74
X175.26Y-81.28
X175.26Y-83.82
X175.26Y-86.36
X175.26Y-88.9
X175.26Y-91.44
X175.26Y-93.98
X175.26Y-96.52
X175.26Y-99.06
X175.26Y-101.6
X175.26Y-104.14
X175.26Y-106.68
X175.26Y-109.22
X175.26Y-111.76
X175.26Y-114.3
X175.26Y-116.84
X175.26Y-119.38
X175.26Y-121.92
T0
M30
